<svg width="50" height="50" viewBox="0 0 50 50" fill="none" xmlns="http://www.w3.org/2000/svg">
<g clip-path="url(#clip0_50_115)">
<path d="M5.51572 6.53431C5.42139 3.1348 7.53203 0 10.385 0H39.6187C42.4716 0 44.5822 3.1348 44.4879 6.53431C44.3973 9.79988 44.5149 14.03 45.3633 17.4792C46.2144 20.939 47.6495 23.1259 50 23.4069V26.5931C47.6495 26.8741 46.2144 29.061 45.3633 32.5208C44.5149 35.97 44.3973 40.2001 44.4879 43.4658C44.5822 46.8652 42.4716 50 39.6187 50H10.385C7.53203 50 5.42139 46.8652 5.51582 43.4658C5.60635 40.2001 5.48867 35.97 4.64023 32.5208C3.78926 29.061 2.35059 26.8741 0 26.5931V23.4069C2.35049 23.1259 3.78926 20.939 4.64023 17.4792C5.48867 14.03 5.60635 9.79988 5.51572 6.53431V6.53431Z" fill="url(#paint0_linear_50_115)"/>
<g filter="url(#filter0_d_50_115)">
<path d="M26.0843 38.2914C30.7031 38.2914 33.4865 35.4534 33.4865 30.7724C33.4865 27.234 31.5005 24.6724 28.5517 24.2669V24.1194C30.7182 23.6772 32.4183 21.1524 32.4183 18.3328C32.4183 14.3153 29.8907 11.6982 26.0392 11.6982H17.3732V38.2914H26.0843ZM20.7433 15.0708H25.2268C27.6641 15.0708 29.0482 16.4345 29.0482 18.904C29.0482 21.5394 27.4384 23.0137 24.5197 23.0137H20.7433V15.0708V15.0708ZM20.7433 34.919V26.1652H25.1966C28.3862 26.1652 30.0411 27.6394 30.0411 30.5144C30.0411 33.3893 28.4314 34.919 25.3922 34.919H20.7433V34.919Z" fill="url(#paint1_linear_50_115)"/>
<path d="M26.0843 38.2914C30.7031 38.2914 33.4865 35.4534 33.4865 30.7724C33.4865 27.234 31.5005 24.6724 28.5517 24.2669V24.1194C30.7182 23.6772 32.4183 21.1524 32.4183 18.3328C32.4183 14.3153 29.8907 11.6982 26.0392 11.6982H17.3732V38.2914H26.0843ZM20.7433 15.0708H25.2268C27.6641 15.0708 29.0482 16.4345 29.0482 18.904C29.0482 21.5394 27.4384 23.0137 24.5197 23.0137H20.7433V15.0708V15.0708ZM20.7433 34.919V26.1652H25.1966C28.3862 26.1652 30.0411 27.6394 30.0411 30.5144C30.0411 33.3893 28.4314 34.919 25.3922 34.919H20.7433V34.919Z" stroke="white"/>
</g>
</g>
<defs>
<filter id="filter0_d_50_115" x="0.873169" y="-0.801758" width="49.1133" height="59.5933" filterUnits="userSpaceOnUse" color-interpolation-filters="sRGB">
<feFlood flood-opacity="0" result="BackgroundImageFix"/>
<feColorMatrix in="SourceAlpha" type="matrix" values="0 0 0 0 0 0 0 0 0 0 0 0 0 0 0 0 0 0 127 0" result="hardAlpha"/>
<feOffset dy="4"/>
<feGaussianBlur stdDeviation="8"/>
<feColorMatrix type="matrix" values="0 0 0 0 0 0 0 0 0 0 0 0 0 0 0 0 0 0 0.15 0"/>
<feBlend mode="normal" in2="BackgroundImageFix" result="effect1_dropShadow_50_115"/>
<feBlend mode="normal" in="SourceGraphic" in2="effect1_dropShadow_50_115" result="shape"/>
</filter>
<linearGradient id="paint0_linear_50_115" x1="7.42959" y1="1.32329" x2="58.2979" y2="33.5005" gradientUnits="userSpaceOnUse">
<stop stop-color="#9013FE"/>
<stop offset="1" stop-color="#6610F2"/>
</linearGradient>
<linearGradient id="paint1_linear_50_115" x1="18.8973" y1="13.4486" x2="32.2837" y2="31.4893" gradientUnits="userSpaceOnUse">
<stop stop-color="white"/>
<stop offset="1" stop-color="#F1E5FC"/>
</linearGradient>
<clipPath id="clip0_50_115">
<rect width="50" height="50" fill="white"/>
</clipPath>
</defs>
</svg>
