<svg width="500" height="370" viewBox="0 0 500 370" fill="none" xmlns="http://www.w3.org/2000/svg">
<path d="M492.95 369.647H7.04998C3.13332 369.647 0 365.062 0 359.33C0 353.598 3.13332 349.012 7.04998 349.012H492.95C496.867 349.012 500 353.598 500 359.33C500 365.062 496.867 369.647 492.95 369.647Z" fill="#C9C9C9"/>
<path d="M98.4647 263.033C90.9447 263.033 84.9131 254.091 84.9131 243.201C84.9131 232.31 91.0231 223.368 98.4647 223.368H175.231V263.148H98.4647V263.033Z" fill="#CECECE"/>
<path d="M179.696 269.911H98.4647C88.3598 269.911 80.2131 257.874 80.2131 243.201C80.2131 228.412 88.4381 216.49 98.4647 216.49H179.696V269.911V269.911Z" fill="white"/>
<path d="M93.4514 237.01H175.231" stroke="#1F3969" stroke-width="4" stroke-miterlimit="10" stroke-linecap="round" stroke-linejoin="round"/>
<path d="M93.4514 249.162H175.231" stroke="#1F3969" stroke-width="4" stroke-miterlimit="10" stroke-linecap="round" stroke-linejoin="round"/>
<path d="M98.4647 263.033C90.9447 263.033 84.9131 254.091 84.9131 243.201C84.9131 232.31 91.0231 223.368 98.4647 223.368H175.231V263.148H98.4647V263.033Z" stroke="#1F3969" stroke-width="4" stroke-miterlimit="10" stroke-linecap="round" stroke-linejoin="round"/>
<path d="M98.4647 263.033C90.9448 263.033 84.9131 254.091 84.9131 243.201C84.9131 232.31 91.0231 223.368 98.4647 223.368H176.563L179.696 216.49H98.4647C88.3598 216.49 80.2131 228.527 80.2131 243.201C80.2131 257.989 88.4381 269.911 98.4647 269.911H179.696L176.563 263.033H98.4647Z" fill="#FF3E3E"/>
<path d="M98.4647 263.033C90.9448 263.033 84.9131 254.091 84.9131 243.201C84.9131 232.31 91.0231 223.368 98.4647 223.368H176.563L179.696 216.49H98.4647C88.3598 216.49 80.2131 228.527 80.2131 243.201C80.2131 257.989 88.4381 269.911 98.4647 269.911H179.696L176.563 263.033H98.4647Z" stroke="#1F3969" stroke-width="4" stroke-miterlimit="10" stroke-linecap="round" stroke-linejoin="round"/>
<path opacity="0.28" d="M162.228 216.375H147.815V269.911H162.228V216.375Z" fill="#1F3969" stroke="#1F3969" stroke-width="4" stroke-miterlimit="10" stroke-linecap="round" stroke-linejoin="round"/>
<path d="M171.314 314.047H22.5599C19.6616 314.047 17.2333 310.608 17.2333 306.252V277.592C17.2333 273.35 19.5833 269.796 22.5599 269.796H171.314C174.213 269.796 176.641 273.236 176.641 277.592V306.252C176.641 310.608 174.291 314.047 171.314 314.047Z" fill="#F0BE25"/>
<path d="M171.314 314.047H22.5599C19.6616 314.047 17.2333 310.608 17.2333 306.252V277.592C17.2333 273.35 19.5833 269.796 22.5599 269.796H171.314C174.213 269.796 176.641 273.236 176.641 277.592V306.252C176.641 310.608 174.291 314.047 171.314 314.047Z" stroke="#1F3969" stroke-width="4" stroke-miterlimit="10" stroke-linecap="round" stroke-linejoin="round"/>
<path opacity="0.28" d="M171.314 269.911H147.815V287.107C147.815 297.883 153.768 306.71 161.21 306.71H176.641C176.641 306.596 176.641 306.481 176.641 306.366V277.707C176.641 273.35 174.291 269.911 171.314 269.911Z" fill="#1F3969" stroke="#1F3969" stroke-width="4" stroke-miterlimit="10" stroke-linecap="round" stroke-linejoin="round"/>
<path d="M213.223 322.989H40.8899C41.9082 326.657 42.4566 331.243 42.4566 336.058C42.4566 340.872 41.9082 345.343 40.8899 349.127H213.144C212.126 345.458 211.578 340.872 211.578 336.058C211.656 331.128 212.204 326.657 213.223 322.989Z" fill="#CECECE"/>
<g filter="url(#filter0_d_12_2944)">
<path d="M217.923 315.996H36.2682V322.874H217.923V315.996Z" fill="#2965F1"/>
</g>
<path d="M217.923 315.996H36.2682V322.874H217.923V315.996Z" stroke="#1F3969" stroke-width="4" stroke-miterlimit="10" stroke-linecap="round" stroke-linejoin="round"/>
<path d="M217.923 349.012H36.2682V355.891H217.923V349.012Z" fill="#F6F9FD"/>
<path d="M217.923 349.012H36.2682V355.891H217.923V349.012Z" fill="#2965F1"/>
<path d="M217.923 349.012H36.2682V355.891H217.923V349.012Z" stroke="#1F3969" stroke-width="4" stroke-miterlimit="10" stroke-linecap="round" stroke-linejoin="round"/>
<path d="M308.162 331.472L305.812 292.839H267.116L264.766 331.472C264.217 340.414 260.536 349.012 254.739 355.89V356.005H318.189V355.89C312.392 349.012 308.711 340.414 308.162 331.472Z" fill="#BFCFE2"/>
<path opacity="0.28" d="M267.116 292.839L265.706 315.996H307.222L305.812 292.839H267.116Z" fill="#1F3969" stroke="#1F3969" stroke-width="4" stroke-miterlimit="10" stroke-linecap="round" stroke-linejoin="round"/>
<path d="M308.162 331.472L305.812 292.839H267.116L264.766 331.472C264.217 340.414 260.536 349.012 254.739 355.89V356.005H318.189V355.89C312.392 349.012 308.711 340.414 308.162 331.472Z" stroke="#1F3969" stroke-width="4" stroke-miterlimit="10" stroke-linecap="round" stroke-linejoin="round"/>
<path d="M410.23 298.571H162.698C157.528 298.571 153.298 292.38 153.298 284.814V48.658C153.298 41.0919 157.528 34.9014 162.698 34.9014H410.23C415.4 34.9014 419.63 41.0919 419.63 48.658V284.814C419.63 292.495 415.4 298.571 410.23 298.571Z" fill="white"/>
<path d="M410.23 298.571H162.698C157.528 298.571 153.298 292.38 153.298 284.814V48.658C153.298 41.0919 157.528 34.9014 162.698 34.9014H410.23C415.4 34.9014 419.63 41.0919 419.63 48.658V284.814C419.63 292.495 415.4 298.571 410.23 298.571Z" fill="#BFCFE2"/>
<path d="M410.23 298.571H162.698C157.528 298.571 153.298 292.38 153.298 284.814V48.658C153.298 41.0919 157.528 34.9014 162.698 34.9014H410.23C415.4 34.9014 419.63 41.0919 419.63 48.658V284.814C419.63 292.495 415.4 298.571 410.23 298.571Z" stroke="#1F3969" stroke-width="4" stroke-miterlimit="10" stroke-linecap="round" stroke-linejoin="round"/>
<path d="M406.357 254.582V54.4224L166.658 54.4224L166.658 254.582L406.357 254.582Z" fill="#F6F9FD"/>
<path opacity="0.28" d="M175.231 34.9014V193.791C175.231 198.835 178.051 202.962 181.498 202.962H329.626C333.072 202.962 335.892 198.835 335.892 193.791V34.9014H175.231Z" fill="#1F3969" stroke="#1F3969" stroke-width="4" stroke-miterlimit="10" stroke-linecap="round" stroke-linejoin="round"/>
<path d="M406.357 254.582V54.4224L166.658 54.4224L166.658 254.582L406.357 254.582Z" stroke="#1F3969" stroke-width="4" stroke-miterlimit="10" stroke-linecap="round" stroke-linejoin="round"/>
<path d="M275.967 276.446H297.039" stroke="#1F3969" stroke-width="4" stroke-miterlimit="10" stroke-linecap="round" stroke-linejoin="round"/>
<path d="M336.676 190.352H188.548C185.101 190.352 182.281 186.225 182.281 181.181V11.2859C182.281 6.24175 185.101 2.11475 188.548 2.11475H336.676C340.122 2.11475 342.942 6.24175 342.942 11.2859V181.295C342.942 186.34 340.122 190.352 336.676 190.352Z" fill="#2D425E"/>
<path d="M342.942 24.3546H182.281V11.1711C182.281 6.127 185.101 2 188.548 2H336.676C340.122 2 342.942 6.127 342.942 11.1711V24.3546Z" stroke="#1F3969" stroke-width="4" stroke-miterlimit="10" stroke-linecap="round" stroke-linejoin="round"/>
<path d="M342.942 28.7109H182.281V11.1711C182.281 6.127 185.101 2 188.548 2H336.676C340.122 2 342.942 6.127 342.942 11.1711V28.7109Z" fill="#D0DDF0"/>
<path d="M342.942 28.7109H182.281V11.1711C182.281 6.127 185.101 2 188.548 2H336.676C340.122 2 342.942 6.127 342.942 11.1711V28.7109Z" stroke="#1F3969" stroke-width="4" stroke-miterlimit="10" stroke-linecap="round" stroke-linejoin="round"/>
<path d="M342.942 28.7109H182.281V11.1711C182.281 6.127 185.101 2 188.548 2H336.676C340.122 2 342.942 6.127 342.942 11.1711V28.7109Z" stroke="#1F3969" stroke-width="4" stroke-miterlimit="10" stroke-linecap="round" stroke-linejoin="round"/>
<path d="M336.676 190.352H188.548C185.101 190.352 182.281 186.225 182.281 181.181V11.2859C182.281 6.24175 185.101 2.11475 188.548 2.11475H336.676C340.122 2.11475 342.942 6.24175 342.942 11.2859V181.295C342.942 186.34 340.122 190.352 336.676 190.352Z" stroke="#1F3969" stroke-width="4" stroke-miterlimit="10" stroke-linecap="round" stroke-linejoin="round"/>
<path opacity="0.28" d="M413.99 230.934H323.124C319.677 230.934 316.857 226.807 316.857 221.763V80.8718C316.857 75.8277 319.677 71.7007 323.124 71.7007H413.99C417.437 71.7007 420.257 75.8277 420.257 80.8718V221.763C420.257 226.922 417.437 230.934 413.99 230.934Z" fill="#1F3969" stroke="#1F3969" stroke-width="4" stroke-miterlimit="10" stroke-linecap="round" stroke-linejoin="round"/>
<path d="M420.257 222.909H329.391C325.944 222.909 323.124 218.782 323.124 213.738V72.8469C323.124 67.8028 325.944 63.6758 329.391 63.6758H420.257C423.704 63.6758 426.524 67.8028 426.524 72.8469V213.738C426.524 218.897 423.704 222.909 420.257 222.909Z" fill="#2AA1FF"/>
<path d="M420.257 222.909H329.391C325.944 222.909 323.124 218.782 323.124 213.738V72.8469C323.124 67.8028 325.944 63.6758 329.391 63.6758H420.257C423.704 63.6758 426.524 67.8028 426.524 72.8469V213.738C426.524 218.897 423.704 222.909 420.257 222.909Z" stroke="#1F3969" stroke-width="4" stroke-miterlimit="10" stroke-linecap="round" stroke-linejoin="round"/>
<path opacity="0.34" d="M406.705 107.353H342.785C340.514 107.353 338.712 104.716 338.712 101.392V92.45C338.712 89.1255 340.514 86.4888 342.785 86.4888H406.705C408.977 86.4888 410.779 89.1255 410.779 92.45V101.392C410.779 104.716 408.977 107.353 406.705 107.353Z" stroke="white" stroke-width="2" stroke-miterlimit="10" stroke-linecap="round" stroke-linejoin="round"/>
<g opacity="0.34">
<path opacity="0.34" d="M378.662 140.942H342.942C340.671 140.942 338.869 138.306 338.869 134.981V126.039C338.869 122.715 340.671 120.078 342.942 120.078H378.662C380.934 120.078 382.735 122.715 382.735 126.039V134.981C382.657 138.306 380.855 140.942 378.662 140.942Z" stroke="white" stroke-width="2" stroke-miterlimit="10" stroke-linecap="round" stroke-linejoin="round"/>
<path opacity="0.34" d="M406.784 140.942H392.919C390.647 140.942 388.845 138.306 388.845 134.981V126.039C388.845 122.715 390.647 120.078 392.919 120.078H406.784C409.055 120.078 410.857 122.715 410.857 126.039V134.981C410.857 138.306 409.055 140.942 406.784 140.942Z" stroke="white" stroke-width="2" stroke-miterlimit="10" stroke-linecap="round" stroke-linejoin="round"/>
</g>
<path d="M338.791 175.792H410.779" stroke="white" stroke-width="2" stroke-miterlimit="10" stroke-linecap="round" stroke-linejoin="round"/>
<path d="M338.791 188.173H410.779" stroke="white" stroke-width="2" stroke-miterlimit="10" stroke-linecap="round" stroke-linejoin="round"/>
<path d="M338.791 200.555H382.657" stroke="white" stroke-width="2" stroke-miterlimit="10" stroke-linecap="round" stroke-linejoin="round"/>
<path d="M198.026 19.9983C199.757 19.9983 201.159 17.9452 201.159 15.4127C201.159 12.8802 199.757 10.8271 198.026 10.8271C196.296 10.8271 194.893 12.8802 194.893 15.4127C194.893 17.9452 196.296 19.9983 198.026 19.9983Z" fill="#1F3969"/>
<path d="M208.914 19.9983C210.645 19.9983 212.048 17.9452 212.048 15.4127C212.048 12.8802 210.645 10.8271 208.914 10.8271C207.184 10.8271 205.781 12.8802 205.781 15.4127C205.781 17.9452 207.184 19.9983 208.914 19.9983Z" fill="#1F3969"/>
<path d="M219.803 19.9983C221.533 19.9983 222.936 17.9452 222.936 15.4127C222.936 12.8802 221.533 10.8271 219.803 10.8271C218.072 10.8271 216.669 12.8802 216.669 15.4127C216.669 17.9452 218.072 19.9983 219.803 19.9983Z" fill="#1F3969"/>
<path d="M274.557 49.9189H284.741" stroke="white" stroke-width="4" stroke-miterlimit="10" stroke-linecap="round" stroke-linejoin="round"/>
<path d="M222.936 49.9189H267.037" stroke="#2965F1" stroke-width="4" stroke-miterlimit="10" stroke-linecap="round" stroke-linejoin="round"/>
<path d="M201.159 49.9189H216.669" stroke="#FF5757" stroke-width="4" stroke-miterlimit="10" stroke-linecap="round" stroke-linejoin="round"/>
<path d="M221.369 162.838H255.052" stroke="#FF5757" stroke-width="4" stroke-miterlimit="10" stroke-linecap="round" stroke-linejoin="round"/>
<path d="M201.159 162.838H212.048" stroke="#2965F1" stroke-width="4" stroke-miterlimit="10" stroke-linecap="round" stroke-linejoin="round"/>
<path d="M267.037 64.0195H273.382" stroke="white" stroke-width="4" stroke-miterlimit="10" stroke-linecap="round" stroke-linejoin="round"/>
<path d="M238.211 64.0195H259.518" stroke="#2965F1" stroke-width="4" stroke-miterlimit="10" stroke-linecap="round" stroke-linejoin="round"/>
<path d="M208.914 64.0195H230.613" stroke="#FFC47D" stroke-width="4" stroke-miterlimit="10" stroke-linecap="round" stroke-linejoin="round"/>
<path d="M242.519 78.1201H261.241" stroke="#FFC47D" stroke-width="4" stroke-miterlimit="10" stroke-linecap="round" stroke-linejoin="round"/>
<path d="M219.019 78.1201H236.644" stroke="#FF5757" stroke-width="4" stroke-miterlimit="10" stroke-linecap="round" stroke-linejoin="round"/>
<path d="M245.026 92.2207H248.864" stroke="white" stroke-width="4" stroke-miterlimit="10" stroke-linecap="round" stroke-linejoin="round"/>
<path d="M229.516 92.2207H238.211" stroke="#FF5757" stroke-width="4" stroke-miterlimit="10" stroke-linecap="round" stroke-linejoin="round"/>
<path d="M208.914 92.2207H222.936" stroke="#FFC47D" stroke-width="4" stroke-miterlimit="10" stroke-linecap="round" stroke-linejoin="round"/>
<path d="M238.994 106.436H263.982" stroke="#FFC47D" stroke-width="4" stroke-miterlimit="10" stroke-linecap="round" stroke-linejoin="round"/>
<path d="M208.914 106.436H231.318" stroke="#FF5757" stroke-width="4" stroke-miterlimit="10" stroke-linecap="round" stroke-linejoin="round"/>
<path d="M267.899 120.537H281.451" stroke="#2965F1" stroke-width="4" stroke-miterlimit="10" stroke-linecap="round" stroke-linejoin="round"/>
<path d="M238.994 120.537H260.693" stroke="#FF5757" stroke-width="4" stroke-miterlimit="10" stroke-linecap="round" stroke-linejoin="round"/>
<path d="M219.019 120.537H231.318" stroke="#FFC47D" stroke-width="4" stroke-miterlimit="10" stroke-linecap="round" stroke-linejoin="round"/>
<path d="M248.864 134.637H260.692" stroke="white" stroke-width="4" stroke-miterlimit="10" stroke-linecap="round" stroke-linejoin="round"/>
<path d="M219.019 134.637H240.718" stroke="#2965F1" stroke-width="4" stroke-miterlimit="10" stroke-linecap="round" stroke-linejoin="round"/>
<path d="M279.649 148.738H293.201" stroke="white" stroke-width="4" stroke-miterlimit="10" stroke-linecap="round" stroke-linejoin="round"/>
<path d="M238.211 148.738H272.286" stroke="#FFC47D" stroke-width="4" stroke-miterlimit="10" stroke-linecap="round" stroke-linejoin="round"/>
<path d="M208.914 148.738H230.613" stroke="white" stroke-width="4" stroke-miterlimit="10" stroke-linecap="round" stroke-linejoin="round"/>
<path d="M42.8481 330.899H211.656" stroke="#1F3969" stroke-width="4" stroke-miterlimit="10" stroke-linecap="round" stroke-linejoin="round"/>
<path d="M42.8481 340.07H211.656" stroke="#1F3969" stroke-width="4" stroke-miterlimit="10" stroke-linecap="round" stroke-linejoin="round"/>
<path d="M213.223 322.989H40.8899C41.9082 326.657 42.4566 331.243 42.4566 336.058C42.4566 340.872 41.9082 345.343 40.8899 349.127H213.144C212.126 345.458 211.578 340.872 211.578 336.058C211.656 331.128 212.204 326.657 213.223 322.989Z" stroke="#1F3969" stroke-width="4" stroke-miterlimit="10" stroke-linecap="round" stroke-linejoin="round"/>
<path d="M445.049 229.525L437.424 230.835L444.055 313.497L451.68 312.187L445.049 229.525Z" fill="#FFA364"/>
<path d="M445.059 229.613L437.435 230.923L438.111 239.348L445.735 238.038L445.059 229.613Z" fill="#2AA1FF"/>
<path d="M445.059 229.613L437.435 230.923L438.111 239.348L445.735 238.038L445.059 229.613Z" stroke="#1F3969" stroke-width="4" stroke-miterlimit="10" stroke-linecap="round" stroke-linejoin="round"/>
<path d="M445.049 229.525L437.424 230.835L444.055 313.497L451.68 312.187L445.049 229.525Z" stroke="#1F3969" stroke-width="4" stroke-miterlimit="10" stroke-linecap="round" stroke-linejoin="round"/>
<path d="M465.955 246.457L458.324 245.243L452.176 327.98L459.808 329.194L465.955 246.457Z" fill="#FF5252"/>
<path d="M465.955 246.457L458.324 245.243L452.176 327.98L459.808 329.194L465.955 246.457Z" stroke="#1F3969" stroke-width="4" stroke-miterlimit="10" stroke-linecap="round" stroke-linejoin="round"/>
<path d="M466.012 246.477L458.381 245.262L457.754 253.695L465.385 254.91L466.012 246.477Z" fill="#2D425E"/>
<path d="M466.012 246.477L458.381 245.262L457.754 253.695L465.385 254.91L466.012 246.477Z" stroke="#1F3969" stroke-width="4" stroke-miterlimit="10" stroke-linecap="round" stroke-linejoin="round"/>
<path d="M470.703 356.235H439.919L434.905 287.222H475.717L470.703 356.235Z" fill="#6567C3"/>
<path d="M434.905 287.222L434.984 288.483H466.082L461.147 356.235H470.703L475.717 287.222H434.905Z" fill="#6567C3"/>
<path d="M470.703 356.235H439.919L434.905 287.222H475.717L470.703 356.235Z" stroke="#1F3969" stroke-width="4" stroke-miterlimit="10" stroke-linecap="round" stroke-linejoin="round"/>
<defs>
<filter id="filter0_d_12_2944" x="32.2682" y="315.996" width="189.654" height="14.8784" filterUnits="userSpaceOnUse" color-interpolation-filters="sRGB">
<feFlood flood-opacity="0" result="BackgroundImageFix"/>
<feColorMatrix in="SourceAlpha" type="matrix" values="0 0 0 0 0 0 0 0 0 0 0 0 0 0 0 0 0 0 127 0" result="hardAlpha"/>
<feOffset dy="4"/>
<feGaussianBlur stdDeviation="2"/>
<feComposite in2="hardAlpha" operator="out"/>
<feColorMatrix type="matrix" values="0 0 0 0 0 0 0 0 0 0 0 0 0 0 0 0 0 0 0.25 0"/>
<feBlend mode="normal" in2="BackgroundImageFix" result="effect1_dropShadow_12_2944"/>
<feBlend mode="normal" in="SourceGraphic" in2="effect1_dropShadow_12_2944" result="shape"/>
</filter>
</defs>
</svg>
