<svg width="330" height="252" viewBox="0 0 330 252" fill="none" xmlns="http://www.w3.org/2000/svg">
<path d="M325.347 252H4.65298C2.06799 252 0 248.882 0 244.984C0 241.086 2.06799 237.968 4.65298 237.968H325.347C327.932 237.968 330 241.086 330 244.984C330 248.882 327.932 252 325.347 252Z" fill="#C9C9C9"/>
<path d="M64.9866 179.503C60.0235 179.503 56.0425 173.422 56.0425 166.016C56.0425 158.611 60.0751 152.53 64.9866 152.53H115.652V179.58H64.9866V179.503Z" fill="#CECECE"/>
<path d="M118.599 184.18H64.9867C58.3174 184.18 52.9406 175.995 52.9406 166.016C52.9406 155.96 58.3691 147.853 64.9867 147.853H118.599V184.18Z" fill="white"/>
<path d="M61.678 161.807H115.652" stroke="#1F3969" stroke-width="4" stroke-miterlimit="10" stroke-linecap="round" stroke-linejoin="round"/>
<path d="M61.678 170.07H115.652" stroke="#1F3969" stroke-width="4" stroke-miterlimit="10" stroke-linecap="round" stroke-linejoin="round"/>
<path d="M64.9866 179.503C60.0235 179.503 56.0425 173.422 56.0425 166.016C56.0425 158.611 60.0751 152.53 64.9866 152.53H115.652V179.58H64.9866V179.503Z" stroke="#1F3969" stroke-width="4" stroke-miterlimit="10" stroke-linecap="round" stroke-linejoin="round"/>
<path d="M64.9867 179.503C60.0235 179.503 56.0426 173.422 56.0426 166.016C56.0426 158.611 60.0752 152.53 64.9867 152.53H116.532L118.599 147.853H64.9867C58.3174 147.853 52.9406 156.038 52.9406 166.016C52.9406 176.073 58.3691 184.18 64.9867 184.18H118.599L116.532 179.503H64.9867Z" fill="#FF3E3E"/>
<path d="M64.9867 179.503C60.0235 179.503 56.0426 173.422 56.0426 166.016C56.0426 158.611 60.0752 152.53 64.9867 152.53H116.532L118.599 147.853H64.9867C58.3174 147.853 52.9406 156.038 52.9406 166.016C52.9406 176.073 58.3691 184.18 64.9867 184.18H118.599L116.532 179.503H64.9867Z" stroke="#1F3969" stroke-width="4" stroke-miterlimit="10" stroke-linecap="round" stroke-linejoin="round"/>
<path opacity="0.28" d="M107.07 147.775H97.5577V184.18H107.07V147.775Z" fill="#1F3969" stroke="#1F3969" stroke-width="4" stroke-miterlimit="10" stroke-linecap="round" stroke-linejoin="round"/>
<path d="M113.068 214.192H14.8896C12.9767 214.192 11.3739 211.853 11.3739 208.891V189.402C11.3739 186.518 12.9249 184.102 14.8896 184.102H113.068C114.981 184.102 116.583 186.44 116.583 189.402V208.891C116.583 211.853 115.032 214.192 113.068 214.192Z" fill="#F0BE25"/>
<path d="M113.068 214.192H14.8896C12.9767 214.192 11.3739 211.853 11.3739 208.891V189.402C11.3739 186.518 12.9249 184.102 14.8896 184.102H113.068C114.981 184.102 116.583 186.44 116.583 189.402V208.891C116.583 211.853 115.032 214.192 113.068 214.192Z" stroke="#1F3969" stroke-width="4" stroke-miterlimit="10" stroke-linecap="round" stroke-linejoin="round"/>
<path opacity="0.28" d="M113.068 184.18H97.5577V195.873C97.5577 203.201 101.487 209.203 106.398 209.203H116.583C116.583 209.125 116.583 209.047 116.583 208.969V189.481C116.583 186.518 115.032 184.18 113.068 184.18Z" fill="#1F3969" stroke="#1F3969" stroke-width="4" stroke-miterlimit="10" stroke-linecap="round" stroke-linejoin="round"/>
<path d="M140.727 220.272H26.9874C27.6594 222.767 28.0214 225.885 28.0214 229.159C28.0214 232.433 27.6594 235.474 26.9874 238.046H140.675C140.003 235.552 139.641 232.433 139.641 229.159C139.693 225.807 140.055 222.767 140.727 220.272Z" fill="#CECECE"/>
<g filter="url(#filter0_i_0_3)">
<path d="M143.829 215.517H23.937V220.194H143.829V215.517Z" fill="#2965F1"/>
</g>
<path d="M143.829 215.517H23.937V220.194H143.829V215.517Z" stroke="#1F3969" stroke-width="4" stroke-miterlimit="10" stroke-linecap="round" stroke-linejoin="round"/>
<path d="M143.829 237.968H23.937V242.646H143.829V237.968Z" fill="#F6F9FD"/>
<path d="M143.829 237.968H23.937V242.646H143.829V237.968Z" fill="#2965F1"/>
<path d="M143.829 237.968H23.937V242.646H143.829V237.968Z" stroke="#1F3969" stroke-width="4" stroke-miterlimit="10" stroke-linecap="round" stroke-linejoin="round"/>
<path d="M203.387 226.041L201.836 199.771H176.297L174.746 226.041C174.384 232.122 171.953 237.968 168.128 242.645V242.723H210.005V242.645C206.179 237.968 203.749 232.122 203.387 226.041Z" fill="#BFCFE2"/>
<path opacity="0.28" d="M176.297 199.771L175.366 215.517H202.767L201.836 199.771H176.297Z" fill="#1F3969" stroke="#1F3969" stroke-width="4" stroke-miterlimit="10" stroke-linecap="round" stroke-linejoin="round"/>
<path d="M203.387 226.041L201.836 199.771H176.297L174.746 226.041C174.384 232.122 171.953 237.968 168.128 242.645V242.723H210.005V242.645C206.179 237.968 203.749 232.122 203.387 226.041Z" stroke="#1F3969" stroke-width="4" stroke-miterlimit="10" stroke-linecap="round" stroke-linejoin="round"/>
<path d="M270.752 203.668H107.381C103.968 203.668 101.177 199.459 101.177 194.314V33.7276C101.177 28.5826 103.968 24.373 107.381 24.373H270.752C274.164 24.373 276.956 28.5826 276.956 33.7276V194.314C276.956 199.537 274.164 203.668 270.752 203.668Z" fill="white"/>
<path d="M270.752 203.668H107.381C103.968 203.668 101.177 199.459 101.177 194.314V33.7276C101.177 28.5826 103.968 24.373 107.381 24.373H270.752C274.164 24.373 276.956 28.5826 276.956 33.7276V194.314C276.956 199.537 274.164 203.668 270.752 203.668Z" fill="#BFCFE2"/>
<path d="M270.752 203.668H107.381C103.968 203.668 101.177 199.459 101.177 194.314V33.7276C101.177 28.5826 103.968 24.373 107.381 24.373H270.752C274.164 24.373 276.956 28.5826 276.956 33.7276V194.314C276.956 199.537 274.164 203.668 270.752 203.668Z" stroke="#1F3969" stroke-width="4" stroke-miterlimit="10" stroke-linecap="round" stroke-linejoin="round"/>
<path d="M268.196 173.755V37.647H109.994V173.755H268.196Z" fill="#F6F9FD"/>
<path opacity="0.28" d="M115.652 24.373V132.418C115.652 135.848 117.514 138.654 119.788 138.654H217.553C219.828 138.654 221.689 135.848 221.689 132.418V24.373H115.652Z" fill="#1F3969" stroke="#1F3969" stroke-width="4" stroke-miterlimit="10" stroke-linecap="round" stroke-linejoin="round"/>
<path d="M268.196 173.755V37.647H109.994V173.755H268.196Z" stroke="#1F3969" stroke-width="4" stroke-miterlimit="10" stroke-linecap="round" stroke-linejoin="round"/>
<path d="M182.139 188.623H196.046" stroke="#1F3969" stroke-width="4" stroke-miterlimit="10" stroke-linecap="round" stroke-linejoin="round"/>
<path d="M222.205 130.079H124.441C122.167 130.079 120.305 127.273 120.305 123.843V8.31448C120.305 4.88449 122.167 2.07812 124.441 2.07812H222.205C224.481 2.07812 226.342 4.88449 226.342 8.31448V123.921C226.342 127.351 224.481 130.079 222.205 130.079Z" fill="#2D425E"/>
<path d="M226.342 17.2011H120.305V8.23636C120.305 4.80636 122.167 2 124.441 2H222.205C224.481 2 226.342 4.80636 226.342 8.23636V17.2011Z" stroke="#1F3969" stroke-width="4" stroke-miterlimit="10" stroke-linecap="round" stroke-linejoin="round"/>
<path d="M226.342 20.1634H120.305V8.23636C120.305 4.80636 122.167 2 124.441 2H222.205C224.481 2 226.342 4.80636 226.342 8.23636V20.1634Z" fill="#D0DDF0"/>
<path d="M226.342 20.1634H120.305V8.23636C120.305 4.80636 122.167 2 124.441 2H222.205C224.481 2 226.342 4.80636 226.342 8.23636V20.1634Z" stroke="#1F3969" stroke-width="4" stroke-miterlimit="10" stroke-linecap="round" stroke-linejoin="round"/>
<path d="M226.342 20.1634H120.305V8.23636C120.305 4.80636 122.167 2 124.441 2H222.205C224.481 2 226.342 4.80636 226.342 8.23636V20.1634Z" stroke="#1F3969" stroke-width="4" stroke-miterlimit="10" stroke-linecap="round" stroke-linejoin="round"/>
<path d="M222.205 130.079H124.441C122.167 130.079 120.305 127.273 120.305 123.843V8.31448C120.305 4.88449 122.167 2.07812 124.441 2.07812H222.205C224.481 2.07812 226.342 4.88449 226.342 8.31448V123.921C226.342 127.351 224.481 130.079 222.205 130.079Z" stroke="#1F3969" stroke-width="4" stroke-miterlimit="10" stroke-linecap="round" stroke-linejoin="round"/>
<path opacity="0.28" d="M273.233 157.675H213.262C210.986 157.675 209.126 154.869 209.126 151.439V55.6328C209.126 52.2028 210.986 49.3965 213.262 49.3965H273.233C275.508 49.3965 277.37 52.2028 277.37 55.6328V151.439C277.37 154.947 275.508 157.675 273.233 157.675Z" fill="#1F3969" stroke="#1F3969" stroke-width="4" stroke-miterlimit="10" stroke-linecap="round" stroke-linejoin="round"/>
<path d="M277.37 152.218H217.398C215.123 152.218 213.262 149.412 213.262 145.982V50.1758C213.262 46.7458 215.123 43.9395 217.398 43.9395H277.37C279.644 43.9395 281.506 46.7458 281.506 50.1758V145.982C281.506 149.49 279.644 152.218 277.37 152.218Z" fill="#2AA1FF"/>
<path d="M277.37 152.218H217.398C215.123 152.218 213.262 149.412 213.262 145.982V50.1758C213.262 46.7458 215.123 43.9395 217.398 43.9395H277.37C279.644 43.9395 281.506 46.7458 281.506 50.1758V145.982C281.506 149.49 279.644 152.218 277.37 152.218Z" stroke="#1F3969" stroke-width="4" stroke-miterlimit="10" stroke-linecap="round" stroke-linejoin="round"/>
<path opacity="0.34" d="M268.426 73.6399H226.238C224.739 73.6399 223.55 71.8469 223.55 69.5862V63.5058C223.55 61.2451 224.739 59.4521 226.238 59.4521H268.426C269.924 59.4521 271.113 61.2451 271.113 63.5058V69.5862C271.113 71.8469 269.924 73.6399 268.426 73.6399Z" stroke="white" stroke-width="2" stroke-miterlimit="10" stroke-linecap="round" stroke-linejoin="round"/>
<g opacity="0.34">
<path opacity="0.34" d="M249.917 96.4807H226.342C224.843 96.4807 223.654 94.6877 223.654 92.427V86.3466C223.654 84.0859 224.843 82.293 226.342 82.293H249.917C251.416 82.293 252.605 84.0859 252.605 86.3466V92.427C252.554 94.6877 251.365 96.4807 249.917 96.4807Z" stroke="white" stroke-width="2" stroke-miterlimit="10" stroke-linecap="round" stroke-linejoin="round"/>
<path opacity="0.34" d="M268.477 96.4807H259.327C257.827 96.4807 256.638 94.6877 256.638 92.427V86.3466C256.638 84.0859 257.827 82.293 259.327 82.293H268.477C269.976 82.293 271.166 84.0859 271.166 86.3466V92.427C271.166 94.6877 269.976 96.4807 268.477 96.4807Z" stroke="white" stroke-width="2" stroke-miterlimit="10" stroke-linecap="round" stroke-linejoin="round"/>
</g>
<path d="M223.601 120.179H271.113" stroke="white" stroke-width="2" stroke-miterlimit="10" stroke-linecap="round" stroke-linejoin="round"/>
<path d="M223.601 128.598H271.113" stroke="white" stroke-width="2" stroke-miterlimit="10" stroke-linecap="round" stroke-linejoin="round"/>
<path d="M223.601 137.017H252.554" stroke="white" stroke-width="2" stroke-miterlimit="10" stroke-linecap="round" stroke-linejoin="round"/>
<path d="M130.697 14.2388C131.839 14.2388 132.765 12.8427 132.765 11.1206C132.765 9.3985 131.839 8.00244 130.697 8.00244C129.555 8.00244 128.629 9.3985 128.629 11.1206C128.629 12.8427 129.555 14.2388 130.697 14.2388Z" fill="#1F3969"/>
<path d="M137.884 14.2388C139.026 14.2388 139.951 12.8427 139.951 11.1206C139.951 9.3985 139.026 8.00244 137.884 8.00244C136.741 8.00244 135.815 9.3985 135.815 11.1206C135.815 12.8427 136.741 14.2388 137.884 14.2388Z" fill="#1F3969"/>
<path d="M145.07 14.2388C146.211 14.2388 147.137 12.8427 147.137 11.1206C147.137 9.3985 146.211 8.00244 145.07 8.00244C143.928 8.00244 143.002 9.3985 143.002 11.1206C143.002 12.8427 143.928 14.2388 145.07 14.2388Z" fill="#1F3969"/>
<path d="M181.208 34.585H187.929" stroke="white" stroke-width="4" stroke-miterlimit="10" stroke-linecap="round" stroke-linejoin="round"/>
<path d="M147.137 34.585H176.244" stroke="#2965F1" stroke-width="4" stroke-miterlimit="10" stroke-linecap="round" stroke-linejoin="round"/>
<path d="M132.765 34.585H143.002" stroke="#FF5757" stroke-width="4" stroke-miterlimit="10" stroke-linecap="round" stroke-linejoin="round"/>
<path d="M146.104 111.37H168.335" stroke="#FF5757" stroke-width="4" stroke-miterlimit="10" stroke-linecap="round" stroke-linejoin="round"/>
<path d="M132.765 111.37H139.951" stroke="#2965F1" stroke-width="4" stroke-miterlimit="10" stroke-linecap="round" stroke-linejoin="round"/>
<path d="M176.244 44.1733H180.432" stroke="white" stroke-width="4" stroke-miterlimit="10" stroke-linecap="round" stroke-linejoin="round"/>
<path d="M157.219 44.1733H171.282" stroke="#2965F1" stroke-width="4" stroke-miterlimit="10" stroke-linecap="round" stroke-linejoin="round"/>
<path d="M137.884 44.1733H152.205" stroke="#FFC47D" stroke-width="4" stroke-miterlimit="10" stroke-linecap="round" stroke-linejoin="round"/>
<path d="M160.063 53.7617H172.419" stroke="#FFC47D" stroke-width="4" stroke-miterlimit="10" stroke-linecap="round" stroke-linejoin="round"/>
<path d="M144.553 53.7617H156.185" stroke="#FF5757" stroke-width="4" stroke-miterlimit="10" stroke-linecap="round" stroke-linejoin="round"/>
<path d="M161.717 63.3501H164.251" stroke="white" stroke-width="4" stroke-miterlimit="10" stroke-linecap="round" stroke-linejoin="round"/>
<path d="M151.481 63.3501H157.219" stroke="#FF5757" stroke-width="4" stroke-miterlimit="10" stroke-linecap="round" stroke-linejoin="round"/>
<path d="M137.884 63.3501H147.137" stroke="#FFC47D" stroke-width="4" stroke-miterlimit="10" stroke-linecap="round" stroke-linejoin="round"/>
<path d="M157.736 73.0166H174.228" stroke="#FFC47D" stroke-width="4" stroke-miterlimit="10" stroke-linecap="round" stroke-linejoin="round"/>
<path d="M137.884 73.0166H152.67" stroke="#FF5757" stroke-width="4" stroke-miterlimit="10" stroke-linecap="round" stroke-linejoin="round"/>
<path d="M176.813 82.605H185.757" stroke="#2965F1" stroke-width="4" stroke-miterlimit="10" stroke-linecap="round" stroke-linejoin="round"/>
<path d="M157.736 82.605H172.057" stroke="#FF5757" stroke-width="4" stroke-miterlimit="10" stroke-linecap="round" stroke-linejoin="round"/>
<path d="M144.553 82.605H152.67" stroke="#FFC47D" stroke-width="4" stroke-miterlimit="10" stroke-linecap="round" stroke-linejoin="round"/>
<path d="M164.251 92.1934H172.057" stroke="white" stroke-width="4" stroke-miterlimit="10" stroke-linecap="round" stroke-linejoin="round"/>
<path d="M144.553 92.1934H158.874" stroke="#2965F1" stroke-width="4" stroke-miterlimit="10" stroke-linecap="round" stroke-linejoin="round"/>
<path d="M184.568 101.782H193.512" stroke="white" stroke-width="4" stroke-miterlimit="10" stroke-linecap="round" stroke-linejoin="round"/>
<path d="M157.219 101.782H179.708" stroke="#FFC47D" stroke-width="4" stroke-miterlimit="10" stroke-linecap="round" stroke-linejoin="round"/>
<path d="M137.884 101.782H152.205" stroke="white" stroke-width="4" stroke-miterlimit="10" stroke-linecap="round" stroke-linejoin="round"/>
<path d="M28.2797 225.651H139.693" stroke="#1F3969" stroke-width="4" stroke-miterlimit="10" stroke-linecap="round" stroke-linejoin="round"/>
<path d="M28.2797 231.888H139.693" stroke="#1F3969" stroke-width="4" stroke-miterlimit="10" stroke-linecap="round" stroke-linejoin="round"/>
<path d="M140.727 220.272H26.9874C27.6594 222.767 28.0214 225.885 28.0214 229.159C28.0214 232.433 27.6594 235.474 26.9874 238.046H140.675C140.003 235.552 139.641 232.433 139.641 229.159C139.693 225.807 140.055 222.767 140.727 220.272Z" stroke="#1F3969" stroke-width="4" stroke-miterlimit="10" stroke-linecap="round" stroke-linejoin="round"/>
<path d="M293.732 156.717L288.701 157.608L293.077 213.818L298.108 212.927L293.732 156.717Z" fill="#FFA364"/>
<path d="M293.739 156.777L288.707 157.667L289.153 163.397L294.185 162.506L293.739 156.777Z" fill="#2AA1FF"/>
<path d="M293.739 156.777L288.707 157.667L289.153 163.397L294.185 162.506L293.739 156.777Z" stroke="#1F3969" stroke-width="4" stroke-miterlimit="10" stroke-linecap="round" stroke-linejoin="round"/>
<path d="M293.732 156.717L288.701 157.608L293.077 213.818L298.108 212.927L293.732 156.717Z" stroke="#1F3969" stroke-width="4" stroke-miterlimit="10" stroke-linecap="round" stroke-linejoin="round"/>
<path d="M307.531 168.231L302.495 167.405L298.436 223.666L303.473 224.492L307.531 168.231Z" fill="#FF5252"/>
<path d="M307.531 168.231L302.495 167.405L298.436 223.666L303.473 224.492L307.531 168.231Z" stroke="#1F3969" stroke-width="4" stroke-miterlimit="10" stroke-linecap="round" stroke-linejoin="round"/>
<path d="M307.568 168.244L302.531 167.418L302.118 173.153L307.154 173.979L307.568 168.244Z" fill="#2D425E"/>
<path d="M307.568 168.244L302.531 167.418L302.118 173.153L307.154 173.979L307.568 168.244Z" stroke="#1F3969" stroke-width="4" stroke-miterlimit="10" stroke-linecap="round" stroke-linejoin="round"/>
<path d="M310.664 242.88H290.347L287.038 195.951H313.973L310.664 242.88Z" fill="#6567C3"/>
<path d="M287.038 195.951L287.089 196.809H307.614L304.357 242.88H310.664L313.973 195.951H287.038Z" fill="#6567C3"/>
<path d="M310.664 242.88H290.347L287.038 195.951H313.973L310.664 242.88Z" stroke="#1F3969" stroke-width="4" stroke-miterlimit="10" stroke-linecap="round" stroke-linejoin="round"/>
<defs>
<filter id="filter0_i_0_3" x="23.937" y="215.517" width="119.892" height="8.677" filterUnits="userSpaceOnUse" color-interpolation-filters="sRGB">
<feFlood flood-opacity="0" result="BackgroundImageFix"/>
<feBlend mode="normal" in="SourceGraphic" in2="BackgroundImageFix" result="shape"/>
<feColorMatrix in="SourceAlpha" type="matrix" values="0 0 0 0 0 0 0 0 0 0 0 0 0 0 0 0 0 0 127 0" result="hardAlpha"/>
<feOffset dy="4"/>
<feGaussianBlur stdDeviation="2"/>
<feComposite in2="hardAlpha" operator="arithmetic" k2="-1" k3="1"/>
<feColorMatrix type="matrix" values="0 0 0 0 0 0 0 0 0 0 0 0 0 0 0 0 0 0 0.25 0"/>
<feBlend mode="normal" in2="shape" result="effect1_innerShadow_0_3"/>
</filter>
</defs>
</svg>
