<svg width="50" height="50" viewBox="0 0 50 50" fill="none" xmlns="http://www.w3.org/2000/svg">
<path d="M25 4.1665C13.4937 4.1665 4.16663 13.4936 4.16663 24.9998C4.16663 36.5061 13.4937 45.8332 25 45.8332C36.5062 45.8332 45.8333 36.5061 45.8333 24.9998C45.8333 13.4936 36.5062 4.1665 25 4.1665Z" fill="url(#paint0_linear_50_112)"/>
<path d="M27.8198 30.5217H33.2114L34.0583 25.0447H27.8198V22.0509C27.8198 19.7759 28.5635 17.7582 30.6916 17.7582H34.1114V12.979C33.5104 12.8978 32.2395 12.7207 29.8385 12.7207C24.8239 12.7207 21.8843 15.3686 21.8843 21.402V25.0457H16.7291V30.5228H21.8833V45.577C22.9041 45.729 23.9385 45.8332 25 45.8332C25.9593 45.8332 26.8958 45.7457 27.8198 45.6207V30.5217Z" fill="white"/>
<defs>
<linearGradient id="paint0_linear_50_112" x1="10.4093" y1="10.4092" x2="42.3073" y2="42.3071" gradientUnits="userSpaceOnUse">
<stop stop-color="#2AA4F4"/>
<stop offset="1" stop-color="#007AD9"/>
</linearGradient>
</defs>
</svg>
