<svg width="30" height="30" viewBox="0 0 50 50" fill="none" xmlns="http://www.w3.org/2000/svg">
<path d="M27.0834 17.7083H18.75C14.723 17.7083 11.4584 14.4438 11.4584 10.4167C11.4584 6.38958 14.723 3.125 18.75 3.125H27.0834V17.7083Z" fill="#E64A19"/>
<path d="M26.0417 32.2918H18.75C14.723 32.2918 11.4584 29.0272 11.4584 25.0002C11.4584 20.9731 14.723 17.7085 18.75 17.7085H26.0417V32.2918Z" fill="#7C4DFF"/>
<path d="M18.75 46.8748C14.723 46.8748 11.4584 43.6103 11.4584 39.5832C11.4584 35.5561 14.723 32.2915 18.75 32.2915H26.0417V39.5832C26.0417 43.6103 22.7771 46.8748 18.75 46.8748Z" fill="#66BB6A"/>
<path d="M33.3333 17.7083H26.0416V3.125H33.3333C37.3604 3.125 40.625 6.38958 40.625 10.4167C40.625 14.4438 37.3604 17.7083 33.3333 17.7083Z" fill="#FF7043"/>
<path d="M33.3333 32.2918C37.3604 32.2918 40.625 29.0272 40.625 25.0002C40.625 20.9731 37.3604 17.7085 33.3333 17.7085C29.3062 17.7085 26.0416 20.9731 26.0416 25.0002C26.0416 29.0272 29.3062 32.2918 33.3333 32.2918Z" fill="#29B6F6"/>
</svg>
