<svg width="30" height="30" viewBox="0 0 50 50" fill="none" xmlns="http://www.w3.org/2000/svg">
<path d="M43.9584 23.021L26.9792 6.04183C26.4584 5.521 25.7292 5.2085 25 5.2085C24.2709 5.2085 23.5417 5.521 23.0209 6.04183L19.375 9.68766L23.6459 13.9585C24.0625 13.7502 24.4792 13.646 25 13.646C26.7709 13.646 28.125 15.0002 28.125 16.771C28.125 17.2918 28.0209 17.7085 27.8125 18.1252L31.9792 22.2918C32.3959 22.0835 32.8125 21.9793 33.3334 21.9793C35.1042 21.9793 36.4584 23.3335 36.4584 25.1043C36.4584 26.8752 35.1042 28.2293 33.3334 28.2293C31.5625 28.2293 30.2084 26.8752 30.2084 25.1043C30.2084 24.5835 30.3125 24.1668 30.5209 23.7502L26.3542 19.5835C26.25 19.5835 26.1459 19.6877 26.0417 19.6877V30.521C27.2917 30.9377 28.125 32.0835 28.125 33.4377C28.125 35.2085 26.7709 36.5627 25 36.5627C23.2292 36.5627 21.875 35.2085 21.875 33.4377C21.875 32.0835 22.7084 30.9377 23.9584 30.521V19.5835C22.7084 19.1668 21.875 18.021 21.875 16.6668C21.875 16.146 21.9792 15.7293 22.1875 15.3127L17.9167 11.0418L6.04171 23.021C5.52087 23.5418 5.20837 24.271 5.20837 25.0002C5.20837 25.7293 5.52087 26.4585 6.04171 26.9793L23.0209 43.9585C23.5417 44.4793 24.2709 44.7918 25 44.7918C25.7292 44.7918 26.4584 44.4793 26.9792 43.9585L43.9584 26.9793C44.4792 26.4585 44.7917 25.7293 44.7917 25.0002C44.7917 24.271 44.4792 23.5418 43.9584 23.021Z" fill="#F4511E"/>
</svg>
