<svg width="50" height="50" viewBox="0 0 50 50" fill="none" xmlns="http://www.w3.org/2000/svg">
<path d="M46.875 16.875L41.6667 19.7396L36.4584 24.6875V41.6667H43.75C45.4761 41.6667 46.875 40.2677 46.875 38.5417V16.875Z" fill="#4CAF50"/>
<path d="M3.125 16.875L6.88958 18.6562L13.5417 24.6875V41.6667H6.25C4.52396 41.6667 3.125 40.2677 3.125 38.5417V16.875Z" fill="#1E88E5"/>
<path d="M36.4583 11.6665L25 20.2603L13.5417 11.6665L12.5 17.7082L13.5417 24.6873L25 33.2811L36.4583 24.6873L37.5 17.7082L36.4583 11.6665Z" fill="#E53935"/>
<path d="M3.125 12.8106V16.8752L13.5417 24.6877V11.6668L10.2875 9.22829C9.5125 8.64704 8.57083 8.3335 7.60208 8.3335C5.12917 8.3335 3.125 10.3377 3.125 12.8106Z" fill="#C62828"/>
<path d="M46.875 12.8106V16.8752L36.4584 24.6877V11.6668L39.7125 9.22829C40.4875 8.64704 41.4292 8.3335 42.398 8.3335C44.8709 8.3335 46.875 10.3377 46.875 12.8106Z" fill="#FBC02D"/>
</svg>
