<svg width="50" height="50" viewBox="0 0 50 50" fill="none" xmlns="http://www.w3.org/2000/svg">
<path d="M45.4281 20.9196H43.75V20.8332H25V29.1665H36.7739C35.0562 34.0175 30.4406 37.4998 25 37.4998C18.0968 37.4998 12.5 31.903 12.5 24.9998C12.5 18.0967 18.0968 12.4998 25 12.4998C28.1864 12.4998 31.0854 13.7019 33.2927 15.6655L39.1854 9.77275C35.4645 6.30505 30.4875 4.1665 25 4.1665C13.4948 4.1665 4.16663 13.4946 4.16663 24.9998C4.16663 36.505 13.4948 45.8332 25 45.8332C36.5052 45.8332 45.8333 36.505 45.8333 24.9998C45.8333 23.603 45.6895 22.2394 45.4281 20.9196Z" fill="#FBC02D"/>
<path d="M6.56873 15.303L13.4135 20.3228C15.2656 15.7373 19.751 12.4998 25 12.4998C28.1864 12.4998 31.0854 13.7019 33.2927 15.6655L39.1854 9.77275C35.4646 6.30505 30.4875 4.1665 25 4.1665C16.9979 4.1665 10.0583 8.68421 6.56873 15.303Z" fill="#E53935"/>
<path d="M25 45.8336C30.3812 45.8336 35.2708 43.7742 38.9677 40.4252L32.5198 34.969C30.4281 36.5534 27.8281 37.5002 25 37.5002C19.5812 37.5002 14.9802 34.045 13.2469 29.2231L6.45312 34.4575C9.90104 41.2044 16.9031 45.8336 25 45.8336Z" fill="#4CAF50"/>
<path d="M45.4281 20.92L45.4115 20.8335H43.75H25V29.1668H36.774C35.949 31.497 34.45 33.5064 32.5167 34.97C32.5177 34.9689 32.5188 34.9689 32.5198 34.9679L38.9677 40.4241C38.5115 40.8387 45.8333 35.4168 45.8333 25.0002C45.8333 23.6033 45.6896 22.2397 45.4281 20.92Z" fill="#1565C0"/>
</svg>
