<svg width="30" height="3
0" viewBox="0 0 50 50" fill="none" xmlns="http://www.w3.org/2000/svg">
<path d="M0 50L24.1667 0H39.1667V6.95652L18.3333 50" fill="#FBBC04"/>
<path d="M39.1666 50H24.1666V0H39.1666V50Z" fill="#1A73E8"/>
<path d="M50 35.8697C50 43.674 45.15 50.0001 39.1666 50.0001V21.7393C45.15 21.7393 50 28.0653 50 35.8697Z" fill="#34A853"/>
<path d="M39.1667 50.0001C33.1834 50.0001 28.3334 43.674 28.3334 35.8697C28.3334 28.0653 33.1834 21.7393 39.1667 21.7393V50.0001Z" fill="#0D652D"/>
<path d="M47.5 10.8696C47.5 16.8717 43.77 21.7391 39.1666 21.7391V0C43.77 0 47.5 4.86739 47.5 10.8696Z" fill="#1A73E8"/>
<path d="M39.1667 21.7391C34.5634 21.7391 30.8334 16.8717 30.8334 10.8696C30.8334 4.86739 34.5634 0 39.1667 0V21.7391Z" fill="#174EA6"/>
<path d="M0.833374 9.78261C0.833374 4.38043 4.19171 0 8.33337 0C12.475 0 15.8334 4.38043 15.8334 9.78261C15.8334 15.1848 12.475 19.5652 8.33337 19.5652C4.19171 19.5652 0.833374 15.1848 0.833374 9.78261Z" fill="#EA4335"/>
</svg>
