<svg width="500" height="438" viewBox="0 0 500 438" fill="none" xmlns="http://www.w3.org/2000/svg">
<path d="M488.684 283.287L478.82 283.588L473.812 283.706C472.136 283.76 470.452 283.706 468.775 283.771H468.444V283.287L468.399 271.232V270.695H468.775L478.729 270.759C482.053 270.759 485.368 270.877 488.684 270.931H488.895V271.232C488.895 273.273 488.834 275.304 488.797 277.313L488.684 283.287ZM488.684 283.287L488.579 277.217C488.541 275.218 488.496 273.241 488.481 271.264L488.684 271.565C485.368 271.619 482.053 271.737 478.729 271.737L468.775 271.801L469.151 271.264V283.287L468.812 282.814C470.451 282.814 472.091 282.814 473.737 282.868L478.632 283.051L488.684 283.287Z" fill="#A7A7A7"/>
<path d="M477.579 298.448L467.715 298.749L462.7 298.867C461.031 298.867 459.346 298.867 457.67 298.931H457.339V298.448V286.425V285.888H457.715L467.67 285.963C470.985 285.963 474.308 286.081 477.624 286.135H477.835V286.425C477.835 288.466 477.775 290.497 477.737 292.506L477.579 298.448ZM477.579 298.448L477.474 292.377C477.436 290.379 477.391 288.402 477.376 286.425L477.579 286.726C474.263 286.779 470.94 286.898 467.624 286.898L457.67 286.962L458.046 286.425V298.448L457.707 297.975C459.346 297.975 460.986 297.975 462.632 298.029L467.572 298.158L477.579 298.448Z" fill="#A7A7A7"/>
<path d="M499.789 298.448L489.925 298.749L484.917 298.867C483.241 298.867 481.557 298.867 479.88 298.931H479.549V298.448L479.504 286.425V285.888H479.88L489.835 285.963C493.158 285.963 496.474 286.081 499.789 286.135H500V286.425C500 288.466 499.932 290.497 499.902 292.506L499.789 298.448ZM499.789 298.448L499.684 292.377C499.684 290.379 499.601 288.402 499.586 286.425L499.789 286.726C496.474 286.779 493.158 286.898 489.835 286.898L479.88 286.962L480.256 286.425V298.448L479.918 297.975C481.564 297.975 483.196 297.975 484.842 298.029L489.79 298.158L499.789 298.448Z" fill="#A7A7A7"/>
<path d="M204.794 140.227L194.93 140.528L189.922 140.646C188.245 140.646 186.561 140.646 184.884 140.646H184.554V140.163L184.509 128.14V127.603H184.884L194.839 127.667C198.163 127.667 201.478 127.785 204.794 127.839H205.005V128.129C205.005 130.17 204.937 132.19 204.899 134.2L204.794 140.227ZM204.794 140.227L204.689 134.146C204.689 132.147 204.606 130.17 204.591 128.204L204.794 128.494C201.478 128.494 198.163 128.666 194.839 128.666L184.884 128.741L185.26 128.204L185.223 140.227L184.884 139.744C186.524 139.744 188.163 139.744 189.809 139.808L194.757 139.926L204.794 140.227Z" fill="#A7A7A7"/>
<path d="M193.674 155.387L183.809 155.688L178.794 155.806C177.125 155.806 175.441 155.806 173.764 155.86H173.433V155.376L173.373 143.375V142.838H173.749L183.704 142.902C187.02 142.902 190.343 143.021 193.659 143.074H193.869V143.375C193.869 145.417 193.809 147.436 193.772 149.446L193.674 155.387ZM193.674 155.387L193.569 149.306C193.531 147.308 193.486 145.331 193.471 143.364L193.674 143.654C190.358 143.708 187.035 143.826 183.719 143.826L173.764 143.902L174.14 143.364L174.125 155.387L173.787 154.904C175.426 154.904 177.065 154.904 178.712 154.968L183.651 155.086L193.674 155.387Z" fill="#A7A7A7"/>
<path d="M215.899 155.387L206.035 155.688L201.027 155.806C199.35 155.806 197.674 155.806 195.989 155.86H195.659V155.376L195.614 143.375V142.838H195.989L205.944 142.902C209.268 142.902 212.583 143.021 215.899 143.074H216.11V143.375C216.11 145.417 216.042 147.436 216.012 149.446L215.899 155.387ZM215.899 155.387L215.794 149.306C215.794 147.308 215.711 145.331 215.696 143.364L215.899 143.654C212.583 143.708 209.268 143.826 205.944 143.826L195.989 143.902L196.365 143.364L196.328 155.387L195.989 154.904C197.636 154.904 199.268 154.904 200.914 154.968L205.862 155.086L215.899 155.387Z" fill="#A7A7A7"/>
<path d="M42.458 219.778L32.5935 220.079L27.5785 220.197C25.9094 220.197 24.2252 220.197 22.5486 220.251H22.2478V219.767V207.744V207.207H22.6237L32.5785 207.271C35.8942 207.271 39.2175 207.39 42.5332 207.443H42.7437V207.733C42.7437 209.775 42.6836 211.795 42.646 213.804L42.458 219.778ZM42.458 219.778L42.3528 213.697C42.3528 211.698 42.2701 209.721 42.255 207.755L42.458 208.045C39.1423 208.099 35.819 208.217 32.5033 208.217L22.5486 208.292L22.9245 207.755L22.8869 219.778L22.5486 219.295C24.1876 219.295 25.8267 219.295 27.4733 219.359L32.4131 219.477L42.458 219.778Z" fill="#A7A7A7"/>
<path d="M372.514 140.216L362.649 140.517L357.641 140.635C355.965 140.689 354.28 140.635 352.604 140.689H352.273V140.206L352.228 128.183V127.646H352.604L362.559 127.71C365.882 127.71 369.198 127.839 372.514 127.893H372.724V128.183C372.724 130.224 372.664 132.255 372.626 134.253L372.514 140.216ZM372.514 140.216L372.408 134.146C372.371 132.137 372.326 130.16 372.311 128.193L372.514 128.484C369.198 128.537 365.882 128.655 362.559 128.666L352.604 128.731L352.98 128.193L352.942 140.216L352.604 139.733C354.243 139.733 355.882 139.733 357.529 139.797L362.476 139.915L372.514 140.216Z" fill="#A7A7A7"/>
<path d="M487.534 23.4478L477.669 23.7486L472.654 23.8668C470.985 23.8668 469.301 23.8668 467.625 23.9313H467.294V23.4478V11.4249V10.8877H467.67L477.624 10.9522C480.94 10.9522 484.263 11.0811 487.579 11.1348H487.789V11.4249C487.789 13.4663 487.729 15.497 487.692 17.4954L487.534 23.4478ZM487.534 23.4478L487.429 17.3772C487.391 15.3681 487.346 13.3911 487.331 11.4249L487.534 11.715C484.218 11.715 480.895 11.8869 477.579 11.8977L467.625 11.9621L468 11.4249L467.963 23.4478L467.625 22.9643C469.264 22.9643 470.903 22.9643 472.549 23.0287L477.489 23.1469L487.534 23.4478Z" fill="#A7A7A7"/>
<path d="M498.639 38.6079L488.774 38.9088L483.767 39.0269C482.09 39.0807 480.406 39.0269 478.73 39.0807H478.399V38.5972L478.354 26.5743V26.0371H478.73L488.684 26.1016C492.007 26.1016 495.323 26.2305 498.639 26.2842H498.849V26.5743C498.849 28.6157 498.782 30.6464 498.744 32.6448L498.639 38.6079ZM498.639 38.6079L498.534 32.5374C498.534 30.5282 498.451 28.5513 498.436 26.5851L498.639 26.8752C495.323 26.9289 492.007 27.0471 488.684 27.0578L478.73 27.1223L479.106 26.5851V38.6079L478.767 38.1244C480.406 38.1244 482.045 38.1244 483.692 38.1889L488.639 38.3071L498.639 38.6079Z" fill="#A7A7A7"/>
<path d="M20.2478 23.4585L10.3758 23.7593L5.36834 23.8775C3.69919 23.8775 2.01501 23.8775 0.338341 23.942H0V23.4585V11.4357V10.8984H0.383452L10.3382 10.9736C13.6539 10.9736 16.9697 11.0918 20.2929 11.1456H20.4959V11.4357C20.4959 13.4771 20.4283 15.5077 20.3982 17.5169L20.2478 23.4585ZM20.2478 23.4585L20.135 17.388C20.135 15.3788 20.0523 13.4019 20.0373 11.4357L20.2478 11.7257C16.9246 11.7902 13.6088 11.8977 10.2931 11.9084L0.338341 11.9729L0.714276 11.4357L0.669162 23.4585L0.338341 23.0395C1.97741 23.0395 3.60897 23.0395 5.25556 23.0395L10.2029 23.1577L20.2478 23.4585Z" fill="#A7A7A7"/>
<path d="M14.1952 112.915C14.5094 112.639 14.8713 112.492 15.2403 112.492C15.6094 112.492 15.9712 112.639 16.2854 112.915L16.8268 113.356C17.0072 113.495 17.1952 113.635 17.3831 113.753C17.7193 113.972 18.0063 114.32 18.2121 114.758C18.4179 115.196 18.5344 115.708 18.5485 116.235L18.6312 119.91L27.0221 119.544L26.9469 115.859C26.9341 115.33 27.0261 114.806 27.2123 114.348C27.3985 113.89 27.6714 113.516 27.9995 113.27C28.3658 112.989 28.7198 112.677 29.0597 112.335C29.3607 112.032 29.7145 111.853 30.0819 111.819C30.4494 111.785 30.8164 111.897 31.1423 112.142L33.3979 113.882L37.3678 103.299L35.1122 101.558C34.7892 101.308 34.5211 100.934 34.3379 100.479C34.1547 100.024 34.0636 99.5048 34.0746 98.9798C34.0823 98.3846 34.0672 97.7892 34.0295 97.1963C33.9957 96.6703 34.0641 96.1412 34.2273 95.6672C34.3905 95.1933 34.642 94.7929 34.9543 94.5102L37.1498 92.5655L32.7213 82.3692L30.5183 84.3354C30.2055 84.6123 29.8449 84.7589 29.4769 84.7589C29.109 84.7589 28.7484 84.6123 28.4356 84.3354C28.2552 84.1849 28.0822 84.0345 27.8943 83.8948L27.3454 83.4973C27.0084 83.2791 26.7203 82.9316 26.5132 82.4935C26.3062 82.0553 26.1882 81.5436 26.1725 81.0154L26.0973 77.3301L17.7365 77.6846L17.8192 81.3592C17.8268 81.8872 17.7327 82.4081 17.547 82.8648C17.3613 83.3215 17.0914 83.6964 16.7666 83.9486C16.3968 84.2305 16.0402 84.5463 15.699 84.8941C15.3964 85.1976 15.0409 85.3753 14.6719 85.4076C14.303 85.4398 13.9349 85.3253 13.6088 85.0767L11.3532 83.3469L7.3457 93.9515L9.60131 95.6921C9.92428 95.9389 10.1934 96.3082 10.3791 96.7593C10.5648 97.2104 10.6599 97.7259 10.6539 98.2492C10.6438 98.8479 10.6563 99.4468 10.6915 100.044C10.7262 100.57 10.6582 101.099 10.4949 101.573C10.3316 102.048 10.0796 102.448 9.76672 102.73L7.57878 104.696L12.0073 114.892L14.1952 112.915ZM16.3005 93.9515C16.943 92.2405 17.9261 90.8401 19.1255 89.9273C20.3249 89.0146 21.6867 88.6305 23.0389 88.8235C24.391 89.0165 25.6727 89.7781 26.7221 91.0119C27.7714 92.2457 28.5412 93.8963 28.9341 95.7552C29.3271 97.6141 29.3256 99.5977 28.9298 101.455C28.5341 103.313 27.7618 104.961 26.7106 106.192C25.6594 107.422 24.3765 108.18 23.0241 108.369C21.6717 108.558 20.3105 108.169 19.1124 107.253C18.3163 106.644 17.6119 105.817 17.0397 104.818C16.4674 103.82 16.0384 102.67 15.7773 101.435C15.5161 100.2 15.4279 98.903 15.5177 97.6189C15.6074 96.3348 15.8734 95.0886 16.3005 93.9515Z" fill="#A7A7A7"/>
<path d="M415.377 338.803C415.6 338.99 415.782 339.262 415.903 339.588C416.024 339.915 416.079 340.283 416.061 340.651C416.061 340.866 416.061 341.07 416.061 341.274C416.061 341.479 416.061 341.693 416.061 341.898C416.079 342.266 416.024 342.634 415.903 342.96C415.782 343.287 415.6 343.559 415.377 343.746L413.813 345.035L416.753 352.319L418.317 351.03C418.546 350.835 418.81 350.739 419.077 350.752C419.343 350.765 419.601 350.888 419.821 351.105C420.064 351.331 420.315 351.539 420.573 351.729C420.8 351.897 420.99 352.151 421.123 352.464C421.256 352.777 421.325 353.136 421.324 353.501V356.112H427.211V353.534C427.211 353.168 427.281 352.81 427.414 352.497C427.546 352.184 427.736 351.93 427.963 351.761C428.223 351.576 428.474 351.368 428.715 351.138C428.934 350.92 429.193 350.798 429.459 350.784C429.726 350.771 429.99 350.868 430.219 351.062L431.783 352.352L434.722 345.067L433.151 343.767C432.93 343.581 432.75 343.31 432.63 342.986C432.511 342.661 432.457 342.296 432.474 341.93C432.474 341.726 432.474 341.511 432.474 341.307C432.474 341.102 432.474 340.898 432.474 340.683C432.457 340.315 432.512 339.947 432.633 339.62C432.754 339.294 432.936 339.022 433.159 338.835L434.722 337.546L431.783 330.261L430.226 331.551C429.997 331.746 429.733 331.842 429.467 331.829C429.2 331.815 428.942 331.693 428.723 331.476C428.475 331.25 428.219 331.046 427.971 330.852C427.744 330.683 427.554 330.429 427.421 330.116C427.289 329.804 427.219 329.445 427.219 329.08V326.501H421.332V329.08C421.333 329.445 421.263 329.804 421.13 330.117C420.998 330.43 420.807 330.684 420.58 330.852C420.322 331.041 420.071 331.249 419.828 331.476C419.609 331.693 419.351 331.815 419.084 331.829C418.817 331.842 418.554 331.746 418.324 331.551L416.761 330.261L413.821 337.546L415.377 338.803ZM424.257 334.387C425.21 334.387 426.142 334.791 426.934 335.548C427.727 336.305 428.344 337.38 428.709 338.639C429.074 339.897 429.169 341.282 428.983 342.618C428.797 343.954 428.338 345.181 427.664 346.144C426.99 347.107 426.132 347.763 425.197 348.029C424.262 348.295 423.293 348.158 422.412 347.637C421.532 347.116 420.779 346.233 420.249 345.101C419.72 343.968 419.437 342.636 419.437 341.274C419.437 339.448 419.945 337.696 420.849 336.404C421.753 335.113 422.978 334.387 424.257 334.387Z" fill="#A7A7A7"/>
<path d="M441.512 287.886C441.517 294.359 442.864 300.686 445.384 306.065C447.904 311.445 451.484 315.636 455.67 318.109C459.857 320.581 464.462 321.225 468.905 319.958C473.347 318.692 477.427 315.571 480.629 310.991C483.831 306.412 486.01 300.578 486.892 294.229C487.775 287.879 487.32 281.298 485.585 275.318C483.85 269.338 480.914 264.227 477.147 260.631C473.38 257.035 468.952 255.116 464.422 255.116C461.411 255.117 458.431 255.966 455.651 257.614C452.87 259.261 450.344 261.676 448.216 264.719C446.089 267.762 444.402 271.374 443.252 275.349C442.101 279.324 441.51 283.584 441.512 287.886V287.886ZM453.723 287.886C453.72 284.858 454.345 281.898 455.52 279.379C456.695 276.86 458.367 274.895 460.323 273.734C462.28 272.573 464.433 272.268 466.511 272.857C468.59 273.445 470.499 274.902 471.997 277.042C473.496 279.182 474.516 281.909 474.93 284.878C475.343 287.847 475.131 290.925 474.32 293.722C473.509 296.518 472.135 298.909 470.373 300.589C468.611 302.27 466.54 303.166 464.422 303.164C461.586 303.161 458.867 301.551 456.861 298.687C454.855 295.822 453.727 291.938 453.723 287.886V287.886Z" fill="#A7A7A7"/>
<path d="M460.016 256.502H468.828L468.339 247.584H460.504L460.016 256.502Z" fill="#A7A7A7"/>
<path d="M476.79 260.746L483.015 269.642L487.083 262.852L481.542 254.933L476.79 260.746Z" fill="#A7A7A7"/>
<path d="M486.549 280.687V293.279L492.782 292.581V281.385L486.549 280.687Z" fill="#A7A7A7"/>
<path d="M483.579 304.647L477.346 313.554L482.105 319.367L487.647 311.448L483.579 304.647Z" fill="#A7A7A7"/>
<path d="M469.617 318.593H460.813L461.301 327.511H469.136L469.617 318.593Z" fill="#A7A7A7"/>
<path d="M452.85 314.349L446.617 305.453L442.557 312.243L448.098 320.162L452.85 314.349Z" fill="#A7A7A7"/>
<path d="M443.091 294.408V281.815L436.858 282.514V293.709L443.091 294.408Z" fill="#A7A7A7"/>
<path d="M446.061 270.448L452.294 261.541L447.534 255.729L441.993 263.647L446.061 270.448Z" fill="#A7A7A7"/>
<path d="M39.7588 204.983C40.1196 205.489 40.367 206.136 40.4696 206.843C40.5723 207.55 40.5256 208.285 40.3354 208.954C40.1452 209.623 39.8202 210.196 39.4016 210.6C38.983 211.005 38.4897 211.222 37.9844 211.225C37.2895 211.222 36.6222 210.837 36.1198 210.151L24.744 193.701C24.6911 193.674 24.6444 193.626 24.6087 193.564C24.573 193.501 24.5496 193.427 24.541 193.347C24.5006 193.303 24.4578 193.263 24.4132 193.229C24.3601 193.082 24.3197 192.927 24.2929 192.767C24.261 192.747 24.2332 192.716 24.2121 192.676C24.1911 192.637 24.1775 192.59 24.1726 192.541C24.1726 192.423 24.1726 192.251 24.0899 192.187C24.0072 192.122 24.0072 191.961 24.0072 191.896V191.499C24.0072 191.381 24.0072 191.327 24.0072 191.155C24.0072 190.983 24.0072 190.919 24.0072 190.865V190.457C24.0072 190.339 24.0899 190.285 24.0899 190.22C24.0899 190.156 24.135 189.941 24.1726 189.758C24.2102 189.576 24.1726 189.758 24.1726 189.651C24.2335 189.47 24.3013 189.295 24.3756 189.124C24.3756 189.093 24.3843 189.063 24.3998 189.041C24.4154 189.019 24.4364 189.006 24.4583 189.006C24.5143 188.844 24.6001 188.707 24.7064 188.609L36.0822 172.116C36.5711 171.444 37.2232 171.068 37.9017 171.068C38.5802 171.068 39.2323 171.444 39.7212 172.116C39.9622 172.456 40.1535 172.861 40.2841 173.307C40.4147 173.754 40.482 174.233 40.482 174.716C40.482 175.2 40.4147 175.679 40.2841 176.125C40.1535 176.572 39.9622 176.977 39.7212 177.316L30.165 191.155L39.7588 204.983Z" fill="#A7A7A7"/>
<path d="M50.0669 206.831L59.9916 173.094C60.2295 172.314 60.6737 171.7 61.2273 171.386C61.7809 171.072 62.3989 171.083 62.9465 171.418C63.4772 171.748 63.8946 172.366 64.1074 173.135C64.3202 173.904 64.311 174.763 64.0818 175.522L54.1571 209.324C53.9781 209.893 53.6876 210.375 53.3205 210.713C52.9535 211.05 52.5259 211.228 52.0894 211.225C51.813 211.234 51.5386 211.157 51.2849 211C51.01 210.847 50.7594 210.616 50.5483 210.321C50.3371 210.027 50.1697 209.674 50.056 209.285C49.9423 208.896 49.8846 208.478 49.8865 208.057C49.8884 207.635 49.9497 207.218 50.0669 206.831V206.831Z" fill="#A7A7A7"/>
<path d="M83.6755 193.229V193.293C83.588 193.44 83.4925 193.576 83.3898 193.702L72.014 210.194C71.5253 210.877 70.8704 211.262 70.187 211.268C69.5055 211.264 68.8525 210.878 68.3674 210.194C68.1262 209.853 67.9348 209.448 67.8041 209C67.6734 208.553 67.6061 208.073 67.6061 207.589C67.6061 207.104 67.6734 206.624 67.8041 206.177C67.9348 205.73 68.1262 205.324 68.3674 204.983L77.9613 191.155L68.3674 177.317C68.1265 176.977 67.9351 176.572 67.8045 176.126C67.674 175.679 67.6067 175.2 67.6067 174.716C67.6067 174.233 67.674 173.754 67.8045 173.307C67.9351 172.861 68.1265 172.456 68.3674 172.116C68.8576 171.443 69.511 171.067 70.1907 171.067C70.8705 171.067 71.5239 171.443 72.014 172.116L83.3898 188.609C83.4958 188.725 83.5917 188.858 83.6755 189.006C83.6755 189.006 83.6755 189.124 83.6755 189.124C83.7512 189.293 83.8191 189.469 83.8785 189.651C83.8785 189.705 83.9237 189.705 83.9237 189.758C83.9491 189.939 83.9869 190.115 84.0364 190.285C84.0364 190.339 84.0816 190.339 84.0816 190.457V190.865C84.0816 190.919 84.1267 191.091 84.1267 191.155C84.1267 191.22 84.0816 191.381 84.0816 191.434V191.897C84.0816 191.961 84.0364 191.961 84.0364 192.015C83.9612 192.251 83.9612 192.423 83.9237 192.541C83.8861 192.659 83.8785 192.595 83.8785 192.713C83.8785 192.831 83.7582 193.003 83.6755 193.229Z" fill="#A7A7A7"/>
<path d="M6.24805 436.963L67.2019 436.705L128.156 436.608L250.064 436.426L371.971 436.608L432.925 436.705L493.879 436.963L432.925 437.232L371.971 437.328L250.064 437.5L128.156 437.318L67.2019 437.232L6.24805 436.963Z" fill="#263238"/>
<path d="M478.263 413.207H21.8568V436.963H478.263V413.207Z" fill="#C7C7C7"/>
<path d="M431.114 67.0908H69.0215V413.218H431.114V67.0908Z" fill="#DBDBDB"/>
<path d="M428.482 71.3135H71.6531V408.995H428.482V71.3135Z" fill="#37474F"/>
<path d="M412.678 93.0166H87.4498V387.281H412.678V93.0166Z" fill="#263238"/>
<path d="M412.678 93.0166H87.4498V104.341H412.678V93.0166Z" fill="#D7D7D7"/>
<path d="M94.9083 98.6791C94.9083 99.1041 94.8201 99.5196 94.6549 99.873C94.4897 100.226 94.2548 100.502 93.9801 100.664C93.7053 100.827 93.4029 100.87 93.1112 100.787C92.8195 100.704 92.5516 100.499 92.3413 100.199C92.131 99.8981 91.9878 99.5152 91.9298 99.0984C91.8718 98.6815 91.9015 98.2495 92.0153 97.8568C92.1292 97.4641 92.3219 97.1285 92.5692 96.8924C92.8165 96.6563 93.1072 96.5303 93.4046 96.5303C93.8034 96.5303 94.1859 96.7567 94.4679 97.1597C94.7499 97.5626 94.9083 98.1092 94.9083 98.6791Z" fill="#E44D26"/>
<path d="M101.036 98.6791C101.036 99.1041 100.948 99.5196 100.783 99.873C100.617 100.226 100.382 100.502 100.108 100.664C99.8329 100.827 99.5306 100.87 99.2389 100.787C98.9472 100.704 98.6793 100.499 98.469 100.199C98.2587 99.8981 98.1155 99.5152 98.0575 99.0984C97.9994 98.6815 98.0292 98.2495 98.143 97.8568C98.2568 97.4641 98.4496 97.1285 98.6969 96.8924C98.9441 96.6563 99.2348 96.5303 99.5323 96.5303C99.9311 96.5303 100.314 96.7567 100.596 97.1597C100.878 97.5626 101.036 98.1092 101.036 98.6791Z" fill="#E4A126"/>
<path d="M107.156 98.6791C107.156 99.1041 107.068 99.5196 106.903 99.873C106.738 100.226 106.503 100.502 106.228 100.664C105.953 100.827 105.651 100.87 105.359 100.787C105.068 100.704 104.8 100.499 104.589 100.199C104.379 99.8981 104.236 99.5152 104.178 99.0984C104.12 98.6815 104.149 98.2495 104.263 97.8568C104.377 97.4641 104.57 97.1285 104.817 96.8924C105.064 96.6563 105.355 96.5303 105.653 96.5303C106.051 96.5303 106.434 96.7567 106.716 97.1597C106.998 97.5626 107.156 98.1092 107.156 98.6791Z" fill="#62BD6B"/>
<path d="M115.705 154.646H108.231V156.741H115.705V154.646Z" fill="#EBEBEB"/>
<path d="M290.161 154.646H124.524V156.741H290.161V154.646Z" fill="#E44D26"/>
<path d="M308.95 154.646H294.755V156.741H308.95V154.646Z" fill="#2965F1"/>
<path d="M365.378 204.027H317.469V206.111H365.378V204.027Z" fill="#E44D26"/>
<path d="M382.363 154.646H312.033V156.741H382.363V154.646Z" fill="#A6A6A6"/>
<path d="M115.705 164.52H108.231V166.615H115.705V164.52Z" fill="#EBEBEB"/>
<path d="M188.058 164.52H131.802V166.615H188.058V164.52Z" fill="#A6A6A6"/>
<path d="M314.093 204.027H292.815V206.111H314.093V204.027Z" fill="#A6A6A6"/>
<path d="M178.253 194.153H124.524V196.248H178.253V194.153Z" fill="#A6A6A6"/>
<path d="M169.494 174.405H131.802V176.5H169.494V174.405Z" fill="#2965F1"/>
<path d="M375.649 184.279H304.244V186.363H375.649V184.279Z" fill="#A6A6A6"/>
<path d="M290.161 232.746H218.756V234.831H290.161V232.746Z" fill="#A6A6A6"/>
<path d="M313.8 174.405H173.682V176.5H313.8V174.405Z" fill="#A6A6A6"/>
<path d="M287.958 204.027H124.524V206.111H287.958V204.027Z" fill="#2965F1"/>
<path d="M307.364 164.52H191.591V166.615H307.364V164.52Z" fill="#E4A126"/>
<path d="M344.025 174.405H319.784V176.5H344.025V174.405Z" fill="#E44D26"/>
<path d="M115.705 174.405H108.231V176.5H115.705V174.405Z" fill="#EBEBEB"/>
<path d="M115.705 184.279H108.231V186.363H115.705V184.279Z" fill="#A6A6A6"/>
<path d="M168.689 184.279H124.524V186.363H168.689V184.279Z" fill="#EBEBEB"/>
<path d="M175.967 213.9H131.802V215.996H175.967V213.9Z" fill="#EBEBEB"/>
<path d="M355.732 223.774H294.078V225.87H355.732V223.774Z" fill="#2965F1"/>
<path d="M290.214 223.774H171.742V225.87H290.214V223.774Z" fill="#EBEBEB"/>
<path d="M164.997 223.774H131.802V225.87H164.997V223.774Z" fill="#A6A6A6"/>
<path d="M308.943 194.153H181.29V196.248H308.943V194.153Z" fill="#E4A126"/>
<path d="M388.197 194.153H312.033V196.248H388.197V194.153Z" fill="#2965F1"/>
<path d="M300.77 184.279H173.17V186.363H300.77V184.279Z" fill="#2965F1"/>
<path d="M115.705 194.153H108.231V196.248H115.705V194.153Z" fill="#EBEBEB"/>
<path d="M115.705 204.027H108.231V206.111H115.705V204.027Z" fill="#EBEBEB"/>
<path d="M115.705 213.9H108.231V215.996H115.705V213.9Z" fill="#A6A6A6"/>
<path d="M115.705 223.774H108.231V225.87H115.705V223.774Z" fill="#EBEBEB"/>
<path d="M115.705 232.746H108.231V234.831H115.705V232.746Z" fill="#EBEBEB"/>
<path d="M212.139 232.746H124.524V234.831H212.139V232.746Z" fill="#E4A126"/>
<path d="M115.705 242.62H108.231V244.715H115.705V242.62Z" fill="#EBEBEB"/>
<path d="M188.058 242.62H131.802V244.715H188.058V242.62Z" fill="#A6A6A6"/>
<path d="M178.253 272.242H124.524V274.327H178.253V272.242Z" fill="#A6A6A6"/>
<path d="M169.494 252.495H131.802V254.589H169.494V252.495Z" fill="#2965F1"/>
<path d="M255.816 292.001H218.124V294.096H255.816V292.001Z" fill="#2965F1"/>
<path d="M169.494 311.749H131.802V313.844H169.494V311.749Z" fill="#2965F1"/>
<path d="M313.8 252.495H173.682V254.589H313.8V252.495Z" fill="#A6A6A6"/>
<path d="M287.958 282.116H124.524V284.211H287.958V282.116Z" fill="#2965F1"/>
<path d="M307.364 242.62H191.591V244.715H307.364V242.62Z" fill="#E44D26"/>
<path d="M331.882 262.368H307.687V264.463H331.882V262.368Z" fill="#E4A126"/>
<path d="M115.705 252.495H108.231V254.589H115.705V252.495Z" fill="#EBEBEB"/>
<path d="M115.705 262.368H108.231V264.463H115.705V262.368Z" fill="#A6A6A6"/>
<path d="M168.689 262.368H124.524V264.463H168.689V262.368Z" fill="#EBEBEB"/>
<path d="M308.943 272.242H181.29V274.327H308.943V272.242Z" fill="#E44D26"/>
<path d="M300.77 262.368H173.17V264.463H300.77V262.368Z" fill="#2965F1"/>
<path d="M115.705 272.242H108.231V274.327H115.705V272.242Z" fill="#EBEBEB"/>
<path d="M115.705 292.001H108.231V294.096H115.705V292.001Z" fill="#EBEBEB"/>
<path d="M212.139 292.001H124.524V294.096H212.139V292.001Z" fill="#EBEBEB"/>
<path d="M115.705 301.875H108.231V303.97H115.705V301.875Z" fill="#EBEBEB"/>
<path d="M188.058 301.875H131.802V303.97H188.058V301.875Z" fill="#A6A6A6"/>
<path d="M178.253 331.497H124.524V333.592H178.253V331.497Z" fill="#A6A6A6"/>
<path d="M313.8 311.749H173.682V313.844H313.8V311.749Z" fill="#A6A6A6"/>
<path d="M331.882 321.623H307.687V323.718H331.882V321.623Z" fill="#E4A126"/>
<path d="M115.705 311.749H108.231V313.844H115.705V311.749Z" fill="#EBEBEB"/>
<path d="M115.705 321.623H108.231V323.718H115.705V321.623Z" fill="#A6A6A6"/>
<path d="M168.689 321.623H124.524V323.718H168.689V321.623Z" fill="#EBEBEB"/>
<path d="M308.943 331.497H181.29V333.592H308.943V331.497Z" fill="#E44D26"/>
<path d="M300.77 321.623H173.17V323.718H300.77V321.623Z" fill="#2965F1"/>
<path d="M115.705 331.497H108.231V333.592H115.705V331.497Z" fill="#EBEBEB"/>
<path d="M113.908 136.23L115.878 129.526C115.901 129.449 115.934 129.379 115.976 129.32C116.018 129.262 116.068 129.215 116.122 129.184C116.177 129.153 116.235 129.138 116.294 129.14C116.353 129.141 116.411 129.159 116.464 129.193C116.517 129.225 116.565 129.271 116.605 129.329C116.645 129.388 116.677 129.457 116.698 129.533C116.719 129.609 116.729 129.691 116.728 129.772C116.726 129.854 116.713 129.935 116.69 130.01L114.728 136.725C114.692 136.84 114.635 136.937 114.561 137.006C114.488 137.075 114.402 137.111 114.314 137.111C114.262 137.131 114.208 137.131 114.156 137.111C114.095 137.085 114.04 137.039 113.993 136.977C113.946 136.915 113.909 136.84 113.886 136.755C113.862 136.671 113.852 136.58 113.855 136.489C113.859 136.398 113.877 136.31 113.908 136.23V136.23Z" fill="#2965F1"/>
<path d="M120.592 133.534L120.532 133.609L118.276 136.886C118.229 136.96 118.17 137.019 118.106 137.06C118.041 137.1 117.971 137.121 117.9 137.121C117.83 137.121 117.76 137.1 117.695 137.06C117.631 137.019 117.572 136.96 117.525 136.886C117.472 136.818 117.429 136.735 117.4 136.643C117.371 136.55 117.356 136.45 117.356 136.349C117.356 136.247 117.371 136.147 117.4 136.054C117.429 135.962 117.472 135.879 117.525 135.811L119.434 133.061L117.525 130.31C117.472 130.243 117.429 130.16 117.4 130.067C117.371 129.975 117.356 129.874 117.356 129.773C117.356 129.672 117.371 129.571 117.4 129.479C117.429 129.386 117.472 129.303 117.525 129.236C117.573 129.163 117.631 129.105 117.696 129.065C117.761 129.026 117.83 129.005 117.9 129.005C117.971 129.005 118.04 129.026 118.105 129.065C118.17 129.105 118.228 129.163 118.276 129.236L120.532 132.459L120.592 132.534C120.592 132.534 120.592 132.61 120.592 132.642C120.592 132.674 120.592 132.642 120.592 132.642C120.59 132.678 120.59 132.713 120.592 132.749C120.592 132.749 120.592 132.749 120.592 132.749V132.835C120.592 132.835 120.592 132.835 120.592 132.889V132.986C120.591 133.021 120.591 133.057 120.592 133.093C120.568 133.238 120.568 133.389 120.592 133.534V133.534Z" fill="#2965F1"/>
<path d="M449.881 82.4658H372.363V153.131H449.881V82.4658Z" fill="white"/>
<path d="M450.369 153.829H371.867V81.7676H450.361L450.369 153.829ZM372.852 152.433H449.384V83.2073H372.852V152.433Z" fill="#A9A9A9"/>
<path d="M449.881 82.4658H372.363V95.8317H449.881V82.4658Z" fill="#D7D7D7"/>
<path d="M450.369 96.5302H371.867V81.7676H450.361L450.369 96.5302ZM372.852 95.1335H449.384V83.2073H372.852V95.1335Z" fill="#A9A9A9"/>
<path d="M385.738 122.252C385.79 118.675 386.819 115.269 388.607 112.764C390.395 110.26 392.799 108.856 395.302 108.854C397.478 108.837 399.594 109.858 401.318 111.755C401.597 112.118 401.77 112.617 401.803 113.154C401.837 113.691 401.728 114.226 401.498 114.654C401.268 115.081 400.933 115.369 400.562 115.461C400.19 115.553 399.808 115.442 399.491 115.15C398.307 113.784 396.824 113.057 395.302 113.098C393.558 113.112 391.883 114.068 390.611 115.773C389.408 117.481 388.724 119.797 388.708 122.22C388.711 123.421 388.88 124.609 389.206 125.716C389.533 126.823 390.01 127.826 390.611 128.666C391.883 130.371 393.558 131.327 395.302 131.342C396.822 131.373 398.302 130.652 399.491 129.3C399.812 128.991 400.202 128.862 400.586 128.937C400.97 129.012 401.322 129.287 401.573 129.708C401.81 130.154 401.917 130.715 401.869 131.271C401.821 131.827 401.623 132.334 401.318 132.685C399.594 134.581 397.478 135.602 395.302 135.585C392.803 135.598 390.401 134.207 388.612 131.713C386.824 129.22 385.792 125.822 385.738 122.252V122.252Z" fill="#2965F1"/>
<path d="M406.055 129.171C406.284 128.78 406.613 128.533 406.969 128.485C407.325 128.437 407.68 128.591 407.957 128.914C409.356 130.613 411.102 131.619 412.934 131.782C414.092 131.813 415.229 131.333 416.19 130.407C416.513 130.121 416.783 129.727 416.977 129.26C417.171 128.792 417.282 128.264 417.302 127.721C417.31 127.302 417.229 126.89 417.069 126.539C416.88 126.103 416.623 125.735 416.317 125.465C415.214 124.574 414.006 123.98 412.754 123.713H412.701C411.543 123.431 410.414 122.943 409.34 122.263C408.353 121.647 407.513 120.635 406.919 119.351C406.521 118.436 406.313 117.378 406.318 116.3C406.35 115.235 406.555 114.196 406.917 113.264C407.278 112.331 407.786 111.532 408.4 110.928C409.723 109.611 411.3 108.92 412.911 108.951C415.408 108.951 417.257 110.702 418.588 111.927C418.878 112.212 419.079 112.649 419.146 113.143C419.214 113.637 419.143 114.15 418.949 114.57C418.855 114.783 418.732 114.968 418.587 115.112C418.443 115.256 418.279 115.357 418.107 115.409C417.934 115.461 417.756 115.463 417.583 115.415C417.41 115.367 417.245 115.27 417.099 115.129C415.776 113.861 414.498 112.743 412.911 112.743C411.87 112.719 410.85 113.163 409.994 114.011C409.709 114.258 409.47 114.6 409.297 115.008C409.124 115.416 409.023 115.878 409.002 116.353C408.982 116.73 409.045 117.106 409.182 117.428C409.374 117.813 409.613 118.145 409.889 118.406C410.891 119.242 411.996 119.797 413.145 120.039H413.197C414.434 120.353 415.64 120.876 416.791 121.597C417.844 122.26 418.745 123.332 419.392 124.691C419.801 125.641 420.017 126.735 420.016 127.85C419.992 129 419.774 130.124 419.382 131.128C418.989 132.133 418.433 132.987 417.761 133.62C416.358 135.049 414.672 135.802 412.949 135.768C410.501 135.599 408.159 134.29 406.28 132.04C406.128 131.878 406.001 131.674 405.907 131.439C405.813 131.204 405.753 130.945 405.732 130.676C405.711 130.407 405.729 130.134 405.784 129.876C405.84 129.617 405.932 129.377 406.055 129.171V129.171Z" fill="#2965F1"/>
<path d="M423.166 129.172C423.396 128.78 423.724 128.534 424.08 128.485C424.436 128.437 424.791 128.591 425.068 128.914C426.464 130.613 428.208 131.619 430.038 131.782C431.197 131.813 432.334 131.333 433.294 130.407C433.619 130.123 433.891 129.73 434.087 129.262C434.282 128.794 434.394 128.265 434.414 127.721C434.422 127.302 434.341 126.89 434.181 126.539C433.99 126.105 433.733 125.738 433.429 125.465C432.326 124.574 431.118 123.98 429.865 123.713H429.76C428.602 123.432 427.473 122.945 426.399 122.263C425.412 121.647 424.572 120.635 423.978 119.351C423.58 118.436 423.371 117.378 423.377 116.3C423.409 115.235 423.614 114.196 423.976 113.264C424.337 112.332 424.845 111.532 425.459 110.928C426.781 109.61 428.359 108.918 429.971 108.951C432.474 108.951 434.324 110.702 435.655 111.927C435.944 112.214 436.143 112.651 436.21 113.144C436.277 113.637 436.208 114.149 436.016 114.57C435.922 114.783 435.799 114.968 435.654 115.112C435.51 115.256 435.346 115.357 435.174 115.409C435.001 115.461 434.823 115.463 434.65 115.415C434.477 115.367 434.312 115.27 434.166 115.129C432.835 113.861 431.565 112.744 429.971 112.744C428.93 112.722 427.91 113.165 427.053 114.011C426.77 114.26 426.532 114.603 426.361 115.011C426.189 115.418 426.089 115.879 426.068 116.354C426.048 116.73 426.112 117.106 426.249 117.428C426.438 117.816 426.678 118.148 426.956 118.406C427.957 119.244 429.063 119.799 430.211 120.039H430.256C431.496 120.352 432.705 120.875 433.858 121.597C434.911 122.26 435.812 123.332 436.459 124.691C436.868 125.641 437.084 126.735 437.083 127.85C437.057 128.999 436.839 130.123 436.446 131.127C436.054 132.13 435.499 132.985 434.828 133.62C433.421 135.048 431.733 135.8 430.008 135.769C427.561 135.594 425.22 134.285 423.339 132.04C423.191 131.873 423.068 131.664 422.979 131.427C422.89 131.189 422.835 130.928 422.819 130.659C422.803 130.391 422.825 130.12 422.885 129.864C422.945 129.608 423.04 129.373 423.166 129.172V129.172Z" fill="#2965F1"/>
<path d="M379.431 89.2455C379.431 89.6705 379.342 90.086 379.177 90.4394C379.012 90.7928 378.777 91.0682 378.502 91.2308C378.228 91.3935 377.925 91.436 377.633 91.3531C377.342 91.2702 377.074 91.0655 376.863 90.765C376.653 90.4645 376.51 90.0816 376.452 89.6648C376.394 89.2479 376.424 88.8159 376.537 88.4232C376.651 88.0305 376.844 87.6949 377.091 87.4588C377.339 87.2227 377.629 87.0967 377.927 87.0967C378.326 87.0967 378.708 87.3231 378.99 87.7261C379.272 88.1291 379.431 88.6756 379.431 89.2455Z" fill="#E44D26"/>
<path d="M385.558 89.2455C385.558 89.6705 385.47 90.086 385.305 90.4394C385.139 90.7928 384.905 91.0682 384.63 91.2308C384.355 91.3935 384.053 91.436 383.761 91.3531C383.469 91.2702 383.201 91.0655 382.991 90.765C382.781 90.4645 382.638 90.0816 382.58 89.6648C382.522 89.2479 382.551 88.8159 382.665 88.4232C382.779 88.0305 382.972 87.6949 383.219 87.4588C383.466 87.2227 383.757 87.0967 384.054 87.0967C384.453 87.0967 384.836 87.3231 385.118 87.7261C385.4 88.1291 385.558 88.6756 385.558 89.2455Z" fill="#E4A126"/>
<path d="M391.678 89.2455C391.678 89.6705 391.59 90.086 391.425 90.4394C391.26 90.7928 391.025 91.0682 390.75 91.2308C390.475 91.3935 390.173 91.436 389.881 91.3531C389.59 91.2702 389.322 91.0655 389.111 90.765C388.901 90.4645 388.758 90.0816 388.7 89.6648C388.642 89.2479 388.672 88.8159 388.785 88.4232C388.899 88.0305 389.092 87.6949 389.339 87.4588C389.587 87.2227 389.877 87.0967 390.175 87.0967C390.573 87.0967 390.956 87.3231 391.238 87.7261C391.52 88.1291 391.678 88.6756 391.678 89.2455Z" fill="#62BD6B"/>
<path d="M259.432 413.379C257.305 414.55 195.606 416.151 193.193 414.185C192.93 413.96 192.997 410.07 192.095 400.003C192.05 399.519 190.636 397.65 188.441 395.017C180.17 385.133 160.802 364.299 160.802 364.299L191.629 326.071L221.47 367.974L229.23 378.869C229.23 378.869 254.44 398.327 256.936 400.894C259.432 403.462 261.56 412.219 259.432 413.379Z" fill="#DD6A57"/>
<path d="M259.432 413.379C257.304 414.55 195.606 416.151 193.193 414.185C192.929 413.959 193.005 410.07 192.087 400.003C192.05 399.519 190.644 397.66 188.441 395.017C185.569 391.579 184.208 390.01 179.937 385.261L219.087 364.708L221.433 367.995L229.192 378.901C229.192 378.901 254.402 398.348 256.898 400.916C259.394 403.484 261.56 412.219 259.432 413.379Z" fill="#EBEBEB"/>
<path d="M263.68 414.593C261.537 415.668 195.801 416.688 193.433 414.593C192.877 414.099 192.365 408.641 191.929 401.163C191.877 400.228 185.215 392.621 184.305 391.214L224.591 371.874L229.681 378.707C229.681 378.707 259.327 398.423 261.748 401.109C264.169 403.795 265.853 413.53 263.68 414.593Z" fill="#2965F1"/>
<path d="M262.771 411.09C252.44 410.897 206.629 411.531 196.411 412.466C196.328 412.466 196.328 412.552 196.411 412.552C206.644 413.067 252.455 411.95 262.771 411.338C262.989 411.316 262.989 411.101 262.771 411.09Z" fill="#263238"/>
<path d="M232.997 379.309C228.921 378.299 223.974 379.309 220.891 383.456C220.771 383.618 220.937 383.854 221.064 383.8C224.931 381.942 228.927 380.682 232.982 380.04C233.049 380.043 233.115 380.007 233.165 379.94C233.214 379.874 233.243 379.782 233.245 379.685C233.247 379.588 233.222 379.494 233.175 379.424C233.129 379.353 233.064 379.312 232.997 379.309V379.309Z" fill="#263238"/>
<path d="M235.951 381.791C231.876 380.77 226.929 381.791 223.846 385.938C223.726 386.1 223.884 386.336 224.019 386.272C227.886 384.417 231.882 383.16 235.936 382.522C236.004 382.525 236.07 382.489 236.119 382.422C236.169 382.356 236.198 382.264 236.2 382.167C236.202 382.07 236.177 381.976 236.13 381.906C236.083 381.835 236.019 381.794 235.951 381.791V381.791Z" fill="#263238"/>
<path d="M238.898 384.262C234.831 383.252 229.876 384.262 226.794 388.41C226.681 388.571 226.839 388.807 226.974 388.753C230.841 386.896 234.836 385.635 238.891 384.993C238.959 384.994 239.024 384.957 239.073 384.89C239.121 384.822 239.149 384.73 239.15 384.633C239.151 384.536 239.125 384.443 239.078 384.373C239.031 384.304 238.966 384.264 238.898 384.262V384.262Z" fill="#263238"/>
<path d="M241.853 386.744C237.786 385.724 232.831 386.744 229.748 390.892C229.628 391.053 229.794 391.289 229.929 391.225C233.796 389.369 237.791 388.112 241.846 387.475C241.913 387.476 241.979 387.439 242.028 387.372C242.076 387.304 242.104 387.212 242.105 387.115C242.106 387.018 242.08 386.925 242.033 386.855C241.986 386.786 241.921 386.746 241.853 386.744Z" fill="#263238"/>
<path d="M240.387 365.782C238.771 362.666 235.808 364.127 234.124 366.19C231.286 369.811 229.165 374.436 227.974 379.599C227.968 379.622 227.965 379.646 227.967 379.67C227.969 379.694 227.975 379.718 227.985 379.738C227.995 379.758 228.008 379.774 228.023 379.786C228.038 379.797 228.054 379.803 228.071 379.803C228.07 379.917 228.087 380.03 228.121 380.132C228.155 380.235 228.206 380.325 228.268 380.395C228.331 380.465 228.404 380.513 228.483 380.535C228.561 380.557 228.641 380.553 228.718 380.523C232.056 378.686 235.786 377.3 238.635 374.076C240.289 372.164 241.921 368.704 240.387 365.782ZM233.387 376.258C231.756 377.214 230.109 378.052 228.5 379.105C229.71 376.494 230.831 373.819 232.214 371.38C232.87 370.195 233.58 369.075 234.342 368.027C235.538 366.427 240.297 363.01 239.605 369.392C239.267 372.884 235.327 375.097 233.387 376.236V376.258Z" fill="#263238"/>
<path d="M217.636 378.235C221.004 380.211 224.854 380.05 228.418 380.48C228.497 380.478 228.575 380.45 228.646 380.398C228.716 380.346 228.777 380.271 228.824 380.179C228.871 380.088 228.902 379.982 228.915 379.87C228.928 379.758 228.922 379.643 228.899 379.535C228.914 379.526 228.928 379.512 228.939 379.495C228.951 379.477 228.959 379.457 228.964 379.434C228.969 379.412 228.971 379.388 228.968 379.364C228.966 379.341 228.961 379.318 228.952 379.298C226.806 374.812 223.87 371.213 220.44 368.866C218.425 367.544 215.29 367.318 214.343 370.95C213.44 374.377 215.673 377.074 217.636 378.235ZM215.771 374.119C213.892 368.253 219.125 369.65 220.583 370.714C221.521 371.418 222.423 372.215 223.282 373.099C225.04 374.953 226.732 376.933 228.35 379.03C226.606 378.664 224.854 378.514 223.087 378.245C221.019 377.912 216.801 377.354 215.771 374.119Z" fill="#263238"/>
<path d="M221.854 365.642L183.794 393.835C183.794 393.835 144.141 342.542 140.509 342.155C136.878 341.769 83.5325 393.502 56.6758 393.717C28.8567 393.889 27.4507 352.244 27.4507 352.244L68.0516 338.921C97.2992 318.325 127.765 281.332 147.697 284.781C169.313 288.477 221.854 365.642 221.854 365.642Z" fill="#144359"/>
<path d="M212.56 358.465C206.132 363.01 207.937 361.581 201.546 366.222C198.418 368.489 182.681 379.835 180.005 382.64C179.952 382.704 180.005 382.854 180.073 382.822C183.215 381.318 198.779 369.489 201.877 367.136C208.207 362.333 206.388 363.622 212.651 358.723C212.663 358.714 212.673 358.703 212.682 358.688C212.69 358.674 212.697 358.657 212.701 358.639C212.705 358.621 212.707 358.603 212.706 358.584C212.705 358.565 212.702 358.546 212.696 358.529C212.69 358.512 212.682 358.497 212.672 358.485C212.662 358.473 212.65 358.463 212.637 358.457C212.625 358.451 212.612 358.449 212.598 358.45C212.585 358.451 212.572 358.456 212.56 358.465V358.465Z" fill="#263238"/>
<path d="M177.058 380.824C169.614 371.455 145.231 340.931 144.246 339.792C143.478 338.743 142.625 337.831 141.705 337.073C141.325 336.861 140.917 336.775 140.51 336.822C140.104 336.868 139.71 337.046 139.359 337.342C138.231 338.094 137.103 338.921 136.006 339.695L129.412 344.293C120.885 350.235 112.404 356.338 103.81 362.097C95.5399 367.619 89.6453 372.841 81.0138 377.139C72.4474 381.453 63.5865 384.463 54.5781 386.121C53.4653 386.314 52.3525 386.486 51.2398 386.637C51.2265 386.643 51.215 386.656 51.2069 386.672C51.1987 386.688 51.1943 386.708 51.1943 386.728C51.1943 386.748 51.1987 386.768 51.2069 386.784C51.215 386.8 51.2265 386.813 51.2398 386.819C60.094 386.064 68.8479 383.736 77.2996 379.889C85.8483 376.14 91.6452 371.294 99.7729 365.922C108.186 360.388 116.479 354.468 124.773 348.57C129.156 345.465 133.524 342.317 137.915 339.244C138.915 338.556 140.329 337.041 141.472 337.782C141.946 338.166 142.385 338.631 142.78 339.168L144.284 340.909C146.163 343.144 176.05 379.932 177.028 380.985C177.028 381.071 177.133 380.931 177.058 380.824Z" fill="#263238"/>
<path d="M27.3755 352.191C27.3755 352.191 22.8643 389.796 35.9844 404.569C49.1045 419.342 145.554 417.559 160.163 410.801C174.772 404.043 175.253 370.316 159.261 362.505C144.05 355.038 79.3897 351.46 77.7506 350.547C77.3521 350.321 83.4949 345.056 83.4648 344.734L68.7432 338.288L27.3755 352.191Z" fill="#144359"/>
<path d="M47.3451 351.234C47.3451 351.073 47.1571 351.127 47.1571 351.234C47.1665 355.597 46.1019 359.827 44.1497 363.182C41.8941 366.878 38.6084 368.951 35.616 371.111C35.3303 371.315 35.5483 371.96 35.8415 371.831C37.6734 371.036 39.4384 369.955 41.1046 368.608C42.642 367.436 43.9956 365.827 45.082 363.88C46.0515 362.111 46.7532 360.074 47.1428 357.897C47.5324 355.72 47.6013 353.451 47.3451 351.234V351.234Z" fill="#263238"/>
<path d="M76.698 346.582C76.0289 345.357 75.2996 344.197 74.6003 343.015C72.9537 340.21 71.2996 337.395 69.5703 334.699C69.4125 334.441 69.0891 334.806 69.2395 335.085C70.4049 337.234 71.6305 339.383 72.841 341.478L74.7131 344.702C75.3696 345.691 75.9563 346.771 76.465 347.925C76.9161 349.128 76.3221 350.16 75.4424 350.289C74.6727 350.327 73.9219 349.943 73.3447 349.214C72.0385 347.561 70.8429 345.737 69.7734 343.767C69.0816 342.692 68.3824 341.532 67.6831 340.436C66.9839 339.34 66.1343 338.148 65.3824 336.976C65.3373 336.901 65.2471 336.976 65.2847 337.095C65.9388 338.373 66.5403 339.705 67.1944 340.995C67.8486 342.284 68.5177 343.541 69.1869 344.798C69.856 346.055 70.4876 347.151 71.1718 348.301C71.7389 349.307 72.4169 350.174 73.1793 350.869C74.4274 351.943 76.6003 352.147 77.2695 349.794C77.3867 349.235 77.3955 348.641 77.2949 348.075C77.1942 347.509 76.9879 346.993 76.698 346.582V346.582Z" fill="#263238"/>
<path d="M158.163 410.908C153.133 411.037 148.096 411.456 143.058 411.606C138.021 411.757 133.066 411.8 128.073 411.735C118.048 411.606 108.024 411.051 97.9986 410.07C87.8785 409.071 76.9463 407.631 66.9239 405.633C62.1119 404.687 57.2398 403.892 52.488 402.409C48.2136 401.247 44.2611 398.361 41.0971 394.093C34.586 385.079 32.0747 371.81 31.0221 359.142C30.8792 357.445 30.7665 355.736 30.6687 354.028C30.6687 353.92 30.5409 353.92 30.5484 354.028C31.1349 367.018 32.5484 380.566 38.2701 391.01C40.6825 395.57 43.8966 399.136 47.5858 401.346C52.097 403.924 57.0819 404.569 61.8713 405.45C71.9614 407.405 82.9236 408.92 93.0588 410.038C103.194 411.155 113.51 411.875 123.75 412.09C133.991 412.305 144.246 412.09 154.472 411.381C155.72 411.295 156.968 411.187 158.231 411.037C158.238 411.022 158.241 411.005 158.24 410.987C158.24 410.97 158.236 410.953 158.228 410.939C158.221 410.925 158.211 410.914 158.199 410.909C158.188 410.903 158.175 410.903 158.163 410.908V410.908Z" fill="#263238"/>
<path d="M126.412 355.65C123.246 354.984 120.081 354.339 116.893 353.856C113.705 353.372 110.449 352.964 107.224 352.577C100.848 351.804 94.4422 351.116 88.0588 350.686C84.4273 350.439 80.7957 350.418 77.1642 350.482C77.0439 350.482 77.0514 350.719 77.1642 350.74C83.5551 351.567 89.946 352.137 96.3594 352.749C102.773 353.362 109.141 354.157 115.509 355.027C119.126 355.521 122.742 355.897 126.359 356.316C126.421 356.326 126.483 356.301 126.531 356.245C126.58 356.19 126.611 356.109 126.618 356.021C126.625 355.933 126.607 355.844 126.569 355.774C126.53 355.705 126.473 355.66 126.412 355.65V355.65Z" fill="#263238"/>
<path d="M84.2167 344.294C81.6648 345.865 79.21 347.741 76.8785 349.902C74.5135 351.934 72.2522 354.203 70.1117 356.692C70.0516 356.768 70.1117 356.875 70.1869 356.832C72.6756 355.188 75.074 353.125 77.4424 351.159C79.8465 349.229 82.1688 347.098 84.3972 344.777C84.525 344.594 84.4273 344.154 84.2167 344.294Z" fill="#263238"/>
<path d="M72.1342 306.688L65.8561 305.227C64.6648 299.702 64.7068 293.784 65.9764 288.294C66.2546 287.037 63.1644 293.881 62.6682 304.497C56.0367 302.982 47.0218 300.919 39.1648 299.006C39.5783 294.59 39.8189 290.475 39.8189 290.475C39.2017 293.282 38.4091 296.005 37.4505 298.609L34.3152 297.835C35.4205 291.098 36.1423 279.054 36.1423 279.054C34.7352 285.391 32.6091 291.355 29.8491 296.707C24.8718 295.418 21.5786 294.451 21.8643 294.161C30.9844 283.814 26.3755 275.251 29.9318 264.947C34.1874 252.602 42.3076 252.602 43.3376 242.76C44.1873 234.755 45.3602 220.132 52.7961 218.908C55.043 216.748 57.6852 215.582 60.393 215.555C63.1007 215.528 65.754 216.642 68.0215 218.757C78.3522 227.772 70.7884 251.151 70.9011 256.362C71.059 263.776 73.1116 266.913 73.8334 275.509C74.5552 284.104 71.2545 288.993 70.232 294.494C69.2094 299.995 73.3748 306.968 72.1342 306.688Z" fill="#263238"/>
<path d="M21.8643 292.345C23.1729 290.47 24.2892 288.339 25.18 286.017C26.0672 283.739 26.1424 281.192 26.1274 278.496C26.0628 275.791 26.0955 273.083 26.2251 270.384C26.3807 267.575 26.9277 264.839 27.8341 262.336C28.783 259.846 30.1209 257.703 31.7438 256.072C33.3106 254.523 34.9655 253.165 36.6911 252.011C38.3548 250.905 39.9116 249.497 41.3227 247.821C42.6964 246.043 43.7028 243.761 44.2324 241.224C43.9622 243.964 43.1122 246.521 41.7963 248.551C40.4511 250.501 38.9074 252.149 37.2174 253.44C35.6033 254.705 34.0487 256.119 32.5634 257.673C31.1454 259.198 29.9757 261.145 29.1348 263.378C28.3244 265.65 27.8146 268.116 27.6311 270.652C27.4055 273.231 27.4055 275.874 27.3078 278.582C27.2659 279.96 27.1503 281.332 26.9619 282.686C26.7424 284.066 26.3529 285.379 25.8116 286.565C24.7438 288.808 23.4076 290.765 21.8643 292.345V292.345Z" fill="#263238"/>
<path d="M73.1341 229.544C73.5113 232.814 73.6072 236.137 73.4198 239.44C73.2845 242.738 73.0364 246.026 72.7657 249.292L72.3898 254.17C72.2515 255.742 72.2213 257.329 72.2995 258.909C72.573 262.063 73.2429 265.12 74.277 267.934C74.7722 269.468 75.1966 271.048 75.5477 272.661C75.8829 274.318 76.0922 276.022 76.1717 277.743C76.2061 279.444 76.1534 281.146 76.0138 282.836C75.8786 284.537 75.5983 286.207 75.1792 287.811C74.7582 289.422 74.2319 290.905 73.7582 292.366C73.2835 293.824 72.9059 295.342 72.6304 296.901C72.391 298.472 72.4184 300.102 72.7101 301.656C73.0018 303.209 73.5493 304.64 74.3071 305.829C73.4141 304.708 72.7296 303.288 72.315 301.696C71.9003 300.104 71.7684 298.39 71.9311 296.707C72.1231 295.043 72.4355 293.412 72.8635 291.84C73.2695 290.261 73.7507 288.789 74.074 287.274C74.6994 284.225 74.9313 281.039 74.7582 277.872C74.6618 276.31 74.4553 274.766 74.1417 273.263C73.8007 271.739 73.3887 270.249 72.9086 268.804C72.4113 267.285 71.9721 265.728 71.5928 264.141C71.2106 262.496 70.9731 260.788 70.886 259.059C70.8367 257.353 70.9022 255.644 71.0815 253.956C71.2319 252.312 71.4198 250.678 71.6078 249.056C71.9762 245.833 72.3597 242.61 72.683 239.332C73.0698 236.101 73.221 232.821 73.1341 229.544V229.544Z" fill="#263238"/>
<path d="M54.9315 279.634C58.6382 294.042 75.4199 331.604 83.1943 337.116C88.9461 341.177 106.119 346.163 108.329 345.378C111.517 344.304 118.652 313.317 115.735 313.017C101.705 311.566 92.7731 308.966 89.4649 307.097C86.6754 305.517 75.0515 290.174 59.969 271.436C54.7134 264.914 52.706 271.017 54.9315 279.634Z" fill="#A75F56"/>
<path d="M63.5479 311.115L73.1793 284.888C73.1793 284.888 65.3824 275.014 60.5254 270.416C54.0969 264.345 51.0067 266.333 53.5104 279.355C55.1796 288.058 63.5479 311.115 63.5479 311.115Z" fill="#2965F1"/>
<path d="M64.3524 274.391H64.2697C63.9505 274.391 63.641 274.234 63.3932 273.946C63.1454 273.659 62.9744 273.258 62.9088 272.812C63.375 273.381 63.8562 273.843 64.3524 274.391ZM64.2697 305.163C63.9008 305.163 63.547 305.372 63.2861 305.745C63.0253 306.118 62.8787 306.623 62.8787 307.15C62.8787 307.677 63.0253 308.183 63.2861 308.556C63.547 308.929 63.9008 309.138 64.2697 309.138V309.138L65.405 306.033C65.2787 305.766 65.1085 305.547 64.9093 305.395C64.7101 305.243 64.4879 305.163 64.2622 305.163H64.2697ZM56.5705 287.972C56.3203 287.969 56.0747 288.069 55.8638 288.262C56.2247 289.433 56.6156 290.636 56.9841 291.85C57.2678 291.728 57.5162 291.477 57.6923 291.137C57.8685 290.796 57.9629 290.383 57.9615 289.959C57.9635 289.696 57.9287 289.434 57.8593 289.19C57.7898 288.945 57.687 288.723 57.5568 288.536C57.4266 288.349 57.2717 288.201 57.1011 288.1C56.9305 288 56.7476 287.949 56.563 287.95L56.5705 287.972ZM71.9689 287.972C71.7862 287.972 71.6053 288.023 71.4366 288.123C71.2678 288.223 71.1145 288.369 70.9853 288.554C70.8562 288.738 70.7537 288.958 70.6838 289.199C70.6139 289.44 70.5779 289.698 70.5779 289.959C70.5776 290.405 70.6837 290.837 70.8787 291.184L72.0591 287.961L71.9689 287.972Z" fill="white"/>
<path d="M62.7886 307.15C64.0066 303.197 65.2547 299.275 66.6381 295.428C67.3198 293.509 68.0265 291.604 68.7584 289.713C69.5102 287.822 70.3523 286.038 71.059 284.136C71.0966 284.04 71.2094 284.136 71.1643 284.233C70.4124 286.07 69.7884 288.09 69.0816 289.981C68.3749 291.872 67.6757 293.806 66.984 295.719C65.6005 299.544 64.2171 303.379 62.8938 307.247C62.8487 307.355 62.751 307.258 62.7886 307.15Z" fill="#263238"/>
<path opacity="0.1" d="M71.6681 289.014L63.5479 311.126C63.5479 311.126 55.1872 288.058 53.503 279.355C52.7511 275.326 52.4955 272.36 52.7511 270.351L71.6681 289.014Z" fill="black"/>
<path d="M108.329 345.368C111.366 347.745 114.508 349.838 117.735 351.632C120.314 352.889 127.803 356.22 129.051 352.298C129.908 349.623 125.667 346.926 122.69 344.917C121.126 343.842 119.239 341.35 119.758 339.91C120.66 337.406 124.69 340.254 127.314 342.671C132.396 347.356 139.103 355.629 142.419 352.051C143.667 350.697 142.351 348 140.389 345.303C143.614 348.527 147.08 351.181 148.517 349.762C149.336 348.946 149.411 347.764 149.013 346.389C149.424 346.693 149.889 346.817 150.349 346.744C150.81 346.671 151.244 346.406 151.599 345.98C152.735 344.444 152.283 342.016 151.178 339.534C151.382 339.516 151.58 339.43 151.757 339.283C151.933 339.135 152.083 338.93 152.193 338.685C154.644 333.85 143.652 318.776 139.735 317.196C128.209 312.469 115.758 313.092 115.758 313.092C110.968 317.948 108.322 345.368 108.329 345.368Z" fill="#A75F56"/>
<path d="M126.006 330.992C128.768 331.757 131.377 333.39 133.645 335.773C136.276 338.631 138.321 342.413 140.735 345.604C140.802 345.69 140.735 345.83 140.637 345.744C139.509 344.1 138.253 342.617 137.073 341.048C135.893 339.48 134.817 337.911 133.584 336.493C131.378 333.879 128.783 332.02 125.998 331.056C125.998 331.056 125.938 330.981 126.006 330.992Z" fill="#263238"/>
<path d="M128.374 324.062C131.458 325.314 134.444 327.017 137.284 329.144C140.291 331.615 142.637 335.462 144.915 339.179C146.283 341.414 147.622 343.681 148.923 346.002C148.975 346.099 148.877 346.238 148.825 346.142C146.509 342.302 144.118 338.57 141.652 334.946C139.377 331.557 136.656 328.844 133.645 326.963C131.923 325.889 130.148 325.018 128.382 324.137C128.321 324.127 128.336 324.051 128.374 324.062Z" fill="#263238"/>
<path d="M131.848 318.099C134.795 319.173 137.366 320.086 139.923 322.547C143.314 325.77 146.517 331.142 147.644 332.979C148.885 335.053 150.073 337.191 151.246 339.351C151.291 339.437 151.186 339.555 151.133 339.469C148.45 334.728 145.557 330.239 142.471 326.028C141.022 323.992 139.36 322.289 137.547 320.978C135.706 319.797 133.797 318.848 131.84 318.142C131.84 318.142 131.833 318.099 131.848 318.099Z" fill="#263238"/>
<path d="M23.8041 360.292C25.586 361.119 76.4349 340.092 76.4349 340.092L70.42 314.876C70.42 314.876 73.4274 306.764 72.0064 298.963C70.1718 288.541 56.6683 271.404 55.6081 270.394C51.3526 266.365 47.3376 266.43 43.8263 269.105C29.1273 280.268 23.8041 360.292 23.8041 360.292Z" fill="#2965F1"/>
<path d="M50.2547 272.414C50.2547 272.807 50.1732 273.191 50.0203 273.518C49.8675 273.845 49.6502 274.1 49.3961 274.25C49.1419 274.401 48.8622 274.44 48.5924 274.363C48.3226 274.287 48.0748 274.097 47.8802 273.819C47.6857 273.541 47.5532 273.187 47.4996 272.802C47.4459 272.416 47.4734 272.017 47.5787 271.653C47.684 271.29 47.8623 270.98 48.091 270.761C48.3198 270.543 48.5887 270.426 48.8638 270.426C49.2327 270.426 49.5865 270.636 49.8473 271.008C50.1082 271.381 50.2547 271.887 50.2547 272.414V272.414ZM33.4655 305.163C33.1904 305.163 32.9215 305.279 32.6928 305.498C32.464 305.716 32.2857 306.026 32.1805 306.39C32.0752 306.753 32.0476 307.152 32.1013 307.538C32.155 307.924 32.2875 308.278 32.482 308.556C32.6765 308.834 32.9244 309.023 33.1942 309.1C33.464 309.176 33.7437 309.137 33.9978 308.987C34.252 308.836 34.4692 308.581 34.6221 308.255C34.7749 307.928 34.8565 307.543 34.8565 307.15C34.8565 306.889 34.8205 306.631 34.7506 306.39C34.6807 306.148 34.5783 305.929 34.4491 305.745C34.3199 305.56 34.1666 305.414 33.9978 305.314C33.8291 305.214 33.6482 305.163 33.4655 305.163V305.163ZM48.8638 305.163C48.5887 305.163 48.3198 305.279 48.091 305.498C47.8623 305.716 47.684 306.026 47.5787 306.39C47.4734 306.753 47.4459 307.152 47.4996 307.538C47.5532 307.924 47.6857 308.278 47.8802 308.556C48.0748 308.834 48.3226 309.023 48.5924 309.1C48.8622 309.176 49.1419 309.137 49.3961 308.987C49.6502 308.836 49.8675 308.581 50.0203 308.255C50.1732 307.928 50.2547 307.543 50.2547 307.15C50.2547 306.889 50.2188 306.631 50.1489 306.39C50.079 306.148 49.9765 305.929 49.8473 305.745C49.7182 305.56 49.5648 305.414 49.3961 305.314C49.2273 305.214 49.0465 305.163 48.8638 305.163V305.163ZM64.262 305.163C63.9869 305.163 63.718 305.279 63.4893 305.498C63.2605 305.716 63.0822 306.026 62.977 306.39C62.8717 306.753 62.8441 307.152 62.8978 307.538C62.9515 307.924 63.084 308.278 63.2785 308.556C63.473 308.834 63.7209 309.023 63.9907 309.1C64.2605 309.176 64.5402 309.137 64.7943 308.987C65.0485 308.836 65.2657 308.581 65.4186 308.255C65.5714 307.928 65.653 307.543 65.653 307.15C65.653 306.889 65.617 306.631 65.5471 306.39C65.4772 306.148 65.3747 305.929 65.2456 305.745C65.1164 305.56 64.9631 305.414 64.7943 305.314C64.6256 305.214 64.4447 305.163 64.262 305.163V305.163ZM41.1647 287.972C40.8886 287.97 40.6184 288.085 40.3883 288.303C40.1583 288.521 39.9788 288.832 39.8729 289.196C39.7669 289.561 39.7391 289.962 39.7932 290.349C39.8472 290.735 39.9806 291.09 40.1764 291.369C40.3721 291.647 40.6213 291.836 40.8923 291.911C41.1633 291.986 41.4439 291.944 41.6982 291.791C41.9525 291.637 42.1692 291.379 42.3205 291.049C42.4719 290.719 42.5511 290.332 42.5481 289.938C42.5481 289.413 42.4026 288.909 42.1434 288.536C41.8841 288.164 41.5323 287.953 41.1647 287.95V287.972ZM56.5629 287.972C56.2878 287.972 56.0189 288.088 55.7901 288.307C55.5614 288.525 55.3831 288.836 55.2778 289.199C55.1726 289.562 55.145 289.962 55.1987 290.347C55.2524 290.733 55.3848 291.087 55.5794 291.365C55.7739 291.643 56.0217 291.832 56.2916 291.909C56.5614 291.986 56.841 291.946 57.0952 291.796C57.3494 291.645 57.5666 291.391 57.7194 291.064C57.8723 290.737 57.9539 290.352 57.9539 289.959C57.9559 289.697 57.9213 289.436 57.8523 289.192C57.7833 288.948 57.6812 288.727 57.5518 288.54C57.4225 288.353 57.2685 288.205 57.0987 288.104C56.929 288.002 56.7468 287.95 56.5629 287.95V287.972ZM33.4655 339.899C33.1904 339.899 32.9215 340.015 32.6928 340.234C32.464 340.452 32.2857 340.763 32.1805 341.126C32.0752 341.489 32.0476 341.889 32.1013 342.274C32.155 342.66 32.2875 343.014 32.482 343.292C32.6765 343.57 32.9244 343.759 33.1942 343.836C33.464 343.913 33.7437 343.873 33.9978 343.723C34.252 343.572 34.4692 343.318 34.6221 342.991C34.7749 342.664 34.8565 342.28 34.8565 341.887C34.8565 341.359 34.7099 340.854 34.4491 340.481C34.1882 340.108 33.8344 339.899 33.4655 339.899V339.899ZM48.8638 339.899C48.5887 339.899 48.3198 340.015 48.091 340.234C47.8623 340.452 47.684 340.763 47.5787 341.126C47.4734 341.489 47.4459 341.889 47.4996 342.274C47.5532 342.66 47.6857 343.014 47.8802 343.292C48.0748 343.57 48.3226 343.759 48.5924 343.836C48.8622 343.913 49.1419 343.873 49.3961 343.723C49.6502 343.572 49.8675 343.318 50.0203 342.991C50.1732 342.664 50.2547 342.28 50.2547 341.887C50.2547 341.359 50.1082 340.854 49.8473 340.481C49.5865 340.108 49.2327 339.899 48.8638 339.899V339.899ZM64.262 339.899C63.9869 339.899 63.718 340.015 63.4893 340.234C63.2605 340.452 63.0822 340.763 62.977 341.126C62.8717 341.489 62.8441 341.889 62.8978 342.274C62.9515 342.66 63.084 343.014 63.2785 343.292C63.473 343.57 63.7209 343.759 63.9907 343.836C64.2605 343.913 64.5402 343.873 64.7943 343.723C65.0485 343.572 65.2657 343.318 65.4186 342.991C65.5714 342.664 65.653 342.28 65.653 341.887C65.653 341.359 65.5064 340.854 65.2456 340.481C64.9847 340.108 64.6309 339.899 64.262 339.899V339.899ZM41.1647 322.708C40.8886 322.706 40.6184 322.821 40.3883 323.039C40.1583 323.257 39.9788 323.568 39.8729 323.933C39.7669 324.297 39.7391 324.698 39.7932 325.085C39.8472 325.472 39.9806 325.827 40.1764 326.105C40.3721 326.383 40.6213 326.572 40.8923 326.647C41.1633 326.722 41.4439 326.68 41.6982 326.527C41.9525 326.373 42.1692 326.115 42.3205 325.785C42.4719 325.455 42.5511 325.069 42.5481 324.674C42.5481 324.149 42.4026 323.645 42.1434 323.272C41.8841 322.9 41.5323 322.689 41.1647 322.686V322.708ZM56.5629 322.708C56.2878 322.708 56.0189 322.825 55.7901 323.043C55.5614 323.261 55.3831 323.572 55.2778 323.935C55.1726 324.298 55.145 324.698 55.1987 325.083C55.2524 325.469 55.3848 325.823 55.5794 326.101C55.7739 326.379 56.0217 326.568 56.2916 326.645C56.5614 326.722 56.841 326.682 57.0952 326.532C57.3494 326.382 57.5666 326.127 57.7194 325.8C57.8723 325.473 57.9539 325.089 57.9539 324.696C57.9559 324.433 57.9213 324.172 57.8523 323.928C57.7833 323.685 57.6812 323.463 57.5518 323.276C57.4225 323.089 57.2685 322.941 57.0987 322.84C56.929 322.739 56.7468 322.686 56.5629 322.686V322.708ZM72.2995 322.772C72.1894 322.728 72.0755 322.707 71.9612 322.708C71.5923 322.708 71.2385 322.917 70.9776 323.29C70.7168 323.663 70.5702 324.168 70.5702 324.696C70.5702 325.223 70.7168 325.728 70.9776 326.101C71.2385 326.474 71.5923 326.683 71.9612 326.683C72.17 326.686 72.3764 326.619 72.5642 326.489C72.7521 326.358 72.9162 326.167 73.0438 325.931L72.2995 322.772ZM25.7664 357.423C25.3975 357.423 25.0437 357.632 24.7829 358.005C24.522 358.378 24.3755 358.883 24.3755 359.41C24.373 359.698 24.4194 359.982 24.5108 360.238C25.0897 360.12 26.0145 359.851 27.1498 359.475C27.1534 359.454 27.1534 359.432 27.1498 359.41C27.1499 358.885 27.0043 358.381 26.7451 358.009C26.4859 357.636 26.134 357.426 25.7664 357.423V357.423Z" fill="white"/>
<path d="M54.1119 313.06C56.2986 312.472 58.5125 312.112 60.7358 311.985C61.8411 311.985 62.9388 311.985 64.0441 312.061C64.5929 312.061 65.1418 312.061 65.6907 312.114C66.2685 312.139 66.8464 312.067 67.4125 311.899C67.4576 311.899 67.4801 311.985 67.4125 312.007C66.8957 312.253 66.3683 312.45 65.8335 312.598C65.3132 312.711 64.7883 312.775 64.2621 312.791C63.1418 312.845 62.0065 312.791 60.8937 312.856C58.6381 312.92 56.3825 312.995 54.1269 313.296C54.0292 313.328 54.0066 313.135 54.1119 313.06Z" fill="#263238"/>
<path d="M49.3751 317.863C51.0805 316.899 52.8226 316.074 54.593 315.391C55.4802 315.048 56.375 314.79 57.2772 314.553L58.5704 314.252C59.0516 314.156 59.5404 314.145 60.014 314.038C60.024 314.038 60.0336 314.043 60.0406 314.053C60.0477 314.063 60.0516 314.077 60.0516 314.091C60.0516 314.106 60.0477 314.119 60.0406 314.129C60.0336 314.139 60.024 314.145 60.014 314.145C59.5704 314.263 59.1343 314.5 58.6983 314.661L57.3674 315.134C56.4802 315.456 55.593 315.789 54.7058 316.101C52.9239 316.724 51.157 317.368 49.3976 318.077C49.3777 318.082 49.3574 318.075 49.3411 318.057C49.3249 318.04 49.3141 318.015 49.3111 317.986C49.3082 317.958 49.3132 317.929 49.3252 317.905C49.3372 317.882 49.3551 317.867 49.3751 317.863Z" fill="#263238"/>
<path d="M47.0142 267.805C47.0142 269.148 50.1344 278.764 54.2923 279.688C55.6457 279.989 57.1193 269.502 57.1193 269.502L57.3524 268.761L60.6005 258.425L51.7359 246.188C51.7359 246.188 47.0067 267.225 47.0142 267.805Z" fill="#A75F56"/>
<path d="M60.5931 258.425L57.345 268.761C55.4536 267.065 53.833 264.82 52.5882 262.171C51.3434 259.523 50.5023 256.53 50.1195 253.386C50.9315 249.733 51.6232 246.703 51.706 246.252C51.7098 246.231 51.7098 246.209 51.706 246.188L52.8413 247.649L60.5931 258.425Z" fill="#263238"/>
<path d="M72.8635 243.996C71.638 263.808 63.187 264.99 60.2021 264.614C57.4878 264.259 48.2774 262.594 48.0594 242.695C47.8414 222.797 54.6834 217.36 60.9238 217.683C67.1643 218.005 74.1266 224.172 72.8635 243.996Z" fill="#A75F56"/>
<path d="M70.9688 240.503C70.6647 240.361 70.3661 240.196 70.0741 240.009C69.7391 239.904 69.4394 239.639 69.2245 239.257C69.1712 239.121 69.1512 238.964 69.1675 238.811C69.1839 238.657 69.2357 238.515 69.3147 238.408C69.4958 238.23 69.707 238.123 69.9264 238.101C70.1459 238.078 70.3656 238.14 70.5628 238.279C70.988 238.473 71.349 238.882 71.5778 239.429C71.6258 239.559 71.6461 239.707 71.636 239.853C71.626 240 71.5861 240.139 71.5212 240.253C71.4564 240.368 71.3695 240.452 71.2713 240.497C71.1731 240.541 71.0679 240.544 70.9688 240.503Z" fill="#263238"/>
<path d="M61.4652 240.074C61.796 240.074 62.1043 240.074 62.4276 240.009C62.7685 240.049 63.1092 239.929 63.3975 239.666C63.4777 239.56 63.531 239.419 63.5487 239.265C63.5664 239.111 63.5476 238.953 63.4952 238.817C63.3627 238.568 63.1863 238.375 62.9842 238.256C62.782 238.137 62.5614 238.097 62.3449 238.14C61.8971 238.132 61.4631 238.362 61.1268 238.784C61.0537 238.886 61.0029 239.017 60.9806 239.159C60.9584 239.302 60.9657 239.45 61.0015 239.587C61.0374 239.724 61.1003 239.842 61.1827 239.929C61.265 240.015 61.3632 240.066 61.4652 240.074Z" fill="#263238"/>
<path d="M63.1117 244.038C63.1117 243.985 63.0365 244.038 63.029 244.135C62.9313 245.489 62.6606 247.004 61.7734 247.294V247.369C62.8486 247.359 63.1718 245.339 63.1117 244.038Z" fill="#263238"/>
<path d="M62.4051 242.47C60.9014 242.018 60.3826 246.316 61.766 246.768C63.1494 247.219 63.6607 242.856 62.4051 242.47Z" fill="#263238"/>
<path d="M61.7885 242.545C61.4952 242.728 61.187 243.093 60.8637 243.061C60.5404 243.028 60.2697 242.502 60.1118 241.986C60.1118 241.933 60.0592 241.986 60.0517 241.986C59.9389 242.814 60.0517 243.716 60.6682 243.985C61.2847 244.253 61.7133 243.619 61.9539 242.824C61.9689 242.728 61.9088 242.48 61.7885 242.545Z" fill="#263238"/>
<path d="M68.5477 244.372C68.5477 244.372 68.6154 244.458 68.6079 244.511C68.4049 245.833 68.3297 247.401 69.1191 248.067C69.1191 248.067 69.1191 248.153 69.1191 248.132C68.1117 247.595 68.2094 245.543 68.5477 244.372Z" fill="#263238"/>
<path d="M69.5628 243.157C71.0666 243.394 70.6455 247.713 69.2394 247.509C67.8334 247.305 68.2845 242.964 69.5628 243.157Z" fill="#263238"/>
<path d="M70.1643 243.577C70.3824 243.856 70.5778 244.318 70.856 244.404C71.1342 244.49 71.4801 244.081 71.7357 243.673C71.7357 243.673 71.7808 243.673 71.7808 243.738C71.7132 244.565 71.435 245.392 70.8636 245.435C70.2921 245.478 70.0365 244.683 69.9839 243.834C69.9688 243.673 70.0741 243.458 70.1643 243.577Z" fill="#263238"/>
<path d="M66.1794 251.065C66.1794 251.065 66.1042 253.106 65.9839 254.041C65.9839 254.127 65.8035 254.127 65.5779 254.041C64.995 254.036 64.4245 253.801 63.9295 253.361C63.4345 252.921 63.0344 252.293 62.7735 251.549C62.7685 251.538 62.7651 251.526 62.7634 251.514C62.7616 251.501 62.7617 251.488 62.7634 251.476C62.7651 251.463 62.7686 251.452 62.7735 251.441C62.7785 251.43 62.7849 251.421 62.7923 251.414C62.7997 251.407 62.808 251.402 62.8167 251.4C62.8254 251.397 62.8344 251.397 62.8431 251.4C62.8519 251.402 62.8602 251.407 62.8676 251.414C62.875 251.421 62.8813 251.431 62.8862 251.441C63.6131 252.489 64.557 253.175 65.5779 253.397C65.6606 253.149 65.623 249.894 65.7283 249.915C66.231 250.117 66.7117 250.417 67.1568 250.807C67.3974 246.563 67.1568 242.298 67.4501 238.075C67.4501 238.041 67.4596 238.008 67.4765 237.984C67.4934 237.96 67.5164 237.946 67.5403 237.946C67.5642 237.946 67.5872 237.96 67.6041 237.984C67.621 238.008 67.6305 238.041 67.6305 238.075C67.9798 242.633 68.01 247.229 67.7207 251.796C67.6756 252.365 66.42 251.291 66.1794 251.065Z" fill="#263238"/>
<path d="M65.6005 253.698C65.1475 254.399 64.575 254.921 63.9389 255.213C63.5913 255.368 63.2188 255.368 62.8712 255.213C62.1194 254.815 62.172 253.816 62.3675 252.978C62.4725 252.531 62.6165 252.105 62.796 251.71C63.5606 252.779 64.5423 253.475 65.6005 253.698V253.698Z" fill="#263238"/>
<path d="M63.9389 255.212C63.5913 255.368 63.2188 255.368 62.8712 255.212C62.1194 254.815 62.172 253.816 62.3675 252.978C62.7656 253.049 63.1359 253.307 63.4203 253.711C63.7047 254.116 63.8871 254.644 63.9389 255.212V255.212Z" fill="#FF9CBD"/>
<path d="M48.6382 244.522C50.142 244.522 54.4577 238.999 55.1344 228.502C55.1344 228.502 54.0667 237.861 53.4953 239.247C52.9239 240.633 55.8938 236.12 56.5028 227.664C58.2681 229.781 60.2384 231.522 62.3523 232.832C65.0891 234.261 66.8034 234.412 67.0215 234.143C67.2395 233.874 63.217 231.575 62.1944 229.609C62.1944 229.609 69.3823 235.368 72.8033 236.12C73.1943 236.206 74.1341 225.709 69.044 220.175C63.9538 214.642 55.4652 217.951 53.0367 220.831C53.0367 220.831 50.3525 221.078 47.1646 226.386C43.9766 231.693 46.9916 244.479 48.6382 244.522Z" fill="#263238"/>
<path d="M59.7435 251.033C58.9131 250.804 58.1445 250.246 57.5255 249.422C56.9064 248.599 56.4618 247.543 56.2424 246.376C56.0229 245.209 56.0375 243.977 56.2845 242.821C56.5314 241.665 57.0007 240.632 57.6389 239.839C58.2771 239.046 59.0584 238.525 59.8938 238.336C60.7291 238.147 61.5848 238.298 62.3631 238.77C63.1415 239.243 63.8113 240.019 64.2959 241.009C64.7806 241.999 65.0607 243.165 65.1042 244.372V244.372C65.1377 245.218 65.0539 246.066 64.8577 246.867C64.6614 247.667 64.3565 248.405 63.9605 249.036C63.5645 249.668 63.0851 250.182 62.5498 250.549C62.0145 250.915 61.4339 251.127 60.8412 251.173C60.4726 251.194 60.1036 251.147 59.7435 251.033V251.033ZM61.3675 239.214C61.0485 239.122 60.7224 239.09 60.3976 239.118C59.4023 239.196 58.4653 239.813 57.7774 240.843C57.0894 241.874 56.7023 243.241 56.6949 244.665C56.6875 246.09 57.0603 247.464 57.7374 248.51C58.4146 249.555 59.3451 250.192 60.3394 250.291C61.3337 250.39 62.3171 249.944 63.0892 249.043C63.8613 248.142 64.3641 246.855 64.4952 245.443C64.6263 244.031 64.3757 242.601 63.7946 241.443C63.2135 240.286 62.3455 239.489 61.3675 239.214V239.214Z" fill="#C7C7C7"/>
<path d="M70.0892 252.097C68.39 251.624 67.1945 248.712 67.3749 245.349C67.4427 243.739 67.8606 242.199 68.5704 240.944C68.8543 240.383 69.2343 239.935 69.6742 239.644C70.114 239.353 70.5987 239.229 71.0819 239.283C71.565 239.337 72.0304 239.567 72.4332 239.952C72.8361 240.337 73.1629 240.864 73.3823 241.481C73.9481 242.875 74.1952 244.486 74.0891 246.091C73.8936 249.636 72.232 252.365 70.3824 252.161C70.2837 252.15 70.1856 252.129 70.0892 252.097V252.097ZM71.2621 240.181H71.0365C70.65 240.163 70.266 240.277 69.9167 240.515C69.5674 240.752 69.2631 241.106 69.029 241.546C68.4042 242.663 68.0365 244.029 67.9764 245.457C67.811 248.53 68.9087 251.173 70.4275 251.345C71.9463 251.516 73.3222 249.142 73.4876 246.069C73.5831 244.645 73.365 243.214 72.8636 241.975C72.7009 241.531 72.474 241.141 72.1979 240.832C71.9218 240.523 71.6028 240.301 71.2621 240.181V240.181Z" fill="#C7C7C7"/>
<path d="M64.9388 245.07L64.5854 244.361C65.3373 243.619 66.9538 242.695 67.9613 244.5L67.4876 245.038C66.6079 243.415 64.999 244.995 64.9388 245.07Z" fill="#C7C7C7"/>
<path d="M44.7586 244.5L44.2473 244.049C44.3977 243.705 45.7511 240.697 47.0969 240.536C48.4428 240.374 56.39 242.362 56.7284 242.448L56.6306 243.297C54.3299 242.728 48.1345 241.277 47.1495 241.395C46.1646 241.513 45.1195 243.673 44.7586 244.5Z" fill="#C7C7C7"/>
<path d="M50.1722 244.5C50.1722 244.5 47.9166 237.624 45.8038 238.666C43.6911 239.708 44.8339 249.131 46.9617 250.915C47.2234 251.172 47.5189 251.35 47.8303 251.439C48.1416 251.528 48.4624 251.525 48.7731 251.432C49.0838 251.339 49.378 251.156 49.6379 250.895C49.8978 250.635 50.1179 250.301 50.285 249.915L50.1722 244.5Z" fill="#A75F56"/>
<path d="M46.1873 241.352V241.438C47.691 242.77 48.2473 245.102 48.5631 247.444C48.4986 247.192 48.3968 246.964 48.2646 246.773C48.1324 246.583 47.973 246.436 47.7973 246.342C47.6217 246.248 47.4338 246.21 47.2468 246.23C47.0597 246.249 46.8778 246.326 46.7136 246.456C46.6684 246.456 46.7136 246.595 46.7136 246.595C47.0113 246.528 47.3165 246.595 47.5862 246.787C47.8558 246.98 48.0765 247.289 48.2173 247.67C48.4424 248.307 48.6189 248.977 48.7436 249.668C48.7887 249.894 49.0593 249.851 49.0368 249.604C49.0368 249.604 49.0368 249.604 49.0368 249.539C49.4127 246.671 48.3376 242.222 46.1873 241.352Z" fill="#263238"/>
<path d="M36.2325 282.428C25.586 312.436 24.3229 337.847 27.4657 342.402C35.9242 354.726 63.6982 349.236 71.247 349.031C74.2996 348.946 68.0966 313.092 64.8636 313.737C57.2397 315.241 46.2925 318.668 45.9241 318.453C45.1722 318.013 46.0368 309.546 47.1722 284.276C48.0894 263.829 40.5858 270.158 36.2325 282.428Z" fill="#A75F56"/>
<path d="M75.0514 309.332C82.6303 307.817 84.7355 309.095 90.6528 302.971C94.54 298.953 98.0061 300.768 95.7881 307.161C92.1716 317.605 82.6754 322.483 79.0438 322.805L75.0514 309.332Z" fill="#A75F56"/>
<path d="M54.9314 319.753C54.9314 319.753 63.4425 312.995 71.4048 310.245C76.9085 308.343 88.5023 307.161 100.976 323.46C104.277 327.758 104.938 336.428 99.0435 331.636C94.7428 328.134 92.818 324.943 90.0211 323.815C90.0211 323.815 91.5699 335.289 88.5775 339.125C85.9589 342.478 83.1775 345.562 80.2543 348.355C79.7773 347.702 79.3279 347.01 78.9085 346.281C78.9085 346.281 75.901 349.504 70.1642 348.709L54.9314 319.753Z" fill="#A75F56"/>
<path d="M76.8634 309.632C79.4949 311.599 85.0211 315.886 88.6902 321.644C92.7654 328.037 99.4119 341.93 96.0811 346.184C93.63 349.3 90.7729 344.315 90.7729 344.315C90.7729 344.315 92.6676 350.88 90.0211 353.007C87.6151 354.941 85.5625 350.858 85.5625 350.858C85.5625 350.858 86.2392 355.156 83.6678 356.348C80.5776 357.831 79.6754 348.645 75.6379 346.27C74.7431 345.787 76.8634 309.632 76.8634 309.632Z" fill="#A75F56"/>
<path d="M83.2469 326.673C85.5024 329.09 89.6603 336.482 90.8106 344.143C90.8106 344.315 90.758 344.433 90.7129 344.283C88.7143 338.016 86.1895 332.121 83.1942 326.726C83.1942 326.726 83.2168 326.641 83.2469 326.673Z" fill="#263238"/>
<path d="M78.8483 332.732C80.6528 335.118 84.6904 343.004 85.6679 350.826C85.6679 350.998 85.6077 351.116 85.5626 350.955C83.7938 344.553 81.5237 338.458 78.7957 332.786C78.7957 332.786 78.8257 332.711 78.8483 332.732Z" fill="#263238"/>
<path d="M63.4276 314.027C66.8229 311.908 70.3703 310.326 74.0064 309.31C75.8248 308.785 77.6622 308.405 79.51 308.171C80.4423 308.063 81.3747 308.031 82.2619 307.859C83.1603 307.666 84.0456 307.364 84.9084 306.957C86.6412 306.142 88.2766 304.954 89.7579 303.433C90.4992 302.587 91.3256 301.906 92.209 301.413C93.1083 300.859 94.094 300.656 95.0661 300.822C95.5959 300.914 96.0791 301.3 96.412 301.896C96.7072 302.529 96.8425 303.287 96.7954 304.045C96.7231 305.423 96.4545 306.765 96.006 307.988C95.1118 310.376 93.8803 312.473 92.3895 314.145V313.511C94.7114 315.667 96.9479 318.006 99.0886 320.516C100.171 321.776 101.177 323.163 102.096 324.663C102.547 325.44 102.936 326.287 103.254 327.188C103.597 328.103 103.805 329.109 103.863 330.143C103.881 330.692 103.811 331.239 103.66 331.744C103.492 332.262 103.202 332.681 102.84 332.926C102.138 333.307 101.362 333.307 100.66 332.926C99.3609 332.187 98.1249 331.239 96.9759 330.1C95.818 329.026 94.7203 327.876 93.5474 326.78C92.9835 326.232 92.4045 325.706 91.8181 325.19C91.2483 324.67 90.6309 324.265 89.9835 323.987L90.1264 323.653C91.6208 326.297 92.9802 329.09 94.194 332.013C94.8001 333.473 95.3449 334.983 95.8255 336.536C96.3078 338.088 96.6733 339.708 96.9157 341.371C96.6523 339.718 96.264 338.112 95.7578 336.579C95.2609 335.043 94.6959 333.553 94.0661 332.12C92.819 329.246 91.4295 326.502 89.9083 323.911L89.6226 323.428L90.0512 323.589C90.7262 323.871 91.3713 324.283 91.9684 324.814C92.5699 325.319 93.1564 325.888 93.7353 326.382C94.8857 327.457 95.9909 328.585 97.1789 329.606C98.3055 330.703 99.5164 331.611 100.788 332.313C101.386 332.636 102.046 332.636 102.645 332.313C102.906 332.103 103.117 331.786 103.251 331.403C103.385 331.02 103.435 330.589 103.397 330.164C103.203 328.276 102.622 326.511 101.728 325.093C100.823 323.635 99.8348 322.287 98.7728 321.064C96.6448 318.58 94.4181 316.273 92.1038 314.156L91.7955 313.865L92.0887 313.522C93.5059 311.911 94.6777 309.904 95.5323 307.623C95.9452 306.501 96.2006 305.275 96.2841 304.013C96.2923 303.432 96.1683 302.862 95.9308 302.39C95.6883 301.942 95.3315 301.648 94.9383 301.574C94.065 301.444 93.1828 301.632 92.3744 302.122C91.5323 302.584 90.744 303.225 90.0361 304.024C88.5108 305.591 86.8239 306.809 85.0362 307.634C84.1433 308.049 83.228 308.358 82.2994 308.558C81.3521 308.73 80.4348 308.751 79.5175 308.848C77.6905 309.052 75.856 309.353 74.044 309.815C70.4183 310.726 66.863 312.136 63.4276 314.027V314.027Z" fill="#263238"/>
<path d="M26.6011 308.364L47.0595 303.336C47.0595 303.336 47.8114 288.477 47.3903 280.171C46.8339 269.191 43.8565 266.935 38.1423 277.679C34.3228 284.856 26.6011 308.364 26.6011 308.364Z" fill="#2965F1"/>
<path d="M34.7362 306.366L32.0822 307.011C32.1022 306.567 32.2266 306.145 32.435 305.815C32.6435 305.484 32.9239 305.264 33.2309 305.189C33.5379 305.115 33.8535 305.19 34.1267 305.404C34.3998 305.617 34.6146 305.956 34.7362 306.366V306.366ZM41.1647 287.95C40.8893 287.948 40.6196 288.063 40.3899 288.28C40.1602 288.497 39.9807 288.807 39.8743 289.17C39.7679 289.533 39.7392 289.933 39.7921 290.319C39.8449 290.705 39.9768 291.061 40.171 291.34C40.3652 291.619 40.613 291.809 40.8831 291.887C41.1531 291.964 41.4331 291.925 41.6877 291.775C41.9424 291.625 42.16 291.37 42.3132 291.043C42.4664 290.716 42.5482 290.332 42.5482 289.938C42.5482 289.413 42.4026 288.909 42.1434 288.536C41.8842 288.164 41.5323 287.953 41.1647 287.95V287.95Z" fill="white"/>
<path d="M28.3454 305.087C31.2852 304.067 34.225 303.1 37.2024 302.315C38.7062 301.928 40.1924 301.57 41.661 301.241C43.1648 300.919 44.6685 300.811 46.1722 300.457C46.2474 300.457 46.27 300.628 46.1722 300.639C44.6685 300.886 43.1648 301.413 41.7061 301.778C40.2475 302.143 38.7362 302.498 37.2475 302.852C34.2852 303.615 31.3153 304.367 28.3605 305.227C28.2627 305.291 28.2627 305.12 28.3454 305.087Z" fill="#263238"/>
<path d="M44.5481 303.959C45.3586 303.663 46.1792 303.427 47.0067 303.25C47.0593 301.499 47.0969 299.748 47.1721 297.996C47.1721 297.126 47.2473 296.245 47.2999 295.375C47.3526 294.504 47.3977 293.312 47.4503 292.463C47.4467 292.448 47.4457 292.433 47.4472 292.418C47.4487 292.402 47.4528 292.388 47.4591 292.375C47.4653 292.363 47.4736 292.352 47.4832 292.345C47.4928 292.338 47.5034 292.334 47.5142 292.334C47.525 292.334 47.5356 292.338 47.5452 292.345C47.5548 292.352 47.5631 292.363 47.5694 292.375C47.5756 292.388 47.5797 292.402 47.5812 292.418C47.5827 292.433 47.5817 292.448 47.5781 292.463C47.5781 293.537 47.5781 294.418 47.5781 295.385C47.5781 296.352 47.5781 297.105 47.5405 297.964C47.4954 299.791 47.4954 301.735 47.3751 303.551C46.4468 303.811 45.5074 303.984 44.5631 304.067C44.5631 304.067 44.5105 303.97 44.5481 303.959Z" fill="#263238"/>
<path d="M48.2022 294.042C48.1066 295.097 47.8881 296.121 47.5557 297.072C47.5994 296.544 47.6774 296.022 47.7887 295.514C47.8978 295.008 48.0361 294.516 48.2022 294.042Z" fill="#263238"/>
<path d="M125.878 354.565H71.9387V358.025H125.878V354.565Z" fill="#C7C7C7"/>
<path d="M95.1565 354.565L93.3145 358.014H137.554V354.565H95.1565Z" fill="#A6A6A6"/>
<path d="M97.4872 358.014H150.05L160.727 307H108.156L97.4872 358.014Z" fill="#A6A6A6"/>
<path d="M99.3068 358.014H151.87L162.539 307H109.976L99.3068 358.014Z" fill="#C7C7C7"/>
<path d="M128.735 332.475C128.635 333.027 128.627 333.605 128.711 334.162C128.795 334.72 128.97 335.241 129.22 335.685C129.471 336.129 129.791 336.483 130.154 336.718C130.518 336.954 130.915 337.064 131.314 337.041C132.215 336.992 133.078 336.517 133.77 335.691C134.461 334.864 134.941 333.733 135.133 332.475C135.233 331.922 135.241 331.344 135.157 330.786C135.073 330.228 134.898 329.706 134.648 329.261C134.397 328.817 134.078 328.462 133.714 328.225C133.351 327.988 132.954 327.876 132.554 327.898C131.653 327.949 130.789 328.426 130.098 329.254C129.407 330.083 128.927 331.215 128.735 332.475V332.475Z" fill="white"/>
<path d="M115.652 241.901V288.499H120.231V299.812L128.141 288.499H171.554V241.901H115.652Z" fill="white"/>
<path d="M115.652 241.9L115.773 265.269C115.828 273.041 115.858 280.784 115.863 288.498L115.652 288.198H120.449V288.509V299.812L120.036 299.576L127.923 288.241L128.006 288.122H128.118L149.825 288.036C157.058 288.036 164.298 287.94 171.531 288.036L171.171 288.552L171.261 241.954L171.531 242.341L143.66 242.212L115.652 241.9ZM115.652 241.9L143.524 241.632L171.554 241.503H171.825V241.9L171.907 288.498V289.014H171.547C164.314 289.068 157.073 289.014 149.84 289.014L128.133 288.939L128.329 288.821L120.397 300.091L119.976 300.693V299.844V288.541L120.201 288.864H115.622H115.479V288.563C115.479 280.763 115.51 272.973 115.57 265.194L115.652 241.9Z" fill="#263238"/>
<path d="M136.096 272.661C136.284 272.928 136.413 273.269 136.466 273.64C136.519 274.011 136.494 274.397 136.395 274.748C136.295 275.099 136.125 275.401 135.906 275.614C135.687 275.828 135.429 275.944 135.163 275.949C134.8 275.953 134.45 275.757 134.186 275.401L128.171 266.73C128.111 266.73 128.088 266.644 128.066 266.548C128.048 266.525 128.028 266.507 128.006 266.494C127.975 266.417 127.952 266.333 127.938 266.247C127.922 266.235 127.908 266.219 127.898 266.198C127.887 266.177 127.881 266.154 127.878 266.129C127.878 266.064 127.878 265.967 127.833 265.946C127.787 265.924 127.787 265.817 127.787 265.796V265.581C127.787 265.516 127.787 265.484 127.787 265.398C127.787 265.312 127.787 265.269 127.787 265.248V265.033C127.787 264.968 127.833 264.936 127.833 264.904C127.833 264.871 127.833 264.753 127.878 264.667C127.923 264.581 127.878 264.667 127.878 264.603C127.878 264.538 127.945 264.388 127.99 264.334C128.036 264.281 127.99 264.27 128.028 264.27C128.059 264.186 128.103 264.112 128.156 264.055L134.171 255.395C134.428 255.044 134.77 254.849 135.126 254.849C135.481 254.849 135.823 255.044 136.081 255.395C136.208 255.573 136.308 255.785 136.377 256.02C136.446 256.254 136.481 256.506 136.481 256.76C136.481 257.014 136.446 257.265 136.377 257.499C136.308 257.734 136.208 257.946 136.081 258.124L131.043 265.398L136.096 272.661Z" fill="#2965F1"/>
<path d="M141.517 273.639L146.727 255.911C146.853 255.501 147.087 255.177 147.378 255.012C147.67 254.847 147.995 254.854 148.284 255.03C148.56 255.205 148.778 255.528 148.889 255.93C149 256.333 148.996 256.781 148.878 257.179L143.667 274.929C143.574 275.231 143.422 275.488 143.228 275.667C143.034 275.847 142.808 275.941 142.577 275.939C142.432 275.941 142.289 275.901 142.156 275.82C142.013 275.739 141.882 275.618 141.772 275.463C141.662 275.309 141.575 275.125 141.515 274.922C141.456 274.719 141.425 274.501 141.426 274.28C141.426 274.06 141.457 273.842 141.517 273.639V273.639Z" fill="#2965F1"/>
<path d="M159.178 266.494C159.134 266.573 159.083 266.645 159.028 266.709L153.013 275.379C152.888 275.565 152.738 275.713 152.573 275.815C152.407 275.917 152.229 275.97 152.049 275.973C151.869 275.975 151.69 275.926 151.524 275.828C151.357 275.73 151.206 275.586 151.079 275.403C150.951 275.221 150.851 275.004 150.783 274.766C150.716 274.527 150.682 274.272 150.684 274.014C150.686 273.757 150.725 273.503 150.797 273.267C150.869 273.031 150.973 272.817 151.103 272.64L156.141 265.376L151.103 258.103C150.976 257.925 150.875 257.712 150.807 257.478C150.738 257.244 150.702 256.992 150.702 256.738C150.702 256.484 150.738 256.233 150.807 255.998C150.875 255.764 150.976 255.552 151.103 255.374C151.36 255.023 151.702 254.827 152.058 254.827C152.414 254.827 152.755 255.023 153.013 255.374L159.028 264.033C159.082 264.1 159.132 264.171 159.178 264.248C159.178 264.248 159.178 264.313 159.178 264.313C159.178 264.313 159.261 264.495 159.283 264.581C159.306 264.667 159.283 264.581 159.283 264.646C159.299 264.739 159.322 264.829 159.351 264.914C159.351 264.914 159.351 264.914 159.351 265.011V265.226C159.351 265.226 159.351 265.344 159.351 265.376C159.351 265.409 159.351 265.495 159.351 265.527V265.774C159.351 265.774 159.351 265.774 159.351 265.828C159.324 265.919 159.302 266.012 159.283 266.107C159.283 266.107 159.283 266.107 159.283 266.193C159.244 266.29 159.209 266.391 159.178 266.494V266.494Z" fill="#2965F1"/>
<path d="M427.113 65.0513L421.875 4.6875H478.125L473.011 65.0513L450.062 71.875" fill="#264DE4"/>
<path d="M450.062 9.54297V66.6261L468.646 61.2459L473.011 9.54297" fill="#2965F1"/>
<path d="M432.352 17.0225H450.062V24.3711H432.975L432.352 17.0225ZM433.599 31.9822H450.062V39.462H434.223L433.599 31.9822ZM434.597 43.1363H441.581L442.08 49.0415L450.062 51.2723V59.0146L435.47 54.8154" fill="#EBEBEB"/>
<path d="M450.062 31.9822V39.462H458.668L457.795 49.0415L450.062 51.2723V59.0146L464.405 54.8154L467.648 17.0225H450.062V24.3711H460.04L459.354 31.9822H450.062Z" fill="white"/>
</svg>
