<svg width="320" height="280" viewBox="0 0 320 280" fill="none" xmlns="http://www.w3.org/2000/svg">
<g clip-path="url(#clip0_0_4)">
<path d="M0.365356 270.532L36.7548 247.48L213.082 246.692L221.148 270.88L0.365356 270.532Z" fill="#455A64"/>
<path d="M220.694 279.974L0 279.826V270.078L220.79 270.726L220.694 279.974Z" fill="#455A64"/>
<path d="M215.282 270.674C215.282 270.764 167.62 270.822 108.851 270.796C50.0818 270.77 2.41309 270.674 2.41309 270.576C2.41309 270.48 50.0612 270.428 108.851 270.454C167.64 270.48 215.282 270.576 215.282 270.674Z" fill="#263238"/>
<path d="M160.401 56.8466H125.735C124.585 56.8466 123.482 56.418 122.669 55.6552C121.856 54.8922 121.399 53.8574 121.399 52.7786V7.78953C121.399 7.25561 121.511 6.72691 121.729 6.23369C121.947 5.74049 122.267 5.29245 122.669 4.91519C123.072 4.53795 123.55 4.23891 124.076 4.03517C124.602 3.83143 125.166 3.72699 125.735 3.72785H147.708L164.717 20.1686V52.7786C164.717 53.854 164.263 54.886 163.454 55.6482C162.645 56.4106 161.548 56.8416 160.401 56.8466Z" fill="#E44D26"/>
<g opacity="0.2">
<path opacity="0.2" d="M122.254 40.7292H163.848C164.075 40.7292 164.293 40.8138 164.453 40.9642C164.613 41.1146 164.703 41.3186 164.703 41.5312V52.6556C164.703 53.7672 164.233 54.8332 163.395 55.6192C162.557 56.405 161.421 56.8466 160.236 56.8466H125.866C124.682 56.8466 123.545 56.405 122.707 55.6192C121.869 54.8332 121.399 53.7672 121.399 52.6556V41.5312C121.399 41.3186 121.489 41.1146 121.649 40.9642C121.809 40.8138 122.027 40.7292 122.254 40.7292Z" fill="black"/>
</g>
<g opacity="0.2">
<path opacity="0.2" d="M147.708 3.72784V16.385C147.707 16.8816 147.811 17.3734 148.013 17.8324C148.215 18.2915 148.511 18.7086 148.885 19.06C149.259 19.4114 149.703 19.6902 150.192 19.8805C150.681 20.0706 151.205 20.1686 151.735 20.1686H164.717L147.708 3.72784Z" fill="white"/>
</g>
<g opacity="0.2">
<path opacity="0.2" d="M147.881 17.4974C147.881 17.4974 147.715 20.5826 151.438 21.5786C151.579 21.6156 151.722 21.6458 151.866 21.669C153.562 21.9536 164.717 23.8098 164.717 23.5706V20.1686H151.735C151.735 20.1686 148.494 20.0652 147.881 17.4974Z" fill="black"/>
</g>
<path d="M135.994 27.296C136.684 27.503 137.036 27.9428 137.036 28.9258V31.2478C137.016 31.392 137.031 31.5386 137.081 31.6766C137.13 31.8144 137.213 31.9398 137.322 32.0434C137.431 32.1468 137.563 32.2258 137.71 32.2738C137.856 32.322 138.012 32.3382 138.166 32.3214H138.442V34.0934H137.546C135.608 34.0934 134.622 33.1622 134.622 31.5064V28.8676C134.638 28.7778 134.631 28.6858 134.602 28.5988C134.574 28.5118 134.524 28.432 134.457 28.3658C134.391 28.2996 134.309 28.2486 134.218 28.2168C134.127 28.1848 134.03 28.173 133.933 28.182H133.423V26.4034H133.933C134.029 26.4136 134.127 26.4028 134.218 26.3716C134.309 26.3406 134.391 26.2902 134.457 26.2244C134.524 26.1588 134.574 26.0794 134.603 25.9926C134.631 25.9058 134.638 25.814 134.622 25.7244V23.0984C134.622 21.4298 135.608 20.5114 137.546 20.5114H138.442V22.277H138.166C138.012 22.26 137.855 22.2762 137.708 22.3248C137.561 22.3734 137.428 22.4528 137.319 22.557C137.209 22.6612 137.127 22.7876 137.078 22.9264C137.029 23.065 137.014 23.2124 137.036 23.3572V25.679C137.036 26.675 136.712 27.0954 135.994 27.296Z" fill="#FAFAFA"/>
<path d="M152.686 26.4034V28.1756H152.169C151.755 28.1756 151.48 28.3954 151.48 28.861V31.487C151.48 33.1556 150.487 34.074 148.549 34.074H147.653V32.3212H147.936C148.09 32.3382 148.246 32.322 148.392 32.2738C148.539 32.2256 148.671 32.1468 148.78 32.0434C148.889 31.9398 148.972 31.8144 149.021 31.6764C149.071 31.5386 149.086 31.392 149.066 31.2476V28.9258C149.066 27.9232 149.391 27.5028 150.101 27.296C149.411 27.0954 149.066 26.6492 149.066 25.6726V23.3506C149.088 23.2058 149.073 23.0584 149.024 22.9198C148.975 22.781 148.893 22.6548 148.783 22.5504C148.674 22.4462 148.541 22.3668 148.394 22.3182C148.247 22.2698 148.09 22.2534 147.936 22.2706H147.653V20.5048H148.549C150.487 20.5048 151.48 21.4298 151.48 23.092V25.7566C151.48 26.2222 151.742 26.4358 152.169 26.4358L152.686 26.4034Z" fill="#FAFAFA"/>
<path d="M137.731 46.0988V51.6416H136.352V49.3716H133.67V51.6416H132.291V46.0988H133.67V48.285H136.352V46.0988H137.731Z" fill="#FAFAFA"/>
<path d="M140.358 47.1466H138.468V46.0988H143.619V47.1466H141.723V51.6416H140.344L140.358 47.1466Z" fill="#FAFAFA"/>
<path d="M149.727 51.6416V48.3174L147.99 51.0596H147.369L145.639 48.3884V51.6222H144.356V46.0794H145.487L147.707 49.5396L149.886 46.0924H151.01V51.6352L149.727 51.6416Z" fill="#FAFAFA"/>
<path d="M152.409 46.0988H153.788V50.6262H156.753V51.6676H152.416L152.409 46.0988Z" fill="#FAFAFA"/>
<path d="M85.0507 52.5134H21.1937C20.0285 52.5134 19.084 53.3994 19.084 54.4924V153.467C19.084 154.56 20.0285 155.446 21.1937 155.446H85.0507C86.2159 155.446 87.1605 154.56 87.1605 153.467V54.4924C87.1605 53.3994 86.2159 52.5134 85.0507 52.5134Z" fill="white"/>
<path d="M21.5731 52.5134H84.7682C85.4026 52.5134 86.0112 52.7498 86.4598 53.1706C86.9084 53.5916 87.1606 54.1624 87.1606 54.7576V64.0128H19.0634V54.8612C19.0616 54.5518 19.1253 54.2452 19.2508 53.9592C19.3764 53.673 19.5613 53.4134 19.7948 53.1948C20.0283 52.9764 20.3057 52.8036 20.6111 52.6866C20.9163 52.5698 21.2433 52.5108 21.5731 52.5134Z" fill="#D7D7D7"/>
<path d="M84.8784 155.446C85.179 155.431 85.4746 155.37 85.754 155.265C86.1576 155.099 86.5022 154.828 86.7466 154.484C86.991 154.14 87.125 153.738 87.133 153.325C87.133 151.119 87.133 147.879 87.0984 143.707C87.0984 135.357 87.0984 123.282 87.0434 108.361C86.9882 93.4406 87.0434 75.661 87.002 55.9282V55.0034C87.0208 54.708 86.993 54.4116 86.9192 54.1238C86.79 53.7038 86.518 53.335 86.1446 53.0734C85.7712 52.8118 85.3168 52.672 84.8508 52.675H21.4212C20.8958 52.674 20.3896 52.8606 20.0054 53.1968C19.6212 53.5332 19.3879 53.9942 19.3529 54.486C19.3529 54.8158 19.3529 55.1844 19.3529 55.5338V84.5282C19.3529 95.2646 19.3529 105.626 19.3529 115.495C19.3529 125.365 19.3529 134.737 19.3529 143.513C19.3529 145.706 19.3529 147.866 19.3529 149.981V153.124C19.314 153.613 19.464 154.098 19.7755 154.491C20.087 154.884 20.5392 155.159 21.049 155.265C21.5756 155.316 22.1056 155.331 22.6348 155.31H33.3764L71.0618 155.362L81.307 155.394H83.9684H84.8784H83.9684H81.307L71.0618 155.427L33.3764 155.478H22.5106C21.9608 155.496 21.4102 155.479 20.8628 155.427C20.2928 155.313 19.7858 155.01 19.4356 154.573C19.083 154.13 18.9095 153.585 18.9461 153.034C18.9461 151.999 18.9461 150.951 18.9461 149.89V143.423C18.9461 134.646 18.9461 125.268 18.9461 115.405C18.9461 105.542 18.9461 95.174 18.9461 84.4376C18.9461 79.0608 18.9461 73.6 18.9461 68.055V55.4432C18.9461 55.0874 18.9461 54.7512 18.9461 54.3696C18.9781 53.9862 19.1133 53.6168 19.3391 53.296C19.5638 52.9738 19.8706 52.7092 20.2318 52.5262C20.593 52.3432 20.997 52.2478 21.4074 52.2482H84.8716C85.23 52.2426 85.5854 52.311 85.9126 52.4486C86.2432 52.5852 86.538 52.788 86.7762 53.0426C87.0144 53.2974 87.1904 53.598 87.2916 53.9232C87.368 54.2392 87.3982 54.5634 87.3812 54.887V55.8118C87.3812 75.5446 87.3812 93.3242 87.3398 108.245C87.2984 123.166 87.2984 135.241 87.2846 143.591C87.2846 147.762 87.2846 151.003 87.2502 153.208C87.2442 153.702 87.0594 154.178 86.7262 154.56C86.4842 154.84 86.1746 155.061 85.823 155.207C85.6012 155.285 85.3694 155.335 85.1336 155.355L84.8784 155.446Z" fill="#263238"/>
<path d="M29.1224 59.162C29.1224 59.5356 29.0044 59.9008 28.7832 60.2114C28.562 60.5218 28.2476 60.764 27.8796 60.9068C27.5118 61.0498 27.107 61.0872 26.7166 61.0144C26.326 60.9414 25.9672 60.7616 25.6858 60.4976C25.4042 60.2334 25.2124 59.8968 25.1348 59.5306C25.057 59.1642 25.097 58.7844 25.2494 58.4394C25.4016 58.0942 25.6598 57.7994 25.9908 57.5918C26.3218 57.3844 26.711 57.2736 27.1092 57.2736C27.374 57.2726 27.6362 57.321 27.8808 57.4156C28.1254 57.5102 28.3478 57.6492 28.5348 57.8248C28.722 58.0004 28.8702 58.2088 28.971 58.4384C29.072 58.6678 29.1234 58.9138 29.1224 59.162Z" fill="#E44D26"/>
<path d="M33.2936 61.0442C34.4016 61.0442 35.3 60.2016 35.3 59.162C35.3 58.1226 34.4016 57.28 33.2936 57.28C32.1856 57.28 31.2874 58.1226 31.2874 59.162C31.2874 60.2016 32.1856 61.0442 33.2936 61.0442Z" fill="#E4A126"/>
<path d="M39.4712 61.0442C40.5792 61.0442 41.4774 60.2016 41.4774 59.162C41.4774 58.1226 40.5792 57.28 39.4712 57.28C38.363 57.28 37.4648 58.1226 37.4648 59.162C37.4648 60.2016 38.363 61.0442 39.4712 61.0442Z" fill="#62BD6B"/>
<path d="M48.7098 79.6062H36.1686C35.803 79.6062 35.4522 79.47 35.1936 79.2274C34.935 78.9848 34.7898 78.6558 34.7898 78.3128C34.7898 77.9698 34.935 77.6406 35.1936 77.3982C35.4522 77.1556 35.803 77.0192 36.1686 77.0192H48.7098C49.0754 77.0192 49.4262 77.1556 49.6848 77.3982C49.9434 77.6406 50.0886 77.9698 50.0886 78.3128C50.0886 78.6558 49.9434 78.9848 49.6848 79.2274C49.4262 79.47 49.0754 79.6062 48.7098 79.6062Z" fill="#263238"/>
<path d="M48.7098 86.2874H36.1686C35.803 86.2874 35.4522 86.1512 35.1936 85.9086C34.935 85.666 34.7898 85.337 34.7898 84.9938C34.7898 84.6508 34.935 84.3218 35.1936 84.0792C35.4522 83.8366 35.803 83.7004 36.1686 83.7004H48.7098C49.0754 83.7004 49.4262 83.8366 49.6848 84.0792C49.9434 84.3218 50.0886 84.6508 50.0886 84.9938C50.0886 85.337 49.9434 85.666 49.6848 85.9086C49.4262 86.1512 49.0754 86.2874 48.7098 86.2874Z" fill="#264DE4"/>
<path d="M49.0684 104.584H36.5272C36.1614 104.584 35.8108 104.448 35.5522 104.206C35.2936 103.963 35.1482 103.634 35.1482 103.291C35.1482 102.948 35.2936 102.619 35.5522 102.376C35.8108 102.134 36.1614 101.997 36.5272 101.997H49.0684C49.434 101.997 49.7848 102.134 50.0434 102.376C50.302 102.619 50.4472 102.948 50.4472 103.291C50.4472 103.634 50.302 103.963 50.0434 104.206C49.7848 104.448 49.434 104.584 49.0684 104.584Z" fill="#264DE4"/>
<path d="M48.7098 93.1884H36.1686C35.803 93.1884 35.4522 93.0522 35.1936 92.8096C34.935 92.567 34.7898 92.238 34.7898 91.8948C34.7898 91.5518 34.935 91.2228 35.1936 90.9802C35.4522 90.7376 35.803 90.6014 36.1686 90.6014H48.7098C49.0754 90.6014 49.4262 90.7376 49.6848 90.9802C49.9434 91.2228 50.0886 91.5518 50.0886 91.8948C50.0886 92.238 49.9434 92.567 49.6848 92.8096C49.4262 93.0522 49.0754 93.1884 48.7098 93.1884Z" fill="#E44D26"/>
<path d="M48.7098 131.684H36.1686C35.803 131.684 35.4522 131.548 35.1936 131.305C34.935 131.062 34.7898 130.733 34.7898 130.39C34.7898 130.047 34.935 129.718 35.1936 129.476C35.4522 129.233 35.803 129.097 36.1686 129.097H48.7098C49.0754 129.097 49.4262 129.233 49.6848 129.476C49.9434 129.718 50.0886 130.047 50.0886 130.39C50.0886 130.733 49.9434 131.062 49.6848 131.305C49.4262 131.548 49.0754 131.684 48.7098 131.684Z" fill="#E44D26"/>
<path d="M68.7937 79.6062H56.2525C55.8869 79.6062 55.5361 79.47 55.2775 79.2274C55.0189 78.9848 54.8737 78.6558 54.8737 78.3128C54.8737 77.9698 55.0189 77.6406 55.2775 77.3982C55.5361 77.1556 55.8869 77.0192 56.2525 77.0192H68.7937C69.1593 77.0192 69.5101 77.1556 69.7687 77.3982C70.0273 77.6406 70.1725 77.9698 70.1725 78.3128C70.1725 78.6558 70.0273 78.9848 69.7687 79.2274C69.5101 79.47 69.1593 79.6062 68.7937 79.6062Z" fill="#455A64"/>
<path d="M82.3687 86.2874H56.1695C55.9971 86.28 55.8281 86.2406 55.6721 86.1712C55.5161 86.102 55.3763 86.0044 55.2607 85.884C55.1453 85.7638 55.0565 85.623 54.9995 85.4702C54.9425 85.3174 54.9183 85.1554 54.9285 84.9938C54.9183 84.8322 54.9425 84.6704 54.9995 84.5176C55.0565 84.3648 55.1453 84.224 55.2607 84.1038C55.3763 83.9834 55.5161 83.8858 55.6721 83.8164C55.8281 83.7472 55.9971 83.7078 56.1695 83.7004H82.4033C82.5757 83.7078 82.7447 83.7472 82.9007 83.8164C83.0567 83.8858 83.1965 83.9834 83.3121 84.1038C83.4275 84.224 83.5163 84.3648 83.5733 84.5176C83.6303 84.6704 83.6545 84.8322 83.6443 84.9938C83.6545 85.1582 83.6293 85.3226 83.5701 85.4776C83.5109 85.6324 83.4191 85.7746 83.2999 85.8954C83.1809 86.016 83.0371 86.113 82.8771 86.1804C82.7169 86.2478 82.5441 86.2842 82.3687 86.2874Z" fill="#263238"/>
<path d="M81.6588 93.1884H55.2526C55.0774 93.1842 54.9046 93.1474 54.7446 93.0798C54.5848 93.0122 54.4408 92.9152 54.3214 92.7948C54.202 92.6742 54.1094 92.5326 54.049 92.378C53.9888 92.2234 53.962 92.0592 53.9704 91.8948C53.962 91.7304 53.9888 91.5662 54.049 91.4116C54.1094 91.2572 54.202 91.1154 54.3214 90.995C54.4408 90.8744 54.5848 90.7776 54.7446 90.71C54.9046 90.6424 55.0774 90.6054 55.2526 90.6014H81.6588C81.834 90.6054 82.0068 90.6424 82.1668 90.71C82.3266 90.7776 82.4706 90.8744 82.59 90.995C82.7094 91.1154 82.802 91.2572 82.8624 91.4116C82.9226 91.5662 82.9494 91.7304 82.941 91.8948C82.9494 92.0592 82.9226 92.2234 82.8624 92.378C82.802 92.5326 82.7094 92.6742 82.59 92.7948C82.4706 92.9152 82.3266 93.0122 82.1668 93.0798C82.0068 93.1474 81.834 93.1842 81.6588 93.1884Z" fill="#264DE4"/>
<path d="M62.5816 98.77H36.1756C36.0002 98.7658 35.8274 98.729 35.6676 98.6614C35.5076 98.5938 35.3638 98.4968 35.2442 98.3764C35.1248 98.2558 35.0322 98.1142 34.972 97.9596C34.9116 97.805 34.8848 97.6408 34.8932 97.4764C34.8848 97.312 34.9116 97.1478 34.972 96.9932C35.0322 96.8388 35.1248 96.697 35.2442 96.5766C35.3638 96.456 35.5076 96.3592 35.6676 96.2916C35.8274 96.224 36.0002 96.187 36.1756 96.183H62.5816C62.757 96.187 62.9296 96.224 63.0896 96.2916C63.2496 96.3592 63.3934 96.456 63.5128 96.5766C63.6324 96.697 63.725 96.8388 63.7852 96.9932C63.8456 97.1478 63.8722 97.312 63.864 97.4764C63.8722 97.6408 63.8456 97.805 63.7852 97.9596C63.725 98.1142 63.6324 98.2558 63.5128 98.3764C63.3934 98.4968 63.2496 98.5938 63.0896 98.6614C62.9296 98.729 62.757 98.7658 62.5816 98.77Z" fill="#E4A126"/>
<path d="M30.0255 78.3322C30.0255 78.588 29.9447 78.8382 29.7931 79.0508C29.6417 79.2636 29.4263 79.4294 29.1743 79.5272C28.9223 79.6252 28.6451 79.6508 28.3777 79.6008C28.1101 79.551 27.8645 79.4278 27.6717 79.2468C27.4787 79.066 27.3475 78.8354 27.2943 78.5846C27.2411 78.3336 27.2683 78.0736 27.3727 77.8372C27.4771 77.6008 27.6539 77.3988 27.8805 77.2566C28.1073 77.1146 28.3739 77.0386 28.6467 77.0386C29.0123 77.0386 29.3631 77.175 29.6217 77.4176C29.8803 77.6602 30.0255 77.9892 30.0255 78.3322Z" fill="#455A64"/>
<path d="M30.0255 71.9422C30.0255 72.198 29.9447 72.448 29.7931 72.6608C29.6417 72.8736 29.4263 73.0394 29.1743 73.1372C28.9223 73.2352 28.6451 73.2608 28.3777 73.2108C28.1101 73.161 27.8645 73.0378 27.6717 72.8568C27.4787 72.676 27.3475 72.4454 27.2943 72.1946C27.2411 71.9436 27.2683 71.6836 27.3727 71.4472C27.4771 71.2108 27.6539 71.0088 27.8805 70.8666C28.1073 70.7244 28.3739 70.6486 28.6467 70.6486C29.0123 70.6486 29.3631 70.785 29.6217 71.0274C29.8803 71.27 30.0255 71.5992 30.0255 71.9422Z" fill="#455A64"/>
<path d="M30.0255 84.9938C30.0255 85.2498 29.9447 85.4998 29.7931 85.7126C29.6417 85.9252 29.4263 86.091 29.1743 86.189C28.9223 86.2868 28.6451 86.3124 28.3777 86.2626C28.1101 86.2126 27.8645 86.0894 27.6717 85.9086C27.4787 85.7276 27.3475 85.4972 27.2943 85.2462C27.2411 84.9954 27.2683 84.7352 27.3727 84.4988C27.4771 84.2624 27.6539 84.0604 27.8805 83.9184C28.1073 83.7762 28.3739 83.7004 28.6467 83.7004C29.0123 83.7004 29.3631 83.8366 29.6217 84.0792C29.8803 84.3218 30.0255 84.6508 30.0255 84.9938Z" fill="#455A64"/>
<path d="M30.0255 91.9142C30.0255 92.1702 29.9447 92.4202 29.7931 92.633C29.6417 92.8456 29.4263 93.0114 29.1743 93.1094C28.9223 93.2072 28.6451 93.2328 28.3777 93.183C28.1101 93.133 27.8645 93.0098 27.6717 92.829C27.4787 92.648 27.3475 92.4176 27.2943 92.1666C27.2411 91.9158 27.2683 91.6556 27.3727 91.4192C27.4771 91.183 27.6539 90.9808 27.8805 90.8388C28.1073 90.6966 28.3739 90.6208 28.6467 90.6208C29.0123 90.6208 29.3631 90.757 29.6217 90.9996C29.8803 91.2422 30.0255 91.5712 30.0255 91.9142Z" fill="#455A64"/>
<path d="M49.0684 123.263H36.5272C36.1614 123.263 35.8108 123.127 35.5522 122.884C35.2936 122.641 35.1482 122.312 35.1482 121.969C35.1482 121.626 35.2936 121.297 35.5522 121.055C35.8108 120.812 36.1614 120.676 36.5272 120.676H49.0684C49.434 120.676 49.7848 120.812 50.0434 121.055C50.302 121.297 50.4472 121.626 50.4472 121.969C50.4472 122.312 50.302 122.641 50.0434 122.884C49.7848 123.127 49.434 123.263 49.0684 123.263Z" fill="#E4A126"/>
<path d="M48.7098 111.867H36.1686C35.803 111.867 35.4522 111.731 35.1936 111.488C34.935 111.246 34.7898 110.917 34.7898 110.573C34.7898 110.23 34.935 109.901 35.1936 109.659C35.4522 109.416 35.803 109.28 36.1686 109.28H48.7098C49.0754 109.28 49.4262 109.416 49.6848 109.659C49.9434 109.901 50.0886 110.23 50.0886 110.573C50.0886 110.917 49.9434 111.246 49.6848 111.488C49.4262 111.731 49.0754 111.867 48.7098 111.867Z" fill="#E44D26"/>
<path d="M81.6588 111.867H55.2526C55.0774 111.863 54.9046 111.826 54.7446 111.758C54.5848 111.691 54.4408 111.594 54.3214 111.473C54.202 111.353 54.1094 111.211 54.049 111.057C53.9888 110.902 53.962 110.738 53.9704 110.573C53.962 110.409 53.9888 110.245 54.049 110.09C54.1094 109.936 54.202 109.794 54.3214 109.674C54.4408 109.553 54.5848 109.456 54.7446 109.389C54.9046 109.321 55.0774 109.284 55.2526 109.28H81.6588C81.834 109.284 82.0068 109.321 82.1668 109.389C82.3266 109.456 82.4706 109.553 82.59 109.674C82.7094 109.794 82.802 109.936 82.8624 110.09C82.9226 110.245 82.9494 110.409 82.941 110.573C82.9494 110.738 82.9226 110.902 82.8624 111.057C82.802 111.211 82.7094 111.353 82.59 111.473C82.4706 111.594 82.3266 111.691 82.1668 111.758C82.0068 111.826 81.834 111.863 81.6588 111.867Z" fill="#E4A126"/>
<path d="M62.5816 117.449H36.1756C36.0002 117.444 35.8274 117.408 35.6676 117.34C35.5076 117.272 35.3638 117.175 35.2442 117.055C35.1248 116.934 35.0322 116.793 34.972 116.638C34.9116 116.484 34.8848 116.319 34.8932 116.155C34.8848 115.991 34.9116 115.826 34.972 115.672C35.0322 115.517 35.1248 115.376 35.2442 115.255C35.3638 115.135 35.5076 115.038 35.6676 114.97C35.8274 114.903 36.0002 114.866 36.1756 114.862H62.5816C62.757 114.866 62.9296 114.903 63.0896 114.97C63.2496 115.038 63.3934 115.135 63.5128 115.255C63.6324 115.376 63.725 115.517 63.7852 115.672C63.8456 115.826 63.8722 115.991 63.864 116.155C63.8722 116.319 63.8456 116.484 63.7852 116.638C63.725 116.793 63.6324 116.934 63.5128 117.055C63.3934 117.175 63.2496 117.272 63.0896 117.34C62.9296 117.408 62.757 117.444 62.5816 117.449Z" fill="#264DE4"/>
<path d="M30.0255 110.593C30.0255 110.849 29.9447 111.099 29.7931 111.312C29.6417 111.524 29.4263 111.69 29.1743 111.788C28.9223 111.886 28.6451 111.911 28.3777 111.862C28.1101 111.812 27.8645 111.688 27.6717 111.508C27.4787 111.327 27.3475 111.096 27.2943 110.845C27.2411 110.594 27.2683 110.334 27.3727 110.098C27.4771 109.861 27.6539 109.659 27.8805 109.517C28.1073 109.375 28.3739 109.299 28.6467 109.299C29.0123 109.299 29.3631 109.436 29.6217 109.678C29.8803 109.921 30.0255 110.25 30.0255 110.593Z" fill="#455A64"/>
<path d="M43.3942 71.0238H35.5482C35.1826 71.0238 34.8862 71.3018 34.8862 71.6446V72.867C34.8862 73.21 35.1826 73.488 35.5482 73.488H43.3942C43.7596 73.488 44.056 73.21 44.056 72.867V71.6446C44.056 71.3018 43.7596 71.0238 43.3942 71.0238Z" fill="#455A64"/>
<path d="M48.7098 138.481H36.1686C35.803 138.481 35.4522 138.345 35.1936 138.102C34.935 137.86 34.7898 137.531 34.7898 137.188C34.7898 136.845 34.935 136.516 35.1936 136.273C35.4522 136.031 35.803 135.894 36.1686 135.894H48.7098C49.0754 135.894 49.4262 136.031 49.6848 136.273C49.9434 136.516 50.0886 136.845 50.0886 137.188C50.0886 137.531 49.9434 137.86 49.6848 138.102C49.4262 138.345 49.0754 138.481 48.7098 138.481Z" fill="#263238"/>
<path d="M68.7937 138.481H56.2525C55.8869 138.481 55.5361 138.345 55.2775 138.102C55.0189 137.86 54.8737 137.531 54.8737 137.188C54.8737 136.845 55.0189 136.516 55.2775 136.273C55.5361 136.031 55.8869 135.894 56.2525 135.894H68.7937C69.1593 135.894 69.5101 136.031 69.7687 136.273C70.0273 136.516 70.1725 136.845 70.1725 137.188C70.1725 137.531 70.0273 137.86 69.7687 138.102C69.5101 138.345 69.1593 138.481 68.7937 138.481Z" fill="#455A64"/>
<path d="M30.0255 137.207C30.0255 137.463 29.9447 137.713 29.7931 137.926C29.6417 138.139 29.4263 138.304 29.1743 138.402C28.9223 138.5 28.6451 138.526 28.3777 138.476C28.1101 138.426 27.8645 138.303 27.6717 138.122C27.4787 137.941 27.3475 137.711 27.2943 137.46C27.2411 137.209 27.2683 136.949 27.3727 136.712C27.4771 136.476 27.6539 136.274 27.8805 136.132C28.1073 135.99 28.3739 135.914 28.6467 135.914C29.0123 135.914 29.3631 136.05 29.6217 136.293C29.8803 136.535 30.0255 136.864 30.0255 137.207Z" fill="#455A64"/>
<path d="M30.0255 143.351C30.0255 143.607 29.9447 143.857 29.7931 144.07C29.6417 144.283 29.4263 144.449 29.1743 144.547C28.9223 144.644 28.6451 144.67 28.3777 144.62C28.1101 144.57 27.8645 144.447 27.6717 144.266C27.4787 144.085 27.3475 143.855 27.2943 143.604C27.2411 143.353 27.2683 143.093 27.3727 142.856C27.4771 142.62 27.6539 142.418 27.8805 142.276C28.1073 142.134 28.3739 142.058 28.6467 142.058C29.0123 142.058 29.3631 142.194 29.6217 142.437C29.8803 142.679 30.0255 143.008 30.0255 143.351Z" fill="#455A64"/>
<path d="M43.3942 142.433H35.5482C35.1826 142.433 34.8862 142.711 34.8862 143.054V144.276C34.8862 144.619 35.1826 144.897 35.5482 144.897H43.3942C43.7596 144.897 44.056 144.619 44.056 144.276V143.054C44.056 142.711 43.7596 142.433 43.3942 142.433Z" fill="#455A64"/>
<path d="M216.046 139.555H91.704V213.752H216.046V139.555Z" fill="white"/>
<path d="M114.097 139.555H91.704V213.752H114.097V139.555Z" fill="#E0E0E0"/>
<path d="M101.549 147.562C101.666 147.497 101.791 147.446 101.922 147.413L101.998 147.064H102.618L102.715 147.407C102.845 147.439 102.97 147.487 103.087 147.549L103.404 147.355L103.852 147.756L103.659 148.06C103.729 148.169 103.782 148.286 103.818 148.409L104.19 148.48V149.069L103.825 149.153C103.795 149.278 103.747 149.397 103.68 149.509L103.887 149.8L103.452 150.22L103.128 150.039C103.012 150.106 102.887 150.159 102.756 150.194L102.68 150.537H102.053L101.963 150.194C101.833 150.162 101.708 150.114 101.591 150.052L101.274 150.246L100.825 149.839L101.019 149.535C100.949 149.426 100.895 149.308 100.86 149.185L100.488 149.114V148.532L100.853 148.448C100.884 148.324 100.933 148.204 100.998 148.092L100.791 147.795L101.225 147.374L101.549 147.555V147.562ZM101.88 148.345C101.76 148.464 101.693 148.623 101.693 148.788C101.693 148.952 101.76 149.111 101.88 149.231C102.009 149.345 102.179 149.409 102.356 149.409C102.533 149.409 102.704 149.345 102.832 149.231C102.91 149.105 102.942 148.959 102.921 148.815C102.9 148.671 102.828 148.538 102.716 148.437C102.605 148.336 102.46 148.273 102.306 148.259C102.152 148.245 101.997 148.279 101.867 148.357L101.88 148.345Z" fill="#9A9A9A"/>
<path d="M106.72 163.957H96.9714C96.8396 163.957 96.709 163.933 96.5872 163.885C96.4656 163.838 96.355 163.768 96.2622 163.68C96.1692 163.593 96.0956 163.489 96.0458 163.374C95.996 163.259 95.9708 163.137 95.9718 163.013C95.9718 162.764 96.077 162.526 96.2646 162.35C96.452 162.174 96.7064 162.075 96.9714 162.075H106.734C106.866 162.074 106.997 162.098 107.119 162.145C107.241 162.192 107.352 162.261 107.445 162.348C107.539 162.435 107.613 162.539 107.664 162.653C107.715 162.767 107.741 162.889 107.741 163.013C107.741 163.138 107.714 163.262 107.663 163.378C107.611 163.493 107.536 163.598 107.441 163.685C107.346 163.773 107.233 163.843 107.11 163.889C106.986 163.936 106.854 163.959 106.72 163.957Z" fill="#9A9A9A"/>
<path d="M106.72 159.165H96.9714C96.7056 159.163 96.4514 159.063 96.2642 158.886C96.0768 158.709 95.9718 158.47 95.9718 158.221C95.9718 157.972 96.077 157.733 96.2646 157.558C96.452 157.382 96.7064 157.283 96.9714 157.283H106.734C106.866 157.282 106.997 157.306 107.119 157.352C107.241 157.399 107.352 157.468 107.445 157.555C107.539 157.642 107.613 157.746 107.664 157.86C107.715 157.974 107.741 158.097 107.741 158.221C107.741 158.346 107.714 158.47 107.663 158.585C107.611 158.7 107.536 158.805 107.441 158.893C107.346 158.981 107.233 159.05 107.11 159.097C106.986 159.143 106.854 159.167 106.72 159.165Z" fill="#9A9A9A"/>
<path d="M106.72 154.773H96.9714C96.7064 154.773 96.452 154.675 96.2646 154.499C96.077 154.323 95.9718 154.084 95.9718 153.836C95.9718 153.586 96.0768 153.347 96.2642 153.17C96.4514 152.993 96.7056 152.893 96.9714 152.891H106.734C106.995 152.895 107.245 152.993 107.43 153.165C107.615 153.338 107.722 153.571 107.727 153.816C107.73 153.942 107.706 154.066 107.656 154.183C107.607 154.299 107.533 154.405 107.439 154.494C107.345 154.583 107.233 154.654 107.11 154.702C106.986 154.75 106.854 154.774 106.72 154.773Z" fill="#9A9A9A"/>
<path d="M132.954 150.518H123.702C123.436 150.518 123.182 150.419 122.995 150.243C122.807 150.067 122.702 149.829 122.702 149.58C122.701 149.456 122.726 149.333 122.776 149.219C122.826 149.104 122.899 149 122.992 148.913C123.085 148.825 123.196 148.755 123.317 148.708C123.439 148.66 123.57 148.636 123.702 148.636H132.954C133.086 148.636 133.216 148.66 133.338 148.708C133.46 148.755 133.57 148.825 133.663 148.913C133.756 149 133.83 149.104 133.88 149.219C133.929 149.333 133.955 149.456 133.954 149.58C133.954 149.829 133.848 150.067 133.661 150.243C133.473 150.419 133.219 150.518 132.954 150.518Z" fill="#E44D26"/>
<path d="M132.954 155.446H123.702C123.57 155.446 123.439 155.422 123.317 155.374C123.196 155.326 123.085 155.257 122.992 155.169C122.899 155.081 122.826 154.977 122.776 154.863C122.726 154.748 122.701 154.625 122.702 154.502C122.702 154.253 122.807 154.014 122.995 153.839C123.182 153.663 123.436 153.564 123.702 153.564H132.954C133.219 153.564 133.473 153.663 133.661 153.839C133.848 154.014 133.954 154.253 133.954 154.502C133.955 154.625 133.929 154.748 133.88 154.863C133.83 154.977 133.756 155.081 133.663 155.169C133.57 155.257 133.46 155.326 133.338 155.374C133.216 155.422 133.086 155.446 132.954 155.446Z" fill="#E4A126"/>
<path d="M132.954 160.536H123.702C123.436 160.536 123.182 160.437 122.995 160.261C122.807 160.085 122.702 159.847 122.702 159.598C122.701 159.475 122.726 159.352 122.776 159.237C122.826 159.123 122.899 159.019 122.992 158.931C123.085 158.843 123.196 158.773 123.317 158.726C123.439 158.678 123.57 158.654 123.702 158.654H132.954C133.086 158.654 133.216 158.678 133.338 158.726C133.46 158.773 133.57 158.843 133.663 158.931C133.756 159.019 133.83 159.123 133.88 159.237C133.929 159.352 133.955 159.475 133.954 159.598C133.954 159.847 133.848 160.085 133.661 160.261C133.473 160.437 133.219 160.536 132.954 160.536Z" fill="#E44D26"/>
<path d="M129.01 170.38H123.702C123.57 170.38 123.439 170.355 123.317 170.308C123.196 170.26 123.085 170.191 122.992 170.103C122.899 170.015 122.826 169.911 122.776 169.796C122.726 169.682 122.701 169.559 122.702 169.436C122.702 169.187 122.807 168.948 122.995 168.772C123.182 168.597 123.436 168.498 123.702 168.498H129.01C129.275 168.498 129.53 168.597 129.717 168.772C129.905 168.948 130.01 169.187 130.01 169.436C130.011 169.559 129.986 169.682 129.936 169.796C129.886 169.911 129.813 170.015 129.72 170.103C129.627 170.191 129.516 170.26 129.394 170.308C129.273 170.355 129.142 170.38 129.01 170.38Z" fill="#263238"/>
<path d="M129.01 175.483H123.702C123.57 175.483 123.439 175.458 123.317 175.411C123.196 175.363 123.085 175.294 122.992 175.206C122.899 175.118 122.826 175.014 122.776 174.899C122.726 174.785 122.701 174.662 122.702 174.539C122.702 174.29 122.807 174.051 122.995 173.875C123.182 173.7 123.436 173.601 123.702 173.601H129.01C129.275 173.601 129.53 173.7 129.717 173.875C129.905 174.051 130.01 174.29 130.01 174.539C130.011 174.662 129.986 174.785 129.936 174.899C129.886 175.014 129.813 175.118 129.72 175.206C129.627 175.294 129.516 175.363 129.394 175.411C129.273 175.458 129.142 175.483 129.01 175.483Z" fill="#263238"/>
<path d="M144.764 175.483H135.043C134.776 175.483 134.52 175.383 134.331 175.206C134.142 175.029 134.036 174.789 134.036 174.539C134.038 174.289 134.145 174.051 134.334 173.875C134.522 173.699 134.777 173.601 135.043 173.601H144.764C144.896 173.6 145.027 173.623 145.149 173.67C145.271 173.717 145.382 173.786 145.476 173.873C145.569 173.96 145.643 174.064 145.694 174.178C145.745 174.292 145.771 174.415 145.771 174.539C145.771 174.789 145.665 175.029 145.476 175.206C145.287 175.383 145.031 175.483 144.764 175.483Z" fill="#264DE4"/>
<path d="M139.269 180.017H129.541C129.276 180.017 129.022 179.918 128.834 179.742C128.647 179.566 128.541 179.328 128.541 179.079C128.541 178.829 128.647 178.59 128.834 178.413C129.021 178.236 129.275 178.136 129.541 178.135H139.269C139.535 178.136 139.789 178.236 139.977 178.413C140.164 178.59 140.269 178.829 140.269 179.079C140.269 179.328 140.164 179.566 139.976 179.742C139.789 179.918 139.535 180.017 139.269 180.017Z" fill="#E44D26"/>
<path d="M141.42 183.315H134.74C134.363 183.315 134.057 183.602 134.057 183.955V184.557C134.057 184.911 134.363 185.197 134.74 185.197H141.42C141.797 185.197 142.103 184.911 142.103 184.557V183.955C142.103 183.602 141.797 183.315 141.42 183.315Z" fill="#E44D26"/>
<path d="M141.096 195.338H135.057C134.925 195.338 134.794 195.314 134.672 195.267C134.549 195.219 134.438 195.15 134.345 195.062C134.252 194.974 134.177 194.87 134.127 194.756C134.076 194.641 134.05 194.518 134.05 194.394C134.05 194.27 134.076 194.148 134.127 194.034C134.178 193.92 134.252 193.816 134.345 193.729C134.439 193.642 134.55 193.573 134.672 193.526C134.794 193.479 134.925 193.456 135.057 193.456H141.096C141.362 193.456 141.616 193.555 141.803 193.731C141.991 193.907 142.096 194.145 142.096 194.394C142.097 194.518 142.072 194.641 142.022 194.755C141.972 194.87 141.899 194.974 141.806 195.061C141.713 195.149 141.602 195.219 141.481 195.266C141.359 195.314 141.228 195.338 141.096 195.338Z" fill="#E44D26"/>
<path d="M141.096 206.048H135.057C134.925 206.05 134.794 206.026 134.672 205.98C134.55 205.932 134.439 205.864 134.345 205.776C134.252 205.69 134.178 205.586 134.127 205.472C134.076 205.358 134.05 205.234 134.05 205.112C134.05 204.988 134.076 204.864 134.127 204.75C134.177 204.636 134.252 204.532 134.345 204.444C134.438 204.356 134.549 204.286 134.672 204.238C134.794 204.192 134.925 204.166 135.057 204.166H141.096C141.228 204.166 141.359 204.192 141.481 204.238C141.602 204.286 141.713 204.356 141.806 204.444C141.899 204.532 141.972 204.636 142.022 204.75C142.072 204.864 142.097 204.988 142.096 205.112C142.096 205.36 141.991 205.598 141.803 205.774C141.616 205.95 141.362 206.048 141.096 206.048Z" fill="#E44D26"/>
<path d="M155.954 206.048H145.364C145.232 206.05 145.102 206.026 144.979 205.98C144.857 205.932 144.746 205.864 144.653 205.776C144.559 205.69 144.485 205.586 144.434 205.472C144.384 205.358 144.358 205.234 144.358 205.112C144.358 204.86 144.464 204.62 144.652 204.444C144.841 204.266 145.097 204.166 145.364 204.166H155.954C156.086 204.166 156.217 204.192 156.338 204.238C156.46 204.286 156.571 204.356 156.663 204.444C156.756 204.532 156.83 204.636 156.88 204.75C156.93 204.864 156.955 204.988 156.954 205.112C156.954 205.36 156.848 205.598 156.661 205.774C156.474 205.95 156.219 206.048 155.954 206.048Z" fill="#455A64"/>
<path d="M163.366 206.048H161.842C161.71 206.05 161.579 206.026 161.457 205.98C161.335 205.932 161.224 205.864 161.131 205.776C161.037 205.69 160.963 205.586 160.912 205.472C160.861 205.358 160.835 205.234 160.835 205.112C160.835 204.988 160.861 204.864 160.912 204.75C160.963 204.636 161.037 204.532 161.13 204.444C161.224 204.356 161.335 204.286 161.457 204.238C161.579 204.192 161.71 204.166 161.842 204.166H163.366C163.633 204.166 163.889 204.266 164.077 204.444C164.266 204.62 164.372 204.86 164.372 205.112C164.37 205.36 164.264 205.598 164.075 205.774C163.886 205.95 163.631 206.048 163.366 206.048Z" fill="#E4A126"/>
<path d="M155.32 195.338H146.357C146.09 195.338 145.834 195.239 145.645 195.062C145.456 194.885 145.35 194.645 145.35 194.394C145.35 194.27 145.376 194.148 145.427 194.034C145.478 193.92 145.552 193.816 145.646 193.729C145.739 193.642 145.85 193.573 145.972 193.526C146.094 193.479 146.225 193.456 146.357 193.456H155.32C155.585 193.456 155.839 193.555 156.027 193.731C156.214 193.907 156.32 194.145 156.32 194.394C156.32 194.518 156.295 194.641 156.245 194.755C156.196 194.87 156.122 194.974 156.029 195.061C155.936 195.149 155.826 195.219 155.704 195.266C155.582 195.314 155.452 195.338 155.32 195.338Z" fill="#264DE4"/>
<path d="M174.949 200.04H146.371C146.104 200.04 145.848 199.941 145.659 199.764C145.47 199.587 145.364 199.347 145.364 199.096C145.364 198.972 145.39 198.85 145.441 198.736C145.492 198.622 145.566 198.518 145.659 198.431C145.753 198.344 145.864 198.275 145.986 198.228C146.108 198.181 146.239 198.158 146.371 198.158H174.949C175.214 198.158 175.468 198.257 175.655 198.433C175.843 198.609 175.948 198.847 175.948 199.096C175.949 199.22 175.924 199.343 175.874 199.457C175.824 199.572 175.751 199.676 175.658 199.764C175.565 199.851 175.454 199.921 175.333 199.968C175.211 200.016 175.08 200.04 174.949 200.04Z" fill="#E4A126"/>
<path d="M178.244 195.338H160.001C159.734 195.338 159.478 195.239 159.289 195.062C159.101 194.885 158.995 194.645 158.995 194.394C158.996 194.145 159.103 193.906 159.292 193.731C159.48 193.555 159.735 193.456 160.001 193.456H178.244C178.376 193.456 178.507 193.479 178.629 193.526C178.751 193.573 178.862 193.642 178.955 193.729C179.049 193.816 179.123 193.92 179.174 194.034C179.225 194.148 179.251 194.27 179.251 194.394C179.251 194.645 179.145 194.885 178.956 195.062C178.767 195.239 178.511 195.338 178.244 195.338Z" fill="#455A64"/>
<path d="M153.61 183.315H145.412C145.035 183.315 144.73 183.602 144.73 183.955V184.557C144.73 184.911 145.035 185.197 145.412 185.197H153.61C153.987 185.197 154.293 184.911 154.293 184.557V183.955C154.293 183.602 153.987 183.315 153.61 183.315Z" fill="#455A64"/>
<path d="M160.153 183.315H157.636C157.259 183.315 156.954 183.602 156.954 183.955V184.557C156.954 184.911 157.259 185.197 157.636 185.197H160.153C160.53 185.197 160.835 184.911 160.835 184.557V183.955C160.835 183.602 160.53 183.315 160.153 183.315Z" fill="#E0E0E0"/>
<path d="M174.569 183.315H164.476C164.099 183.315 163.793 183.602 163.793 183.955V184.557C163.793 184.911 164.099 185.197 164.476 185.197H174.569C174.946 185.197 175.252 184.911 175.252 184.557V183.955C175.252 183.602 174.946 183.315 174.569 183.315Z" fill="#E0E0E0"/>
<path d="M145.854 180.017H143.689C143.557 180.017 143.426 179.994 143.304 179.947C143.182 179.9 143.071 179.831 142.977 179.744C142.884 179.657 142.81 179.553 142.759 179.439C142.708 179.325 142.682 179.202 142.682 179.079C142.682 178.828 142.788 178.588 142.977 178.411C143.166 178.234 143.422 178.135 143.689 178.135H145.854C146.119 178.136 146.374 178.236 146.561 178.413C146.748 178.59 146.853 178.829 146.853 179.079C146.853 179.328 146.748 179.566 146.561 179.742C146.373 179.918 146.119 180.017 145.854 180.017Z" fill="#263238"/>
<path d="M164.207 180.017H150.418C150.153 180.017 149.898 179.918 149.711 179.742C149.523 179.566 149.418 179.328 149.418 179.079C149.418 178.829 149.523 178.59 149.71 178.413C149.898 178.236 150.152 178.136 150.418 178.135H164.207C164.473 178.136 164.728 178.236 164.917 178.413C165.105 178.59 165.212 178.829 165.213 179.079C165.212 179.328 165.105 179.567 164.916 179.742C164.728 179.918 164.473 180.017 164.207 180.017Z" fill="#E4A126"/>
<path d="M147.763 150.518H138.518C138.253 150.518 137.998 150.419 137.811 150.243C137.623 150.067 137.518 149.829 137.518 149.58C137.517 149.456 137.542 149.333 137.592 149.219C137.642 149.104 137.716 149 137.809 148.913C137.901 148.825 138.012 148.755 138.134 148.708C138.255 148.66 138.386 148.636 138.518 148.636H147.763C148.03 148.636 148.286 148.735 148.475 148.912C148.664 149.089 148.77 149.329 148.77 149.58C148.77 149.704 148.744 149.826 148.693 149.94C148.643 150.054 148.568 150.158 148.475 150.245C148.381 150.332 148.27 150.401 148.148 150.448C148.026 150.495 147.895 150.518 147.763 150.518Z" fill="#455A64"/>
<path d="M159.712 155.446H138.518C138.386 155.446 138.255 155.422 138.134 155.374C138.012 155.326 137.901 155.257 137.809 155.169C137.716 155.081 137.642 154.977 137.592 154.863C137.542 154.748 137.517 154.625 137.518 154.502C137.518 154.253 137.623 154.014 137.811 153.839C137.998 153.663 138.253 153.564 138.518 153.564H159.712C159.843 153.563 159.974 153.587 160.096 153.633C160.218 153.68 160.329 153.749 160.423 153.836C160.517 153.923 160.591 154.027 160.641 154.141C160.692 154.256 160.718 154.378 160.718 154.502C160.718 154.752 160.612 154.992 160.423 155.169C160.235 155.346 159.979 155.446 159.712 155.446Z" fill="#263238"/>
<path d="M182.464 160.536H138.518C138.253 160.536 137.998 160.437 137.811 160.261C137.623 160.085 137.518 159.847 137.518 159.598C137.517 159.475 137.542 159.352 137.592 159.237C137.642 159.123 137.716 159.019 137.809 158.931C137.901 158.843 138.012 158.773 138.134 158.726C138.255 158.678 138.386 158.654 138.518 158.654H182.464C182.595 158.654 182.726 158.678 182.848 158.726C182.969 158.773 183.08 158.843 183.173 158.931C183.266 159.019 183.339 159.123 183.389 159.237C183.439 159.352 183.464 159.475 183.463 159.598C183.463 159.847 183.358 160.085 183.17 160.261C182.983 160.437 182.729 160.536 182.464 160.536Z" fill="#264DE4"/>
<path d="M159.236 164.126H138.518C138.252 164.124 137.998 164.024 137.811 163.847C137.623 163.67 137.518 163.431 137.518 163.181C137.518 162.933 137.623 162.694 137.811 162.518C137.998 162.342 138.253 162.243 138.518 162.243H159.236C159.368 162.243 159.498 162.266 159.621 162.313C159.743 162.36 159.854 162.429 159.947 162.516C160.041 162.603 160.115 162.707 160.166 162.821C160.216 162.935 160.242 163.058 160.242 163.181C160.242 163.432 160.136 163.672 159.948 163.849C159.759 164.026 159.503 164.126 159.236 164.126Z" fill="#E4A126"/>
<path d="M155.003 170.38H134.278C134.146 170.38 134.015 170.355 133.894 170.308C133.772 170.26 133.661 170.191 133.568 170.103C133.475 170.015 133.402 169.911 133.352 169.796C133.302 169.682 133.277 169.559 133.278 169.436C133.278 169.187 133.383 168.948 133.571 168.772C133.758 168.597 134.013 168.498 134.278 168.498H155.003C155.268 168.498 155.522 168.597 155.71 168.772C155.897 168.948 156.002 169.187 156.002 169.436C156.003 169.559 155.978 169.682 155.928 169.796C155.878 169.911 155.805 170.015 155.712 170.103C155.619 170.191 155.509 170.26 155.387 170.308C155.265 170.355 155.135 170.38 155.003 170.38Z" fill="#455A64"/>
<path d="M166.606 170.38H159.656C159.389 170.38 159.133 170.28 158.945 170.103C158.756 169.926 158.65 169.686 158.65 169.436C158.65 169.312 158.676 169.189 158.727 169.075C158.777 168.961 158.852 168.857 158.945 168.77C159.039 168.683 159.15 168.614 159.272 168.567C159.394 168.52 159.525 168.497 159.656 168.498H166.606C166.872 168.498 167.127 168.596 167.316 168.772C167.504 168.948 167.611 169.186 167.613 169.436C167.613 169.686 167.507 169.926 167.318 170.103C167.129 170.28 166.873 170.38 166.606 170.38Z" fill="#E44D26"/>
<path d="M184.36 170.347H171.26C171.128 170.348 170.997 170.325 170.875 170.278C170.753 170.231 170.642 170.162 170.549 170.075C170.455 169.988 170.381 169.884 170.33 169.77C170.279 169.656 170.253 169.533 170.253 169.41C170.253 169.159 170.359 168.919 170.548 168.742C170.737 168.565 170.993 168.465 171.26 168.465H184.36C184.491 168.465 184.622 168.49 184.744 168.537C184.865 168.585 184.976 168.655 185.069 168.742C185.162 168.83 185.235 168.934 185.285 169.049C185.335 169.163 185.36 169.286 185.359 169.41C185.359 169.658 185.254 169.897 185.066 170.073C184.879 170.249 184.625 170.347 184.36 170.347Z" fill="#263238"/>
<path d="M202.21 170.347H189.11C188.845 170.347 188.59 170.249 188.403 170.073C188.215 169.897 188.11 169.658 188.11 169.41C188.109 169.286 188.134 169.163 188.184 169.049C188.234 168.934 188.308 168.83 188.401 168.742C188.493 168.655 188.604 168.585 188.726 168.537C188.847 168.49 188.978 168.465 189.11 168.465H202.21C202.476 168.465 202.732 168.565 202.922 168.742C203.11 168.919 203.216 169.159 203.216 169.41C203.216 169.533 203.19 169.656 203.14 169.77C203.088 169.884 203.014 169.988 202.92 170.075C202.828 170.162 202.716 170.231 202.594 170.278C202.472 170.325 202.342 170.348 202.21 170.347Z" fill="#E4A126"/>
<path d="M102.487 169.035H96.9714C96.7056 169.033 96.4514 168.933 96.2642 168.756C96.0768 168.579 95.9718 168.34 95.9718 168.09C95.9718 167.842 96.077 167.603 96.2646 167.427C96.452 167.251 96.7064 167.152 96.9714 167.152H102.487C102.752 167.152 103.007 167.251 103.194 167.427C103.381 167.603 103.487 167.842 103.487 168.09C103.487 168.34 103.382 168.579 103.194 168.756C103.007 168.933 102.753 169.033 102.487 169.035Z" fill="#9A9A9A"/>
<path d="M100.839 184.259H96.9714C96.8396 184.259 96.709 184.235 96.5872 184.187C96.4656 184.14 96.355 184.07 96.2622 183.982C96.1692 183.895 96.0956 183.791 96.0458 183.676C95.996 183.561 95.9708 183.439 95.9718 183.315C95.9718 183.066 96.077 182.828 96.2646 182.652C96.452 182.476 96.7064 182.377 96.9714 182.377H100.853C101.118 182.377 101.372 182.476 101.56 182.652C101.747 182.828 101.853 183.066 101.853 183.315C101.854 183.44 101.828 183.564 101.777 183.679C101.727 183.794 101.652 183.899 101.558 183.987C101.463 184.075 101.351 184.144 101.228 184.191C101.104 184.238 100.972 184.261 100.839 184.259Z" fill="#9A9A9A"/>
<path d="M107.727 174.105H96.9714C96.7064 174.105 96.452 174.006 96.2646 173.831C96.077 173.655 95.9718 173.416 95.9718 173.167C95.9708 173.044 95.996 172.921 96.0458 172.807C96.0956 172.692 96.1692 172.588 96.2622 172.5C96.355 172.412 96.4656 172.343 96.5872 172.295C96.709 172.248 96.8396 172.223 96.9714 172.223H107.727C107.859 172.223 107.989 172.248 108.111 172.295C108.233 172.343 108.343 172.412 108.436 172.5C108.529 172.588 108.603 172.692 108.653 172.807C108.702 172.921 108.728 173.044 108.727 173.167C108.727 173.416 108.621 173.655 108.434 173.831C108.246 174.006 107.992 174.105 107.727 174.105Z" fill="#9A9A9A"/>
<path d="M105.838 179.182H96.9714C96.7064 179.182 96.452 179.083 96.2646 178.908C96.077 178.732 95.9718 178.493 95.9718 178.244C95.9708 178.121 95.996 177.998 96.0458 177.884C96.0956 177.769 96.1692 177.665 96.2622 177.577C96.355 177.489 96.4656 177.42 96.5872 177.372C96.709 177.325 96.8396 177.3 96.9714 177.3H105.852C105.983 177.3 106.114 177.325 106.236 177.372C106.358 177.42 106.468 177.489 106.561 177.577C106.654 177.665 106.727 177.769 106.777 177.884C106.827 177.998 106.852 178.121 106.851 178.244C106.851 178.369 106.825 178.492 106.774 178.606C106.723 178.721 106.648 178.825 106.554 178.912C106.459 178.999 106.348 179.068 106.225 179.115C106.102 179.161 105.97 179.184 105.838 179.182Z" fill="#9A9A9A"/>
<path d="M119.172 149.58C119.172 149.769 119.112 149.954 119 150.112C118.888 150.269 118.728 150.392 118.542 150.464C118.355 150.537 118.15 150.556 117.952 150.519C117.754 150.482 117.573 150.391 117.43 150.257C117.287 150.123 117.19 149.952 117.151 149.767C117.111 149.581 117.131 149.388 117.209 149.214C117.286 149.039 117.417 148.889 117.585 148.784C117.752 148.679 117.95 148.623 118.151 148.623C118.422 148.623 118.682 148.723 118.873 148.903C119.064 149.082 119.172 149.326 119.172 149.58Z" fill="#455A64"/>
<path d="M118.151 145.512C118.715 145.512 119.172 145.083 119.172 144.554C119.172 144.026 118.715 143.597 118.151 143.597C117.588 143.597 117.131 144.026 117.131 144.554C117.131 145.083 117.588 145.512 118.151 145.512Z" fill="#455A64"/>
<path d="M118.151 155.446C118.715 155.446 119.172 155.017 119.172 154.489C119.172 153.96 118.715 153.532 118.151 153.532C117.588 153.532 117.131 153.96 117.131 154.489C117.131 155.017 117.588 155.446 118.151 155.446Z" fill="#455A64"/>
<path d="M118.151 160.555C118.715 160.555 119.172 160.127 119.172 159.598C119.172 159.07 118.715 158.641 118.151 158.641C117.588 158.641 117.131 159.07 117.131 159.598C117.131 160.127 117.588 160.555 118.151 160.555Z" fill="#455A64"/>
<path d="M118.151 165.658C118.715 165.658 119.172 165.23 119.172 164.701C119.172 164.173 118.715 163.744 118.151 163.744C117.588 163.744 117.131 164.173 117.131 164.701C117.131 165.23 117.588 165.658 118.151 165.658Z" fill="#455A64"/>
<path d="M119.172 169.804C119.173 169.994 119.115 170.179 119.003 170.338C118.892 170.496 118.733 170.62 118.547 170.693C118.36 170.767 118.155 170.786 117.957 170.75C117.758 170.714 117.576 170.623 117.432 170.49C117.289 170.356 117.191 170.186 117.151 170C117.111 169.814 117.131 169.621 117.208 169.446C117.285 169.271 117.416 169.121 117.584 169.015C117.752 168.91 117.949 168.853 118.151 168.853C118.421 168.853 118.679 168.953 118.871 169.131C119.062 169.31 119.17 169.551 119.172 169.804Z" fill="#455A64"/>
<path d="M118.151 175.871C118.715 175.871 119.172 175.442 119.172 174.914C119.172 174.385 118.715 173.956 118.151 173.956C117.588 173.956 117.131 174.385 117.131 174.914C117.131 175.442 117.588 175.871 118.151 175.871Z" fill="#455A64"/>
<path d="M118.151 180.974C118.715 180.974 119.172 180.545 119.172 180.017C119.172 179.488 118.715 179.059 118.151 179.059C117.588 179.059 117.131 179.488 117.131 180.017C117.131 180.545 117.588 180.974 118.151 180.974Z" fill="#455A64"/>
<path d="M119.172 185.126C119.172 185.315 119.112 185.5 119 185.658C118.888 185.815 118.728 185.938 118.542 186.01C118.355 186.083 118.15 186.102 117.952 186.065C117.754 186.028 117.573 185.937 117.43 185.803C117.287 185.669 117.19 185.498 117.151 185.313C117.111 185.127 117.131 184.935 117.209 184.76C117.286 184.585 117.417 184.435 117.585 184.33C117.752 184.225 117.95 184.169 118.151 184.169C118.422 184.169 118.682 184.27 118.873 184.449C119.064 184.629 119.172 184.872 119.172 185.126Z" fill="#455A64"/>
<path d="M119.172 190.229C119.172 190.418 119.112 190.603 119 190.761C118.888 190.918 118.728 191.041 118.542 191.113C118.355 191.186 118.15 191.205 117.952 191.168C117.754 191.131 117.573 191.04 117.43 190.906C117.287 190.772 117.19 190.601 117.151 190.416C117.111 190.23 117.131 190.038 117.209 189.863C117.286 189.688 117.417 189.538 117.585 189.433C117.752 189.328 117.95 189.272 118.151 189.272C118.422 189.272 118.682 189.373 118.873 189.552C119.064 189.732 119.172 189.975 119.172 190.229Z" fill="#455A64"/>
<path d="M118.151 196.296C118.715 196.296 119.172 195.867 119.172 195.338C119.172 194.81 118.715 194.381 118.151 194.381C117.588 194.381 117.131 194.81 117.131 195.338C117.131 195.867 117.588 196.296 118.151 196.296Z" fill="#455A64"/>
<path d="M119.172 200.442C119.172 200.63 119.112 200.816 119 200.974C118.888 201.13 118.728 201.254 118.542 201.326C118.355 201.398 118.15 201.418 117.952 201.38C117.754 201.344 117.573 201.252 117.43 201.118C117.287 200.984 117.19 200.814 117.151 200.628C117.111 200.442 117.131 200.25 117.209 200.076C117.286 199.9 117.417 199.751 117.585 199.646C117.752 199.54 117.95 199.484 118.151 199.484C118.422 199.484 118.682 199.585 118.873 199.765C119.064 199.944 119.172 200.188 119.172 200.442Z" fill="#455A64"/>
<path d="M118.151 206.508C118.715 206.508 119.172 206.08 119.172 205.55C119.172 205.022 118.715 204.594 118.151 204.594C117.588 204.594 117.131 205.022 117.131 205.55C117.131 206.08 117.588 206.508 118.151 206.508Z" fill="#455A64"/>
<path d="M95.434 129.44H213.406C214.106 129.44 214.778 129.701 215.274 130.165C215.768 130.63 216.046 131.26 216.046 131.917V139.587H91.704V132.932C91.704 132.473 91.8006 132.018 91.988 131.594C92.1756 131.17 92.4504 130.785 92.797 130.46C93.1434 130.136 93.5546 129.879 94.0072 129.704C94.4596 129.528 94.9444 129.439 95.434 129.44Z" fill="#D7D7D7"/>
<path d="M98.1298 136.198C98.9484 136.198 99.612 135.576 99.612 134.808C99.612 134.04 98.9484 133.417 98.1298 133.417C97.311 133.417 96.6474 134.04 96.6474 134.808C96.6474 135.576 97.311 136.198 98.1298 136.198Z" fill="#E44D26"/>
<path d="M104.169 134.808C104.169 135.083 104.082 135.352 103.92 135.58C103.757 135.809 103.525 135.987 103.254 136.092C102.983 136.198 102.685 136.225 102.398 136.172C102.11 136.118 101.846 135.985 101.639 135.791C101.432 135.597 101.29 135.349 101.233 135.079C101.176 134.809 101.205 134.53 101.318 134.276C101.43 134.022 101.62 133.804 101.863 133.652C102.107 133.499 102.394 133.417 102.687 133.417C102.882 133.416 103.075 133.452 103.255 133.521C103.436 133.591 103.599 133.693 103.737 133.823C103.875 133.952 103.984 134.105 104.058 134.275C104.133 134.444 104.17 134.625 104.169 134.808Z" fill="#E4A126"/>
<path d="M108.727 134.808C108.727 135.083 108.64 135.352 108.477 135.58C108.314 135.809 108.082 135.987 107.812 136.092C107.541 136.198 107.243 136.225 106.955 136.172C106.668 136.118 106.403 135.985 106.196 135.791C105.989 135.597 105.848 135.349 105.79 135.079C105.733 134.809 105.763 134.53 105.875 134.276C105.987 134.022 106.177 133.804 106.421 133.652C106.665 133.499 106.951 133.417 107.244 133.417C107.439 133.416 107.632 133.452 107.813 133.521C107.993 133.591 108.157 133.693 108.294 133.823C108.432 133.952 108.541 134.105 108.616 134.275C108.69 134.444 108.728 134.625 108.727 134.808Z" fill="#62BD6B"/>
<path d="M118.151 212.594L128.666 223.26L138.201 212.594H118.151Z" fill="white"/>
<path d="M212.676 213.758C213.046 213.738 213.412 213.672 213.764 213.564C214.276 213.396 214.738 213.112 215.108 212.74C215.478 212.366 215.746 211.914 215.888 211.424C215.988 211.082 216.028 210.728 216.006 210.376V209.186C216.006 208.352 216.006 207.44 216.006 206.456C216.006 204.484 216.006 202.208 216.006 199.646C216.006 189.395 215.97 174.571 215.95 156.248C215.95 151.669 215.95 146.876 215.95 141.87C215.95 139.365 215.95 136.815 215.95 134.219C215.95 133.572 215.95 132.926 215.95 132.279C215.876 131.645 215.592 131.05 215.136 130.577C214.68 130.105 214.078 129.779 213.414 129.647C212.712 129.576 212.008 129.554 211.304 129.582H174.638H134.119H96.1992C95.7442 129.582 95.2548 129.582 94.8204 129.582C94.3814 129.622 93.9564 129.747 93.5724 129.951C93.187 130.157 92.8514 130.435 92.5868 130.769C92.322 131.103 92.1342 131.485 92.035 131.891C91.9418 132.482 91.9118 133.08 91.9454 133.676V160.568C91.9454 169.946 91.9454 179.096 91.9454 188.017V201.166C91.9454 203.322 91.9454 205.462 91.9454 207.588C91.9454 208.642 91.9454 209.71 91.9454 210.744C91.9766 211.242 92.14 211.724 92.4206 212.148C92.701 212.572 93.09 212.922 93.5518 213.17C94.0116 213.418 94.531 213.554 95.0616 213.564H119.034L119.082 213.61L128.735 223.118H128.521L136.96 213.674L137.001 213.63H137.063L192.336 213.68L207.428 213.72L192.336 213.758L137.063 213.81L137.167 213.764L128.686 223.344L128.583 223.46L128.473 223.35L118.82 213.856L118.931 213.9H95.0066C94.4258 213.884 93.858 213.734 93.3518 213.468C92.8418 213.194 92.412 212.808 92.1014 212.34C91.791 211.872 91.6094 211.34 91.573 210.79C91.573 209.716 91.573 208.674 91.573 207.614V201.192C91.573 196.88 91.573 192.497 91.573 188.043V160.601C91.573 155.914 91.573 151.171 91.573 146.372V132.79C91.5648 132.473 91.5972 132.156 91.6696 131.846C91.7836 131.398 91.9942 130.977 92.2884 130.609C92.5824 130.241 92.9538 129.933 93.3794 129.705C93.8038 129.479 94.2732 129.339 94.7584 129.291C95.2616 129.258 95.696 129.291 96.1372 129.291H174.569H211.234C211.956 129.26 212.68 129.284 213.4 129.362C214.122 129.508 214.778 129.864 215.274 130.379C215.768 130.895 216.078 131.544 216.158 132.234C216.198 132.919 216.158 133.527 216.158 134.174C216.158 136.761 216.158 139.311 216.158 141.825C216.158 146.827 216.158 151.619 216.158 156.203C216.158 174.526 216.108 189.349 216.096 199.601C216.096 202.188 216.096 204.438 216.096 206.412C216.096 207.394 216.096 208.306 216.096 209.14V210.33C216.112 210.69 216.068 211.05 215.964 211.398C215.794 211.98 215.446 212.504 214.964 212.904C214.624 213.196 214.222 213.416 213.786 213.552C213.52 213.636 213.244 213.688 212.964 213.706L212.676 213.758Z" fill="#263238"/>
<path d="M101.474 65.5262H195.405C195.984 65.5262 196.54 65.7422 196.95 66.1268C197.36 66.5112 197.59 67.0328 197.59 67.5766V111.899C197.59 112.549 197.315 113.173 196.825 113.633C196.335 114.092 195.67 114.351 194.977 114.351H101.474C100.894 114.351 100.338 114.135 99.9282 113.75C99.5182 113.366 99.288 112.844 99.288 112.3V67.5766C99.288 67.0328 99.5182 66.5112 99.9282 66.1268C100.338 65.7422 100.894 65.5262 101.474 65.5262Z" fill="white"/>
<path d="M101.68 65.5262H195.198C195.832 65.5262 196.441 65.7628 196.889 66.1836C197.338 66.6044 197.59 67.1754 197.59 67.7706V76.0104H99.288V67.7964C99.2844 67.4996 99.3436 67.205 99.4622 66.9296C99.5808 66.6544 99.7564 66.4038 99.9788 66.1928C100.201 65.9816 100.466 65.814 100.758 65.6996C101.051 65.5852 101.364 65.5262 101.68 65.5262Z" fill="#D7D7D7"/>
<path d="M194.825 114.363C195.079 114.342 195.33 114.301 195.577 114.241C195.933 114.143 196.265 113.978 196.551 113.755C196.836 113.533 197.071 113.258 197.238 112.947C197.484 112.487 197.589 111.972 197.542 111.46C197.542 110.884 197.542 110.263 197.542 109.584C197.542 108.232 197.542 106.667 197.542 104.908C197.542 97.871 197.542 87.6974 197.487 75.1242C197.487 73.5504 197.487 71.94 197.487 70.293C197.487 69.4716 197.487 68.6436 197.487 67.8028C197.526 67.4034 197.433 67.0024 197.219 66.655C197.005 66.3074 196.682 66.0306 196.294 65.8626C195.886 65.7064 195.444 65.6444 195.005 65.6814H184.939H159.774H102.108C101.803 65.6672 101.498 65.6868 101.198 65.7396C100.764 65.8358 100.371 66.0506 100.067 66.357C99.7642 66.6632 99.565 67.0472 99.4948 67.46C99.4702 67.7486 99.4702 68.0384 99.4948 68.3268V78.0282C99.4948 82.6978 99.4948 87.2986 99.4948 91.8302V105.154C99.4948 107.309 99.4948 109.465 99.4948 111.621C99.4756 112.123 99.6206 112.618 99.9102 113.04C100.2 113.462 100.62 113.791 101.115 113.982C101.627 114.146 102.17 114.205 102.708 114.157H104.376H151.473L183.222 114.208H191.854H194.101H194.867H194.101H191.854L183.222 114.241L151.473 114.292L104.376 114.331H102.708C102.127 114.375 101.543 114.307 100.991 114.131C100.435 113.915 99.962 113.546 99.6346 113.072C99.3072 112.599 99.1406 112.043 99.157 111.479V105.011C99.157 100.659 99.157 96.2088 99.157 91.6878V68.3396C99.1414 68.0332 99.153 67.726 99.1914 67.4212C99.2686 66.9418 99.498 66.4952 99.8498 66.14C100.202 65.7846 100.659 65.537 101.163 65.4292C101.49 65.3648 101.823 65.3408 102.156 65.358H159.822H184.987H195.018C195.489 65.3194 195.963 65.3906 196.397 65.565C196.839 65.7542 197.208 66.066 197.454 66.458C197.701 66.8502 197.813 67.3036 197.776 67.7576C197.776 68.5984 197.776 69.4262 197.776 70.2476C197.776 71.899 197.776 73.5094 197.776 75.079C197.776 87.652 197.735 97.8256 197.721 104.863C197.721 106.622 197.721 108.187 197.721 109.539C197.721 110.218 197.721 110.832 197.721 111.414C197.735 111.689 197.716 111.965 197.666 112.236C197.609 112.478 197.518 112.713 197.397 112.934C197.217 113.247 196.972 113.523 196.676 113.746C196.38 113.968 196.039 114.132 195.673 114.228C195.403 114.323 195.115 114.369 194.825 114.363Z" fill="#263238"/>
<path d="M106.603 73.3068C107.616 73.3068 108.437 72.5366 108.437 71.5864C108.437 70.6362 107.616 69.866 106.603 69.866C105.59 69.866 104.769 70.6362 104.769 71.5864C104.769 72.5366 105.59 73.3068 106.603 73.3068Z" fill="#E44D26"/>
<path d="M114.063 71.5864C114.063 71.927 113.955 72.2598 113.753 72.5428C113.552 72.826 113.265 73.0464 112.929 73.1764C112.594 73.3064 112.225 73.3402 111.869 73.2732C111.513 73.2064 111.186 73.0418 110.93 72.8006C110.674 72.5594 110.499 72.2522 110.429 71.918C110.36 71.584 110.397 71.2378 110.537 70.9236C110.677 70.6094 110.913 70.341 111.215 70.1528C111.518 69.9646 111.873 69.8648 112.236 69.866C112.476 69.866 112.715 69.9106 112.937 69.9972C113.159 70.0836 113.361 70.2104 113.53 70.3704C113.7 70.5302 113.834 70.7198 113.926 70.9286C114.017 71.1372 114.064 71.3608 114.063 71.5864Z" fill="#E4A126"/>
<path d="M117.869 73.3068C118.882 73.3068 119.703 72.5366 119.703 71.5864C119.703 70.6362 118.882 69.866 117.869 69.866C116.856 69.866 116.035 70.6362 116.035 71.5864C116.035 72.5366 116.856 73.3068 117.869 73.3068Z" fill="#62BD6B"/>
<path d="M127.611 90.7824H116.186C116.024 90.7832 115.863 90.754 115.712 90.6962C115.562 90.6384 115.425 90.5532 115.309 90.4456C115.194 90.338 115.103 90.2102 115.04 90.0692C114.978 89.9284 114.945 89.7774 114.945 89.6248C114.945 89.4716 114.976 89.3198 115.038 89.1782C115.1 89.0366 115.191 88.908 115.307 88.7996C115.422 88.6914 115.56 88.6056 115.71 88.5474C115.861 88.4892 116.023 88.4598 116.186 88.4606H127.611C127.94 88.4606 128.255 88.5832 128.488 88.8016C128.721 89.0198 128.852 89.316 128.852 89.6248C128.85 89.9324 128.718 90.2268 128.486 90.4438C128.253 90.6606 127.939 90.7824 127.611 90.7824Z" fill="#263238"/>
<path d="M127.611 96.9008H116.186C116.024 96.9008 115.862 96.8708 115.712 96.8122C115.561 96.7536 115.424 96.668 115.309 96.5598C115.194 96.4518 115.102 96.3234 115.04 96.1822C114.978 96.041 114.945 95.8896 114.945 95.7366C114.945 95.4278 115.076 95.1318 115.309 94.9134C115.542 94.6952 115.857 94.5724 116.186 94.5724H127.611C127.939 94.5742 128.254 94.6974 128.486 94.9154C128.719 95.1332 128.85 95.4284 128.852 95.7366C128.85 96.0448 128.719 96.34 128.486 96.558C128.254 96.776 127.939 96.8992 127.611 96.9008Z" fill="#E4A126"/>
<path d="M187.938 90.7823H154.789C154.461 90.7823 154.146 90.6606 153.914 90.4438C153.681 90.2268 153.55 89.9324 153.548 89.6248C153.548 89.316 153.679 89.0198 153.911 88.8016C154.144 88.5832 154.46 88.4606 154.789 88.4606H187.938C188.267 88.4606 188.583 88.5832 188.815 88.8016C189.048 89.0198 189.179 89.316 189.179 89.6248C189.177 89.9324 189.045 90.2268 188.813 90.4438C188.58 90.6606 188.266 90.7823 187.938 90.7823Z" fill="#264DE4"/>
<path d="M127.611 103.168H116.186C115.857 103.168 115.542 103.045 115.309 102.827C115.076 102.609 114.945 102.313 114.945 102.004C114.945 101.851 114.976 101.699 115.038 101.557C115.1 101.416 115.191 101.287 115.307 101.179C115.422 101.07 115.56 100.985 115.71 100.926C115.861 100.868 116.023 100.839 116.186 100.84H127.611C127.94 100.84 128.255 100.962 128.488 101.181C128.721 101.399 128.852 101.695 128.852 102.004C128.85 102.312 128.719 102.607 128.486 102.825C128.254 103.043 127.939 103.166 127.611 103.168Z" fill="#E44D26"/>
<path d="M180.03 96.9008H168.599C168.271 96.8992 167.957 96.7758 167.726 96.5576C167.494 96.3394 167.365 96.0442 167.365 95.7366C167.365 95.429 167.494 95.1338 167.726 94.9158C167.957 94.6976 168.271 94.5742 168.599 94.5724H180.03C180.358 94.5742 180.673 94.6974 180.905 94.9154C181.138 95.1332 181.269 95.4284 181.271 95.7366C181.269 96.0448 181.138 96.34 180.905 96.558C180.673 96.776 180.358 96.8992 180.03 96.9008Z" fill="#E44D26"/>
<path d="M145.923 90.7823H134.491C134.164 90.7823 133.849 90.6606 133.616 90.4438C133.384 90.2268 133.252 89.9324 133.25 89.6248C133.25 89.316 133.381 89.0198 133.614 88.8016C133.847 88.5832 134.162 88.4606 134.491 88.4606H145.923C146.085 88.4606 146.246 88.4908 146.396 88.5492C146.547 88.6078 146.683 88.6938 146.798 88.802C146.912 88.9102 147.003 89.0384 147.065 89.1796C147.126 89.321 147.158 89.4722 147.157 89.6248C147.157 89.9318 147.027 90.2262 146.795 90.4434C146.564 90.6604 146.25 90.7823 145.923 90.7823Z" fill="#455A64"/>
<path d="M160.642 96.9008H134.491C134.163 96.8992 133.848 96.776 133.616 96.558C133.384 96.34 133.252 96.0448 133.25 95.7366C133.252 95.4284 133.384 95.1332 133.616 94.9154C133.848 94.6974 134.163 94.5742 134.491 94.5724H160.642C160.972 94.5724 161.287 94.6952 161.52 94.9134C161.753 95.1318 161.883 95.4278 161.883 95.7366C161.883 95.8896 161.851 96.041 161.789 96.1822C161.727 96.3234 161.635 96.4518 161.52 96.5598C161.405 96.668 161.268 96.7536 161.117 96.8122C160.967 96.8708 160.805 96.9008 160.642 96.9008Z" fill="#263238"/>
<path d="M186.297 103.168H134.436C134.277 103.165 134.12 103.132 133.974 103.071C133.828 103.011 133.696 102.924 133.586 102.816C133.476 102.708 133.39 102.581 133.332 102.441C133.275 102.302 133.247 102.153 133.25 102.004C133.247 101.854 133.275 101.706 133.332 101.566C133.39 101.427 133.476 101.299 133.586 101.191C133.696 101.083 133.828 100.996 133.974 100.936C134.12 100.876 134.277 100.843 134.436 100.84H186.297C186.456 100.843 186.613 100.876 186.758 100.936C186.904 100.997 187.035 101.083 187.145 101.192C187.254 101.3 187.34 101.427 187.397 101.567C187.454 101.706 187.48 101.855 187.476 102.004C187.483 102.305 187.363 102.596 187.142 102.814C186.922 103.032 186.618 103.159 186.297 103.168Z" fill="#E4A126"/>
<path d="M160.098 107.598H134.491C134.163 107.597 133.848 107.473 133.616 107.255C133.384 107.038 133.252 106.742 133.25 106.434C133.252 106.126 133.384 105.831 133.616 105.613C133.848 105.395 134.163 105.272 134.491 105.27H160.098C160.261 105.27 160.422 105.3 160.573 105.359C160.723 105.417 160.86 105.503 160.975 105.611C161.09 105.719 161.182 105.847 161.244 105.989C161.307 106.13 161.339 106.281 161.339 106.434C161.339 106.587 161.307 106.738 161.244 106.88C161.182 107.021 161.09 107.149 160.975 107.257C160.86 107.365 160.723 107.451 160.573 107.51C160.422 107.568 160.261 107.598 160.098 107.598Z" fill="#264DE4"/>
<path d="M110.581 89.6246C110.581 89.8588 110.507 90.0876 110.369 90.2822C110.23 90.4768 110.033 90.6286 109.802 90.7182C109.572 90.8078 109.318 90.8312 109.073 90.7856C108.829 90.7398 108.604 90.6272 108.427 90.4616C108.251 90.296 108.131 90.0852 108.082 89.8556C108.033 89.626 108.058 89.388 108.154 89.1718C108.249 88.9554 108.411 88.7706 108.619 88.6406C108.826 88.5106 109.07 88.4412 109.32 88.4412C109.485 88.4412 109.649 88.4718 109.802 88.5312C109.955 88.5906 110.095 88.6778 110.212 88.7878C110.329 88.8976 110.422 89.0282 110.485 89.1718C110.549 89.3154 110.581 89.4692 110.581 89.6246Z" fill="#455A64"/>
<path d="M110.581 83.7974C110.581 84.0314 110.507 84.2602 110.369 84.455C110.23 84.6496 110.033 84.8012 109.802 84.8908C109.572 84.9804 109.318 85.0038 109.073 84.9582C108.829 84.9126 108.604 84.7998 108.427 84.6342C108.251 84.4688 108.131 84.2578 108.082 84.0282C108.033 83.7986 108.058 83.5606 108.154 83.3444C108.249 83.1282 108.411 82.9434 108.619 82.8132C108.826 82.6832 109.07 82.6138 109.32 82.6138C109.486 82.613 109.65 82.643 109.803 82.7022C109.957 82.7614 110.096 82.8484 110.214 82.9586C110.331 83.0686 110.424 83.1994 110.487 83.3434C110.55 83.4874 110.582 83.6416 110.581 83.7974Z" fill="#455A64"/>
<path d="M109.32 96.875C110.016 96.875 110.581 96.345 110.581 95.6914C110.581 95.0378 110.016 94.5078 109.32 94.5078C108.623 94.5078 108.058 95.0378 108.058 95.6914C108.058 96.345 108.623 96.875 109.32 96.875Z" fill="#455A64"/>
<path d="M109.32 103.187C110.016 103.187 110.581 102.657 110.581 102.004C110.581 101.35 110.016 100.82 109.32 100.82C108.623 100.82 108.058 101.35 108.058 102.004C108.058 102.657 108.623 103.187 109.32 103.187Z" fill="#455A64"/>
<path d="M122.895 82.4004H115.862C115.497 82.4004 115.201 82.6784 115.201 83.0212V84.0238C115.201 84.3666 115.497 84.6446 115.862 84.6446H122.895C123.26 84.6446 123.557 84.3666 123.557 84.0238V83.0212C123.557 82.6784 123.26 82.4004 122.895 82.4004Z" fill="#455A64"/>
<path d="M51.1435 266.354C45.3935 268.7 39.8503 268.94 34.5967 266.354L30.7563 236.13H54.6322L51.1435 266.354Z" fill="#6F4439"/>
<path d="M53.0535 234.384L52.3639 232.224L34.3349 230.134C34.0981 230.108 33.8589 230.158 33.6561 230.274C33.4533 230.392 33.2987 230.57 33.2179 230.782L31.9149 234.344H29.6121V238.258C38.6507 239.752 47.3035 239.836 55.5009 238.258V234.344L53.0535 234.384Z" fill="#E0E0E0"/>
<path d="M53.0533 234.384C53.1079 234.374 53.1639 234.374 53.2187 234.384H53.6945H55.5007H55.5629V234.448C55.5629 235.458 55.5629 236.776 55.6043 238.362V238.438H55.5215C51.8641 239.158 48.1435 239.556 44.4075 239.628C39.4703 239.696 34.5381 239.31 29.6809 238.478H29.5843H29.4327V234.254H31.9147L31.7491 234.364C32.1835 233.174 32.6179 232.01 33.0315 230.872C33.0815 230.708 33.1691 230.556 33.2883 230.428C33.4073 230.3 33.5551 230.198 33.7211 230.128C33.8891 230.062 34.0701 230.032 34.2519 230.038C34.4311 230.038 34.5691 230.076 34.7277 230.09L36.5477 230.302L43.1941 231.046L52.3637 232.158H52.4051V232.198C52.6119 232.876 52.7775 233.414 52.9015 233.802C52.9499 233.97 52.9911 234.112 53.0257 234.222C53.0301 234.274 53.0301 234.326 53.0257 234.378C53.0009 234.336 52.9825 234.294 52.9705 234.248L52.8189 233.846C52.6741 233.452 52.4879 232.922 52.2397 232.236L52.2949 232.282L43.1389 231.298L36.5271 230.568L34.7069 230.36C34.4319 230.288 34.1409 230.288 33.8657 230.36C33.7411 230.41 33.6305 230.488 33.5421 230.584C33.4535 230.68 33.3899 230.794 33.3555 230.916L32.0801 234.416L32.0387 234.526H29.6119L29.7911 234.358V238.27L29.6463 238.102H29.7429C34.5793 238.918 39.4871 239.302 44.4007 239.248C48.1187 239.19 51.8239 238.824 55.4733 238.154L55.3905 238.258C55.3905 236.674 55.3905 235.354 55.4319 234.344L55.5007 234.41L53.6599 234.37H53.1981L53.0533 234.384Z" fill="#263238"/>
<path d="M52.8466 256.342C46.6 257.286 39.747 257.15 32.418 256.342L31.4252 247.176C38.9418 247.97 46.5294 247.97 54.0462 247.176L52.8466 256.342Z" fill="#AE7461"/>
<path d="M41.3396 250.12C40.8852 250.378 40.5482 250.786 40.3932 251.262C40.238 251.74 40.2754 252.254 40.4984 252.706L41.1466 254C41.3716 254.454 41.7678 254.816 42.2592 255.012C42.7504 255.21 43.302 255.228 43.8078 255.068L41.3396 250.12Z" fill="#6F4439"/>
<path d="M41.7739 249.932L44.2421 254.912C44.6941 254.65 45.0291 254.244 45.1841 253.768C45.3389 253.292 45.3031 252.778 45.0831 252.324L44.4351 251.032C44.2149 250.572 43.8211 250.206 43.3295 250.002C42.8381 249.8 42.2839 249.774 41.7739 249.932Z" fill="#6F4439"/>
<path d="M53.2532 234.442C52.9916 234.544 52.7188 234.62 52.4398 234.668C51.9158 234.798 51.1436 234.952 50.1784 235.114C45.1454 235.952 39.995 235.952 34.9622 235.114C34.0038 234.946 33.2316 234.792 32.7008 234.656C32.422 234.602 32.1496 234.524 31.8872 234.422C32.1708 234.428 32.4528 234.462 32.7282 234.526C33.266 234.622 34.0452 234.746 35.0034 234.876C40.0208 235.57 45.1196 235.57 50.137 234.876C51.1022 234.746 51.8812 234.622 52.4122 234.532C52.6878 234.472 52.97 234.442 53.2532 234.442Z" fill="#263238"/>
<path d="M65.5324 189.492C65.5324 189.492 61.5956 190.287 60.9132 192.913C60.2306 195.539 66.4288 258.236 66.6424 259.756C67.0354 262.156 69.1934 265.208 74.0472 265.04C78.2874 264.898 136.001 265.04 150.528 265.04C152.465 265.04 153.624 263.502 153.879 261.664L82.4172 257.706L65.5324 189.492Z" fill="#E0E0E0"/>
<path d="M63.7398 191.587L69.945 259.2C70.0022 259.734 70.266 260.23 70.6866 260.592C71.1072 260.956 71.6552 261.162 72.227 261.172L153.893 261.516L138.201 246.912L85.1542 246.562L79.48 193.586C79.4398 193.24 79.2852 192.915 79.0378 192.657C78.7904 192.398 78.4628 192.218 78.1012 192.143L66.215 189.556C65.9032 189.497 65.581 189.506 65.2734 189.582C64.966 189.659 64.6814 189.801 64.442 189.997C64.2024 190.194 64.0146 190.44 63.8928 190.715C63.771 190.991 63.7186 191.289 63.7398 191.587Z" fill="#E0E0E0"/>
<path d="M63.7398 191.587C63.7276 191.478 63.7276 191.367 63.7398 191.257C63.7556 190.932 63.8652 190.617 64.057 190.345C64.2112 190.121 64.4134 189.928 64.6506 189.78C64.888 189.632 65.1554 189.532 65.436 189.485C65.8012 189.44 66.1726 189.469 66.5252 189.569L67.7318 189.828L74.0402 191.186L78.039 192.053C78.4282 192.122 78.7838 192.306 79.055 192.576C79.3262 192.847 79.4992 193.191 79.549 193.56C79.6248 194.284 79.7076 195.028 79.7904 195.791C81.121 208.08 83.017 225.542 85.306 246.55L85.1542 246.414L138.208 246.744H138.277L138.332 246.796L154.017 261.392L154.327 261.684H153.893H150.273L90.4078 261.418L76.9636 261.354H73.7232C73.1854 261.354 72.6614 261.354 72.1098 261.354C71.5394 261.32 70.9988 261.104 70.5792 260.74C70.1626 260.38 69.8922 259.894 69.814 259.368C69.7518 258.87 69.7174 258.392 69.6692 257.9C69.5864 256.93 69.4968 255.96 69.4072 255.008C68.7178 247.364 68.0696 240.236 67.4836 233.736C66.3184 220.73 65.3738 210.208 64.7258 202.932C64.4086 199.297 64.1604 196.464 63.995 194.556C63.9122 193.599 63.857 192.874 63.8158 192.376C63.7744 191.878 63.7606 191.632 63.7606 191.632C63.7606 191.632 63.802 191.878 63.8502 192.37C63.8984 192.861 63.9742 193.599 64.064 194.549C64.25 196.49 64.519 199.29 64.8636 202.918C65.5532 210.194 66.5322 220.718 67.7456 233.712C68.3454 240.218 69.0072 247.338 69.7106 254.984C69.7978 255.94 69.8874 256.904 69.9794 257.874C70.0276 258.36 70.0622 258.858 70.1172 259.33C70.1994 259.79 70.4418 260.214 70.8068 260.532C71.1868 260.854 71.6744 261.042 72.1856 261.062C72.7028 261.062 73.2474 261.062 73.7782 261.062H77.0256L90.47 261.114L150.328 261.354H153.948L153.817 261.638L138.063 247.028L138.187 247.08L85.1404 246.704H85.0026V246.576C82.7756 225.568 80.928 208.066 79.6318 195.811C79.549 195.047 79.4662 194.304 79.3904 193.579C79.347 193.241 79.19 192.925 78.942 192.676C78.6942 192.427 78.3682 192.259 78.0116 192.195L74.0126 191.316L67.718 189.912L66.5114 189.647C66.1714 189.544 65.8116 189.511 65.4566 189.55C65.1794 189.592 64.9142 189.686 64.677 189.827C64.44 189.969 64.236 190.154 64.0776 190.371C63.8852 190.636 63.771 190.944 63.7468 191.264C63.733 191.477 63.7536 191.587 63.7398 191.587Z" fill="#263238"/>
<path d="M123.515 259.756H131.106L121.509 248.082H117.007L123.515 259.756Z" fill="#263238"/>
<path d="M66.546 194.64L72.3442 253.418L83.1824 245.334L78.4942 195.856C78.4774 195.663 78.3912 195.481 78.2496 195.34C78.108 195.199 77.9196 195.107 77.715 195.08L67.587 193.722C67.4512 193.704 67.313 193.715 67.1822 193.754C67.0516 193.793 66.9318 193.859 66.832 193.947C66.7322 194.035 66.6546 194.143 66.605 194.263C66.5556 194.383 66.5354 194.512 66.546 194.64Z" fill="#263238"/>
<path d="M78.1494 259.756H85.9816L93.9448 248.082H89.4358L78.1494 259.756Z" fill="#263238"/>
<path d="M87.7672 259.756H95.3582L99.5156 248.082H95.0066L87.7672 259.756Z" fill="#263238"/>
<path d="M97.0542 259.756H104.645L105.052 248.082H100.55L97.0542 259.756Z" fill="#263238"/>
<path d="M105.672 259.756H113.263L110.457 248.082H105.955L105.672 259.756Z" fill="#263238"/>
<path d="M114.649 259.756H122.24L116.055 248.082H111.553L114.649 259.756Z" fill="#263238"/>
<path d="M130.755 257.48C130.755 257.538 119.179 257.584 104.9 257.584C90.6216 257.584 79.0526 257.538 79.0526 257.48C79.0526 257.422 90.6216 257.382 104.9 257.382C119.179 257.382 130.755 257.428 130.755 257.48Z" fill="#E0E0E0"/>
<path d="M129.376 255.358C129.376 255.416 118.386 255.462 104.824 255.462C91.2628 255.462 80.273 255.416 80.273 255.358C80.273 255.3 91.2628 255.262 104.824 255.262C118.386 255.262 129.376 255.288 129.376 255.358Z" fill="#E0E0E0"/>
<path d="M129.376 253.418C129.376 253.528 119.034 253.618 106.279 253.618C93.5242 253.618 83.1824 253.508 83.1824 253.418C83.1824 253.328 93.5242 253.218 106.286 253.218C119.048 253.218 129.376 253.288 129.376 253.418Z" fill="#E0E0E0"/>
<path d="M129.665 251.626C129.665 251.736 119.544 251.826 107.065 251.826C94.586 251.826 84.458 251.736 84.458 251.626C84.458 251.516 94.579 251.42 107.065 251.42C119.551 251.42 129.665 251.51 129.665 251.626Z" fill="#E0E0E0"/>
<path d="M130.755 250.332C130.755 250.442 120.565 250.534 108.003 250.534C95.4408 250.534 85.2508 250.442 85.2508 250.332C85.2508 250.222 95.434 250.126 108.003 250.126C120.571 250.126 130.755 250.216 130.755 250.332Z" fill="#E0E0E0"/>
<path d="M131.844 248.974C131.844 249.092 121.468 249.182 108.671 249.182C95.8752 249.182 85.492 249.092 85.492 248.974C85.492 248.858 95.8338 248.774 108.671 248.774C121.509 248.774 131.844 248.89 131.844 248.974Z" fill="#E0E0E0"/>
<path d="M71.0756 259.2L85.2508 246.788L71.0756 259.2Z" fill="#E0E0E0"/>
<path d="M85.2508 246.788C85.3198 246.854 82.2034 249.686 78.3012 253.114C74.3988 256.542 71.1722 259.272 71.1032 259.2C71.0342 259.128 74.1438 256.302 78.0528 252.868C81.962 249.434 85.1542 246.718 85.2508 246.788Z" fill="#263238"/>
<path d="M319.326 200.538C319.326 200.538 318.638 193.67 300.394 189.278C291.59 187.157 270.568 186.141 268.19 198.98C268.114 199.394 257.724 280 257.724 280H296.588L319.326 200.538Z" fill="#455A64"/>
<path d="M313.17 279.974H295.244L301.228 201.03C301.67 197.188 305.91 194.414 310.702 194.84L312.308 194.983C317.092 195.41 320.134 199.736 319.996 204.684L313.17 279.974Z" fill="#455A64"/>
<path d="M296.588 277.134C296.486 277.134 297.754 261.568 299.416 242.39C301.076 223.214 302.504 207.666 302.6 207.672C302.698 207.678 301.436 223.234 299.774 242.416C298.112 261.6 296.686 277.142 296.588 277.134Z" fill="#263238"/>
<path d="M315.886 196.807C315.06 196.567 314.216 196.381 313.362 196.25C311.296 195.986 309.194 196.371 307.384 197.344C305.576 198.317 304.16 199.825 303.36 201.632C303.052 202.388 302.798 203.164 302.6 203.954C302.578 203.738 302.59 203.52 302.636 203.306C302.724 202.706 302.89 202.118 303.124 201.554C303.89 199.659 305.332 198.073 307.206 197.066C309.08 196.058 311.268 195.692 313.398 196.03C314.036 196.122 314.662 196.285 315.258 196.516C315.482 196.582 315.694 196.68 315.886 196.807Z" fill="#263238"/>
<path d="M259.276 98.0714C259.462 93.447 256.118 92.8262 253.546 93.3566C251.95 92.3132 250.028 91.8008 248.084 91.9004C246.142 92 244.29 92.706 242.826 93.9062C241.648 93.3036 240.324 92.9974 238.984 93.0176C237.644 93.0378 236.332 93.3838 235.176 94.0216C234.02 94.6594 233.06 95.5674 232.39 96.657C231.72 97.7464 231.362 98.9804 231.352 100.238C230.002 100.083 228.634 100.332 227.442 100.947C226.25 101.563 225.294 102.516 224.712 103.669C224.128 104.823 223.948 106.119 224.194 107.375C224.44 108.63 225.102 109.781 226.086 110.664C224.552 111.095 223.256 112.064 222.466 113.371C221.676 114.677 221.456 116.219 221.85 117.674C222.246 119.129 223.224 120.385 224.582 121.18C225.94 121.974 227.572 122.246 229.14 121.937L259.378 103.045C261.192 101.254 259.178 100.542 259.276 98.0714Z" fill="#263238"/>
<path d="M228.264 122.771C228.562 116.546 231.35 110.655 236.068 106.27C240.788 101.885 247.094 99.3274 253.732 99.1062L255.112 99.061C269.886 99.378 277.864 111.35 277.112 125.177L276.726 171.318L276.628 180.081L242.846 187.616L242.502 169.351C242.502 169.351 228.244 167.76 227.568 154.476C227.216 148.06 227.692 134.788 228.264 122.771Z" fill="#AE7461"/>
<path d="M242.364 169.338C248.946 169.122 255.326 167.137 260.744 163.621C260.744 163.621 256.738 173.323 242.55 172.611L242.364 169.338Z" fill="#6F4439"/>
<path d="M232.394 136.198C232.406 136.693 232.624 137.163 233.002 137.509C233.38 137.855 233.886 138.048 234.414 138.048C234.672 138.058 234.93 138.02 235.172 137.935C235.416 137.851 235.636 137.722 235.826 137.555C236.014 137.389 236.164 137.189 236.268 136.967C236.374 136.745 236.43 136.505 236.434 136.263C236.422 135.768 236.202 135.298 235.826 134.952C235.448 134.606 234.942 134.413 234.414 134.413C234.156 134.402 233.896 134.439 233.654 134.524C233.412 134.608 233.188 134.737 233 134.904C232.812 135.07 232.66 135.271 232.556 135.493C232.452 135.716 232.398 135.955 232.394 136.198Z" fill="#263238"/>
<path d="M231.414 129.886C231.67 130.119 233.166 129.006 235.344 128.942C237.524 128.877 239.158 129.841 239.384 129.588C239.496 129.472 239.226 129.032 238.51 128.586C237.544 128.002 236.408 127.714 235.262 127.764C234.128 127.796 233.036 128.168 232.146 128.825C231.504 129.31 231.298 129.763 231.414 129.886Z" fill="#263238"/>
<path d="M249.898 135.778C249.914 136.273 250.134 136.744 250.512 137.089C250.89 137.435 251.398 137.628 251.926 137.628C252.184 137.638 252.442 137.6 252.684 137.515C252.928 137.43 253.148 137.301 253.338 137.135C253.526 136.968 253.676 136.768 253.78 136.546C253.886 136.324 253.942 136.085 253.946 135.843C253.934 135.348 253.714 134.877 253.338 134.532C252.96 134.186 252.454 133.993 251.926 133.993C251.666 133.981 251.408 134.019 251.164 134.103C250.922 134.188 250.698 134.317 250.51 134.483C250.32 134.65 250.17 134.85 250.064 135.072C249.96 135.295 249.904 135.535 249.898 135.778Z" fill="#263238"/>
<path d="M252.256 128.89C252.512 129.129 254.008 128.017 256.186 127.946C258.366 127.874 260 128.851 260.226 128.592C260.338 128.476 260.068 128.036 259.352 127.583C258.384 127.003 257.25 126.716 256.104 126.762C254.972 126.799 253.882 127.17 252.988 127.823C252.34 128.327 252.098 128.786 252.256 128.89Z" fill="#263238"/>
<path d="M245.652 144.276C245.652 144.16 244.272 143.985 242.094 143.791C241.536 143.759 241.004 143.675 240.894 143.319C240.828 142.781 240.938 142.237 241.212 141.76C241.672 140.467 242.168 139.124 242.7 137.731C244.77 132.001 246.252 127.292 246.004 127.215C245.756 127.137 243.88 131.742 241.812 137.459L240.378 141.528C240.054 142.169 239.978 142.896 240.164 143.584C240.25 143.766 240.382 143.927 240.544 144.053C240.708 144.18 240.902 144.27 241.108 144.315C241.42 144.383 241.74 144.413 242.06 144.406C244.28 144.425 245.652 144.393 245.652 144.276Z" fill="#263238"/>
<path d="M252.098 145.473C251.74 145.473 251.822 147.685 249.858 149.353C247.892 151.022 245.37 150.835 245.362 151.145C245.362 151.287 245.934 151.559 247.004 151.546C248.39 151.52 249.72 151.034 250.76 150.175C251.764 149.35 252.386 148.189 252.492 146.941C252.56 145.997 252.278 145.453 252.098 145.473Z" fill="#263238"/>
<path d="M252.002 123.056C252.284 123.573 254.14 123.056 256.422 122.998C258.704 122.94 260.62 123.334 260.834 122.804C260.924 122.545 260.524 122.073 259.71 121.652C258.648 121.13 257.46 120.88 256.262 120.928C255.09 120.951 253.946 121.265 252.946 121.84C252.222 122.312 251.878 122.804 252.002 123.056Z" fill="#263238"/>
<path d="M231.704 124.246C232.07 124.731 233.594 124.311 235.392 124.369C237.192 124.427 238.71 124.828 239.088 124.369C239.254 124.143 239.034 123.664 238.398 123.198C237.528 122.632 236.498 122.322 235.438 122.305C234.38 122.289 233.338 122.569 232.448 123.108C231.78 123.548 231.546 124.013 231.704 124.246Z" fill="#263238"/>
<path d="M229.394 116.64C229.394 116.64 232.842 108.187 237.026 106.104C242.122 103.575 244.556 108.84 249.436 107.398C254.318 105.956 259.186 103.517 264.37 106.932C270.038 110.664 267.556 113.503 268.122 119.389C270.41 143.267 275.326 149.871 276.222 138.559C276.318 137.324 279.938 136.218 280.276 130.985C280.724 124.201 280.69 115.98 278.898 111.233C277.388 107.236 274.822 104.52 270.3 101.583C263.158 96.9526 253.594 97.166 247.12 98.0002C240.646 98.8346 228.408 106.234 229.394 116.64Z" fill="#263238"/>
<path d="M275.312 138.21C275.31 137.721 275.414 137.238 275.618 136.788C275.822 136.339 276.12 135.933 276.496 135.595C276.872 135.257 277.318 134.994 277.804 134.822C278.292 134.65 278.812 134.572 279.332 134.594C281.986 134.743 284.986 136.049 284.998 141.185C285.04 150.285 275.292 148.441 275.27 148.176C275.25 147.911 275.292 142.019 275.312 138.21Z" fill="#AE7461"/>
<path d="M277.366 144.761C277.414 144.761 277.54 144.871 277.828 144.994C278.234 145.144 278.684 145.144 279.09 144.994C280.11 144.639 280.972 143.106 281.006 141.469C281.032 140.689 280.87 139.913 280.532 139.199C280.438 138.915 280.272 138.656 280.048 138.444C279.826 138.232 279.552 138.074 279.248 137.983C279.054 137.936 278.848 137.954 278.668 138.034C278.486 138.114 278.34 138.252 278.256 138.423C278.126 138.675 278.188 138.856 278.138 138.876C278.09 138.895 277.932 138.721 278.008 138.345C278.058 138.12 278.192 137.918 278.388 137.776C278.518 137.681 278.668 137.611 278.828 137.571C278.988 137.531 279.154 137.522 279.318 137.544C279.718 137.614 280.09 137.781 280.4 138.027C280.71 138.273 280.948 138.59 281.09 138.947C281.506 139.734 281.71 140.604 281.682 141.482C281.634 143.313 280.634 145.033 279.236 145.421C278.974 145.492 278.702 145.507 278.434 145.466C278.166 145.424 277.912 145.327 277.69 145.182C277.388 144.968 277.34 144.761 277.366 144.761Z" fill="#6F4439"/>
<path d="M274.458 120.605C273.23 121.452 271.926 122.325 270.416 122.545C268.908 122.765 267.142 121.976 266.832 120.572C266.694 119.926 266.832 119.208 266.37 118.736C265.818 118.166 264.846 118.38 264.04 118.49C262.628 118.638 261.204 118.327 260.006 117.609C258.81 116.891 257.912 115.809 257.462 114.545C256.772 115.579 255.104 115.586 254.014 114.965C252.926 114.344 252.16 113.296 251.258 112.41C250.354 111.524 249.148 110.742 247.872 110.955C247.182 111.078 246.492 111.498 245.804 111.466C244.522 111.401 243.852 110.024 243.612 108.879C243.37 107.734 243.17 106.292 242.074 105.71C240.978 105.128 239.764 105.535 238.626 105.71C237.488 105.884 235.944 105.71 235.6 104.643C235.538 104.356 235.538 104.061 235.602 103.775C235.666 103.489 235.792 103.219 235.972 102.98C236.716 101.854 237.844 100.996 239.174 100.546C240.502 100.097 241.954 100.081 243.294 100.503C243.714 98.9742 244.608 97.5962 245.864 96.5436C247.118 95.4912 248.678 94.8112 250.344 94.5896C252.012 94.3682 253.71 94.6152 255.228 95.2994C256.746 95.9834 258.012 97.0742 258.868 98.4336C259.866 97.5246 261.08 96.8546 262.412 96.4798C263.742 96.1052 265.15 96.0372 266.516 96.2816C267.882 96.526 269.164 97.0754 270.254 97.8836C271.346 98.6916 272.212 99.7344 272.782 100.924C273.95 100.611 275.188 100.624 276.348 100.96C277.508 101.296 278.54 101.941 279.316 102.817C280.092 103.693 280.578 104.762 280.718 105.893C280.858 107.025 280.646 108.17 280.104 109.189C281.882 110.069 283.434 111.641 283.552 113.523C283.668 115.405 281.772 117.339 279.822 116.912C280.308 117.642 280.464 118.524 280.258 119.364C280.05 120.203 279.496 120.931 278.718 121.387C277.94 121.844 276.998 121.991 276.104 121.797C275.21 121.603 274.434 121.083 273.946 120.352" fill="#263238"/>
<path d="M280.524 116.873C280.576 117.186 280.554 117.506 280.462 117.811C280.368 118.116 280.206 118.398 279.986 118.639C279.53 119.234 278.85 119.646 278.084 119.79C277.596 119.884 277.092 119.874 276.61 119.762C276.126 119.651 275.676 119.439 275.292 119.143L275.698 119.072C275.222 119.939 274.598 120.728 273.85 121.407C273.354 121.868 272.77 122.237 272.126 122.493C271.292 122.79 270.378 122.836 269.514 122.625C268.65 122.414 267.876 121.957 267.3 121.316C266.888 120.754 266.596 120.121 266.446 119.453C266.356 119.22 266.32 118.97 266.342 118.723C266.384 118.723 266.474 118.955 266.652 119.369C266.872 119.981 267.196 120.555 267.61 121.07C268.584 122.364 271.596 122.914 273.444 121.006C274.142 120.363 274.736 119.626 275.202 118.82L275.368 118.548L275.616 118.749C275.934 119.01 276.312 119.204 276.718 119.316C277.126 119.427 277.554 119.454 277.974 119.395C278.646 119.289 279.258 118.961 279.698 118.47C280.082 117.994 280.364 117.451 280.524 116.873Z" fill="#455A64"/>
<path d="M165.917 235.956C165.917 235.956 147.626 235.444 146.529 235.12C144.861 234.772 143.13 234.772 141.462 235.12C140.159 235.51 134.953 237.242 134.953 237.242L123.922 240.004C123.922 240.004 112.829 246.788 113.049 248.154C113.27 249.518 114.49 250.45 116.497 249.744C118.503 249.04 128.507 244.15 128.507 244.15L139.538 243.056C139.538 243.056 154.582 248.128 157.623 247.876C160.663 247.622 168.447 246.388 168.447 246.388C168.447 246.388 169.543 239.072 168.992 237.916C168.44 236.758 165.917 235.956 165.917 235.956Z" fill="#AE7461"/>
<path d="M113.842 254.206C113.842 254.206 123.115 244.888 125.68 243.632C128.245 242.378 142.544 240.172 142.544 240.172C142.544 240.172 147.122 238.394 148.798 239.02C150.473 239.648 168.226 242.164 169.005 242.254C169.785 242.346 165.213 256.924 165.213 256.924C160.786 257.52 156.279 257.342 151.921 256.4C144.778 254.828 142.317 252.732 142.317 252.732L135.188 250.974L130.817 252.532C130.817 252.532 130.038 258.598 126.907 258.282L125.46 257.338L126.577 250.636L121.999 252.416C121.999 252.416 118.42 257.448 115.745 256.71C113.07 255.972 113.842 254.206 113.842 254.206Z" fill="#AE7461"/>
<path d="M113.842 254.206C113.777 254.446 113.754 254.692 113.773 254.938C113.806 255.234 113.925 255.516 114.118 255.752C114.395 256.072 114.757 256.32 115.166 256.47C115.664 256.7 116.226 256.778 116.773 256.69C117.421 256.524 118.026 256.236 118.551 255.844C119.856 254.856 120.991 253.688 121.916 252.376L126.487 250.586L126.673 250.508V250.696C126.342 252.712 125.984 254.976 125.577 257.402L125.522 257.286L126.97 258.224H126.907C127.203 258.246 127.499 258.208 127.778 258.112C128.056 258.018 128.309 257.868 128.521 257.674C128.975 257.26 129.339 256.764 129.589 256.218C130.127 255.062 130.487 253.84 130.658 252.59V252.506L130.741 252.474L135.098 250.908H135.146H135.195L142.337 252.654H142.379C143.89 253.668 145.553 254.464 147.315 255.016C149.15 255.626 151.027 256.118 152.934 256.484C154.911 256.854 156.918 257.07 158.933 257.13C161.007 257.2 163.084 257.092 165.138 256.806L165 256.924C165.317 255.896 165.689 254.796 165.993 253.69C166.978 250.392 167.964 247.15 168.674 243.942C168.764 243.55 168.831 243.152 168.874 242.752C168.881 242.662 168.881 242.572 168.874 242.482C168.874 242.436 168.833 242.416 168.874 242.482H168.792L168.15 242.39L165.6 242.028L160.601 241.292C157.326 240.794 154.148 240.302 151.093 239.758C150.335 239.61 149.59 239.486 148.832 239.274C148.136 239.076 147.396 239.054 146.688 239.208C145.271 239.468 143.886 239.858 142.551 240.372H142.517C137.525 241.156 132.954 241.932 128.962 242.824C128.002 243.032 127.056 243.294 126.128 243.606C125.301 243.968 124.54 244.45 123.874 245.036C122.495 246.11 121.35 247.17 120.296 248.128C118.186 250.068 116.586 251.606 115.469 252.654L114.222 253.864C113.932 254.136 113.78 254.266 113.78 254.266C113.78 254.266 113.911 254.116 114.187 253.832L115.401 252.596C116.483 251.53 118.069 249.952 120.158 248.01C121.206 247.048 122.371 245.974 123.722 244.888C124.06 244.616 124.412 244.338 124.784 244.078C125.165 243.812 125.582 243.594 126.025 243.432C126.963 243.112 127.921 242.844 128.893 242.63C132.892 241.712 137.456 240.922 142.455 240.114H142.42C143.774 239.586 145.181 239.186 146.619 238.918C147.382 238.754 148.178 238.778 148.929 238.988C149.618 239.19 150.39 239.312 151.142 239.46C154.182 239.998 157.347 240.476 160.642 240.968L165.641 241.698L168.192 242.068L168.833 242.158H168.971H169.047C169.093 242.186 169.131 242.224 169.158 242.27C169.186 242.314 169.202 242.364 169.205 242.416C169.216 242.528 169.216 242.64 169.205 242.752C169.164 243.168 169.097 243.58 169.005 243.988C168.316 247.222 167.302 250.456 166.317 253.76C165.979 254.874 165.627 255.98 165.324 256.994V257.098H165.213C163.14 257.388 161.042 257.496 158.946 257.422C156.913 257.368 154.887 257.152 152.893 256.774C150.968 256.408 149.074 255.91 147.226 255.288C146.325 254.986 145.444 254.638 144.585 254.246C143.731 253.868 142.924 253.404 142.179 252.862L142.248 252.894L135.119 251.128H135.215L130.844 252.688L130.941 252.57C130.764 253.852 130.39 255.102 129.831 256.284C129.565 256.86 129.178 257.382 128.693 257.816C128.452 258.034 128.165 258.2 127.85 258.306C127.535 258.412 127.2 258.454 126.866 258.43H126.832L125.384 257.486L125.315 257.44V257.364C125.722 254.944 126.108 252.68 126.446 250.662L126.604 250.78L122.019 252.544L122.061 252.512C121.112 253.834 119.949 255.008 118.613 255.992C118.068 256.388 117.441 256.678 116.773 256.84C116.2 256.928 115.613 256.842 115.097 256.594C114.674 256.434 114.305 256.17 114.029 255.83C113.832 255.582 113.715 255.286 113.691 254.976C113.665 254.712 113.718 254.446 113.842 254.206Z" fill="#6F4439"/>
<path d="M141.91 246.304C141.681 246.328 141.45 246.328 141.22 246.304C140.772 246.272 140.124 246.212 139.318 246.136L136.505 245.838L135.691 245.754C135.424 245.712 135.151 245.712 134.884 245.754C134.299 245.838 133.719 245.95 133.147 246.09C130.824 246.736 128.493 247.144 127.631 248.438C127.259 248.91 126.979 249.44 126.804 250.004C126.68 250.404 126.645 250.65 126.625 250.65C126.588 250.434 126.604 250.212 126.673 250.004C126.798 249.402 127.056 248.834 127.431 248.334C127.691 247.984 128.01 247.676 128.376 247.422C128.799 247.144 129.264 246.926 129.755 246.776C130.847 246.402 131.959 246.08 133.085 245.812C133.67 245.664 134.264 245.55 134.864 245.47C135.161 245.428 135.463 245.428 135.76 245.47L136.567 245.572L139.38 245.934C140.179 246.044 140.821 246.142 141.269 246.212C141.486 246.216 141.702 246.246 141.91 246.304Z" fill="#6F4439"/>
<path d="M117.021 251.11C117.254 250.848 117.51 250.606 117.786 250.384C118.303 249.938 119.062 249.31 120.02 248.56C120.978 247.81 122.143 246.93 123.467 246.018C124.157 245.566 124.846 245.1 125.632 244.66C126.032 244.438 126.443 244.234 126.866 244.052C127.316 243.888 127.776 243.752 128.245 243.646C131.421 242.924 134.646 242.406 137.897 242.094L140.834 241.75C141.192 241.694 141.554 241.666 141.917 241.666C141.571 241.768 141.215 241.84 140.855 241.88L137.939 242.326C135.477 242.734 132.023 243.018 128.355 243.968C127.908 244.072 127.468 244.204 127.038 244.364C126.628 244.536 126.227 244.73 125.839 244.946C125.074 245.372 124.363 245.824 123.688 246.272C122.309 247.164 121.171 248.018 120.192 248.742L117.889 250.482C117.618 250.712 117.327 250.922 117.021 251.11Z" fill="#6F4439"/>
<path d="M232.524 190.358C229.222 194.74 226.3 199.365 223.79 204.186C220.474 210.654 209.758 232.676 209.758 232.676L166.096 234.824L166.744 250.65C166.744 250.65 208.91 264.742 218.35 262.02C227.788 259.298 237.848 249.084 237.848 249.084L242.364 182.338C242.364 182.338 238.62 181.685 232.524 190.358Z" fill="#E44D26"/>
<path d="M241.654 182.5C241.654 182.5 230.456 206.32 228.822 216.41C225.574 236.46 224.486 248.974 224.486 248.974L220.68 279.974H295.244C295.244 279.974 297.712 222.522 296.126 203.262C294.94 188.826 283.152 179.835 278.332 174.901C278.042 174.603 276.718 170.561 276.718 170.561L241.97 178.911L241.654 182.5Z" fill="#E44D26"/>
<path d="M238.048 186.116C238.03 186.194 238.002 186.27 237.964 186.342C237.888 186.504 237.798 186.724 237.674 186.989L236.564 189.479C235.606 191.639 234.22 194.776 232.828 198.76C231.208 203.418 229.92 208.17 228.974 212.988C227.864 218.428 226.968 224.462 226.216 230.82C224.838 243.548 223.604 255.068 222.7 263.424C222.238 267.582 221.866 270.952 221.604 273.3C221.466 274.45 221.362 275.35 221.286 275.984C221.246 276.282 221.218 276.508 221.196 276.682C221.188 276.762 221.172 276.842 221.148 276.922C221.142 276.842 221.142 276.762 221.148 276.682C221.148 276.508 221.184 276.274 221.204 275.978C221.266 275.33 221.348 274.444 221.452 273.286C221.686 270.932 222.024 267.562 222.438 263.398C223.3 255.054 224.438 243.516 225.886 230.782C226.63 224.424 227.54 218.376 228.644 212.93C229.606 208.096 230.922 203.328 232.58 198.663C234.006 194.685 235.428 191.548 236.426 189.408C236.924 188.328 237.33 187.5 237.606 186.943C237.736 186.672 237.84 186.465 237.924 186.297C237.96 186.234 238.002 186.174 238.048 186.116Z" fill="#263238"/>
<g opacity="0.3">
<path opacity="0.3" d="M276.788 223.616C276.098 217.27 273.058 210.9 267.494 207.238L222.032 268.138C230.056 272.2 238.972 276.392 247.886 274.606C252.712 273.642 256.946 270.99 260.406 267.724C267.598 260.94 271.5 251.698 274.236 242.5C276.064 236.344 277.47 229.96 276.788 223.616Z" fill="black"/>
</g>
<path d="M281.938 216.262C276.278 235.062 263.53 258.004 259.614 262.614C256.786 266.006 253.178 268.752 249.058 270.648C244.94 272.546 240.416 273.542 235.828 273.564C230.698 273.564 187.345 265.642 174.466 263.274C173.407 263.078 172.432 262.594 171.664 261.882C170.896 261.17 170.367 260.262 170.143 259.272L170.033 258.774L164.276 257.298L167.358 242.74L167.971 241.932L229.974 243.762L248.01 196.632C248.354 196.095 253.56 180.282 267.686 181" fill="#E44D26"/>
<path d="M267.686 181.013H267.218C266.758 181 266.298 181.011 265.838 181.045C264.044 181.145 262.28 181.537 260.626 182.203C257.986 183.332 255.658 185.016 253.822 187.125C251.342 189.981 249.406 193.217 248.1 196.69C243.542 208.63 237.358 224.85 230.112 243.832L230.078 243.936H229.96L167.985 242.112L168.137 242.042L167.523 242.85V242.786C166.634 246.996 165.689 251.472 164.765 255.998L164.483 257.344L164.352 257.144L170.136 258.604L170.246 258.638V258.734C170.415 259.932 171.016 261.038 171.949 261.872C172.414 262.274 172.951 262.596 173.535 262.822C174.136 263.028 174.757 263.178 175.39 263.268L182.974 264.658L197.797 267.33C207.512 269.056 216.868 270.7 225.796 272.116C228.03 272.466 230.236 272.762 232.414 273.086C233.504 273.216 234.594 273.358 235.662 273.402C236.734 273.416 237.808 273.366 238.874 273.254C242.996 272.84 246.984 271.64 250.596 269.73C253.948 267.924 256.914 265.552 259.344 262.732C260.442 261.374 261.446 259.952 262.35 258.476C263.254 257.034 264.108 255.604 264.916 254.2C269.982 245.324 274.424 236.144 278.208 226.72C279.518 223.382 280.456 220.762 281.048 218.958C281.338 218.072 281.566 217.394 281.738 216.928C281.91 216.462 281.972 216.242 281.972 216.242C281.972 216.242 281.91 216.474 281.772 216.934L281.138 218.978C280.566 220.77 279.648 223.396 278.38 226.738C274.638 236.188 270.224 245.39 265.17 254.284C264.37 255.694 263.516 257.124 262.62 258.572C261.712 260.066 260.702 261.5 259.592 262.868C257.132 265.732 254.124 268.142 250.72 269.968C247.078 271.902 243.054 273.12 238.896 273.546C237.816 273.662 236.728 273.714 235.64 273.7C234.538 273.656 233.456 273.512 232.36 273.384C230.174 273.092 227.96 272.736 225.726 272.42C216.764 271.01 207.436 269.374 197.714 267.654L182.891 264.982L175.307 263.598C174.653 263.504 174.011 263.348 173.39 263.132C172.764 262.894 172.189 262.55 171.694 262.116C170.707 261.238 170.067 260.07 169.881 258.806L170.012 258.934L164.228 257.474L164.069 257.428V257.28C164.159 256.852 164.262 256.394 164.359 255.934C165.317 251.406 166.261 246.93 167.116 242.72V242.682L167.73 241.874L167.785 241.802H167.985L229.988 243.652L229.836 243.748L247.928 196.638C249.248 193.162 251.202 189.927 253.704 187.079C255.564 184.959 257.926 183.274 260.6 182.157C262.264 181.498 264.04 181.119 265.846 181.038C266.306 181.01 266.766 181.01 267.224 181.038L267.686 181.013Z" fill="#263238"/>
<path d="M216.316 240.042C215.492 238.568 214.488 237.186 213.324 235.93C212.078 234.75 210.69 233.712 209.186 232.838C209.7 232.966 210.188 233.174 210.628 233.452C211.734 234.06 212.74 234.816 213.612 235.696C214.486 236.578 215.22 237.57 215.792 238.646C216.042 239.084 216.218 239.554 216.316 240.042Z" fill="#263238"/>
<path d="M237.474 255.178C237.412 255.178 237.288 254.434 236.93 253.236C236.456 251.712 235.772 250.25 234.896 248.89C234.01 247.538 232.936 246.3 231.704 245.21C230.76 244.37 230.098 243.916 230.132 243.878C230.314 243.942 230.484 244.03 230.636 244.144C231.068 244.414 231.484 244.71 231.876 245.03C234.5 247.166 236.352 250.014 237.178 253.178C237.306 253.652 237.396 254.134 237.448 254.62C237.488 254.804 237.496 254.992 237.474 255.178Z" fill="#263238"/>
<g opacity="0.3">
<path opacity="0.3" d="M220.934 243.406L224.54 243.536C225.126 230.244 228.044 217.018 230.54 203.908C224.176 216.106 222.506 229.914 220.934 243.406Z" fill="black"/>
</g>
<path d="M277.126 174.901C277.016 174.953 276.9 174.99 276.78 175.011L275.788 175.269L272.134 176.181C269.052 176.951 264.798 178.05 260.068 179.169C255.338 180.288 251.016 181.155 247.858 181.64C246.28 181.886 244.996 182.06 244.108 182.144L243.08 182.241C242.962 182.257 242.84 182.257 242.722 182.241C242.834 182.201 242.952 182.175 243.074 182.164L244.086 182.002C244.97 181.879 246.244 181.666 247.81 181.394C250.946 180.851 255.256 179.952 259.978 178.807C264.702 177.662 268.942 176.621 272.072 175.91C273.622 175.554 274.884 175.263 275.76 175.101L276.766 174.907C276.886 174.89 277.006 174.888 277.126 174.901Z" fill="#263238"/>
</g>
<defs>
<clipPath id="clip0_0_4">
<rect width="320" height="280" fill="white"/>
</clipPath>
</defs>
</svg>
