<svg width="500" height="438" viewBox="0 0 500 438" fill="none" xmlns="http://www.w3.org/2000/svg">
<path fill-rule="evenodd" clip-rule="evenodd" d="M451.87 84.6156C454.977 86.8914 457.855 89.7363 460.428 93.0756L469.578 88.5169L478.167 107.549L471.322 117.249C472.376 121.939 472.978 126.807 473.112 131.722L481.885 137.563L478.366 159.549H468.664C467.04 163.912 465.009 167.953 462.625 171.565L465.883 184.39L452.316 196.449L445.401 186.847C442.076 188.31 438.628 189.151 435.145 189.347L430.982 201.655L415.302 196.719V183.107C412.186 180.831 409.3 177.982 406.721 174.636L397.571 179.206L388.974 160.174L395.827 150.474C394.777 145.781 394.173 140.915 394.029 136.001L385.21 130.203L388.729 108.217H398.431C400.054 103.852 402.084 99.8112 404.47 96.2009L401.212 83.3762L414.779 71.3167L421.694 80.9191C425.038 79.4446 428.508 78.6002 432.011 78.408L436.175 66.1006L451.847 71.0365V84.6479L451.87 84.6156ZM438.042 110.481C434.716 109.439 431.245 109.804 428.068 111.53C424.89 113.255 422.148 116.264 420.189 120.174C418.23 124.085 417.142 128.723 417.061 133.502C416.981 138.28 417.912 142.985 419.737 147.021C421.562 151.058 424.199 154.244 427.315 156.178C430.431 158.113 433.886 158.708 437.243 157.888C440.599 157.068 443.708 154.871 446.175 151.574C448.641 148.276 450.356 144.027 451.102 139.363C451.596 136.265 451.651 133.061 451.263 129.933C450.874 126.805 450.051 123.816 448.838 121.135C447.626 118.454 446.05 116.134 444.199 114.308C442.347 112.481 440.258 111.185 438.049 110.491L438.042 110.481Z" fill="#ACACAC"/>
<path d="M365.643 42.5309C366.689 42.7405 367.704 43.1883 368.647 43.8565C371.288 45.6306 373.409 48.636 374.647 52.3596C375.513 54.926 375.931 57.7445 375.868 60.5825C375.797 63.8546 375.102 67.0401 373.855 69.8077C372.466 72.8667 370.461 75.2785 368.094 76.7373C365.548 78.3173 362.708 78.7094 359.992 77.8557C357.276 77.0021 354.827 74.9479 353.005 71.9954C351.324 69.2564 350.255 65.8827 349.932 62.296C349.639 59.0526 349.974 55.7582 350.9 52.7583C351.711 50.1562 352.948 47.8594 354.511 46.055C356.766 43.4389 359.598 41.9993 362.524 41.9813C363.58 41.9423 364.634 42.1462 365.643 42.5848C365.643 42.7141 364.529 42.2722 362.57 42.38C359.737 42.5677 357.031 44.086 354.888 46.6908C353.305 48.5787 352.086 50.994 351.342 53.715C350.599 56.4361 350.354 59.3756 350.632 62.2637C350.776 63.9229 351.102 65.5407 351.6 67.0595C352.095 68.6615 352.769 70.1423 353.597 71.4458C355.319 74.2348 357.633 76.1753 360.2 76.9823C362.766 77.7893 365.45 77.4201 367.855 75.9291C370.1 74.5559 372.005 72.284 373.333 69.3981C374.532 66.7817 375.213 63.7653 375.307 60.6579C375.391 57.9457 375.02 55.2438 374.224 52.7691C373.062 49.1483 371.073 46.1749 368.57 44.3199C366.772 42.9189 365.62 42.6494 365.643 42.5309Z" fill="#E0E0E0"/>
<path d="M375.845 23.434C375.836 23.2223 375.836 23.0099 375.845 22.7982C375.845 22.3348 375.845 21.7205 375.845 20.9014C375.845 19.1555 375.822 16.6409 375.776 13.3575L375.868 13.5191L364.275 9.96268L364.483 9.82258L361.41 18.9184L361.356 19.0909H361.226C358.658 19.252 356.116 19.8861 353.666 20.9768L353.528 21.0415L353.428 20.8906L348.335 13.8424H348.657L338.67 22.7766L338.785 22.3024C339.554 25.2338 340.36 28.4669 341.205 31.7755L341.267 32.0126L341.136 32.2066C339.399 34.8467 337.921 37.8006 336.742 40.9899L336.657 41.227H336.465H329.298L329.62 40.8713C328.806 45.9689 327.93 51.476 327.039 57.1124L326.847 56.5735L333.323 60.8844L333.515 61.0029V61.3801C333.62 64.9629 334.061 68.5105 334.829 71.9309L334.898 72.2218L334.744 72.4266L329.689 79.561L329.735 78.9359C331.748 83.3869 333.907 88.1503 336.089 92.9461L335.659 92.7414L342.411 89.3682L342.627 89.2604L342.788 89.4651C344.658 91.9023 346.754 93.9757 349.018 95.6296L349.218 96.0823V106.127L348.934 105.62L360.511 109.273L360.104 109.543C361.128 106.489 362.153 103.465 363.177 100.469L363.277 100.188H363.492C366.046 100.051 368.575 99.435 371.013 98.3562L371.22 98.27L371.374 98.4855L376.444 105.588L375.991 105.566L385.978 96.6858L385.84 97.2354C385.026 94.0023 384.234 90.8662 383.443 87.7624L383.382 87.4929L383.512 87.2882C385.256 84.6603 386.741 81.7172 387.929 78.5372L388.014 78.3001H395.374L395.074 78.6342C395.996 72.9223 396.872 67.5338 397.694 62.4039L397.847 62.8458L391.387 58.5349L391.241 58.438V58.147C391.147 54.5511 390.713 50.9886 389.95 47.5531L389.904 47.3591L390.011 47.2082L395.082 40.1062V40.4834L388.782 26.3977L388.974 26.4839L382.206 29.8033H382.137L382.083 29.7278C380.666 27.8647 379.122 26.2007 377.474 24.7596L376.245 23.6819C376.104 23.5776 375.968 23.4625 375.837 23.337C375.988 23.4113 376.134 23.5014 376.275 23.6065C376.56 23.8112 376.982 24.1238 377.535 24.5764C379.218 25.9726 380.793 27.6086 382.237 29.4584H382.122L388.859 26.0205L388.982 25.9559L389.051 26.1175L395.443 40.1277L395.535 40.3325L395.412 40.5049C393.876 42.6603 392.201 45.0528 390.372 47.6609L390.426 47.316C391.221 50.8068 391.679 54.4316 391.786 58.0931L391.64 57.7698L398.124 62.0806L398.324 62.2207L398.27 62.5225C397.502 67.6631 396.603 73.0517 395.704 78.7635L395.65 79.0976H395.404H388.237L388.521 78.8605C387.315 82.1177 385.804 85.1334 384.027 87.827L384.096 87.3636C384.88 90.4674 385.684 93.6251 386.508 96.8367L386.593 97.1923L386.37 97.3971L376.383 106.31L376.145 106.514L375.953 106.245L370.867 99.1537L371.22 99.2723C368.731 100.382 366.147 101.016 363.538 101.158L363.853 100.878L360.78 109.963L360.657 110.33L360.373 110.233L348.757 106.644L348.473 106.558V106.148C348.473 104.478 348.473 102.807 348.473 101.137V96.1038C348.865 97.0091 348.58 96.3517 348.665 96.5565C346.345 94.851 344.196 92.724 342.273 90.2303L342.642 90.3381L335.866 93.7113L335.589 93.8406L335.436 93.4958L329.098 79.4856L328.944 79.1515L329.144 78.8605L334.207 71.7369L334.122 72.2434C333.338 68.7499 332.889 65.1258 332.785 61.4663L332.977 61.8866L326.509 57.5758L326.263 57.4141L326.325 57.0369L328.937 40.8713L328.99 40.5049H336.419L336.143 40.742C337.347 37.4456 338.864 34.3931 340.652 31.6677L340.591 32.0988L338.194 22.5826L338.117 22.2809L338.317 22.1084L348.335 13.2712L348.511 13.1204L348.657 13.3251C350.447 15.8146 352.176 18.2718 353.712 20.4272L353.466 20.341C355.957 19.2521 358.541 18.6359 361.149 18.5089L360.964 18.6706C362.086 15.4374 363.131 12.3552 364.037 9.61782L364.099 9.42383H364.245L375.768 13.1635H375.86V13.2928C375.86 16.5259 375.845 19.0118 375.814 20.7505C375.814 21.5696 375.814 22.2054 375.814 22.6796C375.836 22.9299 375.847 23.1819 375.845 23.434V23.434Z" fill="#E0E0E0"/>
<path d="M55.92 272.05C56.6132 272.354 57.2669 272.813 57.856 273.408C59.5058 275.021 60.7058 277.386 61.2516 280.101C61.6328 281.976 61.6959 283.951 61.436 285.867C61.1254 288.072 60.4015 290.122 59.3387 291.805C58.1583 293.659 56.6134 294.983 54.8983 295.609C53.0483 296.285 51.0925 296.111 49.3183 295.112C47.5442 294.113 46.0453 292.342 45.0418 290.059C44.5654 288.985 44.2104 287.815 43.9893 286.589C43.7652 285.416 43.6719 284.202 43.7127 282.989C43.7773 280.744 44.2679 278.564 45.134 276.674C46.0557 274.676 47.3683 273.093 48.9147 272.114C50.4611 271.136 52.1758 270.803 53.8535 271.156C54.5727 271.292 55.271 271.595 55.92 272.05C55.92 272.137 55.1518 271.673 53.8304 271.425C51.8978 271.106 49.9445 271.705 48.2837 273.128C47.1478 274.091 46.1876 275.412 45.4797 276.986C44.6747 278.799 44.2243 280.877 44.1737 283.011C44.1444 284.159 44.2376 285.307 44.4502 286.416C44.6638 287.563 45.0061 288.654 45.4643 289.649C46.4129 291.805 47.8288 293.478 49.5044 294.422C51.18 295.367 53.0273 295.533 54.7754 294.898C56.4032 294.311 57.8724 293.067 59.0007 291.32C59.9533 289.835 60.6265 288.04 60.9592 286.098C61.2919 284.156 61.2736 282.128 60.9059 280.198C60.4065 277.562 59.2922 275.236 57.7408 273.592C57.1532 273.034 56.5455 272.52 55.92 272.05V272.05Z" fill="#E0E0E0"/>
<path d="M64.3399 260.68C64.3283 260.541 64.3283 260.4 64.3399 260.26C64.3399 259.937 64.4091 259.516 64.4705 258.967C64.5934 257.781 64.7701 256.068 65.0083 253.858L65.0544 253.977L57.4872 249.774L57.6332 249.709C56.7958 251.444 55.8586 253.352 54.8599 255.41L54.8061 255.507H54.7139C52.9643 255.211 51.1942 255.247 49.4515 255.615H49.3516L49.2901 255.497L46.4169 249.979L46.6244 250.065L39.1494 254.57L39.2646 254.268C39.5412 256.369 39.8485 258.676 40.1558 261.057V261.23L40.0559 261.338C38.6894 262.846 37.4703 264.6 36.4298 266.554L36.353 266.705H36.2224L31.3595 265.627L31.6053 265.433C30.6527 268.763 29.6309 272.363 28.5784 276.038L28.4939 275.65L32.5426 279.572L32.6655 279.68V279.885C32.4562 282.328 32.4769 284.799 32.7269 287.235V287.44L32.6117 287.569L28.6245 291.61L28.7014 291.201L31.9049 301.709L31.6283 301.504L36.4683 300.264H36.6219L36.7141 300.426C37.7926 302.366 39.0508 304.094 40.4554 305.567V305.567C40.5015 305.718 40.3632 305.233 40.5553 305.912V306.019V306.235L40.5015 306.666L40.4093 307.517L40.2096 309.231C40.079 310.363 39.9484 311.505 39.8178 312.626L39.6641 312.249L47.2236 316.506L46.924 316.635L49.7204 310.955L49.8049 310.783H49.9585C51.6993 311.092 53.462 311.067 55.1979 310.707H55.3439L55.4284 310.869L58.3093 316.473L58.025 316.355L65.5153 311.882L65.377 312.238C65.0851 309.931 64.7932 307.668 64.5013 305.448V305.254L64.6088 305.146C65.9951 303.628 67.2325 301.86 68.2887 299.887L68.3655 299.736H68.4961L73.3514 300.814L73.1209 300.987L76.1938 290.403L76.263 290.727L72.2221 286.782L72.1299 286.696V286.545C72.3467 284.092 72.3312 281.61 72.0838 279.163V279.023L72.1683 278.947L76.1631 274.917L76.117 275.165C74.8878 271.091 73.8123 267.621 72.9519 264.646L73.0748 264.732L68.2272 265.929H68.1811V265.875C67.3697 264.394 66.4562 263.03 65.4539 261.801L64.6856 260.896C64.5089 260.702 64.4321 260.605 64.4398 260.594L64.7087 260.853C64.8854 261.036 65.1543 261.316 65.4769 261.704C66.5053 262.913 67.4447 264.263 68.281 265.735H68.1965L73.0364 264.442H73.1209V264.56L76.3475 275.046L76.3936 275.197L76.3014 275.294L72.3219 279.357L72.3911 279.141C72.656 281.64 72.6792 284.178 72.4602 286.685L72.3834 286.448L76.4397 290.36L76.5703 290.479L76.5088 290.673C75.5562 294.035 74.5498 297.549 73.4897 301.288L73.4282 301.504H73.2592L68.4039 300.426L68.6113 300.308C67.5387 302.33 66.2778 304.143 64.8623 305.696L64.9468 305.384C65.2388 307.618 65.5333 309.881 65.8303 312.173V312.432L65.6229 312.486L58.1326 316.98L57.9636 317.087L57.8483 316.872L54.9597 311.279L55.1902 311.419C53.4084 311.783 51.5999 311.812 49.8125 311.505L50.043 311.354C49.1211 313.229 48.189 315.122 47.2466 317.034L47.1391 317.271L46.9547 317.163L39.3952 312.906L39.2109 312.809V312.529L39.6027 309.134L39.7947 307.42L39.8946 306.569L39.9407 306.138V305.922V305.815V305.728C40.1327 306.397 39.9945 305.912 40.0329 306.063C38.5876 304.559 37.2953 302.786 36.1917 300.793L36.4298 300.922L31.5899 302.161L31.3902 302.215L31.3134 301.956C30.2148 298.346 29.1316 294.779 28.1252 291.449L28.0484 291.19L28.202 291.029L32.1968 286.987L32.097 287.321C31.8418 284.821 31.8237 282.284 32.0432 279.777L32.1431 280.101L28.1021 276.167L27.9485 276.016L28.0176 275.779C29.0701 272.093 30.0996 268.504 31.0906 265.185L31.1597 264.948H31.3364L36.1917 266.026L35.9843 266.144C37.0598 264.121 38.3232 262.309 39.7409 260.756L39.6641 261.036C39.3568 258.665 39.0649 256.348 38.7883 254.246V254.031L38.9343 253.945L46.4246 249.483L46.5552 249.407L46.6397 249.569L49.5129 255.173L49.3593 255.076C51.1421 254.721 52.9507 254.703 54.737 255.022L54.5987 255.109L57.4104 249.451L57.4719 249.332L57.5641 249.386L65.1005 253.697H65.1619V253.783L64.5397 258.827C64.4705 259.376 64.4091 259.807 64.3707 260.131C64.3745 260.315 64.3642 260.499 64.3399 260.68V260.68Z" fill="#E0E0E0"/>
<path fill-rule="evenodd" clip-rule="evenodd" d="M128.572 317.96C131.066 320.573 133.298 323.644 135.21 327.089L143.661 324.933L149.261 343.34L142.27 350.432C142.721 354.756 142.757 359.145 142.378 363.483L149.468 370.359L144.144 388.927L135.632 387.009C133.772 390.513 131.583 393.648 129.125 396.331L130.662 408.186L117.54 416.043L112.531 406.246C109.448 406.87 106.32 406.917 103.228 406.386L98.3345 416.334L85.09 408.876L86.4575 396.935C83.9617 394.318 81.7267 391.245 79.8122 387.796L71.3232 389.951L65.7304 371.544L72.7137 364.453C72.2692 360.128 72.2356 355.739 72.6139 351.402L65.523 344.526L70.8392 325.957L79.3513 327.875C81.2166 324.374 83.4076 321.239 85.866 318.553L84.3295 306.644L97.451 298.788L102.506 308.595C105.589 307.966 108.718 307.919 111.809 308.455L116.711 298.508L129.932 306.019L128.572 317.96ZM113.822 337.876C111.012 336.292 107.931 335.912 104.967 336.784C102.003 337.657 99.2899 339.743 97.1712 342.778C95.0524 345.814 93.623 349.662 93.0636 353.838C92.5042 358.013 92.84 362.327 94.0286 366.235C95.2171 370.142 97.205 373.467 99.7408 375.79C102.277 378.113 105.246 379.328 108.275 379.283C111.303 379.237 114.254 377.933 116.753 375.535C119.253 373.137 121.19 369.753 122.319 365.811C123.832 360.526 123.787 354.614 122.194 349.375C120.6 344.137 117.589 340.001 113.822 337.876V337.876Z" fill="#ACACAC"/>
<path d="M127.988 199.413H35.3927V37.8643L106.224 38.1552L127.988 71.3163V199.413Z" fill="#EBEBEB"/>
<path d="M63.0877 130.03C62.9725 130.192 61.436 128.241 59.0468 124.965C56.6575 121.688 53.4079 117.076 49.874 111.903L49.4822 111.321L49.874 110.739V110.685C53.3925 105.48 56.6268 100.824 59.016 97.5155C61.4053 94.207 62.934 92.2348 63.0493 92.3964C63.1645 92.5581 61.8585 94.8105 59.6306 98.3346C57.4027 101.859 54.253 106.633 50.7421 111.849H50.7037V110.739C54.2376 115.912 57.3797 120.654 59.6153 124.146C61.8508 127.637 63.2106 129.868 63.0877 130.03Z" fill="#263238"/>
<path d="M100.247 92.3965C100.37 92.2349 101.907 94.1855 104.296 97.4617C106.685 100.738 109.935 105.351 113.461 110.524L113.861 111.106L113.469 111.687H113.43C109.904 116.904 106.67 121.548 104.288 124.857C101.907 128.166 100.37 130.138 100.247 129.976C100.124 129.815 101.446 127.562 103.674 124.038C105.902 120.514 109.051 115.74 112.555 110.534V110.47V111.634C109.028 106.461 105.879 101.719 103.643 98.2377C101.407 94.7567 100.132 92.5582 100.247 92.3965Z" fill="#263238"/>
<path d="M70.4013 135.968C70.1248 135.731 74.9263 123.984 81.1567 109.737C87.3871 95.4896 92.6265 84.1414 92.9107 84.3892C93.195 84.6371 88.3935 96.3734 82.1554 110.621C75.9173 124.868 70.6856 136.216 70.4013 135.968Z" fill="#263238"/>
<path d="M106.217 38.166L106.132 65.2273C106.13 66.1608 106.261 67.0855 106.519 67.9463C106.776 68.8071 107.155 69.5865 107.631 70.238C108.108 70.8896 108.673 71.4 109.293 71.7389C109.913 72.0778 110.576 72.2383 111.241 72.2108L127.988 71.3379L106.217 38.166Z" fill="#E0E0E0"/>
<path d="M65.6459 147.295H24.5836V182.31H65.6459V147.295Z" fill="#E4A126"/>
<path d="M36.2531 171.964L37.321 170.229C37.6038 170.876 37.9985 171.413 38.4685 171.79C38.9385 172.167 39.4686 172.371 40.0098 172.384C41.4618 172.384 42.2147 171.145 42.2147 168.709V158.557H37.5592V156.315H44.0431V168.58C44.0431 172.61 42.6449 174.604 40.0098 174.604C39.2779 174.625 38.5534 174.395 37.8989 173.935C37.2444 173.475 36.6795 172.799 36.2531 171.964V171.964Z" fill="#263238"/>
<path d="M46.6167 172.297L47.3004 170.282C48.4984 171.655 50.0019 172.395 51.5488 172.373C53.7844 172.373 54.737 171.155 54.737 169.582C54.737 165.163 46.9317 167.954 46.9317 161.24C46.9317 158.449 48.4681 156.067 51.8638 156.067C53.3281 156.03 54.7688 156.587 56.0122 157.673L55.3977 159.742C54.3434 158.79 53.1177 158.277 51.8638 158.266C49.6743 158.266 48.737 159.559 48.737 161.132C48.737 165.551 56.5423 162.792 56.5423 169.431C56.5423 172.19 54.9598 174.571 51.5488 174.571C49.7665 174.639 48.0228 173.835 46.6167 172.297V172.297Z" fill="#263238"/>
<path d="M435.683 126.333H226.845V297.042H435.683V126.333Z" fill="#263238"/>
<path d="M243.178 288.453C243.071 288.453 242.978 253.546 242.978 210.492C242.978 167.437 243.086 132.509 243.178 132.509C243.27 132.509 243.378 167.405 243.378 210.47C243.378 253.535 243.293 288.453 243.178 288.453Z" fill="#E0E0E0"/>
<path d="M238.884 139.104C236.587 139.478 234.267 139.478 231.969 139.104C234.267 138.73 236.587 138.73 238.884 139.104Z" fill="#E0E0E0"/>
<path d="M238.884 149.375C236.587 149.749 234.267 149.749 231.969 149.375C234.267 149.001 236.587 149.001 238.884 149.375Z" fill="#E0E0E0"/>
<path d="M238.884 159.656C236.587 160.03 234.267 160.03 231.969 159.656C234.267 159.283 236.587 159.283 238.884 159.656V159.656Z" fill="#E0E0E0"/>
<path d="M238.884 169.927C236.587 170.3 234.267 170.3 231.969 169.927C234.267 169.553 236.587 169.553 238.884 169.927Z" fill="#E0E0E0"/>
<path d="M238.884 180.197C236.587 180.571 234.267 180.571 231.969 180.197C234.267 179.824 236.587 179.824 238.884 180.197Z" fill="#E0E0E0"/>
<path d="M238.884 190.478C236.587 190.852 234.267 190.852 231.969 190.478C234.267 190.105 236.587 190.105 238.884 190.478V190.478Z" fill="#E0E0E0"/>
<path d="M238.884 200.749C236.587 201.123 234.267 201.123 231.969 200.749C234.267 200.375 236.587 200.375 238.884 200.749V200.749Z" fill="#E0E0E0"/>
<path d="M238.884 211.019C236.587 211.393 234.267 211.393 231.969 211.019C234.267 210.646 236.587 210.646 238.884 211.019V211.019Z" fill="#E0E0E0"/>
<path d="M238.884 221.301C236.587 221.674 234.267 221.674 231.969 221.301C234.267 220.927 236.587 220.927 238.884 221.301Z" fill="#E0E0E0"/>
<path d="M238.884 231.572C236.587 231.945 234.267 231.945 231.969 231.572C234.267 231.198 236.587 231.198 238.884 231.572V231.572Z" fill="#E0E0E0"/>
<path d="M238.884 241.842C236.587 242.216 234.267 242.216 231.969 241.842C234.267 241.469 236.587 241.469 238.884 241.842V241.842Z" fill="#E0E0E0"/>
<path d="M238.884 252.134C236.587 252.508 234.267 252.508 231.969 252.134C234.267 251.761 236.587 251.761 238.884 252.134V252.134Z" fill="#E0E0E0"/>
<path d="M238.884 262.394C236.587 262.768 234.267 262.768 231.969 262.394C234.267 262.02 236.587 262.02 238.884 262.394V262.394Z" fill="#E0E0E0"/>
<path d="M238.884 272.664C236.587 273.038 234.267 273.038 231.969 272.664C234.267 272.291 236.587 272.291 238.884 272.664V272.664Z" fill="#E0E0E0"/>
<path d="M238.884 282.946C236.587 283.319 234.267 283.319 231.969 282.946C234.267 282.572 236.587 282.572 238.884 282.946V282.946Z" fill="#E0E0E0"/>
<path d="M266.609 138.5C266.609 138.651 262.591 138.781 257.636 138.781C252.681 138.781 248.656 138.651 248.656 138.5C248.656 138.35 252.673 138.22 257.636 138.22C262.599 138.22 266.609 138.339 266.609 138.5Z" fill="#E4A126"/>
<path d="M266.609 282.946C266.609 283.097 262.591 283.226 257.636 283.226C252.681 283.226 248.656 283.097 248.656 282.946C248.656 282.795 252.673 282.666 257.636 282.666C262.599 282.666 266.609 282.784 266.609 282.946Z" fill="#E4A126"/>
<path d="M291.608 159.656C291.608 159.807 284.087 159.936 274.814 159.936C265.541 159.936 258.02 159.807 258.02 159.656C258.02 159.505 265.541 159.376 274.814 159.376C284.087 159.376 291.608 159.451 291.608 159.656Z" fill="#E4A126"/>
<path d="M330.435 159.656C330.435 159.807 322.921 159.936 313.649 159.936C304.376 159.936 296.855 159.807 296.855 159.656C296.855 159.505 304.368 159.376 313.649 159.376C322.929 159.376 330.435 159.451 330.435 159.656Z" fill="#E44D26"/>
<path d="M315.6 169.927C315.6 170.078 304.514 170.207 290.855 170.207C277.196 170.207 266.102 170.078 266.102 169.927C266.102 169.776 277.18 169.646 290.855 169.646C304.53 169.646 315.6 169.776 315.6 169.927Z" fill="#E0E0E0"/>
<path d="M315.6 180.197C315.6 180.359 304.514 180.477 290.855 180.477C277.196 180.477 266.133 180.359 266.133 180.197C266.133 180.036 277.211 179.917 290.886 179.917C304.56 179.917 315.6 180.046 315.6 180.197Z" fill="#2965F1"/>
<path d="M349.664 211.019C349.664 211.181 338.586 211.3 324.919 211.3C311.252 211.3 300.174 211.181 300.174 211.019C300.174 210.858 311.252 210.739 324.919 210.739C338.586 210.739 349.664 210.869 349.664 211.019Z" fill="#E0E0E0"/>
<path d="M334.967 190.478C334.967 190.629 323.881 190.759 310.222 190.759C296.563 190.759 285.47 190.629 285.47 190.478C285.47 190.328 296.548 190.198 310.222 190.198C323.897 190.198 334.967 190.317 334.967 190.478Z" fill="#E44D26"/>
<path d="M395.443 190.478C395.443 190.629 384.365 190.759 370.698 190.759C357.031 190.759 345.953 190.629 345.953 190.478C345.953 190.328 357.031 190.198 370.698 190.198C384.365 190.198 395.443 190.317 395.443 190.478Z" fill="#E0E0E0"/>
<path d="M374.408 169.927C374.408 170.078 363.33 170.207 349.664 170.207C335.997 170.207 324.919 170.078 324.919 169.927C324.919 169.776 335.997 169.646 349.664 169.646C363.33 169.646 374.408 169.776 374.408 169.927Z" fill="#2965F1"/>
<path d="M408.603 211.019C408.603 211.181 397.517 211.3 383.858 211.3C370.198 211.3 359.09 211.181 359.09 211.019C359.09 210.858 370.168 210.739 383.842 210.739C397.517 210.739 408.603 210.869 408.603 211.019Z" fill="#E44D26"/>
<path d="M401.773 180.197C401.773 180.359 384.565 180.477 363.361 180.477C342.158 180.477 324.949 180.359 324.949 180.197C324.949 180.036 342.15 179.917 363.361 179.917C384.572 179.917 401.773 180.046 401.773 180.197Z" fill="#455A64"/>
<path d="M266.609 149.375C266.609 149.537 262.591 149.655 257.636 149.655C252.681 149.655 248.656 149.537 248.656 149.375C248.656 149.213 252.673 149.095 257.636 149.095C262.599 149.095 266.609 149.224 266.609 149.375Z" fill="#2965F1"/>
<path d="M266.609 272.664C266.609 272.826 262.591 272.945 257.636 272.945C252.681 272.945 248.656 272.826 248.656 272.664C248.656 272.503 252.673 272.384 257.636 272.384C262.599 272.384 266.609 272.514 266.609 272.664Z" fill="#FAFAFA"/>
<path d="M275.498 190.478C275.498 190.629 271.48 190.759 266.525 190.759C261.57 190.759 257.552 190.629 257.552 190.478C257.552 190.328 261.57 190.198 266.525 190.198C271.48 190.198 275.498 190.317 275.498 190.478Z" fill="#FAFAFA"/>
<path d="M419.358 190.478C419.358 190.629 415.34 190.759 410.385 190.759C405.43 190.759 401.412 190.629 401.412 190.478C401.412 190.328 405.43 190.198 410.385 190.198C415.34 190.198 419.358 190.317 419.358 190.478Z" fill="#E4A126"/>
<path d="M291.608 231.507C291.608 231.668 284.087 231.787 274.814 231.787C265.541 231.787 258.02 231.668 258.02 231.507C258.02 231.345 265.541 231.227 274.814 231.227C284.087 231.227 291.608 231.356 291.608 231.507Z" fill="#E4A126"/>
<path d="M330.435 231.507C330.435 231.668 322.921 231.787 313.649 231.787C304.376 231.787 296.863 231.658 296.863 231.507C296.863 231.356 304.376 231.227 313.656 231.227C322.937 231.227 330.435 231.356 330.435 231.507Z" fill="#E0E0E0"/>
<path d="M315.6 241.788C315.6 241.939 304.514 242.068 290.855 242.068C277.196 242.068 266.133 241.939 266.133 241.788C266.133 241.637 277.211 241.508 290.886 241.508C304.56 241.508 315.6 241.626 315.6 241.788Z" fill="#E0E0E0"/>
<path d="M315.6 252.059C315.6 252.21 304.514 252.339 290.855 252.339C277.196 252.339 266.102 252.21 266.102 252.059C266.102 251.908 277.18 251.779 290.855 251.779C304.53 251.779 315.6 251.908 315.6 252.059Z" fill="#E0E0E0"/>
<path d="M334.967 262.329C334.967 262.491 323.881 262.61 310.222 262.61C296.563 262.61 285.47 262.491 285.47 262.329C285.47 262.168 296.548 262.049 310.222 262.049C323.897 262.049 334.967 262.179 334.967 262.329Z" fill="#E0E0E0"/>
<path d="M395.443 262.329C395.443 262.491 384.365 262.61 370.698 262.61C357.031 262.61 345.953 262.491 345.953 262.329C345.953 262.168 357.031 262.049 370.698 262.049C384.365 262.049 395.443 262.179 395.443 262.329Z" fill="#E44D26"/>
<path d="M374.408 241.788C374.408 241.939 363.33 242.068 349.664 242.068C335.997 242.068 324.919 241.939 324.919 241.788C324.919 241.637 335.997 241.508 349.664 241.508C363.33 241.508 374.408 241.626 374.408 241.788Z" fill="#2965F1"/>
<path d="M401.773 252.059C401.773 252.21 384.565 252.339 363.361 252.339C342.158 252.339 324.949 252.21 324.949 252.059C324.949 251.908 342.15 251.779 363.361 251.779C384.572 251.779 401.773 251.908 401.773 252.059Z" fill="#455A64"/>
<path d="M275.498 262.329C275.498 262.491 271.48 262.61 266.525 262.61C261.57 262.61 257.552 262.491 257.552 262.329C257.552 262.168 261.57 262.049 266.525 262.049C271.48 262.049 275.498 262.179 275.498 262.329Z" fill="#FAFAFA"/>
<path d="M419.358 262.329C419.358 262.491 415.34 262.61 410.385 262.61C405.43 262.61 401.412 262.491 401.412 262.329C401.412 262.168 405.43 262.049 410.385 262.049C415.34 262.049 419.358 262.179 419.358 262.329Z" fill="#E4A126"/>
<path d="M117.195 211.688H345.707C347.08 211.688 348.397 212.453 349.368 213.815C350.339 215.178 350.885 217.025 350.885 218.952V418.328C350.885 422.492 349.706 426.486 347.607 429.431C345.507 432.375 342.66 434.03 339.692 434.03H122.434C119.465 434.03 116.618 432.375 114.519 429.431C112.42 426.486 111.241 422.492 111.241 418.328V220.029C111.243 217.816 111.871 215.695 112.987 214.13C114.104 212.566 115.617 211.688 117.195 211.688Z" fill="#455A64"/>
<path d="M101.223 417.562H360.888V422.229C360.888 424.171 360.615 426.093 360.085 427.887C359.556 429.681 358.779 431.311 357.8 432.684C356.822 434.057 355.66 435.147 354.381 435.89C353.102 436.633 351.731 437.015 350.347 437.015H111.763C110.379 437.015 109.008 436.633 107.73 435.89C106.451 435.147 105.289 434.057 104.31 432.684C103.331 431.311 102.555 429.681 102.025 427.887C101.496 426.093 101.223 424.171 101.223 422.229V417.562Z" fill="#455A64"/>
<path d="M343.779 220.525H117.671V408.262H343.779V220.525Z" fill="#E0E0E0"/>
<path d="M207.44 417.562L210.659 424.751H255.992L258.988 417.562H207.44Z" fill="#263238"/>
<path d="M350.923 417.487H111.279V418.554H350.923V417.487Z" fill="#263238"/>
<path d="M337.618 231.399H124.385V408.262H337.618V231.399Z" fill="#263238"/>
<path d="M140.741 403.068C140.634 403.068 140.541 365.402 140.541 318.942C140.541 272.482 140.634 234.816 140.741 234.816C140.849 234.816 140.91 272.471 140.91 318.953C140.91 365.434 140.849 403.068 140.741 403.068Z" fill="#E0E0E0"/>
<path d="M136.439 250.065C135.296 250.348 134.133 250.442 132.974 250.345C131.816 250.442 130.653 250.348 129.51 250.065C131.807 249.693 134.127 249.693 136.424 250.065H136.439Z" fill="#E0E0E0"/>
<path d="M136.708 240.517C135.565 240.799 134.402 240.893 133.243 240.797C132.084 240.893 130.922 240.799 129.778 240.517C132.076 240.145 134.396 240.145 136.693 240.517H136.708Z" fill="#E0E0E0"/>
<path d="M136.439 260.358C134.142 260.729 131.822 260.729 129.525 260.358C131.822 259.986 134.142 259.986 136.439 260.358V260.358Z" fill="#E0E0E0"/>
<path d="M136.439 270.649C134.142 271.021 131.822 271.021 129.525 270.649C130.668 270.367 131.831 270.273 132.99 270.369C134.143 270.274 135.301 270.368 136.439 270.649Z" fill="#E0E0E0"/>
<path d="M136.439 280.941C134.142 281.313 131.822 281.313 129.525 280.941C130.668 280.659 131.831 280.565 132.99 280.661C134.143 280.566 135.301 280.66 136.439 280.941V280.941Z" fill="#E0E0E0"/>
<path d="M136.439 291.233C134.142 291.605 131.822 291.605 129.525 291.233C130.668 290.951 131.831 290.857 132.99 290.953C134.143 290.858 135.301 290.952 136.439 291.233Z" fill="#E0E0E0"/>
<path d="M136.439 301.515C135.297 301.805 134.133 301.903 132.974 301.806C131.815 301.903 130.652 301.805 129.51 301.515C131.807 301.143 134.127 301.143 136.424 301.515H136.439Z" fill="#E0E0E0"/>
<path d="M136.439 311.807C135.296 312.09 134.133 312.184 132.974 312.087C131.816 312.184 130.653 312.09 129.51 311.807C131.807 311.435 134.127 311.435 136.424 311.807H136.439Z" fill="#E0E0E0"/>
<path d="M136.439 322.099C135.296 322.382 134.133 322.476 132.974 322.379C131.816 322.476 130.653 322.382 129.51 322.099C131.807 321.727 134.127 321.727 136.424 322.099H136.439Z" fill="#E0E0E0"/>
<path d="M136.439 332.391C135.296 332.674 134.133 332.768 132.974 332.671C131.816 332.768 130.653 332.674 129.51 332.391C131.807 332.019 134.127 332.019 136.424 332.391H136.439Z" fill="#E0E0E0"/>
<path d="M136.439 342.662C134.142 343.034 131.822 343.034 129.525 342.662C131.822 342.29 134.142 342.29 136.439 342.662V342.662Z" fill="#E0E0E0"/>
<path d="M136.439 352.976C134.142 353.348 131.822 353.348 129.525 352.976C130.668 352.693 131.831 352.599 132.99 352.695C134.143 352.601 135.301 352.695 136.439 352.976Z" fill="#E0E0E0"/>
<path d="M136.439 363.268C134.142 363.64 131.822 363.64 129.525 363.268C130.668 362.985 131.831 362.891 132.99 362.987C134.143 362.893 135.301 362.987 136.439 363.268Z" fill="#E0E0E0"/>
<path d="M136.439 373.56C134.142 373.932 131.822 373.932 129.525 373.56C130.668 373.277 131.831 373.183 132.99 373.279C134.143 373.185 135.301 373.279 136.439 373.56V373.56Z" fill="#E0E0E0"/>
<path d="M136.439 383.852C134.142 384.224 131.822 384.224 129.525 383.852C130.667 383.562 131.831 383.464 132.99 383.561C134.144 383.466 135.302 383.564 136.439 383.852V383.852Z" fill="#E0E0E0"/>
<path d="M136.439 394.133C135.296 394.416 134.133 394.51 132.974 394.414C131.816 394.51 130.653 394.416 129.51 394.133C131.807 393.762 134.127 393.762 136.424 394.133H136.439Z" fill="#E0E0E0"/>
<path d="M164.211 249.462C164.211 249.613 160.185 249.742 155.223 249.742C150.26 249.742 146.226 249.613 146.226 249.462C146.226 249.311 150.252 249.182 155.223 249.182C160.193 249.182 164.211 249.3 164.211 249.462Z" fill="#E4A126"/>
<path d="M164.211 394.133C164.211 394.295 160.185 394.413 155.223 394.413C150.26 394.413 146.226 394.295 146.226 394.133C146.226 393.972 150.252 393.853 155.223 393.853C160.193 393.853 164.211 393.982 164.211 394.133Z" fill="#E4A126"/>
<path d="M189.248 270.649C189.248 270.8 181.711 270.929 172.423 270.929C163.135 270.929 155.607 270.8 155.607 270.649C155.607 270.498 163.135 270.369 172.423 270.369C181.711 270.369 189.248 270.455 189.248 270.649Z" fill="#E4A126"/>
<path d="M228.144 270.649C228.144 270.8 220.607 270.929 211.319 270.929C202.031 270.929 194.503 270.8 194.503 270.649C194.503 270.498 202.031 270.369 211.319 270.369C220.607 270.369 228.144 270.455 228.144 270.649Z" fill="#2965F1"/>
<path d="M213.278 280.941C213.278 281.092 202.177 281.222 188.487 281.222C174.797 281.222 163.704 281.092 163.704 280.941C163.704 280.79 174.797 280.661 188.487 280.661C202.177 280.661 213.278 280.78 213.278 280.941Z" fill="#E44D26"/>
<path d="M213.278 291.234C213.278 291.385 202.177 291.514 188.487 291.514C174.797 291.514 163.704 291.385 163.704 291.234C163.704 291.083 174.797 290.954 188.487 290.954C202.177 290.954 213.278 291.072 213.278 291.234Z" fill="#2965F1"/>
<path d="M247.396 322.099C247.396 322.261 236.302 322.379 222.612 322.379C208.922 322.379 197.821 322.261 197.821 322.099C197.821 321.937 208.922 321.819 222.612 321.819C236.302 321.819 247.396 321.948 247.396 322.099Z" fill="#2965F1"/>
<path d="M232.676 301.515C232.676 301.677 221.575 301.806 207.885 301.806C194.195 301.806 183.102 301.677 183.102 301.515C183.102 301.353 194.195 301.235 207.885 301.235C221.575 301.235 232.676 301.364 232.676 301.515Z" fill="#E44D26"/>
<path d="M293.252 301.515C293.252 301.677 282.151 301.806 268.469 301.806C254.786 301.806 243.677 301.677 243.677 301.515C243.677 301.353 254.778 301.235 268.469 301.235C282.159 301.235 293.252 301.364 293.252 301.515Z" fill="#2965F1"/>
<path d="M272.187 280.941C272.187 281.092 261.086 281.222 247.396 281.222C233.706 281.222 222.612 281.092 222.612 280.941C222.612 280.79 233.706 280.661 247.396 280.661C261.086 280.661 272.187 280.78 272.187 280.941Z" fill="#FAFAFA"/>
<path d="M306.427 322.099C306.427 322.261 295.326 322.379 281.644 322.379C267.961 322.379 256.853 322.261 256.853 322.099C256.853 321.937 267.954 321.819 281.644 321.819C295.334 321.819 306.427 321.948 306.427 322.099Z" fill="#E44D26"/>
<path d="M299.59 291.234C299.59 291.385 282.358 291.514 261.101 291.514C239.844 291.514 222.612 291.385 222.612 291.234C222.612 291.083 239.844 290.954 261.101 290.954C282.358 290.954 299.59 291.072 299.59 291.234Z" fill="#455A64"/>
<path d="M164.211 260.357C164.211 260.508 160.185 260.638 155.223 260.638C150.26 260.638 146.226 260.508 146.226 260.357C146.226 260.206 150.252 260.077 155.223 260.077C160.193 260.077 164.211 260.206 164.211 260.357Z" fill="#E44D26"/>
<path d="M164.211 383.852C164.211 384.003 160.185 384.132 155.223 384.132C150.26 384.132 146.226 384.003 146.226 383.852C146.226 383.701 150.252 383.561 155.223 383.561C160.193 383.561 164.211 383.69 164.211 383.852Z" fill="#E44D26"/>
<path d="M173.115 301.515C173.115 301.677 169.089 301.806 164.126 301.806C159.164 301.806 155.138 301.677 155.138 301.515C155.138 301.353 159.156 301.235 164.126 301.235C169.097 301.235 173.115 301.364 173.115 301.515Z" fill="#FAFAFA"/>
<path d="M317.205 301.515C317.205 301.677 313.18 301.806 308.217 301.806C303.254 301.806 299.229 301.677 299.229 301.515C299.229 301.353 303.247 301.235 308.217 301.235C313.188 301.235 317.205 301.364 317.205 301.515Z" fill="#E4A126"/>
<path d="M189.248 342.662C189.248 342.824 181.711 342.942 172.423 342.942C163.135 342.942 155.607 342.824 155.607 342.662C155.607 342.5 163.135 342.382 172.423 342.382C181.711 342.382 189.248 342.468 189.248 342.662Z" fill="#E4A126"/>
<path d="M228.144 342.662C228.144 342.824 220.607 342.942 211.319 342.942C202.031 342.942 194.503 342.824 194.503 342.662C194.503 342.5 202.031 342.382 211.319 342.382C220.607 342.382 228.144 342.468 228.144 342.662Z" fill="#E0E0E0"/>
<path d="M213.278 352.911C213.278 353.073 202.177 353.191 188.487 353.191C174.797 353.191 163.704 353.073 163.704 352.911C163.704 352.749 174.797 352.631 188.487 352.631C202.177 352.631 213.278 352.76 213.278 352.911Z" fill="#E44D26"/>
<path d="M213.278 363.203C213.278 363.365 202.177 363.483 188.487 363.483C174.797 363.483 163.704 363.365 163.704 363.203C163.704 363.041 174.797 362.923 188.487 362.923C202.177 362.923 213.278 363.052 213.278 363.203Z" fill="#E0E0E0"/>
<path d="M232.676 373.495C232.676 373.646 221.575 373.775 207.885 373.775C194.195 373.775 183.102 373.646 183.102 373.495C183.102 373.344 194.195 373.215 207.885 373.215C221.575 373.215 232.676 373.344 232.676 373.495Z" fill="#2965F1"/>
<path d="M293.252 373.495C293.252 373.646 282.151 373.775 268.469 373.775C254.786 373.775 243.677 373.646 243.677 373.495C243.677 373.344 254.778 373.215 268.469 373.215C282.159 373.215 293.252 373.344 293.252 373.495Z" fill="#E44D26"/>
<path d="M272.187 352.911C272.187 353.073 261.086 353.191 247.396 353.191C233.706 353.191 222.612 353.073 222.612 352.911C222.612 352.749 233.706 352.631 247.396 352.631C261.086 352.631 272.187 352.76 272.187 352.911Z" fill="#2965F1"/>
<path d="M299.59 363.203C299.59 363.365 282.358 363.483 261.101 363.483C239.844 363.483 222.612 363.365 222.612 363.203C222.612 363.041 239.844 362.923 261.101 362.923C282.358 362.923 299.59 363.052 299.59 363.203Z" fill="#455A64"/>
<path d="M173.115 373.495C173.115 373.646 169.089 373.775 164.126 373.775C159.164 373.775 155.138 373.646 155.138 373.495C155.138 373.344 159.156 373.215 164.126 373.215C169.097 373.215 173.115 373.344 173.115 373.495Z" fill="#FAFAFA"/>
<path d="M317.205 373.495C317.205 373.646 313.18 373.775 308.217 373.775C303.254 373.775 299.229 373.646 299.229 373.495C299.229 373.344 303.247 373.215 308.217 373.215C313.188 373.215 317.205 373.344 317.205 373.495Z" fill="#E4A126"/>
<path d="M459.433 362.08L420.673 341.711L413.863 284.448L445.863 247.539L484.593 267.88L491.403 325.158L459.433 362.08ZM422.303 339.831L459.083 359.148L489.393 324.078L482.933 269.746L446.153 250.429L415.843 285.5L422.303 339.831Z" fill="#E4A126"/>
<path d="M451.042 254.08C453.035 250.164 452.388 244.724 449.597 241.928C446.806 239.132 442.927 240.039 440.934 243.955C438.941 247.87 439.588 253.311 442.379 256.107C445.17 258.903 449.049 257.995 451.042 254.08Z" fill="#E4A126"/>
<path d="M464.302 365.675C466.295 361.759 465.648 356.319 462.857 353.523C460.066 350.727 456.188 351.634 454.195 355.55C452.201 359.465 452.848 364.906 455.64 367.702C458.431 370.498 462.309 369.59 464.302 365.675Z" fill="#E4A126"/>
<path d="M480.143 275.932C479.143 274.931 478.378 273.536 477.943 271.924C477.509 270.312 477.425 268.555 477.702 266.877C477.98 265.198 478.606 263.672 479.501 262.493C480.397 261.313 481.522 260.533 482.733 260.25C483.945 259.967 485.189 260.195 486.309 260.905C487.428 261.614 488.373 262.774 489.022 264.236C489.672 265.699 489.998 267.399 489.959 269.121C489.92 270.843 489.517 272.511 488.803 273.912C487.845 275.79 486.395 277.058 484.771 277.437C483.147 277.816 481.482 277.275 480.143 275.932V275.932Z" fill="#E4A126"/>
<path d="M411.233 291.967C410.232 290.967 409.466 289.573 409.031 287.962C408.595 286.35 408.51 284.594 408.786 282.915C409.062 281.236 409.687 279.71 410.582 278.529C411.476 277.348 412.6 276.566 413.812 276.281C415.023 275.997 416.268 276.223 417.388 276.93C418.508 277.638 419.453 278.796 420.104 280.257C420.755 281.718 421.082 283.417 421.044 285.14C421.007 286.862 420.606 288.53 419.893 289.933C418.935 291.81 417.485 293.078 415.862 293.459C414.239 293.841 412.574 293.304 411.233 291.967V291.967Z" fill="#E4A126"/>
<path d="M486.783 331.835C485.784 330.834 485.019 329.439 484.585 327.828C484.151 326.217 484.067 324.462 484.344 322.784C484.621 321.106 485.246 319.581 486.14 318.401C487.035 317.221 488.159 316.44 489.37 316.156C490.58 315.872 491.824 316.098 492.944 316.805C494.063 317.512 495.008 318.669 495.659 320.129C496.31 321.589 496.638 323.288 496.601 325.009C496.564 326.731 496.165 328.398 495.453 329.801C494.979 330.734 494.379 331.527 493.687 332.134C492.994 332.742 492.224 333.152 491.418 333.34C490.613 333.529 489.789 333.494 488.994 333.235C488.198 332.977 487.447 332.501 486.783 331.835V331.835Z" fill="#E4A126"/>
<path d="M417.883 347.842C416.883 346.84 416.118 345.445 415.683 343.833C415.249 342.221 415.165 340.465 415.442 338.786C415.72 337.107 416.346 335.581 417.241 334.402C418.137 333.222 419.262 332.442 420.473 332.159C421.685 331.876 422.93 332.104 424.049 332.814C425.168 333.523 426.113 334.683 426.762 336.145C427.412 337.608 427.738 339.308 427.699 341.03C427.66 342.753 427.257 344.42 426.543 345.821C426.069 346.753 425.469 347.544 424.778 348.15C424.086 348.756 423.316 349.164 422.511 349.352C421.707 349.54 420.884 349.503 420.09 349.244C419.295 348.984 418.545 348.508 417.883 347.842V347.842Z" fill="#E4A126"/>
<path d="M439.533 290.325L447.362 288.488L449.652 307.749C450.107 310.844 450.218 314.019 449.982 317.162C449.672 319.517 448.81 321.66 447.532 323.25C445.943 325.229 443.962 326.482 441.852 326.841C439.844 327.473 437.761 327.473 435.753 326.841C434.277 326.236 432.966 325.018 431.993 323.348C430.924 321.414 430.182 319.164 429.823 316.769L437.113 313.584C437.231 314.767 437.47 315.92 437.823 317.007C438.082 317.694 438.483 318.256 438.972 318.621C439.392 318.871 439.858 318.93 440.302 318.789C440.686 318.737 441.052 318.539 441.362 318.218C441.672 317.897 441.914 317.464 442.062 316.965C442.378 315.42 442.403 313.786 442.132 312.224L439.533 290.325Z" fill="#263238"/>
<path d="M454.023 311.284L461.383 308.899C461.626 310.267 462.123 311.52 462.823 312.532C463.316 313.164 463.911 313.621 464.556 313.865C465.202 314.109 465.879 314.133 466.533 313.935C467.467 313.808 468.335 313.204 468.973 312.238C469.219 311.865 469.401 311.419 469.507 310.933C469.612 310.447 469.638 309.934 469.583 309.432C469.519 308.957 469.382 308.508 469.182 308.115C468.982 307.723 468.722 307.397 468.423 307.159C467.079 306.368 465.629 305.99 464.173 306.051C460.619 305.771 458.006 304.905 456.333 303.456C455.528 302.782 454.84 301.864 454.321 300.77C453.802 299.675 453.464 298.431 453.333 297.129C453.123 295.287 453.303 293.399 453.853 291.7C454.485 289.787 455.508 288.18 456.793 287.085C458.64 285.599 460.679 284.645 462.793 284.279C466.026 283.522 468.589 283.788 470.483 285.079C471.487 285.821 472.365 286.86 473.056 288.124C473.746 289.388 474.233 290.848 474.483 292.402L467.193 294.73C467.092 294.075 466.896 293.456 466.618 292.912C466.34 292.367 465.985 291.908 465.576 291.563C465.166 291.219 464.71 290.996 464.237 290.909C463.763 290.821 463.282 290.871 462.823 291.055C462.068 291.138 461.359 291.596 460.823 292.345C460.635 292.628 460.496 292.967 460.416 293.337C460.336 293.706 460.318 294.097 460.363 294.478C460.404 294.776 460.494 295.056 460.623 295.299C460.753 295.542 460.92 295.741 461.113 295.881C461.993 296.389 462.941 296.624 463.893 296.568C466.493 296.613 469.08 297.083 471.603 297.971C473.019 298.524 474.298 299.622 475.293 301.141C476.156 302.572 476.721 304.31 476.923 306.163C477.197 308.396 476.988 310.692 476.323 312.757C475.643 314.923 474.514 316.751 473.083 318.003C471.277 319.536 469.265 320.53 467.173 320.921C462.873 321.931 459.759 321.463 457.833 319.518C455.897 317.507 454.544 314.583 454.023 311.284V311.284Z" fill="#263238"/>
<path d="M500 437.026C500 437.177 388.06 437.306 250.015 437.306C111.971 437.306 0 437.177 0 437.026C0 436.875 111.917 436.746 250.015 436.746C388.114 436.746 500 436.864 500 437.026Z" fill="#263238"/>
<path d="M398.792 376.2L401.865 389.661C402.456 392.392 403.572 394.842 405.089 396.743C406.607 398.644 408.468 399.922 410.469 400.438L430.951 405.826L436.52 405.579L430.951 395.879L415.586 388.518C414.854 388.286 414.181 387.778 413.639 387.049C413.098 386.319 412.708 385.397 412.513 384.38L406.367 365.671L398.6 372.353L398.792 376.2Z" fill="#FFBE9D"/>
<path d="M384.119 285.791C384.222 283.676 383.816 281.574 382.967 279.821C382.62 278.915 382.141 278.123 381.562 277.495C380.982 276.867 380.314 276.419 379.602 276.178C378.772 276.045 377.934 276.295 377.214 276.89C376.495 277.485 375.933 278.393 375.615 279.476C375.315 280.567 375.215 281.745 375.322 282.904C375.429 284.064 375.741 285.167 376.229 286.114C376.726 287.1 377.362 287.932 378.096 288.561C375.96 290.53 374.341 293.426 373.487 296.805C373.202 297.948 373.01 299.133 372.657 300.232C372.335 301.369 371.732 302.306 370.959 302.873C370.375 303.239 369.722 303.272 369.123 303.584C368.628 303.86 368.186 304.297 367.835 304.859C367.484 305.421 367.233 306.092 367.103 306.817C366.871 308.299 367.067 309.849 367.648 311.128C367.996 311.703 368.234 312.393 368.339 313.133C368.319 313.645 368.243 314.149 368.117 314.631C367.971 315.481 368.023 316.374 368.265 317.18C368.508 317.985 368.927 318.661 369.463 319.108C369.999 319.555 370.623 319.75 371.243 319.663C371.863 319.577 372.448 319.215 372.91 318.629C373.221 319.926 373.846 321.028 374.677 321.743C375.553 322.325 376.844 321.797 376.982 320.461C377.199 321.11 377.564 321.64 378.019 321.967C378.475 322.294 378.995 322.399 379.497 322.265C380 322.132 380.456 321.768 380.795 321.23C381.134 320.693 381.336 320.013 381.369 319.297L397.886 293.96C395.427 284.757 385.786 285.543 384.119 285.791Z" fill="#583D32"/>
<path d="M381.323 294.596C380.811 294.677 380.338 295.021 379.998 295.563C379.657 296.105 379.472 296.805 379.479 297.528V297.528L380.647 336.541C380.693 341.153 386.654 346.607 390.165 346.499C393.722 346.391 392.677 341.11 392.723 336.724C392.815 329.396 392.808 326.647 392.815 326.69C392.823 326.734 397.302 325.613 398.232 317.433C398.692 313.348 398.546 306.656 398.301 301.181C398.078 296.256 395.75 290.21 392.255 290.727L381.323 294.596Z" fill="#FFBE9D"/>
<path d="M396.78 306.494C396.78 306.769 396.705 307.034 396.571 307.234C396.437 307.434 396.253 307.555 396.057 307.572C395.963 307.58 395.867 307.563 395.777 307.52C395.687 307.477 395.604 307.409 395.533 307.321C395.461 307.233 395.403 307.126 395.361 307.006C395.32 306.887 395.295 306.756 395.289 306.623C395.289 306.348 395.363 306.084 395.498 305.883C395.632 305.683 395.816 305.562 396.011 305.546C396.106 305.537 396.201 305.554 396.291 305.597C396.381 305.64 396.464 305.708 396.536 305.796C396.607 305.884 396.666 305.991 396.707 306.111C396.749 306.231 396.774 306.361 396.78 306.494V306.494Z" fill="#263238"/>
<path d="M397.264 304.662C397.171 304.802 396.603 304.209 395.796 304.209C394.99 304.209 394.39 304.78 394.306 304.64C394.221 304.5 394.36 304.338 394.613 304.069C394.964 303.732 395.379 303.552 395.804 303.552C396.226 303.554 396.637 303.742 396.979 304.091C397.225 304.349 397.31 304.597 397.264 304.662Z" fill="#263238"/>
<path d="M388.882 306.494C388.882 306.769 388.808 307.034 388.674 307.234C388.539 307.434 388.356 307.555 388.16 307.572C388.065 307.58 387.97 307.563 387.88 307.52C387.79 307.477 387.707 307.409 387.635 307.321C387.564 307.233 387.506 307.126 387.464 307.006C387.422 306.887 387.398 306.756 387.392 306.623C387.391 306.348 387.466 306.084 387.6 305.883C387.734 305.683 387.918 305.562 388.114 305.546C388.209 305.537 388.304 305.554 388.394 305.597C388.484 305.64 388.567 305.708 388.638 305.796C388.71 305.884 388.768 305.991 388.81 306.111C388.852 306.231 388.876 306.361 388.882 306.494V306.494Z" fill="#263238"/>
<path d="M389.32 304.877C389.228 305.007 388.659 304.425 387.853 304.425C387.046 304.425 386.454 304.996 386.362 304.856C386.27 304.716 386.416 304.543 386.677 304.285C387.026 303.941 387.442 303.76 387.868 303.767C388.287 303.768 388.695 303.952 389.036 304.295C389.281 304.565 389.366 304.813 389.32 304.877Z" fill="#263238"/>
<path d="M392.255 313.284C392.68 313.091 393.122 312.978 393.568 312.949C393.776 312.949 393.968 312.863 394.006 312.659C394.022 312.362 393.974 312.065 393.868 311.807C393.668 311.107 393.468 310.374 393.253 309.598C392.686 307.731 392.229 305.803 391.886 303.832C392.558 305.633 393.126 307.507 393.584 309.436C393.783 310.212 393.983 310.945 394.167 311.645C394.297 311.997 394.336 312.401 394.275 312.788C394.245 312.889 394.199 312.979 394.14 313.052C394.082 313.125 394.012 313.178 393.937 313.208C393.822 313.253 393.703 313.275 393.584 313.273C393.143 313.354 392.696 313.358 392.255 313.284V313.284Z" fill="#263238"/>
<path d="M392.815 326.69C390.058 326.749 387.343 325.734 384.972 323.759C384.972 323.759 386.877 329.395 392.731 328.63L392.815 326.69Z" fill="#EB996E"/>
<path d="M391.909 316.01C391.756 315.74 391.557 315.528 391.33 315.396C391.102 315.264 390.855 315.216 390.611 315.256C390.432 315.279 390.258 315.351 390.1 315.47C389.942 315.588 389.802 315.75 389.689 315.945C389.581 316.134 389.517 316.364 389.506 316.605C389.495 316.846 389.537 317.086 389.627 317.293C389.757 317.497 389.927 317.642 390.116 317.709C390.305 317.776 390.504 317.763 390.687 317.67C391.068 317.482 391.418 317.189 391.717 316.808C391.807 316.716 391.885 316.603 391.947 316.473C391.977 316.411 391.993 316.338 391.993 316.263C391.993 316.188 391.977 316.115 391.947 316.053" fill="#EB996E"/>
<path d="M389.873 314.06C390.011 314.06 390.011 315.288 390.756 316.215C391.502 317.142 392.447 316.948 392.454 317.12C392.462 317.293 392.239 317.357 391.847 317.379C391.334 317.382 390.835 317.139 390.434 316.689C390.054 316.248 389.81 315.619 389.75 314.933C389.719 314.361 389.819 314.06 389.873 314.06Z" fill="#263238"/>
<path d="M389.689 302.894C389.604 303.196 388.798 303.056 387.853 303.218C386.908 303.379 386.139 303.735 386.009 303.455C385.878 303.175 386.086 303.034 386.401 302.743C386.809 302.369 387.275 302.136 387.76 302.065C388.246 301.985 388.738 302.066 389.197 302.302C389.543 302.506 389.719 302.787 389.689 302.894Z" fill="#583D32"/>
<path d="M396.964 301.386C396.826 301.644 396.265 301.386 395.596 301.386C394.928 301.386 394.36 301.558 394.229 301.289C394.098 301.019 394.229 300.901 394.513 300.653C394.845 300.356 395.234 300.209 395.627 300.232C396.02 300.242 396.401 300.423 396.718 300.75C396.949 300.998 397.033 301.256 396.964 301.386Z" fill="#583D32"/>
<path d="M380.132 307.734C379.893 307.553 379.624 307.467 379.353 307.486C379.082 307.505 378.82 307.628 378.595 307.841C378.05 308.28 377.63 308.972 377.408 309.797C377.186 310.622 377.175 311.53 377.377 312.366C377.58 313.201 377.983 313.911 378.517 314.376C379.052 314.84 379.685 315.029 380.309 314.911" fill="#FFBE9D"/>
<path d="M389.335 287.99C391.326 288.131 393.26 288.972 394.959 290.436C396.877 291.834 398.321 294.24 398.977 297.129C399.059 297.426 399.097 297.744 399.09 298.062C399.082 298.381 399.028 298.694 398.931 298.982C398.744 299.311 398.482 299.538 398.189 299.626C397.897 299.715 397.591 299.659 397.325 299.467C396.8 299.058 396.352 298.478 396.019 297.775C395.879 298.536 395.561 299.209 395.117 299.686C394.672 300.164 394.126 300.418 393.566 300.41C393.007 300.401 392.465 300.129 392.028 299.638C391.591 299.147 391.284 298.465 391.156 297.7C391.109 298.487 390.849 299.219 390.428 299.744C390.008 300.269 389.46 300.548 388.897 300.524C388.336 300.456 387.8 300.158 387.358 299.668C386.915 299.178 386.585 298.516 386.408 297.765C386.267 299.187 385.916 300.552 385.379 301.774C385.101 302.377 384.698 302.846 384.224 303.117C383.75 303.389 383.228 303.45 382.728 303.293C382.952 304.498 382.952 305.763 382.728 306.968C382.594 307.558 382.308 308.058 381.926 308.37C381.545 308.682 381.094 308.786 380.662 308.66C379.848 308.272 379.533 306.925 379.348 305.75C378.929 303.502 378.717 301.188 378.718 298.864C378.663 296.472 379.216 294.131 380.279 292.259C381.341 290.387 382.844 289.107 384.518 288.647C386.188 288.111 387.901 287.889 389.612 287.99" fill="#583D32"/>
<path d="M379.725 312.486C379.725 312.432 379.494 312.561 379.21 312.378C379.039 312.238 378.9 312.031 378.812 311.782C378.723 311.533 378.688 311.254 378.711 310.977C378.712 310.695 378.771 310.42 378.882 310.185C378.992 309.95 379.149 309.764 379.333 309.652C379.504 309.586 379.679 309.539 379.855 309.512C379.855 309.512 379.656 309.253 379.271 309.371C379.045 309.443 378.843 309.617 378.695 309.867C378.518 310.173 378.416 310.551 378.403 310.945C378.378 311.308 378.439 311.673 378.579 311.982C378.718 312.29 378.927 312.525 379.172 312.648C379.533 312.788 379.755 312.486 379.725 312.486Z" fill="#EB996E"/>
<path d="M377.527 312.896C377.527 312.896 377.443 312.895 377.282 312.982C376.215 313.525 375.313 314.563 374.723 315.924C374.406 316.673 374.227 317.521 374.201 318.392C374.183 319.398 374.352 320.394 374.693 321.28C375.056 322.255 375.584 323.091 376.229 323.716C376.932 324.398 377.764 324.773 378.618 324.793C379.44 324.771 380.242 324.437 380.939 323.826C381.635 323.215 382.201 322.35 382.575 321.323C382.904 320.427 383.048 319.419 382.99 318.413C382.927 317.55 382.733 316.716 382.421 315.967C381.982 314.871 381.303 314.002 380.485 313.488C380.267 313.351 380.037 313.253 379.801 313.197C379.638 313.154 379.553 313.154 379.548 313.197C379.548 313.197 379.886 313.305 380.431 313.671C381.197 314.219 381.826 315.08 382.237 316.139C382.518 316.861 382.688 317.658 382.736 318.478C382.777 319.416 382.633 320.352 382.321 321.183C381.968 322.139 381.438 322.944 380.786 323.513C380.135 324.082 379.386 324.394 378.618 324.416C377.855 324.378 377.111 324.06 376.463 323.493C375.814 322.925 375.283 322.129 374.923 321.183C374.616 320.416 374.455 319.551 374.455 318.672C374.455 317.793 374.616 316.928 374.923 316.161C375.353 315.117 375.967 314.245 376.705 313.628C377.182 313.089 377.527 312.928 377.527 312.896Z" fill="#263238"/>
<path d="M382.329 287.44C382.267 287.44 382.145 286.718 381.783 285.651C381.319 284.253 380.627 283.028 379.764 282.074C378.901 281.119 377.89 280.462 376.813 280.155C375.983 279.907 375.446 279.917 375.446 279.82C375.906 279.637 376.391 279.615 376.859 279.756C378.009 279.978 379.096 280.625 380.009 281.631C380.919 282.638 381.62 283.971 382.037 285.489C382.247 286.096 382.348 286.766 382.329 287.44V287.44Z" fill="#E0E0E0"/>
<path d="M368.869 318.64C368.869 318.64 368.77 318.64 368.662 318.37C368.525 318.046 368.476 317.664 368.524 317.293C368.568 316.99 368.655 316.703 368.779 316.448C368.903 316.192 369.061 315.974 369.246 315.805C369.714 315.407 370.199 315.047 370.698 314.728C370.978 314.543 371.219 314.259 371.397 313.904C371.575 313.549 371.684 313.134 371.712 312.702C371.677 311.65 371.542 310.61 371.312 309.609C371.208 309.017 371.166 308.407 371.19 307.798C371.228 307.132 371.422 306.503 371.743 306.009C372.434 305.104 373.285 304.475 374.209 304.188C375.063 303.937 375.838 303.31 376.421 302.399C376.82 301.42 376.951 300.27 376.79 299.166C376.662 298.098 376.608 297.015 376.629 295.932C376.768 293.575 377.566 291.39 378.849 289.854C379.051 289.612 379.269 289.399 379.502 289.218C379.579 289.142 379.665 289.084 379.755 289.046C379.755 289.046 379.448 289.369 378.987 290.016C378.296 290.935 377.758 292.058 377.412 293.303C377.173 294.154 377.031 295.052 376.99 295.965C376.986 297.023 377.05 298.08 377.182 299.122C377.372 300.359 377.226 301.649 376.775 302.744C376.148 303.763 375.301 304.467 374.362 304.748C373.504 305.008 372.709 305.58 372.058 306.408C371.817 306.846 371.658 307.361 371.595 307.906C371.532 308.452 371.567 309.011 371.697 309.533C371.927 310.581 372.052 311.67 372.065 312.766C372.03 313.3 371.886 313.809 371.65 314.232C371.44 314.594 371.179 314.892 370.882 315.105C370.329 315.525 369.807 315.762 369.423 316.183C369.08 316.467 368.829 316.927 368.723 317.465C368.663 317.868 368.715 318.289 368.869 318.64V318.64Z" fill="#E0E0E0"/>
<path d="M389.735 297.398C389.673 297.398 389.62 296.525 389.312 295.243C388.916 293.526 388.237 291.964 387.33 290.684C386.413 289.425 385.301 288.481 384.081 287.925C383.143 287.494 382.544 287.429 382.544 287.332C383.094 287.228 383.654 287.301 384.18 287.548C385.484 288.006 386.676 288.948 387.63 290.276C388.584 291.603 389.266 293.267 389.604 295.092C389.778 295.835 389.823 296.626 389.735 297.398V297.398Z" fill="#E0E0E0"/>
<path d="M394.429 293.842C394.132 292.961 393.79 292.111 393.407 291.298C392.393 289.44 390.991 288.073 389.397 287.386C387.789 286.732 386.103 286.542 384.442 286.826C383.159 287.02 382.375 287.268 382.36 287.181C383.009 286.787 383.699 286.536 384.403 286.438C386.109 286.024 387.859 286.164 389.52 286.847C391.192 287.564 392.643 289.053 393.637 291.072C393.935 291.677 394.165 292.342 394.321 293.044C394.397 293.296 394.434 293.568 394.429 293.842V293.842Z" fill="#E0E0E0"/>
<path d="M384.242 285.382C384.242 285.382 384.096 285.921 383.643 286.578C383.038 287.416 382.309 288.057 381.507 288.453C380.709 288.862 379.856 289.013 379.01 288.895C378.655 288.89 378.308 288.753 378.004 288.496C379.143 288.574 380.283 288.381 381.376 287.925C382.425 287.305 383.393 286.446 384.242 285.382V285.382Z" fill="#263238"/>
<path d="M388.352 437.09C374.286 430.56 383.927 404.458 383.927 404.458L445.386 412.573C446.56 412.558 447.725 412.871 448.813 413.492C449.901 414.113 450.89 415.03 451.724 416.19C452.557 417.351 453.219 418.731 453.67 420.252C454.121 421.774 454.352 423.405 454.351 425.053V425.053C454.347 428.354 453.41 431.518 451.745 433.852C450.08 436.185 447.824 437.497 445.47 437.5L388.352 437.069" fill="#263238"/>
<path d="M373.955 437.069C360.25 430.603 369.699 404.447 369.699 404.447L429.622 412.379C435.476 412.486 438.334 416.452 438.334 424.826C438.334 431.713 436.505 437.522 429.645 437.328L373.947 437.069" fill="#263238"/>
<path d="M387.868 408.865H388.037H388.536L390.457 408.973L397.502 409.48L420.756 411.269C421.893 411.344 423.015 411.484 424.121 411.506C425.227 411.527 426.326 411.592 427.394 411.689C428.462 411.786 429.522 411.894 430.551 412.044C431.573 412.143 432.581 412.433 433.547 412.907C434.479 413.41 435.328 414.172 436.044 415.148C436.728 416.111 437.253 417.274 437.581 418.554C437.887 419.742 438.095 420.975 438.203 422.229C438.312 423.383 438.366 424.546 438.364 425.71C438.393 427.713 438.131 429.704 437.596 431.562C437.178 432.937 436.539 434.158 435.729 435.129C435.23 435.724 434.654 436.178 434.031 436.465C433.609 436.659 433.601 436.595 434.031 436.379C434.636 436.061 435.193 435.59 435.675 434.989C436.451 434.013 437.06 432.805 437.458 431.454C437.985 429.631 438.246 427.677 438.226 425.71C438.22 424.563 438.158 423.418 438.042 422.283C437.932 421.058 437.726 419.855 437.427 418.694C437.11 417.481 436.609 416.378 435.96 415.461C435.276 414.512 434.456 413.777 433.555 413.305C432.611 412.842 431.626 412.563 430.628 412.476C429.606 412.325 428.554 412.217 427.486 412.131C426.418 412.044 425.327 411.98 424.229 411.958C423.13 411.937 421.993 411.797 420.856 411.721L397.502 409.792L390.449 409.156L388.536 408.962L388.037 408.898L387.868 408.865Z" fill="#455A64"/>
<path d="M409.179 410.557L404.254 407.163L400.82 391.159L400.49 370.682L407.45 366.565L401.927 347.113C400.92 344.235 398.854 336.616 393.66 334.115C393.578 333.031 393.641 331.935 393.845 330.882C394.252 329.923 381.1 329.352 380.355 329.729C379.609 330.106 380.477 333.48 380.393 334.04C375.714 335.851 371.174 338.556 369.461 347.576C368.8 351.089 369.023 358.504 369.384 362.082L373.033 389.165L370.982 398.056C370.982 398.056 363.799 419.05 366.526 427.251C369.254 435.452 373.878 437.306 373.878 437.306L409.663 437.198L409.179 410.557Z" fill="#E4A126"/>
<g opacity="0.3">
<path opacity="0.3" d="M373.271 378.442C373.945 382.79 374.823 387.07 375.899 391.256C376.582 393.911 377.551 396.405 378.772 398.649C380.586 401.572 383.002 403.631 385.686 404.544C388.354 405.452 391.119 405.642 393.837 405.104L380.293 394.327L376.69 376.771L373.271 378.442Z" fill="black"/>
</g>
<path d="M400.813 390.566C400.748 390.086 400.715 389.599 400.713 389.111C400.713 388.098 400.636 386.762 400.575 385.156C400.475 381.815 400.36 377.192 400.244 372.083C400.129 366.975 400.052 362.384 400.014 359.011C400.014 357.394 400.014 356.058 400.014 355.045C399.986 354.561 399.986 354.074 400.014 353.59C400.073 354.067 400.104 354.55 400.106 355.034C400.144 356.047 400.191 357.383 400.244 359C400.344 362.341 400.467 366.964 400.575 372.073C400.682 377.181 400.767 381.772 400.813 385.145C400.813 386.762 400.813 388.098 400.813 389.111C400.841 389.595 400.841 390.082 400.813 390.566V390.566Z" fill="#263238"/>
<path d="M387.561 371.436C387.483 371.499 387.4 371.55 387.315 371.587L386.547 371.975L383.597 373.43L372.795 378.657L372.618 378.743L372.58 378.485C371.85 372.978 370.99 366.533 370.06 359.56C369.914 356.122 369.423 352.533 369.63 348.783C369.717 347.872 369.896 346.983 370.16 346.143C370.392 345.304 370.691 344.505 371.051 343.761C371.769 342.295 372.749 341.12 373.894 340.355C374.968 339.592 376.177 339.283 377.374 339.464C378.572 339.646 379.706 340.311 380.639 341.379C381.415 342.487 382.028 343.798 382.444 345.237C382.852 346.558 383.204 347.911 383.497 349.289C384.065 351.941 384.503 354.452 384.926 356.758L386.885 367.535C387.107 368.774 387.276 369.744 387.399 370.456C387.453 370.758 387.492 371.005 387.53 371.199C387.568 371.393 387.53 371.458 387.53 371.447C387.499 371.362 387.476 371.271 387.461 371.178C387.415 370.969 387.361 370.711 387.299 370.402C387.153 369.691 386.961 368.71 386.708 367.47C386.209 364.895 385.494 361.241 384.618 356.758C384.173 354.516 383.735 352.016 383.151 349.386C382.854 348.029 382.5 346.698 382.091 345.399C381.695 344.028 381.11 342.779 380.37 341.724C379.489 340.734 378.424 340.12 377.301 339.958C376.178 339.795 375.046 340.091 374.04 340.808C372.956 341.534 372.028 342.649 371.351 344.041C371.008 344.753 370.722 345.516 370.498 346.315C370.25 347.112 370.082 347.954 369.999 348.815C369.799 352.447 370.268 356.036 370.421 359.517C371.328 366.49 372.165 372.934 372.88 378.452L372.665 378.28L383.42 373.312L386.439 371.954L387.207 371.598L387.561 371.436Z" fill="#263238"/>
<path d="M376.759 376.448C376.659 376.448 376.375 375.661 376.122 374.583C375.868 373.506 375.761 372.59 375.868 372.547C375.976 372.503 376.26 373.333 376.506 374.411C376.752 375.489 376.89 376.405 376.759 376.448Z" fill="#263238"/>
<path d="M380.308 375.058C380.201 375.058 379.963 374.282 379.786 373.236C379.609 372.191 379.54 371.329 379.648 371.286C379.755 371.243 379.994 372.062 380.17 373.107C380.347 374.153 380.416 374.993 380.308 375.058Z" fill="#263238"/>
<path d="M383.865 373.269C383.758 373.269 383.52 372.643 383.335 371.781C383.151 370.919 383.09 370.186 383.197 370.132C383.305 370.079 383.535 370.757 383.719 371.62C383.904 372.482 383.965 373.225 383.865 373.269Z" fill="#263238"/>
<path d="M403.102 369.141C403.01 369.217 402.603 368.505 402.334 367.46C402.065 366.415 402.019 365.509 402.119 365.488C402.219 365.466 402.441 366.274 402.71 367.266C402.979 368.257 403.202 369.055 403.102 369.141Z" fill="#263238"/>
<path d="M405.776 367.007C405.676 367.083 405.353 366.458 405.053 365.628C404.754 364.798 404.593 364.065 404.692 363.99C404.792 363.914 405.115 364.539 405.415 365.369C405.714 366.199 405.875 366.942 405.776 367.007Z" fill="#263238"/>
<path d="M382.421 334.892C382.421 334.892 382.483 335.075 382.49 335.377H382.283C382.158 334.531 382.076 333.674 382.037 332.812C381.908 331.796 381.908 330.756 382.037 329.74C382.298 330.707 382.429 331.734 382.421 332.769C382.48 333.628 382.498 334.492 382.475 335.355H382.267C382.337 335.053 382.383 334.881 382.421 334.892Z" fill="#263238"/>
<path d="M385.617 334.891C385.384 334.099 385.271 333.248 385.287 332.391C385.173 331.55 385.196 330.684 385.356 329.858C385.589 330.65 385.702 331.502 385.686 332.359C385.8 333.199 385.777 334.065 385.617 334.891V334.891Z" fill="#263238"/>
<path d="M388.966 335.904C388.756 334.928 388.678 333.904 388.736 332.887C388.663 331.871 388.72 330.846 388.905 329.858C389.116 330.835 389.194 331.859 389.135 332.876C389.208 333.892 389.151 334.917 388.966 335.904V335.904Z" fill="#263238"/>
<path d="M391.702 335.269C391.507 334.439 391.439 333.562 391.502 332.693C391.44 331.821 391.508 330.94 391.702 330.106C391.905 330.937 391.975 331.82 391.909 332.693C391.976 333.562 391.905 334.442 391.702 335.269V335.269Z" fill="#263238"/>
<path d="M409.409 411.139C409.409 411.29 402.733 410.784 394.513 409.997C386.293 409.21 379.64 408.445 379.648 408.294C379.655 408.143 386.324 408.65 394.544 409.436C402.764 410.223 409.417 410.988 409.409 411.139Z" fill="#263238"/>
<path d="M374.862 377.73L378.157 392.818C378.736 395.57 379.843 398.046 381.358 399.973C382.873 401.901 384.738 403.206 386.746 403.746L407.228 409.21L412.797 408.952L410.907 402.28L391.832 391.697C391.097 391.456 390.422 390.938 389.881 390.2C389.339 389.461 388.952 388.53 388.759 387.505L385.878 372.363L374.862 377.73Z" fill="#FFBE9D"/>
<path d="M392.969 409.404L393.146 407.54L408.879 406.678L416.6 379.358L446.016 382.16L436.09 412.487L392.969 409.404Z" fill="#455A64"/>
<path d="M428.177 397.075C428.015 397.435 427.78 397.72 427.502 397.892C427.224 398.065 426.916 398.119 426.617 398.046C426.317 397.973 426.04 397.777 425.82 397.483C425.6 397.189 425.447 396.81 425.38 396.394C425.314 395.979 425.336 395.544 425.446 395.147C425.555 394.749 425.746 394.405 425.994 394.16C426.243 393.914 426.538 393.778 426.841 393.767C427.145 393.757 427.444 393.873 427.701 394.101C427.872 394.252 428.019 394.449 428.135 394.681C428.252 394.912 428.334 395.173 428.378 395.45C428.423 395.726 428.428 396.012 428.393 396.29C428.359 396.569 428.285 396.836 428.177 397.075V397.075Z" fill="white"/>
<path d="M179.322 213.219C192.144 206.688 185.56 179.562 185.56 179.562L120.49 187.925C119.282 187.916 118.084 188.243 116.966 188.886C115.848 189.529 114.831 190.475 113.975 191.671C113.118 192.867 112.438 194.288 111.974 195.854C111.51 197.419 111.272 199.098 111.272 200.793C111.272 204.206 112.238 207.479 113.958 209.892C115.678 212.305 118.012 213.661 120.444 213.661L179.337 213.219" fill="#263238"/>
<path d="M95.5304 288.335L95.3998 279.282L107.776 273.107L108.291 285.716L107.592 286.19C104.519 288.249 91.6892 296.353 89.3 296.666C86.6342 297 95.5304 288.335 95.5304 288.335Z" fill="#E4A126"/>
<g opacity="0.4">
<path opacity="0.4" d="M91.2514 292.807C91.2514 292.807 88.2245 296.148 88.8852 296.698C89.5459 297.248 102.713 289.736 108.291 285.716L108.168 285.36L92.88 294.305C92.88 294.305 91.9351 292.462 91.2514 292.807Z" fill="white"/>
</g>
<path d="M108.345 285.252L108.153 285.393L107.599 285.77L105.571 287.085C103.827 288.162 101.407 289.66 98.7109 291.201C96.0144 292.743 93.5407 294.079 91.7507 294.995L89.6227 296.073L89.0388 296.353L88.8314 296.428L89.0311 296.31L89.5996 295.997L91.7123 294.855C93.4946 293.896 95.9529 292.559 98.6264 291.007C101.3 289.456 103.751 288.011 105.541 286.955L107.615 285.694L108.176 285.36C108.229 285.316 108.286 285.28 108.345 285.252V285.252Z" fill="#263238"/>
<path d="M92.9568 294.554C92.7279 294.129 92.4707 293.735 92.1885 293.379C91.8603 293.085 91.5099 292.843 91.1437 292.657C91.5511 292.678 91.9446 292.87 92.2734 293.208C92.6021 293.546 92.8509 294.015 92.9875 294.554H92.9568Z" fill="#263238"/>
<path d="M95.6533 290.199C95.6533 290.199 95.3844 290.059 95.1079 289.79C94.8313 289.52 94.6239 289.251 94.6546 289.197C94.6853 289.143 94.9158 289.337 95.1924 289.617C95.4689 289.897 95.6764 290.145 95.6533 290.199Z" fill="#263238"/>
<path d="M96.3524 288.971C96.3524 289.025 96.1066 288.971 95.8377 288.82C95.5688 288.669 95.3537 288.529 95.3691 288.475C95.3844 288.421 95.6149 288.475 95.8838 288.626C96.1527 288.777 96.3985 288.917 96.3524 288.971Z" fill="#263238"/>
<path d="M96.5291 287.106C96.5291 287.16 96.291 287.365 95.9607 287.559C95.7664 287.708 95.5515 287.796 95.3307 287.818C95.3307 287.764 95.5688 287.559 95.8992 287.365C96.0934 287.216 96.3083 287.128 96.5291 287.106Z" fill="#263238"/>
<path d="M96.4215 285.921C96.2738 286.216 96.0683 286.444 95.83 286.578C95.6124 286.771 95.3569 286.861 95.1002 286.837C95.311 286.66 95.532 286.509 95.7609 286.384C95.9706 286.202 96.1918 286.047 96.4215 285.921V285.921Z" fill="#263238"/>
<path d="M94.8159 289.014C94.5794 289.214 94.3192 289.352 94.0477 289.423C93.7668 289.534 93.4784 289.602 93.1873 289.628C93.0137 289.655 92.8385 289.655 92.6649 289.628C92.5535 289.612 92.4513 289.534 92.3806 289.412C92.3503 289.339 92.3343 289.255 92.3343 289.17C92.3343 289.085 92.3503 289.001 92.3806 288.928C92.6081 288.573 92.9159 288.34 93.2519 288.267C93.5878 288.195 93.9314 288.287 94.2244 288.529C94.3989 288.67 94.5506 288.861 94.67 289.089C94.7468 289.251 94.7775 289.348 94.7699 289.359C94.6028 289.075 94.3996 288.837 94.1706 288.658C93.9337 288.488 93.6678 288.413 93.4024 288.443C93.2394 288.457 93.0801 288.518 92.9338 288.619C92.7874 288.721 92.6568 288.862 92.5496 289.035C92.4651 289.229 92.5496 289.391 92.7263 289.423C92.8897 289.45 93.0547 289.45 93.218 289.423C93.5019 289.401 93.7843 289.351 94.0631 289.272C94.5548 289.143 94.8159 288.981 94.8159 289.014Z" fill="#263238"/>
<path d="M94.67 289.176C94.5195 289.004 94.4163 288.764 94.378 288.497C94.327 288.21 94.327 287.91 94.378 287.624C94.3916 287.432 94.4415 287.249 94.5225 287.094C94.6036 286.938 94.7129 286.816 94.839 286.74C94.9213 286.721 95.0057 286.747 95.0744 286.814C95.1432 286.88 95.191 286.981 95.2077 287.096C95.2345 287.273 95.2345 287.457 95.2077 287.634C95.174 287.916 95.1173 288.191 95.0387 288.454C94.9789 288.707 94.8761 288.936 94.7391 289.122C94.7391 289.122 94.8313 288.852 94.9388 288.4C95.0045 288.142 95.0483 287.874 95.0694 287.602C95.1079 287.322 95.0694 286.891 94.862 286.956C94.6546 287.02 94.5547 287.397 94.5009 287.667C94.4589 287.929 94.4589 288.202 94.5009 288.464C94.5424 288.708 94.599 288.946 94.67 289.176V289.176Z" fill="#263238"/>
<path d="M106.824 280.963C106.824 280.963 106.486 281.104 105.986 281.491C105.338 281.984 104.802 282.724 104.442 283.626C104.081 284.529 103.911 285.556 103.95 286.589C103.95 287.376 104.089 287.861 104.066 287.872C104.022 287.767 103.989 287.654 103.966 287.538C103.902 287.232 103.86 286.918 103.843 286.6C103.772 285.531 103.934 284.458 104.309 283.522C104.683 282.586 105.252 281.833 105.94 281.362C106.142 281.212 106.356 281.097 106.578 281.017C106.657 280.981 106.74 280.963 106.824 280.963Z" fill="#263238"/>
<path d="M103.681 274.917C104.079 275.965 104.433 277.045 104.742 278.151C105.098 279.236 105.406 280.352 105.663 281.491C105.264 280.444 104.91 279.365 104.603 278.258C104.251 277.17 103.944 276.055 103.681 274.917V274.917Z" fill="#263238"/>
<path d="M102.168 287.225C101.667 287.713 101.125 288.115 100.555 288.421C99.9987 288.778 99.4128 289.035 98.8108 289.186C98.8108 289.132 99.579 288.766 100.493 288.216C101.407 287.667 102.145 287.171 102.168 287.225Z" fill="#263238"/>
<path d="M104.427 285.932C104.465 285.932 104.427 286.19 104.427 286.471C104.427 286.751 104.427 286.999 104.427 287.02C104.427 287.042 104.288 286.794 104.296 286.46C104.304 286.126 104.388 285.899 104.427 285.932Z" fill="#263238"/>
<path d="M104.841 283.959C104.841 283.959 104.841 284.186 104.788 284.423C104.734 284.66 104.626 284.843 104.588 284.821C104.55 284.8 104.588 284.584 104.649 284.347C104.711 284.11 104.803 283.938 104.841 283.959Z" fill="#263238"/>
<path d="M105.863 282.58C105.863 282.645 105.717 282.731 105.571 282.903C105.425 283.076 105.341 283.281 105.302 283.259C105.264 283.237 105.302 282.968 105.471 282.752C105.64 282.537 105.863 282.526 105.863 282.58Z" fill="#263238"/>
<path d="M106.639 281.772C106.639 281.772 106.639 281.934 106.539 282.041C106.439 282.149 106.37 282.192 106.347 282.149C106.324 282.106 106.347 281.987 106.439 281.88C106.532 281.772 106.608 281.729 106.639 281.772Z" fill="#263238"/>
<path d="M145.205 186.696L108.867 187.655C106.057 187.727 103.36 189.221 101.272 191.86C99.1848 194.5 97.8468 198.108 97.5048 202.021L90.2987 284.175H110.035L116.058 213.219H144.751L145.205 186.696Z" fill="#263238"/>
<path d="M90.5446 278.948C90.5446 279.077 94.8697 279.228 100.201 279.271C105.533 279.314 109.766 279.131 109.858 279.12C110.473 279.034 105.533 278.84 100.201 278.797C94.8697 278.754 90.5446 278.819 90.5446 278.948Z" fill="#455A64"/>
<path d="M165.194 184.11H164.48L162.421 184.239L154.908 184.735L130.155 186.524C128.941 186.599 127.75 186.739 126.575 186.761C125.4 186.783 124.224 186.858 123.079 186.944C121.935 187.03 120.821 187.149 119.722 187.311C118.634 187.402 117.559 187.696 116.526 188.184C115.544 188.676 114.642 189.442 113.876 190.436C113.162 191.399 112.611 192.574 112.263 193.874C111.943 195.07 111.724 196.314 111.61 197.581C111.488 198.744 111.429 199.919 111.433 201.095C111.409 203.125 111.697 205.14 112.278 207C112.724 208.406 113.403 209.64 114.26 210.6C114.796 211.206 115.409 211.667 116.065 211.958C116.519 212.141 116.526 212.087 116.065 211.872C115.427 211.548 114.834 211.07 114.314 210.46C113.494 209.496 112.844 208.279 112.416 206.903C111.871 205.065 111.609 203.085 111.648 201.095C111.654 199.936 111.718 198.78 111.84 197.635C111.963 196.397 112.185 195.183 112.501 194.014C112.839 192.792 113.363 191.689 114.037 190.781C114.781 189.829 115.654 189.096 116.603 188.625C117.614 188.168 118.662 187.889 119.722 187.796C120.813 187.645 121.935 187.537 123.072 187.451C124.209 187.365 125.376 187.3 126.544 187.278C127.712 187.257 128.918 187.117 130.132 187.041L154.908 185.101L162.421 184.455L164.457 184.261L164.987 184.196C165.059 184.186 165.13 184.157 165.194 184.11Z" fill="#455A64"/>
<path d="M153.617 150.033L150.459 163.914C149.855 166.738 148.707 169.274 147.142 171.242C145.576 173.21 143.654 174.534 141.586 175.068L123.241 182.203L121.812 177.439L120.475 170.402L136.347 162.858C137.112 162.623 137.817 162.097 138.382 161.336C138.947 160.575 139.352 159.61 139.55 158.547L145.873 139.256L153.878 146.142L153.617 150.033Z" fill="#B78876"/>
<path d="M161.315 106.644C154.593 107.722 152.426 111.58 149.684 117.152C148.544 119.46 147.629 121.972 146.964 124.62L141.871 144.86L152.495 149.461L152.142 165.918L147.302 186.039L188.118 190.544L188.003 161.305L187.711 143.663C188.095 136.982 189.086 122.82 188.241 119.458C184.608 105.092 176.595 107.851 170.718 105.803C168.026 105.415 165.313 105.415 162.621 105.803" fill="#E4A126"/>
<path d="M188.118 159.452C188.118 159.603 180.136 159.732 170.288 159.732C160.439 159.732 152.434 159.635 152.434 159.452C152.434 159.269 160.416 159.172 170.265 159.172C180.113 159.172 188.118 159.323 188.118 159.452Z" fill="#FAFAFA"/>
<path d="M187.519 169.475C187.519 169.636 179.537 169.755 169.688 169.755C159.84 169.755 151.858 169.636 151.858 169.475C151.858 169.313 159.84 169.194 169.688 169.194C179.537 169.194 187.519 169.324 187.519 169.475Z" fill="#FAFAFA"/>
<path d="M187.711 180.941C187.711 181.103 179.261 181.222 168.859 181.222C158.457 181.222 149.998 181.103 149.998 180.941C149.998 180.78 158.449 180.661 168.859 180.661C179.268 180.661 187.711 180.79 187.711 180.941Z" fill="#FAFAFA"/>
<g opacity="0.3">
<path opacity="0.3" d="M182.756 153.093C182.226 156.962 181.988 161.144 181.051 164.862C180.431 167.639 179.511 170.267 178.323 172.654C176.55 175.759 174.135 178.018 171.409 179.12C168.713 180.295 155.753 184.358 152.972 184.056L176.679 168.31L179.537 151.757L182.756 153.093Z" fill="black"/>
</g>
<path d="M181.373 152.511L178.769 166.586C178.261 169.471 177.197 172.103 175.693 174.195C174.188 176.286 172.302 177.755 170.242 178.441L149.315 185.317L143.561 185.403V174.292L164.626 166.306C165.383 166.021 166.069 165.45 166.611 164.656C167.153 163.862 167.529 162.874 167.699 161.801L169.727 149.418L181.373 152.511Z" fill="#B78876"/>
<path d="M188.326 118.639C188.326 118.79 179.53 118.919 168.674 118.919C157.819 118.919 149.023 118.79 149.023 118.639C149.023 118.488 157.819 118.359 168.674 118.359C179.53 118.359 188.326 118.499 188.326 118.639Z" fill="#FAFAFA"/>
<path d="M188.541 128.198C188.541 128.36 179.061 128.478 167.361 128.478C155.66 128.478 146.18 128.36 146.18 128.198C146.18 128.037 155.66 127.918 167.361 127.918C179.061 127.918 188.541 128.026 188.541 128.198Z" fill="#FAFAFA"/>
<path d="M188.026 138.491C188.026 138.652 178.039 138.889 165.747 139.019C153.456 139.148 143.468 139.137 143.468 139.019C143.468 138.9 153.456 138.631 165.747 138.491C178.039 138.35 188.019 138.34 188.026 138.491Z" fill="#FAFAFA"/>
<path d="M187.711 149.418C187.711 149.569 179.729 149.699 169.88 149.699C160.032 149.699 152.05 149.569 152.05 149.418C152.05 149.268 160.032 149.138 169.88 149.138C179.729 149.138 187.711 149.268 187.711 149.418Z" fill="#FAFAFA"/>
<path d="M184.961 153.686C184.949 153.608 184.949 153.527 184.961 153.449L185.03 152.77C185.099 152.134 185.199 151.261 185.314 150.162C185.568 147.877 185.937 144.569 186.344 140.462C186.751 136.356 187.22 131.334 187.458 125.709C187.535 122.917 187.704 119.835 186.69 117.087C186.189 115.706 185.446 114.527 184.531 113.66C183.582 112.766 182.504 112.181 181.373 111.946H181.327C180.034 111.514 178.678 111.646 177.44 112.324C176.131 112.915 174.911 113.843 173.845 115.061C173.63 115.312 173.444 115.606 173.291 115.934C173.142 116.282 173.006 116.642 172.884 117.012C172.649 117.745 172.451 118.501 172.293 119.275C171.997 120.818 171.761 122.383 171.586 123.963C171.186 127.077 170.818 130.116 170.426 133.037C169.658 138.878 168.989 144.267 168.375 149.041L168.26 148.793L180.09 152.274L183.34 153.287L184.193 153.567C184.29 153.593 184.385 153.633 184.477 153.686L184.177 153.632L183.325 153.416L180.052 152.522L168.19 149.16H168.052V148.944C168.651 144.17 169.32 138.77 170.049 132.919C170.418 129.998 170.818 126.959 171.194 123.833C171.368 122.238 171.606 120.659 171.909 119.102C172.066 118.298 172.269 117.512 172.516 116.753C172.646 116.384 172.79 116.024 172.946 115.675C173.12 115.306 173.329 114.972 173.568 114.684C174.678 113.414 175.947 112.445 177.309 111.828C178.629 111.12 180.071 110.996 181.442 111.472H181.404C182.599 111.72 183.738 112.343 184.738 113.293C185.714 114.21 186.507 115.46 187.043 116.925C187.296 117.631 187.497 118.371 187.642 119.135C187.766 119.882 187.846 120.643 187.88 121.409L187.926 122.486C187.926 122.853 187.926 123.219 187.926 123.564C187.926 124.297 187.888 125.008 187.857 125.719C187.596 131.377 187.089 136.356 186.659 140.506C186.229 144.655 185.806 147.953 185.514 150.205C185.368 151.283 185.245 152.166 185.161 152.802L185.061 153.47C185.033 153.546 184.999 153.619 184.961 153.686Z" fill="#263238"/>
<path d="M152.38 165.692C152.425 165.195 152.443 164.694 152.434 164.194C152.434 163.116 152.434 161.769 152.434 160.099C152.434 156.65 152.434 151.886 152.365 146.616C152.296 141.346 152.265 136.583 152.203 133.134C152.165 131.464 152.134 130.095 152.111 129.039C152.112 128.538 152.087 128.037 152.034 127.541C151.984 128.037 151.966 128.538 151.981 129.039C151.981 130.117 151.981 131.464 151.981 133.134C151.981 136.583 151.981 141.357 152.05 146.616C152.119 151.876 152.157 156.661 152.219 160.109C152.219 161.769 152.288 163.148 152.311 164.194C152.302 164.695 152.325 165.197 152.38 165.692V165.692Z" fill="#263238"/>
<path d="M165.194 187.774L165.555 185.371L149.707 183L142.792 155.141L110.511 154.829L121.09 187.138L165.194 187.774Z" fill="#455A64"/>
<path d="M131.2 172.643C131.465 172.406 131.674 172.065 131.801 171.661C131.928 171.258 131.967 170.811 131.913 170.376C131.859 169.942 131.714 169.54 131.497 169.221C131.28 168.902 131 168.68 130.694 168.584C130.387 168.487 130.067 168.521 129.773 168.68C129.48 168.839 129.227 169.116 129.046 169.476C128.865 169.837 128.764 170.265 128.757 170.706C128.749 171.147 128.834 171.581 129.003 171.953C129.114 172.201 129.26 172.416 129.431 172.585C129.602 172.754 129.795 172.874 129.999 172.938C130.203 173.002 130.414 173.009 130.62 172.958C130.826 172.908 131.023 172.801 131.2 172.643" fill="white"/>
<path d="M153.202 60.7447C152.332 60.9365 151.525 61.4996 150.891 62.3575C150.257 63.2153 149.827 64.3263 149.659 65.5392C149.491 66.7521 149.594 68.0081 149.953 69.1364C150.312 70.2647 150.91 71.2105 151.666 71.8451C151.977 72.1471 152.338 72.3366 152.714 72.3968C153.091 72.4569 153.472 72.3859 153.824 72.19C154.122 71.9237 154.378 71.5768 154.579 71.1697C154.779 70.7625 154.92 70.3033 154.992 69.819C155.66 66.7527 155.476 63.4455 154.477 60.5615" fill="#263238"/>
<path d="M166.485 115.751C165.572 115.751 164.669 115.497 163.826 115.005C162.984 114.513 162.219 113.792 161.577 112.883C160.934 111.974 160.426 110.896 160.082 109.711C159.737 108.525 159.564 107.256 159.571 105.976C159.571 102.624 159.632 99.7143 159.632 99.7143C159.632 99.7143 154.101 98.9922 153.694 91.3082C153.287 83.6241 153.463 65.885 153.463 65.885C156.498 63.7414 159.885 62.7712 163.275 63.0743C166.666 63.3774 169.938 64.9428 172.754 67.6094L173.599 68.4177L173.338 106.137C173.322 108.68 172.594 111.112 171.313 112.91C170.031 114.708 168.297 115.728 166.485 115.751V115.751Z" fill="#B78876"/>
<path d="M159.648 99.607C162.182 99.4563 164.627 98.248 166.669 96.1367C166.669 96.1367 165.225 101.816 159.755 101.601L159.648 99.607Z" fill="#AA6550"/>
<path d="M172.216 76.9102C172.323 76.9102 175.688 76.242 175.366 81.8245C175.043 87.407 171.14 85.0576 171.14 84.9391C171.14 84.8205 172.216 76.9102 172.216 76.9102Z" fill="#B78876"/>
<path d="M172.469 83.1176C172.469 83.1176 172.539 83.1931 172.654 83.2901C172.813 83.4052 172.997 83.4285 173.168 83.3547C173.438 83.157 173.665 82.862 173.825 82.5001C173.986 82.1381 174.075 81.7226 174.083 81.2963C174.121 80.816 174.081 80.3299 173.967 79.8737C173.942 79.6952 173.886 79.5285 173.802 79.389C173.719 79.2496 173.612 79.142 173.491 79.0762C173.414 79.0356 173.329 79.035 173.252 79.0745C173.174 79.114 173.109 79.1911 173.069 79.2918C173.007 79.4427 173.023 79.5612 172.999 79.572C172.976 79.5827 172.923 79.4642 172.999 79.2379C173.03 79.1019 173.092 78.9842 173.176 78.9038C173.234 78.852 173.298 78.8167 173.365 78.8001C173.432 78.7834 173.501 78.7857 173.568 78.8068C173.728 78.8709 173.874 78.9918 173.991 79.158C174.108 79.3241 174.192 79.5298 174.236 79.7552C174.383 80.2526 174.435 80.7944 174.39 81.3286C174.381 81.8268 174.268 82.3103 174.064 82.7186C173.861 83.127 173.576 83.4419 173.245 83.6241C173.135 83.6548 173.022 83.6514 172.913 83.6142C172.805 83.5769 172.703 83.5068 172.615 83.4086C172.469 83.2577 172.454 83.1284 172.469 83.1176Z" fill="#AA6550"/>
<path d="M157.274 69.0644C158.195 68.317 159.06 67.4395 159.855 66.4455C160.188 67.1818 160.633 67.8049 161.159 68.2696C161.685 68.7343 162.278 69.0289 162.895 69.1321C163.512 69.2353 164.138 69.1445 164.727 68.8662C165.316 68.5879 165.854 68.1292 166.301 67.5233C166.324 68.0216 166.435 68.504 166.624 68.9273C166.813 69.3505 167.074 69.7012 167.384 69.9481C167.696 70.1867 168.046 70.3118 168.402 70.3118C168.757 70.3118 169.107 70.1867 169.42 69.9481L169.504 78.8392C169.448 79.6969 169.588 80.5574 169.904 81.2964C169.988 81.465 170.098 81.6055 170.226 81.7082C170.353 81.8109 170.495 81.8731 170.641 81.8906C170.788 81.908 170.935 81.8803 171.073 81.8093C171.211 81.7383 171.336 81.6257 171.44 81.4796C171.304 80.3943 171.378 79.2777 171.655 78.2464C171.807 77.7446 172.089 77.3422 172.444 77.1203C172.799 76.8983 173.2 76.8733 173.568 77.0502C173.792 75.3159 173.866 73.5502 173.791 71.791C173.775 71.2472 173.827 70.7038 173.945 70.1852C174.16 69.6894 174.259 70.0666 174.667 69.9481C175.247 69.7429 175.766 69.2851 176.15 68.6405C176.534 67.9958 176.762 67.1972 176.802 66.3593C176.825 65.5175 176.696 64.6813 176.428 63.9278C176.159 63.1743 175.76 62.528 175.266 62.0485C174.273 61.0949 173.064 60.6882 171.87 60.9061C172.227 60.35 172.425 59.6283 172.425 58.88C172.425 58.1318 172.227 57.4101 171.87 56.854C171.5 56.316 171.048 55.9026 170.548 55.645C170.047 55.3874 169.512 55.2923 168.982 55.3667C167.914 55.4637 166.715 56.2935 166.585 57.77C166.453 56.3164 165.954 54.977 165.18 53.9935C164.405 53.0101 163.406 52.4474 162.362 52.4071C161.317 52.3668 160.297 52.8514 159.485 53.7736C158.674 54.6958 158.123 55.9947 157.934 57.4359C156.659 56.6384 154.861 55.7655 153.602 56.5737C152.86 56.9865 152.219 57.6875 151.752 58.5943C151.285 59.5012 151.013 60.5762 150.966 61.6929C150.966 61.6929 150.644 67.7927 153.402 69.0213C156.16 70.2499 157.274 69.0644 157.274 69.0644Z" fill="#263238"/>
<path d="M154.938 78.1926C154.938 78.4784 155.019 78.7525 155.163 78.9547C155.307 79.1568 155.503 79.2703 155.706 79.2703C155.898 79.2716 156.082 79.173 156.224 78.9937C156.366 78.8143 156.456 78.5671 156.475 78.3004C156.475 78.0145 156.394 77.7404 156.25 77.5383C156.106 77.3362 155.91 77.2227 155.706 77.2227C155.515 77.2213 155.331 77.32 155.189 77.4993C155.047 77.6787 154.957 77.9258 154.938 78.1926Z" fill="#263238"/>
<path d="M154.738 76.9749C154.831 77.115 155.415 76.5115 156.275 76.5223C157.135 76.533 157.704 77.1042 157.811 76.9641C157.919 76.824 157.758 76.6408 157.496 76.3714C157.137 76.0246 156.711 75.8403 156.275 75.8433C155.844 75.844 155.424 76.0364 155.077 76.3929C154.808 76.6624 154.738 76.921 154.738 76.9749Z" fill="#263238"/>
<path d="M163.035 78.4621C163.035 78.748 163.116 79.0221 163.26 79.2242C163.405 79.4263 163.6 79.5399 163.804 79.5399C163.995 79.5412 164.179 79.4426 164.321 79.2632C164.464 79.0839 164.553 78.8367 164.572 78.5699C164.572 78.2841 164.491 78.01 164.347 77.8079C164.203 77.6057 164.007 77.4922 163.804 77.4922C163.613 77.4909 163.428 77.5895 163.286 77.7688C163.144 77.9482 163.055 78.1954 163.035 78.4621Z" fill="#263238"/>
<path d="M162.897 77.1902C162.989 77.3411 163.573 76.7268 164.434 76.7376C165.294 76.7484 165.863 77.3195 165.97 77.1794C166.078 77.0393 165.916 76.8561 165.655 76.5867C165.296 76.2399 164.87 76.0556 164.434 76.0586C164.003 76.0593 163.583 76.2517 163.235 76.6083C162.936 76.8777 162.851 77.1363 162.897 77.1902Z" fill="#263238"/>
<path d="M159.893 85.8013C159.46 85.6075 159.011 85.4916 158.557 85.4564C158.342 85.4564 158.142 85.3702 158.103 85.1655C158.087 84.8603 158.138 84.5555 158.249 84.2925L158.872 82.0293C159.451 80.1195 159.921 78.1483 160.278 76.1343C159.587 77.9728 159.004 79.8866 158.534 81.8569C158.326 82.6544 158.126 83.4088 157.942 84.1309C157.805 84.4868 157.764 84.9 157.827 85.2948C157.859 85.397 157.907 85.4883 157.967 85.5627C158.026 85.637 158.096 85.6926 158.173 85.7259C158.29 85.7707 158.412 85.7925 158.534 85.7905C158.985 85.872 159.442 85.8756 159.893 85.8013V85.8013Z" fill="#263238"/>
<path d="M162.329 86.5989C162.198 86.5989 162.19 87.849 161.422 88.7543C160.654 89.6596 159.701 89.5087 159.694 89.6811C159.686 89.8536 159.909 89.929 160.308 89.9398C160.834 89.9562 161.346 89.7077 161.753 89.2393C162.145 88.7894 162.398 88.1447 162.459 87.4395C162.49 86.9007 162.421 86.5881 162.329 86.5989Z" fill="#263238"/>
<path d="M162.682 72.6532C162.767 72.9658 163.589 72.8149 164.557 72.9766C165.525 73.1382 166.316 73.5154 166.446 73.2352C166.577 72.955 166.362 72.8041 166.047 72.4916C165.626 72.1124 165.147 71.8796 164.649 71.8126C164.153 71.7231 163.65 71.8045 163.181 72.0497C162.828 72.2545 162.651 72.5024 162.682 72.6532Z" fill="#263238"/>
<path d="M155.077 73.6232C155.222 73.8819 155.791 73.6232 156.475 73.6232C157.158 73.6232 157.735 73.7956 157.873 73.5262C158.011 73.2568 157.873 73.1275 157.589 72.8796C157.247 72.581 156.851 72.4309 156.449 72.4481C156.047 72.4654 155.658 72.6493 155.33 72.9766C155.092 73.2352 155.007 73.4939 155.077 73.6232Z" fill="#263238"/>
<path d="M156.644 60.378C156.644 60.378 156.567 60.378 156.429 60.2918C156.329 60.2668 156.227 60.2721 156.129 60.3075C156.03 60.3428 155.939 60.4073 155.86 60.4966C155.739 60.6321 155.65 60.8158 155.605 61.0235C155.56 61.2312 155.56 61.4532 155.607 61.6605C155.664 61.9462 155.768 62.2091 155.911 62.4281C156.053 62.6471 156.231 62.8161 156.429 62.9214C156.667 63.0512 156.922 63.1069 157.176 63.0845C157.431 63.0622 157.679 62.9624 157.904 62.7921C158.155 62.5836 158.367 62.2939 158.522 61.947C158.677 61.6002 158.771 61.2063 158.795 60.7983C158.826 60.3445 158.779 59.8867 158.659 59.4631C158.539 59.0395 158.348 58.6623 158.103 58.3627C157.845 58.0295 157.538 57.7789 157.204 57.6282C156.87 57.4774 156.516 57.4302 156.167 57.4897C155.451 57.6135 154.787 58.0775 154.285 58.8046C153.824 59.4899 153.512 60.3463 153.386 61.2725C153.157 62.8788 153.356 64.5475 153.947 65.9605C154.329 66.9231 154.853 67.7607 155.484 68.4177C155.937 68.8703 156.252 69.0643 156.252 69.1074C155.961 69.0082 155.685 68.8367 155.438 68.6009C154.732 67.9921 154.14 67.1574 153.709 66.1653C153.045 64.68 152.804 62.8988 153.033 61.1755C153.162 60.1411 153.504 59.1822 154.016 58.4166C154.575 57.592 155.323 57.0693 156.129 56.9401C156.534 56.8704 156.945 56.9248 157.334 57.0997C157.723 57.2746 158.079 57.5658 158.38 57.9532C158.663 58.316 158.88 58.7682 159.014 59.2723C159.148 59.7765 159.194 60.3181 159.148 60.8522C159.114 61.3392 158.996 61.8073 158.805 62.2164C158.614 62.6256 158.354 62.9636 158.05 63.2016C157.78 63.3952 157.483 63.5032 157.181 63.5181C156.878 63.533 156.577 63.4544 156.298 63.2878C156.066 63.1545 155.86 62.9433 155.699 62.6728C155.539 62.4022 155.428 62.0806 155.376 61.7359C155.328 61.4722 155.34 61.1941 155.408 60.9396C155.477 60.6851 155.6 60.4665 155.76 60.3133C155.858 60.2184 155.969 60.1563 156.087 60.132C156.204 60.1077 156.324 60.1218 156.436 60.1732C156.605 60.3026 156.651 60.3672 156.644 60.378Z" fill="#455A64"/>
<path d="M303.352 14.0625L303.363 14.9844C303.369 15.4914 304.726 32.2789 306.379 52.2898L309.385 88.6734L322.893 92.7668C330.323 95.0181 336.556 96.8715 336.743 96.8857C336.93 96.8999 343.245 95.0652 350.775 92.8086C362.849 89.1905 364.479 88.6456 364.565 88.1977C364.686 87.5738 370.598 15.3879 370.592 14.6156L370.588 14.0625H336.97H303.352Z" fill="white"/>
<path d="M323 93.0114L309.372 88.8884L309.193 87.7975C309.035 86.8277 303.125 15.3868 303.125 14.4429C303.125 14.1013 306.576 14.0625 336.97 14.0625C369.053 14.0625 370.815 14.0849 370.813 14.4927C370.802 16.2541 364.684 88.6409 364.534 88.785C364.344 88.9671 337.965 96.9207 337.084 97.0617C336.834 97.1016 330.496 95.279 323 93.0114ZM345.564 78.4433C350.145 77.076 353.959 75.8868 354.039 75.8006C354.12 75.7144 354.656 69.8361 355.231 62.7377C355.805 55.6392 356.333 49.3612 356.404 48.7866L356.533 47.7418H346.638H336.743V52.2897V56.8376H342.085H347.428L347.321 57.3908C347.263 57.695 347.036 60.3093 346.816 63.2004C346.584 66.2637 346.309 68.5749 346.156 68.7399C346.012 68.8955 343.836 69.6169 341.319 70.3429L336.743 71.6629V76.2961C336.743 79.4585 336.821 80.9294 336.989 80.9294C337.124 80.9294 340.983 79.8106 345.564 78.4433V78.4433ZM356.402 42.0261C356.252 40.8215 354.915 24.6648 354.915 24.0556C354.915 23.6856 354.128 23.65 345.942 23.65H336.97V28.4058V33.1615L341.002 33.3297C343.219 33.4222 345.553 33.563 346.188 33.6425L347.342 33.7872L347.622 37.5072C347.777 39.5532 347.96 41.642 348.031 42.149L348.158 43.0709H352.346H356.533L356.402 42.0261Z" fill="#EAEBEC"/>
<path d="M322.893 92.7665L309.385 88.6731L306.379 52.2897C304.726 32.2788 303.369 15.4914 303.363 14.9844L303.352 14.0625H336.97H370.588L370.592 14.6156C370.598 15.3879 364.686 87.5737 364.565 88.1977C364.479 88.6455 362.849 89.1905 350.775 92.8086C343.245 95.0652 336.93 96.8999 336.743 96.8857C336.555 96.8714 330.323 95.0178 322.893 92.7665H322.893ZM345.574 78.6171C350.244 77.2121 354.131 75.9464 354.212 75.8046C354.293 75.6627 354.851 69.4842 355.451 62.0744C356.052 54.6647 356.593 48.4086 356.653 48.172C356.756 47.7655 355.962 47.7418 342.255 47.7418H327.748L328.366 40.674C328.706 36.7868 328.992 33.5962 329.002 33.5839C329.012 33.5716 331.141 33.4981 333.733 33.4206C337.984 33.2935 346.75 33.6605 347.043 33.9778C347.152 34.0964 347.873 41.7493 347.873 42.794C347.873 43.3091 347.937 43.3168 352.275 43.3168H356.676L356.572 42.272C356.515 41.6973 356.142 37.2446 355.744 32.3771L355.019 23.5271L338.044 23.4641C324.54 23.4139 321.069 23.4642 321.068 23.7099C321.067 23.8798 320.968 24.9591 320.848 26.1084C320.558 28.8894 318.344 55.7601 318.344 56.5022V57.0835H332.788H347.232L347.103 58.0053C347.032 58.5124 346.807 61.0844 346.604 63.721C346.4 66.3575 346.168 68.5828 346.088 68.6661C345.876 68.886 337.379 71.3427 336.849 71.3372C336.603 71.3347 334.409 70.7421 331.973 70.0204L327.543 68.7082L327.381 66.6448C327.292 65.5099 327.156 63.89 327.079 63.0449L326.939 61.5085H322.642H318.344L318.353 62.4303C318.371 64.1544 319.404 75.7671 319.554 75.9294C319.728 76.1172 336.235 81.139 336.743 81.1587C336.93 81.1659 340.904 80.0222 345.574 78.6171H345.574Z" fill="#F0BE25"/>
<path d="M322.893 92.7665L309.385 88.6731L306.379 52.2897C304.726 32.2788 303.369 15.4914 303.363 14.9844L303.352 14.0625H336.97H370.588L370.592 14.6156C370.598 15.3879 364.686 87.5737 364.565 88.1977C364.479 88.6455 362.849 89.1905 350.775 92.8086C343.245 95.0652 336.93 96.8999 336.743 96.8857C336.555 96.8714 330.323 95.0178 322.893 92.7665H322.893ZM348.085 87.2904C354.028 85.5158 359.001 83.9394 359.138 83.7872C359.35 83.5505 364.482 22.6752 364.462 20.6386L364.455 19.9625H350.712H336.97V21.6834V23.4042H329.02C322.812 23.4042 321.069 23.4715 321.068 23.7115C321.067 23.8805 320.968 24.9591 320.848 26.1084C320.558 28.8894 318.344 55.7601 318.344 56.5022V57.0835H327.657H336.97V64.2126C336.97 69.7546 336.907 71.3408 336.686 71.3372C336.53 71.3346 334.409 70.7421 331.973 70.0204L327.543 68.7082L327.381 66.6448C327.292 65.5099 327.156 63.89 327.079 63.0449L326.939 61.5085H322.642H318.344L318.353 62.4303C318.381 65.0672 319.435 75.8306 319.682 75.996C319.832 76.0964 323.783 77.3252 328.462 78.7265L336.97 81.2744V85.8956C336.97 88.4373 337.04 90.5169 337.126 90.5169C337.211 90.5169 342.143 89.065 348.085 87.2904ZM328.342 40.7401C328.668 36.8892 328.98 33.6948 329.035 33.6416C329.089 33.5883 330.897 33.4919 333.052 33.4274L336.97 33.3101V40.5259V47.7418H332.359H327.748L328.342 40.7401Z" fill="#E4A126"/>
</svg>
