<svg width="320" height="280" viewBox="0 0 320 280" fill="none" xmlns="http://www.w3.org/2000/svg">
<path d="M312.758 181.304L306.445 181.496L303.24 181.572C302.167 181.606 301.089 181.572 300.016 181.613H299.804V181.304L299.775 173.588V173.245H300.016L306.387 173.286C308.514 173.286 310.636 173.362 312.758 173.396H312.893V173.588C312.893 174.895 312.854 176.195 312.83 177.48L312.758 181.304ZM312.758 181.304L312.69 177.419C312.666 176.14 312.638 174.874 312.628 173.609L312.758 173.802C310.636 173.836 308.514 173.912 306.387 173.912L300.016 173.953L300.257 173.609V181.304L300.04 181.001C301.089 181.001 302.138 181.001 303.192 181.036L306.324 181.152L312.758 181.304Z" fill="#A7A7A7"/>
<path d="M305.651 191.006L299.337 191.199L296.128 191.274C295.06 191.274 293.982 191.274 292.909 191.316H292.697V191.006V183.312V182.968H292.938L299.308 183.016C301.431 183.016 303.557 183.092 305.679 183.126H305.814V183.312C305.814 184.618 305.776 185.918 305.752 187.204L305.651 191.006ZM305.651 191.006L305.583 187.121C305.559 185.842 305.53 184.577 305.521 183.312L305.651 183.504C303.529 183.539 301.402 183.614 299.28 183.614L292.909 183.655L293.149 183.312V191.006L292.933 190.704C293.982 190.704 295.031 190.704 296.085 190.738L299.246 190.821L305.651 191.006Z" fill="#A7A7A7"/>
<path d="M319.865 191.006L313.552 191.199L310.347 191.274C309.274 191.274 308.196 191.274 307.123 191.316H306.911V191.006L306.883 183.312V182.968H307.123L313.494 183.016C315.621 183.016 317.743 183.092 319.865 183.126H320V183.312C320 184.618 319.957 185.918 319.937 187.204L319.865 191.006ZM319.865 191.006L319.798 187.121C319.798 185.842 319.745 184.577 319.735 183.312L319.865 183.504C317.743 183.539 315.621 183.614 313.494 183.614L307.123 183.655L307.364 183.312V191.006L307.147 190.704C308.201 190.704 309.245 190.704 310.299 190.738L313.465 190.821L319.865 191.006Z" fill="#A7A7A7"/>
<path d="M131.068 89.7452L124.755 89.9378L121.55 90.0134C120.477 90.0134 119.399 90.0134 118.326 90.0134H118.114V89.704L118.085 82.0093V81.6655H118.326L124.697 81.7068C126.824 81.7068 128.946 81.7824 131.068 81.8168H131.203V82.0025C131.203 83.309 131.16 84.6017 131.136 85.8876L131.068 89.7452ZM131.068 89.7452L131.001 85.8532C131.001 84.5742 130.948 83.309 130.938 82.0506L131.068 82.2363C128.946 82.2363 126.824 82.3463 124.697 82.3463L118.326 82.3944L118.567 82.0506L118.543 89.7452L118.326 89.4358C119.375 89.4358 120.424 89.4358 121.478 89.477L124.644 89.5527L131.068 89.7452Z" fill="#A7A7A7"/>
<path d="M123.951 99.4481L117.638 99.6406L114.428 99.7163C113.36 99.7163 112.282 99.7163 111.209 99.7506H110.997V99.4412L110.959 91.7603V91.4165H111.2L117.571 91.4578C119.693 91.4578 121.82 91.5334 123.942 91.5678H124.076V91.7603C124.076 93.0668 124.038 94.3596 124.014 95.6455L123.951 99.4481ZM123.951 99.4481L123.884 95.5561C123.86 94.2771 123.831 93.0118 123.821 91.7534L123.951 91.9391C121.829 91.9735 119.702 92.0491 117.58 92.0491L111.209 92.0973L111.45 91.7534L111.44 99.4481L111.224 99.1386C112.273 99.1386 113.322 99.1386 114.375 99.1799L117.537 99.2555L123.951 99.4481Z" fill="#A7A7A7"/>
<path d="M138.175 99.4481L131.862 99.6406L128.657 99.7163C127.584 99.7163 126.511 99.7163 125.433 99.7506H125.222V99.4412L125.193 91.7603V91.4165H125.433L131.804 91.4578C133.931 91.4578 136.053 91.5334 138.175 91.5678H138.31V91.7603C138.31 93.0668 138.267 94.3596 138.248 95.6455L138.175 99.4481ZM138.175 99.4481L138.108 95.5561C138.108 94.2771 138.055 93.0118 138.046 91.7534L138.175 91.9391C136.053 91.9735 133.931 92.0491 131.804 92.0491L125.433 92.0973L125.674 91.7534L125.65 99.4481L125.433 99.1386C126.487 99.1386 127.531 99.1386 128.585 99.1799L131.751 99.2555L138.175 99.4481Z" fill="#A7A7A7"/>
<path d="M27.1731 140.658L20.8598 140.85L17.6503 140.926C16.582 140.926 15.5041 140.926 14.4311 140.96H14.2386V140.651V132.956V132.612H14.4792L20.8502 132.654C22.9723 132.654 25.0992 132.729 27.2212 132.764H27.356V132.949C27.356 134.256 27.3175 135.549 27.2934 136.834L27.1731 140.658ZM27.1731 140.658L27.1058 136.766C27.1058 135.487 27.0528 134.221 27.0432 132.963L27.1731 133.149C25.0511 133.183 22.9242 133.259 20.8021 133.259L14.4311 133.307L14.6717 132.963L14.6476 140.658L14.4311 140.348C15.4801 140.348 16.5291 140.348 17.5829 140.39L20.7444 140.465L27.1731 140.658Z" fill="#A7A7A7"/>
<path d="M238.409 89.7387L232.095 89.9312L228.89 90.0069C227.817 90.0412 226.739 90.0069 225.666 90.0412H225.455V89.7318L225.426 82.0372V81.6934H225.666L232.038 81.7346C234.165 81.7346 236.287 81.8171 238.409 81.8515H238.544V82.0372C238.544 83.3437 238.505 84.6433 238.481 85.9223L238.409 89.7387ZM238.409 89.7387L238.341 85.8536C238.317 84.5677 238.288 83.3024 238.279 82.044L238.409 82.2297C236.287 82.2641 234.165 82.3397 232.038 82.3466L225.666 82.3879L225.907 82.044L225.883 89.7387L225.666 89.4292C226.715 89.4292 227.764 89.4292 228.818 89.4705L231.985 89.5461L238.409 89.7387Z" fill="#A7A7A7"/>
<path d="M312.022 15.0067L305.708 15.1992L302.499 15.2749C301.431 15.2749 300.353 15.2749 299.28 15.3161H299.068V15.0067V7.31208V6.96826H299.309L305.68 7.00952C307.802 7.00952 309.928 7.09204 312.051 7.12642H312.185V7.31208C312.185 8.61858 312.147 9.91821 312.123 11.1972L312.022 15.0067ZM312.022 15.0067L311.954 11.1216C311.93 9.8357 311.901 8.57045 311.892 7.31208L312.022 7.49774C309.9 7.49774 307.773 7.60776 305.651 7.61464L299.28 7.6559L299.52 7.31208L299.496 15.0067L299.28 14.6973C300.329 14.6973 301.378 14.6973 302.432 14.7385L305.593 14.8142L312.022 15.0067Z" fill="#A7A7A7"/>
<path d="M319.129 24.7089L312.816 24.9014L309.611 24.9771C308.538 25.0114 307.46 24.9771 306.387 25.0114H306.175V24.702L306.146 17.0074V16.6636H306.387L312.758 16.7048C314.885 16.7048 317.007 16.7873 319.129 16.8217H319.264V17.0074C319.264 18.3139 319.22 19.6135 319.196 20.8925L319.129 24.7089ZM319.129 24.7089L319.062 20.8238C319.062 19.5379 319.009 18.2726 318.999 17.0143L319.129 17.1999C317.007 17.2343 314.885 17.3099 312.758 17.3168L306.387 17.3581L306.628 17.0143V24.7089L306.411 24.3995C307.46 24.3995 308.509 24.3995 309.563 24.4407L312.729 24.5164L319.129 24.7089Z" fill="#A7A7A7"/>
<path d="M12.9586 15.0135L6.6405 15.2061L3.43574 15.2817C2.36748 15.2817 1.2896 15.2817 0.216538 15.323H0V15.0135V7.31891V6.9751H0.245409L6.61644 7.02323C8.73851 7.02323 10.8606 7.09887 12.9875 7.13325H13.1174V7.31891C13.1174 8.62542 13.0741 9.92505 13.0548 11.2109L12.9586 15.0135ZM12.9586 15.0135L12.8864 11.1284C12.8864 9.84253 12.8335 8.57729 12.8239 7.31891L12.9586 7.50458C10.8317 7.54583 8.70964 7.6146 6.58757 7.62147L0.216538 7.66273L0.457136 7.31891L0.428264 15.0135L0.216538 14.7454C1.26555 14.7454 2.30974 14.7454 3.36356 14.7454L6.52983 14.821L12.9586 15.0135Z" fill="#A7A7A7"/>
<path d="M9.08499 72.2657C9.28609 72.0886 9.51765 71.9949 9.75385 71.9949C9.99005 71.9949 10.2216 72.0886 10.4227 72.2657L10.7692 72.5476C10.8847 72.637 11.005 72.7264 11.1253 72.8021C11.3404 72.942 11.5241 73.1647 11.6558 73.4452C11.7875 73.7257 11.862 74.053 11.8711 74.3905L11.924 76.7422L17.2942 76.5084L17.2461 74.1498C17.2379 73.811 17.2967 73.4757 17.4159 73.1826C17.5351 72.8894 17.7097 72.6503 17.9197 72.4926C18.1541 72.3129 18.3807 72.1132 18.5982 71.8944C18.7909 71.7004 19.0173 71.5862 19.2525 71.5643C19.4877 71.5425 19.7225 71.6139 19.9311 71.7706L21.3747 72.8846L23.9154 66.1114L22.4718 64.9974C22.2651 64.8371 22.0935 64.598 21.9763 64.3066C21.8591 64.0152 21.8007 63.683 21.8078 63.3471C21.8127 62.9661 21.803 62.5851 21.7789 62.2056C21.7573 61.869 21.8011 61.5303 21.9055 61.227C22.0099 60.9236 22.171 60.6674 22.3708 60.4865L23.7759 59.2419L20.9416 52.7162L19.5317 53.9746C19.3316 54.1518 19.1008 54.2457 18.8653 54.2457C18.6298 54.2457 18.399 54.1518 18.1988 53.9746C18.0833 53.8783 17.9727 53.7821 17.8524 53.6927L17.5011 53.4382C17.2854 53.2986 17.101 53.0762 16.9685 52.7958C16.836 52.5154 16.7605 52.1879 16.7504 51.8498L16.7023 49.4912L11.3514 49.7181L11.4043 52.0698C11.4092 52.4078 11.3489 52.7412 11.2301 53.0334C11.1113 53.3257 10.9385 53.5657 10.7307 53.727C10.494 53.9075 10.2658 54.1096 10.0474 54.3322C9.85374 54.5264 9.62622 54.6402 9.39008 54.6608C9.15393 54.6814 8.91841 54.6081 8.70965 54.4491L7.26607 53.342L4.70129 60.1289L6.14488 61.2429C6.35158 61.4009 6.52382 61.6372 6.64267 61.9259C6.76151 62.2146 6.82237 62.5446 6.81856 62.8795C6.81208 63.2626 6.82011 63.6459 6.84261 64.0278C6.86483 64.3646 6.82127 64.7035 6.71678 65.007C6.6123 65.3104 6.45098 65.5666 6.25074 65.7469L4.85047 67.0053L7.68471 73.531L9.08499 72.2657ZM10.4323 60.1289C10.8436 59.0339 11.4728 58.1376 12.2404 57.5535C13.008 56.9693 13.8795 56.7234 14.7449 56.847C15.6103 56.9705 16.4306 57.4579 17.1022 58.2476C17.7737 59.0372 18.2664 60.0936 18.5179 61.2833C18.7694 62.473 18.7684 63.7425 18.5151 64.9314C18.2618 66.1203 17.7676 67.1752 17.0948 67.9627C16.4221 68.7503 15.601 69.2352 14.7355 69.356C13.8699 69.4769 12.9987 69.2284 12.232 68.6419C11.7225 68.2521 11.2717 67.7226 10.9054 67.0837C10.5392 66.4448 10.2646 65.709 10.0975 64.9184C9.93035 64.1278 9.8739 63.2979 9.93135 62.4761C9.9888 61.6542 10.159 60.8567 10.4323 60.1289Z" fill="#A7A7A7"/>
<path d="M265.841 216.834C265.984 216.953 266.101 217.127 266.178 217.336C266.255 217.545 266.29 217.781 266.279 218.017C266.279 218.154 266.279 218.285 266.279 218.415C266.279 218.546 266.279 218.684 266.279 218.814C266.29 219.05 266.255 219.286 266.178 219.495C266.101 219.703 265.984 219.877 265.841 219.997L264.841 220.822L266.722 225.484L267.723 224.659C267.87 224.534 268.038 224.473 268.209 224.481C268.38 224.49 268.545 224.568 268.685 224.707C268.841 224.852 269.001 224.985 269.166 225.106C269.312 225.214 269.434 225.376 269.519 225.577C269.604 225.777 269.648 226.007 269.648 226.241V227.912H273.415V226.261C273.415 226.027 273.46 225.798 273.545 225.598C273.63 225.398 273.751 225.235 273.896 225.127C274.063 225.008 274.223 224.875 274.378 224.728C274.518 224.589 274.683 224.51 274.854 224.502C275.025 224.493 275.193 224.555 275.34 224.68L276.341 225.505L278.222 220.843L277.217 220.011C277.075 219.891 276.96 219.718 276.883 219.511C276.807 219.303 276.772 219.069 276.784 218.835C276.784 218.704 276.784 218.567 276.784 218.436C276.784 218.305 276.784 218.175 276.784 218.037C276.773 217.801 276.808 217.566 276.885 217.357C276.962 217.148 277.079 216.974 277.222 216.854L278.222 216.029L276.341 211.367L275.345 212.192C275.198 212.317 275.029 212.379 274.859 212.37C274.688 212.362 274.523 212.283 274.382 212.144C274.224 212 274.06 211.869 273.901 211.745C273.756 211.637 273.635 211.474 273.55 211.274C273.465 211.074 273.42 210.845 273.42 210.611V208.96H269.652V210.611C269.653 210.845 269.608 211.075 269.524 211.275C269.439 211.475 269.317 211.638 269.171 211.745C269.006 211.866 268.845 211.999 268.69 212.144C268.55 212.283 268.384 212.362 268.214 212.37C268.043 212.379 267.874 212.317 267.728 212.192L266.727 211.367L264.845 216.029L265.841 216.834ZM271.524 214.008C272.134 214.008 272.731 214.266 273.238 214.751C273.745 215.235 274.14 215.923 274.374 216.729C274.607 217.534 274.668 218.42 274.549 219.275C274.43 220.13 274.137 220.916 273.705 221.532C273.274 222.149 272.724 222.568 272.126 222.738C271.528 222.909 270.907 222.821 270.344 222.488C269.78 222.154 269.299 221.589 268.96 220.864C268.621 220.139 268.44 219.287 268.44 218.415C268.44 217.246 268.765 216.125 269.343 215.299C269.922 214.472 270.706 214.008 271.524 214.008Z" fill="#A7A7A7"/>
<path d="M282.568 184.247C282.571 188.39 283.433 192.439 285.046 195.882C286.659 199.324 288.949 202.007 291.629 203.589C294.308 205.172 297.256 205.584 300.099 204.773C302.942 203.962 305.553 201.965 307.603 199.034C309.652 196.103 311.047 192.37 311.611 188.306C312.176 184.242 311.885 180.031 310.774 176.203C309.664 172.376 307.785 169.105 305.374 166.804C302.963 164.502 300.129 163.274 297.23 163.274C295.303 163.275 293.396 163.818 291.616 164.873C289.837 165.927 288.22 167.472 286.858 169.42C285.497 171.368 284.417 173.679 283.681 176.223C282.945 178.767 282.567 181.494 282.568 184.247V184.247ZM290.382 184.247C290.38 182.309 290.781 180.414 291.533 178.802C292.285 177.19 293.355 175.933 294.607 175.19C295.859 174.447 297.237 174.251 298.567 174.628C299.897 175.005 301.119 175.937 302.078 177.307C303.037 178.676 303.69 180.422 303.955 182.322C304.22 184.222 304.084 186.192 303.565 187.982C303.046 189.772 302.167 191.301 301.039 192.377C299.911 193.453 298.586 194.026 297.23 194.025C295.415 194.023 293.675 192.993 292.391 191.159C291.107 189.326 290.385 186.84 290.382 184.247V184.247Z" fill="#A7A7A7"/>
<path d="M294.41 164.161H300.05L299.737 158.454H294.723L294.41 164.161Z" fill="#A7A7A7"/>
<path d="M305.146 166.877L309.13 172.571L311.733 168.225L308.187 163.157L305.146 166.877Z" fill="#A7A7A7"/>
<path d="M311.391 179.64V187.699L315.381 187.252V180.087L311.391 179.64Z" fill="#A7A7A7"/>
<path d="M309.491 194.974L305.502 200.675L308.547 204.395L312.094 199.327L309.491 194.974Z" fill="#A7A7A7"/>
<path d="M300.555 203.899H294.92L295.233 209.607H300.247L300.555 203.899Z" fill="#A7A7A7"/>
<path d="M289.824 201.183L285.835 195.49L283.237 199.836L286.783 204.903L289.824 201.183Z" fill="#A7A7A7"/>
<path d="M283.578 188.421V180.362L279.589 180.809V187.974L283.578 188.421Z" fill="#A7A7A7"/>
<path d="M285.479 173.087L289.468 167.386L286.422 163.666L282.876 168.734L285.479 173.087Z" fill="#A7A7A7"/>
<path d="M25.4456 131.189C25.6765 131.513 25.8348 131.927 25.9005 132.38C25.9662 132.832 25.9363 133.302 25.8146 133.731C25.6929 134.159 25.4849 134.526 25.217 134.784C24.9491 135.043 24.6334 135.183 24.31 135.184C23.8653 135.182 23.4381 134.936 23.1166 134.497L15.8361 123.969C15.8023 123.951 15.7724 123.921 15.7495 123.881C15.7267 123.841 15.7117 123.793 15.7062 123.742C15.6803 123.714 15.653 123.689 15.6244 123.667C15.5904 123.573 15.5645 123.474 15.5474 123.371C15.527 123.358 15.5092 123.338 15.4957 123.313C15.4822 123.288 15.4735 123.258 15.4704 123.226C15.4704 123.151 15.4704 123.041 15.4175 123C15.3646 122.958 15.3646 122.855 15.3646 122.814V122.559C15.3646 122.484 15.3646 122.449 15.3646 122.339C15.3646 122.229 15.3646 122.188 15.3646 122.154V121.892C15.3646 121.817 15.4175 121.782 15.4175 121.741C15.4175 121.7 15.4464 121.562 15.4704 121.445C15.4945 121.329 15.4704 121.445 15.4704 121.377C15.5094 121.261 15.5528 121.149 15.6004 121.04C15.6004 121.02 15.6059 121 15.6159 120.986C15.6258 120.972 15.6392 120.964 15.6533 120.964C15.6891 120.86 15.744 120.772 15.8121 120.71L23.0926 110.155C23.4054 109.724 23.8228 109.484 24.257 109.484C24.6913 109.484 25.1087 109.724 25.4215 110.155C25.5758 110.372 25.6982 110.631 25.7818 110.917C25.8654 111.202 25.9084 111.509 25.9084 111.819C25.9084 112.128 25.8654 112.435 25.7818 112.72C25.6982 113.006 25.5758 113.265 25.4215 113.483L19.3056 122.339L25.4456 131.189Z" fill="#A7A7A7"/>
<path d="M32.0428 132.372L38.3947 110.78C38.5469 110.281 38.8312 109.888 39.1855 109.687C39.5398 109.486 39.9353 109.493 40.2858 109.707C40.6254 109.919 40.8926 110.314 41.0288 110.806C41.165 111.298 41.1591 111.848 41.0124 112.334L34.6606 133.967C34.546 134.331 34.3601 134.64 34.1252 134.856C33.8903 135.072 33.6166 135.186 33.3373 135.184C33.1604 135.19 32.9847 135.14 32.8224 135.04C32.6464 134.942 32.486 134.794 32.3509 134.605C32.2158 134.417 32.1086 134.191 32.0358 133.942C31.9631 133.693 31.9262 133.426 31.9274 133.156C31.9286 132.886 31.9679 132.619 32.0428 132.372V132.372Z" fill="#A7A7A7"/>
<path d="M53.5523 123.666V123.707C53.4963 123.801 53.4352 123.889 53.3695 123.969L46.089 134.524C45.7762 134.961 45.357 135.207 44.9196 135.212C44.4835 135.208 44.0656 134.962 43.7551 134.524C43.6008 134.306 43.4782 134.046 43.3946 133.76C43.311 133.474 43.2679 133.167 43.2679 132.856C43.2679 132.546 43.311 132.239 43.3946 131.953C43.4782 131.667 43.6008 131.407 43.7551 131.189L49.8952 122.339L43.7551 113.482C43.6009 113.265 43.4785 113.006 43.3949 112.72C43.3113 112.434 43.2683 112.128 43.2683 111.818C43.2683 111.509 43.3113 111.202 43.3949 110.916C43.4785 110.631 43.6009 110.372 43.7551 110.154C44.0688 109.723 44.487 109.483 44.9221 109.483C45.3571 109.483 45.7753 109.723 46.089 110.154L53.3695 120.709C53.4373 120.783 53.4987 120.869 53.5523 120.964C53.5523 120.964 53.5523 121.039 53.5523 121.039C53.6008 121.148 53.6442 121.26 53.6823 121.376C53.6823 121.411 53.7111 121.411 53.7111 121.445C53.7274 121.561 53.7516 121.673 53.7833 121.782C53.7833 121.816 53.8122 121.816 53.8122 121.892V122.153C53.8122 122.188 53.8411 122.298 53.8411 122.339C53.8411 122.38 53.8122 122.483 53.8122 122.518V122.814C53.8122 122.855 53.7833 122.855 53.7833 122.889C53.7352 123.04 53.7352 123.15 53.7111 123.226C53.6871 123.302 53.6823 123.261 53.6823 123.336C53.6823 123.412 53.6053 123.522 53.5523 123.666Z" fill="#A7A7A7"/>
<path d="M3.99872 279.656L43.0092 279.491L82.0197 279.429L160.041 279.312L238.062 279.429L277.072 279.491L316.083 279.656L277.072 279.828L238.062 279.89L160.041 280L82.0197 279.883L43.0092 279.828L3.99872 279.656Z" fill="#263238"/>
<path d="M306.089 264.452H13.9883V279.656H306.089V264.452Z" fill="#C7C7C7"/>
<path d="M275.913 42.938H44.1738V264.459H275.913V42.938Z" fill="#DBDBDB"/>
<path d="M274.228 45.6406H45.8579V261.757H274.228V45.6406Z" fill="#37474F"/>
<path d="M264.114 59.5308H55.9678V247.86H264.114V59.5308Z" fill="#263238"/>
<path d="M264.114 59.5308H55.9678V66.7784H264.114V59.5308Z" fill="#D7D7D7"/>
<path d="M60.7413 63.1546C60.7413 63.4266 60.6849 63.6925 60.5791 63.9186C60.4734 64.1448 60.3231 64.3211 60.1472 64.4251C59.9713 64.5292 59.7778 64.5565 59.5912 64.5034C59.4045 64.4503 59.233 64.3194 59.0984 64.127C58.9638 63.9347 58.8722 63.6896 58.835 63.4229C58.7979 63.1561 58.8169 62.8796 58.8898 62.6283C58.9626 62.377 59.086 62.1622 59.2442 62.0111C59.4025 61.86 59.5886 61.7793 59.7789 61.7793C60.0342 61.7793 60.2789 61.9242 60.4594 62.1821C60.6399 62.44 60.7413 62.7898 60.7413 63.1546Z" fill="#E44D26"/>
<path d="M64.663 63.1546C64.663 63.4266 64.6066 63.6925 64.5008 63.9186C64.3951 64.1448 64.2448 64.3211 64.0689 64.4251C63.8931 64.5292 63.6996 64.5565 63.5129 64.5034C63.3262 64.4503 63.1547 64.3194 63.0202 64.127C62.8856 63.9347 62.7939 63.6896 62.7568 63.4229C62.7196 63.1561 62.7387 62.8796 62.8115 62.6283C62.8844 62.377 63.0077 62.1622 63.166 62.0111C63.3242 61.86 63.5103 61.7793 63.7006 61.7793C63.9559 61.7793 64.2007 61.9242 64.3811 62.1821C64.5616 62.44 64.663 62.7898 64.663 63.1546Z" fill="#E4A126"/>
<path d="M68.5801 63.1546C68.5801 63.4266 68.5236 63.6925 68.4179 63.9186C68.3121 64.1448 68.1618 64.3211 67.9859 64.4251C67.8101 64.5292 67.6166 64.5565 67.4299 64.5034C67.2432 64.4503 67.0717 64.3194 66.9371 64.127C66.8025 63.9347 66.7108 63.6896 66.6737 63.4229C66.6366 63.1561 66.6556 62.8796 66.7285 62.6283C66.8013 62.377 66.9247 62.1622 67.0829 62.0111C67.2412 61.86 67.4273 61.7793 67.6176 61.7793C67.8729 61.7793 68.1177 61.9242 68.2982 62.1821C68.4787 62.44 68.5801 62.7898 68.5801 63.1546Z" fill="#62BD6B"/>
<path d="M74.0512 98.9731H69.2681V100.314H74.0512V98.9731Z" fill="#EBEBEB"/>
<path d="M185.703 98.9731H79.6956V100.314H185.703V98.9731Z" fill="#E44D26"/>
<path d="M197.728 98.9731H188.643V100.314H197.728V98.9731Z" fill="#2965F1"/>
<path d="M233.842 130.577H203.18V131.911H233.842V130.577Z" fill="#E44D26"/>
<path d="M244.712 98.9731H199.701V100.314H244.712V98.9731Z" fill="#A6A6A6"/>
<path d="M74.0512 105.292H69.2681V106.633H74.0512V105.292Z" fill="#EBEBEB"/>
<path d="M120.357 105.292H84.3535V106.633H120.357V105.292Z" fill="#A6A6A6"/>
<path d="M201.02 130.577H187.402V131.911H201.02V130.577Z" fill="#A6A6A6"/>
<path d="M114.082 124.258H79.6956V125.599H114.082V124.258Z" fill="#A6A6A6"/>
<path d="M108.476 111.619H84.3535V112.96H108.476V111.619Z" fill="#2965F1"/>
<path d="M240.415 117.938H194.716V119.272H240.415V117.938Z" fill="#A6A6A6"/>
<path d="M185.703 148.958H140.004V150.292H185.703V148.958Z" fill="#A6A6A6"/>
<path d="M200.832 111.619H111.156V112.96H200.832V111.619Z" fill="#A6A6A6"/>
<path d="M184.293 130.577H79.6956V131.911H184.293V130.577Z" fill="#2965F1"/>
<path d="M196.713 105.292H122.618V106.633H196.713V105.292Z" fill="#E4A126"/>
<path d="M220.176 111.619H204.662V112.96H220.176V111.619Z" fill="#E44D26"/>
<path d="M74.0512 111.619H69.2681V112.96H74.0512V111.619Z" fill="#EBEBEB"/>
<path d="M74.0512 117.938H69.2681V119.272H74.0512V117.938Z" fill="#A6A6A6"/>
<path d="M107.961 117.938H79.6956V119.272H107.961V117.938Z" fill="#EBEBEB"/>
<path d="M112.619 136.896H84.3535V138.237H112.619V136.896Z" fill="#EBEBEB"/>
<path d="M227.668 143.216H188.21V144.557H227.668V143.216Z" fill="#2965F1"/>
<path d="M185.737 143.216H109.915V144.557H185.737V143.216Z" fill="#EBEBEB"/>
<path d="M105.598 143.216H84.3535V144.557H105.598V143.216Z" fill="#A6A6A6"/>
<path d="M197.723 124.258H116.026V125.599H197.723V124.258Z" fill="#E4A126"/>
<path d="M248.446 124.258H199.701V125.599H248.446V124.258Z" fill="#2965F1"/>
<path d="M192.493 117.938H110.829V119.272H192.493V117.938Z" fill="#2965F1"/>
<path d="M74.0512 124.258H69.2681V125.599H74.0512V124.258Z" fill="#EBEBEB"/>
<path d="M74.0512 130.577H69.2681V131.911H74.0512V130.577Z" fill="#EBEBEB"/>
<path d="M74.0512 136.896H69.2681V138.237H74.0512V136.896Z" fill="#A6A6A6"/>
<path d="M74.0512 143.216H69.2681V144.557H74.0512V143.216Z" fill="#EBEBEB"/>
<path d="M74.0512 148.958H69.2681V150.292H74.0512V148.958Z" fill="#EBEBEB"/>
<path d="M135.769 148.958H79.6956V150.292H135.769V148.958Z" fill="#E4A126"/>
<path d="M74.0512 155.277H69.2681V156.618H74.0512V155.277Z" fill="#EBEBEB"/>
<path d="M120.357 155.277H84.3535V156.618H120.357V155.277Z" fill="#A6A6A6"/>
<path d="M114.082 174.235H79.6956V175.569H114.082V174.235Z" fill="#A6A6A6"/>
<path d="M108.476 161.596H84.3535V162.937H108.476V161.596Z" fill="#2965F1"/>
<path d="M163.722 186.88H139.6V188.221H163.722V186.88Z" fill="#2965F1"/>
<path d="M108.476 199.519H84.3535V200.86H108.476V199.519Z" fill="#2965F1"/>
<path d="M200.832 161.596H111.156V162.937H200.832V161.596Z" fill="#A6A6A6"/>
<path d="M184.293 180.554H79.6956V181.895H184.293V180.554Z" fill="#2965F1"/>
<path d="M196.713 155.277H122.618V156.618H196.713V155.277Z" fill="#E44D26"/>
<path d="M212.405 167.916H196.92V169.256H212.405V167.916Z" fill="#E4A126"/>
<path d="M74.0512 161.596H69.2681V162.937H74.0512V161.596Z" fill="#EBEBEB"/>
<path d="M74.0512 167.916H69.2681V169.256H74.0512V167.916Z" fill="#A6A6A6"/>
<path d="M107.961 167.916H79.6956V169.256H107.961V167.916Z" fill="#EBEBEB"/>
<path d="M197.723 174.235H116.026V175.569H197.723V174.235Z" fill="#E44D26"/>
<path d="M192.493 167.916H110.829V169.256H192.493V167.916Z" fill="#2965F1"/>
<path d="M74.0512 174.235H69.2681V175.569H74.0512V174.235Z" fill="#EBEBEB"/>
<path d="M74.0512 186.88H69.2681V188.221H74.0512V186.88Z" fill="#EBEBEB"/>
<path d="M135.769 186.88H79.6956V188.221H135.769V186.88Z" fill="#EBEBEB"/>
<path d="M74.0512 193.2H69.2681V194.541H74.0512V193.2Z" fill="#EBEBEB"/>
<path d="M120.357 193.2H84.3535V194.541H120.357V193.2Z" fill="#A6A6A6"/>
<path d="M114.082 212.158H79.6956V213.499H114.082V212.158Z" fill="#A6A6A6"/>
<path d="M200.832 199.519H111.156V200.86H200.832V199.519Z" fill="#A6A6A6"/>
<path d="M212.405 205.839H196.92V207.18H212.405V205.839Z" fill="#E4A126"/>
<path d="M74.0512 199.519H69.2681V200.86H74.0512V199.519Z" fill="#EBEBEB"/>
<path d="M74.0512 205.839H69.2681V207.18H74.0512V205.839Z" fill="#A6A6A6"/>
<path d="M107.961 205.839H79.6956V207.18H107.961V205.839Z" fill="#EBEBEB"/>
<path d="M197.723 212.158H116.026V213.499H197.723V212.158Z" fill="#E44D26"/>
<path d="M192.493 205.839H110.829V207.18H192.493V205.839Z" fill="#2965F1"/>
<path d="M74.0512 212.158H69.2681V213.499H74.0512V212.158Z" fill="#EBEBEB"/>
<path d="M72.9011 87.187L74.1618 82.8962C74.1765 82.8468 74.1979 82.802 74.2248 82.7645C74.2516 82.727 74.2834 82.6974 74.3183 82.6776C74.3533 82.6578 74.3906 82.6481 74.4281 82.649C74.4657 82.6499 74.5028 82.6615 74.5372 82.683C74.571 82.7032 74.6016 82.7329 74.6273 82.7703C74.6529 82.8077 74.6731 82.8521 74.6865 82.9008C74.7 82.9495 74.7065 83.0016 74.7056 83.0539C74.7048 83.1063 74.6966 83.1579 74.6815 83.2056L73.4256 87.5033C73.4032 87.5769 73.3661 87.6396 73.3191 87.6835C73.2721 87.7275 73.2172 87.7509 73.161 87.7509C73.1279 87.7634 73.093 87.7634 73.0599 87.7509C73.021 87.7336 72.9853 87.7042 72.9554 87.6648C72.9254 87.6254 72.902 87.5769 72.8868 87.5229C72.8716 87.4689 72.865 87.4107 72.8675 87.3526C72.8699 87.2946 72.8814 87.238 72.9011 87.187V87.187Z" fill="#2965F1"/>
<path d="M77.179 85.4615L77.1405 85.5096L75.6969 87.6069C75.6663 87.6544 75.6291 87.6924 75.5876 87.7183C75.5462 87.7442 75.5015 87.7576 75.4563 87.7576C75.4111 87.7576 75.3664 87.7442 75.325 87.7183C75.2836 87.6924 75.2463 87.6544 75.2157 87.6069C75.1818 87.5637 75.1547 87.5107 75.1361 87.4515C75.1175 87.3922 75.1079 87.328 75.1079 87.2631C75.1079 87.1982 75.1175 87.134 75.1361 87.0747C75.1547 87.0155 75.1818 86.9625 75.2157 86.9193L76.4379 85.1589L75.2157 83.3986C75.1818 83.3554 75.1547 83.3024 75.1361 83.2432C75.1175 83.1839 75.1079 83.1197 75.1079 83.0548C75.1079 82.9899 75.1175 82.9257 75.1361 82.8664C75.1547 82.8072 75.1818 82.7542 75.2157 82.711C75.2467 82.6644 75.284 82.6273 75.3254 82.6019C75.3668 82.5765 75.4113 82.5635 75.4563 82.5635C75.5013 82.5635 75.5458 82.5765 75.5872 82.6019C75.6286 82.6273 75.6659 82.6644 75.6969 82.711L77.1405 84.7739L77.179 84.822C77.179 84.822 77.179 84.8701 77.179 84.8908C77.179 84.9114 77.179 84.8908 77.179 84.8908C77.1775 84.9136 77.1775 84.9367 77.179 84.9595C77.179 84.9595 77.179 84.9595 77.179 84.9595V85.0146C77.179 85.0146 77.179 85.0146 77.179 85.0489V85.1108C77.1781 85.1337 77.1781 85.1567 77.179 85.1796C77.1636 85.2723 77.1636 85.3688 77.179 85.4615V85.4615Z" fill="#2965F1"/>
<path d="M287.924 52.7778H238.312V98.0035H287.924V52.7778Z" fill="white"/>
<path d="M288.236 98.4507H237.995V52.3311H288.231L288.236 98.4507ZM238.625 97.5567H287.606V53.2525H238.625V97.5567Z" fill="#A9A9A9"/>
<path d="M287.924 52.7778H238.312V61.332H287.924V52.7778Z" fill="#D7D7D7"/>
<path d="M288.236 61.7791H237.995V52.3311H288.231L288.236 61.7791ZM238.625 60.8852H287.606V53.2525H238.625V60.8852Z" fill="#A9A9A9"/>
<path d="M246.873 78.2409C246.905 75.9517 247.564 73.7718 248.709 72.1689C249.853 70.5659 251.391 69.6675 252.994 69.6661C254.386 69.6557 255.74 70.3091 256.843 71.5228C257.022 71.755 257.133 72.0747 257.154 72.4184C257.176 72.7621 257.106 73.1047 256.958 73.3782C256.811 73.6517 256.597 73.8362 256.36 73.895C256.122 73.9538 255.877 73.8827 255.674 73.6957C254.916 72.8213 253.967 72.3564 252.994 72.3823C251.877 72.3917 250.805 73.0033 249.991 74.0945C249.221 75.1873 248.784 76.6697 248.773 78.2203C248.775 78.989 248.883 79.7497 249.092 80.458C249.301 81.1663 249.607 81.8081 249.991 82.3461C250.805 83.4374 251.877 84.0489 252.994 84.0583C253.966 84.0787 254.913 83.617 255.674 82.7518C255.88 82.5539 256.129 82.4712 256.375 82.5194C256.621 82.5676 256.846 82.7433 257.007 83.0131C257.159 83.2985 257.227 83.6572 257.196 84.013C257.165 84.3688 257.039 84.6935 256.843 84.9179C255.74 86.1316 254.386 86.7849 252.994 86.7745C251.394 86.7822 249.857 85.8923 248.712 84.2963C247.567 82.7003 246.907 80.5259 246.873 78.2409V78.2409Z" fill="#2965F1"/>
<path d="M259.875 82.6694C260.022 82.4189 260.232 82.2611 260.46 82.2302C260.688 82.1994 260.915 82.2978 261.092 82.5044C261.988 83.5917 263.105 84.2358 264.278 84.3404C265.019 84.3602 265.747 84.0529 266.361 83.4602C266.568 83.2773 266.741 83.0253 266.865 82.7259C266.989 82.4265 267.061 82.0886 267.073 81.7411C267.079 81.4732 267.027 81.2094 266.924 80.9847C266.803 80.7056 266.638 80.4703 266.443 80.2971C265.737 79.7271 264.964 79.3472 264.162 79.1762H264.129C263.387 78.9953 262.665 78.6835 261.978 78.2479C261.346 77.8535 260.808 77.2063 260.428 76.3845C260.173 75.7985 260.04 75.1214 260.043 74.4316C260.064 73.7502 260.195 73.085 260.427 72.4884C260.658 71.8918 260.983 71.3801 261.376 70.9934C262.223 70.1511 263.232 69.7086 264.263 69.7282C265.861 69.7282 267.045 70.849 267.896 71.6329C268.082 71.8155 268.21 72.095 268.253 72.4113C268.297 72.7276 268.251 73.0554 268.127 73.3245C268.067 73.461 267.989 73.579 267.896 73.6712C267.803 73.7635 267.699 73.8282 267.588 73.8616C267.478 73.895 267.364 73.8962 267.253 73.8654C267.142 73.8346 267.037 73.7722 266.943 73.6821C266.097 72.8706 265.279 72.1555 264.263 72.1555C263.597 72.1402 262.944 72.424 262.396 72.9669C262.214 73.125 262.061 73.3439 261.95 73.6049C261.839 73.866 261.775 74.1614 261.761 74.466C261.748 74.7068 261.789 74.9473 261.877 75.1536C261.999 75.4003 262.152 75.6125 262.329 75.7793C262.97 76.3148 263.678 76.6696 264.413 76.8245H264.446C265.238 77.0257 266.01 77.3604 266.746 77.8216C267.42 78.2459 267.997 78.9321 268.411 79.802C268.673 80.41 268.811 81.1099 268.81 81.8236C268.795 82.5595 268.656 83.2792 268.404 83.9219C268.153 84.5646 267.797 85.1115 267.367 85.5162C266.469 86.4313 265.39 86.913 264.287 86.8915C262.721 86.7834 261.222 85.9453 260.019 84.5054C259.922 84.4019 259.841 84.271 259.781 84.1208C259.72 83.9706 259.682 83.8043 259.668 83.6321C259.655 83.46 259.666 83.2858 259.702 83.1202C259.737 82.9546 259.796 82.8012 259.875 82.6694V82.6694Z" fill="#2965F1"/>
<path d="M270.826 82.6695C270.973 82.419 271.184 82.2612 271.411 82.2303C271.639 82.1995 271.866 82.2979 272.044 82.5045C272.937 83.5917 274.053 84.2359 275.225 84.3405C275.966 84.3603 276.694 84.053 277.308 83.4603C277.516 83.2786 277.691 83.0271 277.815 82.7275C277.94 82.428 278.012 82.0894 278.025 81.7412C278.03 81.4733 277.978 81.2095 277.876 80.9848C277.754 80.707 277.589 80.4721 277.395 80.2972C276.689 79.7272 275.916 79.3472 275.114 79.1763H275.046C274.305 78.9964 273.583 78.6845 272.896 78.248C272.264 77.8536 271.726 77.2064 271.346 76.3845C271.091 75.7986 270.958 75.1215 270.961 74.4317C270.982 73.7503 271.113 73.0851 271.345 72.4885C271.576 71.8919 271.901 71.3801 272.294 70.9935C273.14 70.1499 274.15 69.7073 275.181 69.7282C276.784 69.7282 277.967 70.8491 278.819 71.633C279.004 71.8168 279.131 72.0961 279.174 72.4119C279.218 72.7277 279.173 73.055 279.05 73.3246C278.99 73.4611 278.911 73.5791 278.819 73.6713C278.726 73.7636 278.622 73.8283 278.511 73.8617C278.401 73.895 278.287 73.8963 278.176 73.8655C278.065 73.8346 277.96 73.7723 277.866 73.6821C277.015 72.8707 276.201 72.1556 275.181 72.1556C274.515 72.1417 273.862 72.4253 273.314 72.967C273.133 73.1263 272.981 73.3457 272.871 73.6066C272.761 73.8675 272.697 74.1623 272.684 74.466C272.671 74.7069 272.711 74.9474 272.799 75.1537C272.92 75.402 273.074 75.6145 273.252 75.7794C273.893 76.3161 274.6 76.671 275.335 76.8246H275.364C276.157 77.0249 276.931 77.3596 277.669 77.8217C278.343 78.246 278.92 78.9322 279.334 79.8021C279.596 80.41 279.734 81.11 279.733 81.8237C279.717 82.5592 279.577 83.2783 279.326 83.9208C279.075 84.5632 278.719 85.1103 278.29 85.5163C277.39 86.4301 276.309 86.9117 275.205 86.8916C273.639 86.78 272.141 85.9424 270.937 84.5055C270.842 84.3984 270.764 84.2648 270.707 84.1128C270.649 83.9608 270.614 83.7937 270.604 83.6217C270.594 83.4497 270.608 83.2765 270.646 83.1128C270.685 82.949 270.746 82.7982 270.826 82.6695V82.6695Z" fill="#2965F1"/>
<path d="M242.836 57.117C242.836 57.389 242.779 57.6549 242.673 57.881C242.568 58.1072 242.417 58.2835 242.241 58.3875C242.066 58.4916 241.872 58.5189 241.685 58.4658C241.499 58.4127 241.327 58.2818 241.193 58.0894C241.058 57.8971 240.966 57.652 240.929 57.3853C240.892 57.1185 240.911 56.842 240.984 56.5907C241.057 56.3394 241.18 56.1246 241.338 55.9735C241.497 55.8224 241.683 55.7417 241.873 55.7417C242.128 55.7417 242.373 55.8866 242.554 56.1445C242.734 56.4024 242.836 56.7522 242.836 57.117Z" fill="#E44D26"/>
<path d="M246.757 57.117C246.757 57.389 246.701 57.6549 246.595 57.881C246.489 58.1072 246.339 58.2835 246.163 58.3875C245.987 58.4916 245.794 58.5189 245.607 58.4658C245.42 58.4127 245.249 58.2818 245.114 58.0894C244.98 57.8971 244.888 57.652 244.851 57.3853C244.814 57.1185 244.833 56.842 244.906 56.5907C244.979 56.3394 245.102 56.1246 245.26 55.9735C245.418 55.8224 245.605 55.7417 245.795 55.7417C246.05 55.7417 246.295 55.8866 246.475 56.1445C246.656 56.4024 246.757 56.7522 246.757 57.117Z" fill="#E4A126"/>
<path d="M250.674 57.117C250.674 57.389 250.618 57.6549 250.512 57.881C250.406 58.1072 250.256 58.2835 250.08 58.3875C249.904 58.4916 249.711 58.5189 249.524 58.4658C249.337 58.4127 249.166 58.2818 249.031 58.0894C248.897 57.8971 248.805 57.652 248.768 57.3853C248.731 57.1185 248.75 56.842 248.823 56.5907C248.896 56.3394 249.019 56.1246 249.177 55.9735C249.335 55.8224 249.521 55.7417 249.712 55.7417C249.967 55.7417 250.212 55.8866 250.392 56.1445C250.573 56.4024 250.674 56.7522 250.674 57.117Z" fill="#62BD6B"/>
<path d="M166.037 264.563C164.675 265.312 125.188 266.337 123.643 265.078C123.475 264.934 123.518 262.445 122.941 256.002C122.912 255.692 122.007 254.496 120.602 252.811C115.309 246.485 102.913 233.152 102.913 233.152L122.642 208.686L141.741 235.503L146.707 242.476C146.707 242.476 162.842 254.929 164.439 256.572C166.037 258.216 167.398 263.82 166.037 264.563Z" fill="#DD6A57"/>
<path d="M166.036 264.563C164.675 265.312 125.188 266.337 123.643 265.079C123.475 264.934 123.523 262.445 122.936 256.002C122.912 255.692 122.012 254.503 120.602 252.811C118.764 250.611 117.893 249.607 115.16 246.568L140.216 233.413L141.717 235.517L146.683 242.497C146.683 242.497 162.817 254.943 164.415 256.586C166.012 258.23 167.398 263.82 166.036 264.563Z" fill="#EBEBEB"/>
<path d="M168.755 265.34C167.384 266.027 125.313 266.681 123.797 265.34C123.441 265.024 123.114 261.53 122.835 256.744C122.801 256.146 118.538 251.278 117.955 250.377L143.738 238L146.996 242.373C146.996 242.373 165.969 254.991 167.519 256.71C169.068 258.429 170.146 264.659 168.755 265.34Z" fill="#2965F1"/>
<path d="M168.173 263.098C161.562 262.974 132.242 263.38 125.703 263.978C125.65 263.978 125.65 264.033 125.703 264.033C132.252 264.363 161.571 263.648 168.173 263.256C168.313 263.242 168.313 263.105 168.173 263.098Z" fill="#263238"/>
<path d="M149.118 242.758C146.51 242.111 143.343 242.758 141.371 245.412C141.294 245.515 141.399 245.666 141.481 245.632C143.956 244.443 146.513 243.636 149.108 243.225C149.152 243.227 149.194 243.204 149.225 243.162C149.257 243.119 149.275 243.06 149.277 242.998C149.278 242.936 149.262 242.876 149.232 242.831C149.202 242.786 149.161 242.759 149.118 242.758V242.758Z" fill="#263238"/>
<path d="M151.009 244.346C148.401 243.693 145.235 244.346 143.262 247.001C143.185 247.104 143.286 247.255 143.372 247.214C145.847 246.027 148.404 245.222 150.999 244.814C151.043 244.816 151.085 244.793 151.116 244.75C151.148 244.708 151.166 244.649 151.168 244.587C151.169 244.525 151.153 244.465 151.123 244.42C151.093 244.375 151.052 244.348 151.009 244.346V244.346Z" fill="#263238"/>
<path d="M152.895 245.928C150.292 245.282 147.121 245.928 145.148 248.582C145.076 248.685 145.177 248.837 145.263 248.802C147.738 247.613 150.295 246.806 152.89 246.396C152.934 246.397 152.975 246.373 153.007 246.33C153.038 246.286 153.056 246.227 153.056 246.165C153.057 246.103 153.04 246.043 153.01 245.999C152.98 245.954 152.938 245.929 152.895 245.928V245.928Z" fill="#263238"/>
<path d="M154.786 247.516C152.183 246.863 149.012 247.516 147.039 250.171C146.962 250.274 147.068 250.425 147.155 250.384C149.629 249.196 152.186 248.392 154.781 247.984C154.825 247.985 154.866 247.961 154.898 247.918C154.929 247.875 154.947 247.816 154.947 247.754C154.948 247.692 154.931 247.632 154.901 247.587C154.871 247.543 154.829 247.517 154.786 247.516Z" fill="#263238"/>
<path d="M153.848 234.101C152.813 232.107 150.917 233.042 149.839 234.362C148.023 236.68 146.666 239.639 145.903 242.944C145.899 242.958 145.898 242.974 145.899 242.989C145.9 243.005 145.904 243.02 145.91 243.032C145.917 243.045 145.925 243.056 145.934 243.063C145.944 243.07 145.955 243.074 145.966 243.074C145.965 243.147 145.975 243.219 145.997 243.285C146.019 243.351 146.052 243.408 146.092 243.453C146.132 243.498 146.179 243.529 146.229 243.543C146.279 243.557 146.33 243.554 146.38 243.535C148.516 242.359 150.903 241.472 152.727 239.409C153.785 238.185 154.829 235.971 153.848 234.101ZM149.368 240.805C148.324 241.417 147.27 241.954 146.24 242.627C147.015 240.956 147.732 239.244 148.617 237.683C149.036 236.925 149.491 236.208 149.979 235.538C150.744 234.513 153.79 232.327 153.347 236.411C153.131 238.646 150.609 240.063 149.368 240.791V240.805Z" fill="#263238"/>
<path d="M139.287 242.07C141.443 243.335 143.906 243.232 146.187 243.507C146.238 243.506 146.288 243.488 146.333 243.455C146.378 243.421 146.417 243.374 146.447 243.315C146.477 243.256 146.497 243.188 146.505 243.117C146.514 243.045 146.51 242.972 146.495 242.902C146.505 242.896 146.514 242.888 146.521 242.877C146.528 242.866 146.534 242.852 146.537 242.838C146.54 242.823 146.541 242.808 146.54 242.793C146.538 242.778 146.535 242.764 146.529 242.751C145.156 239.88 143.277 237.576 141.082 236.074C139.792 235.228 137.786 235.084 137.179 237.408C136.602 239.602 138.031 241.328 139.287 242.07ZM138.094 239.437C136.891 235.682 140.24 236.576 141.173 237.257C141.773 237.707 142.351 238.217 142.901 238.783C144.026 239.97 145.108 241.237 146.144 242.579C145.028 242.345 143.906 242.249 142.776 242.077C141.452 241.864 138.753 241.506 138.094 239.437Z" fill="#263238"/>
<path d="M141.986 234.011L117.628 252.055C117.628 252.055 92.25 219.227 89.9258 218.98C87.6016 218.732 53.4608 251.842 36.2725 251.979C18.4683 252.089 17.5684 225.436 17.5684 225.436L43.553 216.91C62.2715 203.728 81.7695 180.053 94.526 182.26C108.36 184.625 141.986 234.011 141.986 234.011Z" fill="#144359"/>
<path d="M136.039 229.418C131.925 232.327 133.079 231.412 128.989 234.383C126.987 235.834 116.916 243.095 115.203 244.89C115.169 244.931 115.203 245.027 115.246 245.007C117.258 244.044 127.218 236.473 129.201 234.967C133.253 231.893 132.088 232.719 136.096 229.583C136.104 229.578 136.111 229.57 136.116 229.561C136.122 229.552 136.126 229.541 136.129 229.53C136.132 229.518 136.133 229.506 136.132 229.494C136.131 229.482 136.129 229.47 136.125 229.459C136.122 229.448 136.116 229.439 136.11 229.431C136.103 229.423 136.096 229.417 136.088 229.413C136.08 229.409 136.071 229.408 136.063 229.408C136.055 229.409 136.046 229.413 136.039 229.418V229.418Z" fill="#263238"/>
<path d="M113.317 243.727C108.553 237.731 92.9478 218.196 92.3174 217.467C91.826 216.796 91.2799 216.212 90.691 215.727C90.448 215.591 90.1865 215.536 89.9265 215.566C89.6664 215.596 89.4144 215.71 89.1896 215.899C88.4678 216.38 87.7461 216.91 87.0435 217.405L82.8234 220.348C77.3666 224.15 71.9387 228.056 66.4387 231.742C61.1455 235.276 57.3729 238.618 51.8488 241.369C46.3663 244.13 40.6953 246.057 34.9299 247.117C34.2178 247.241 33.5056 247.351 32.7934 247.447C32.7849 247.452 32.7776 247.46 32.7724 247.47C32.7671 247.481 32.7643 247.493 32.7643 247.506C32.7643 247.519 32.7671 247.531 32.7724 247.542C32.7776 247.552 32.7849 247.56 32.7934 247.564C38.4601 247.081 44.0626 245.591 49.4717 243.129C54.9429 240.729 58.6529 237.628 63.8547 234.19C69.2392 230.649 74.5468 226.86 79.8544 223.085C82.6598 221.097 85.4556 219.083 88.2657 217.116C88.9057 216.676 89.8104 215.706 90.5418 216.181C90.8453 216.426 91.1266 216.724 91.3791 217.068L92.3415 218.182C93.5445 219.612 112.672 243.157 113.298 243.831C113.298 243.886 113.365 243.796 113.317 243.727Z" fill="#263238"/>
<path d="M17.5203 225.402C17.5203 225.402 14.6331 249.469 23.03 258.924C31.4269 268.379 93.1546 267.238 102.504 262.912C111.854 258.587 112.162 237.002 101.927 232.003C92.1922 227.224 50.8094 224.934 49.7604 224.35C49.5054 224.205 53.4367 220.836 53.4175 220.63L43.9957 216.504L17.5203 225.402Z" fill="#144359"/>
<path d="M30.3009 224.79C30.3009 224.687 30.1806 224.721 30.1806 224.79C30.1865 227.582 29.5052 230.289 28.2558 232.436C26.8122 234.802 24.7094 236.129 22.7942 237.511C22.6114 237.642 22.7509 238.054 22.9386 237.972C24.111 237.463 25.2406 236.771 26.307 235.909C27.2909 235.159 28.1572 234.129 28.8525 232.883C29.4729 231.751 29.9221 230.447 30.1714 229.054C30.4207 227.661 30.4648 226.209 30.3009 224.79V224.79Z" fill="#263238"/>
<path d="M49.0867 221.813C48.6585 221.029 48.1917 220.286 47.7442 219.53C46.6904 217.735 45.6318 215.934 44.525 214.208C44.424 214.043 44.2171 214.276 44.3133 214.455C45.0591 215.83 45.8435 217.206 46.6182 218.547L47.8164 220.609C48.2365 221.243 48.6121 221.934 48.9376 222.672C49.2263 223.442 48.8462 224.103 48.2832 224.185C47.7905 224.21 47.31 223.964 46.9406 223.497C46.1046 222.439 45.3395 221.272 44.6549 220.011C44.2122 219.324 43.7647 218.581 43.3172 217.88C42.8697 217.178 42.326 216.415 41.8448 215.665C41.8159 215.617 41.7582 215.665 41.7822 215.741C42.2009 216.559 42.5858 217.412 43.0044 218.237C43.4231 219.062 43.8513 219.867 44.2796 220.671C44.7079 221.476 45.1121 222.177 45.55 222.913C45.9129 223.557 46.3468 224.112 46.8348 224.556C47.6335 225.244 49.0242 225.375 49.4525 223.869C49.5275 223.511 49.5331 223.131 49.4687 222.768C49.4043 222.406 49.2723 222.076 49.0867 221.813V221.813Z" fill="#263238"/>
<path d="M101.224 262.981C98.0053 263.064 94.7812 263.332 91.5572 263.428C88.3332 263.525 85.1621 263.552 81.967 263.511C75.551 263.428 69.1351 263.073 62.7191 262.445C56.2422 261.805 49.2456 260.884 42.8313 259.605C39.7516 259 36.6335 258.491 33.5923 257.542C30.8567 256.798 28.3271 254.951 26.3022 252.22C22.135 246.451 20.5278 237.958 19.8541 229.851C19.7627 228.765 19.6905 227.671 19.628 226.578C19.628 226.509 19.5462 226.509 19.551 226.578C19.9263 234.891 20.831 243.563 24.4929 250.246C26.0368 253.165 28.0938 255.447 30.4549 256.861C33.3421 258.512 36.5324 258.924 39.5976 259.488C46.0553 260.74 53.0711 261.709 59.5577 262.424C66.0442 263.139 72.6462 263.6 79.2001 263.738C85.754 263.875 92.3175 263.738 98.8618 263.284C99.6606 263.229 100.459 263.16 101.268 263.064C101.272 263.054 101.274 263.043 101.274 263.032C101.274 263.021 101.271 263.01 101.266 263.001C101.261 262.992 101.255 262.985 101.247 262.982C101.24 262.978 101.232 262.978 101.224 262.981V262.981Z" fill="#263238"/>
<path d="M80.9034 227.616C78.8776 227.19 76.8518 226.777 74.8115 226.468C72.7712 226.158 70.6877 225.897 68.6233 225.649C64.5428 225.154 60.443 224.714 56.3576 224.439C54.0335 224.281 51.7093 224.267 49.3851 224.308C49.3081 224.308 49.3129 224.46 49.3851 224.473C53.4753 225.003 57.5655 225.367 61.6701 225.759C65.7747 226.151 69.8504 226.66 73.9261 227.217C76.2407 227.533 78.5552 227.774 80.8698 228.042C80.9093 228.049 80.949 228.032 80.9802 227.997C81.0113 227.961 81.0313 227.91 81.0358 227.853C81.0402 227.797 81.0288 227.74 81.004 227.695C80.9792 227.651 80.943 227.622 80.9034 227.616V227.616Z" fill="#263238"/>
<path d="M53.8987 220.348C52.2654 221.354 50.6944 222.554 49.2022 223.937C47.6886 225.238 46.2414 226.69 44.8715 228.283C44.833 228.331 44.8715 228.4 44.9196 228.372C46.5124 227.32 48.0474 226 49.5631 224.742C51.1018 223.507 52.588 222.143 54.0142 220.657C54.096 220.54 54.0334 220.258 53.8987 220.348Z" fill="#263238"/>
<path d="M46.1659 196.281L42.1479 195.345C41.3855 191.809 41.4124 188.022 42.2249 184.508C42.4029 183.704 40.4252 188.084 40.1076 194.878C35.8635 193.908 30.094 192.588 25.0655 191.364C25.3301 188.538 25.4841 185.904 25.4841 185.904C25.0891 187.701 24.5818 189.443 23.9683 191.11L21.9617 190.615C22.6691 186.303 23.1311 178.595 23.1311 178.595C22.2305 182.65 20.8699 186.467 19.1034 189.893C15.9179 189.067 13.8103 188.449 13.9931 188.263C19.83 181.641 16.8803 176.16 19.1564 169.566C21.8799 161.665 27.0769 161.665 27.7361 155.366C28.2798 150.244 29.0305 140.885 33.7895 140.101C35.2275 138.719 36.9185 137.973 38.6515 137.955C40.3845 137.938 42.0826 138.651 43.5338 140.005C50.1454 145.774 45.3046 160.737 45.3767 164.072C45.4778 168.817 46.7914 170.824 47.2534 176.326C47.7153 181.827 45.6029 184.955 44.9485 188.476C44.294 191.997 46.9599 196.459 46.1659 196.281Z" fill="#263238"/>
<path d="M13.9932 187.101C14.8307 185.901 15.5451 184.537 16.1152 183.051C16.6831 181.593 16.7312 179.963 16.7216 178.237C16.6803 176.506 16.7011 174.774 16.7841 173.046C16.8837 171.248 17.2338 169.497 17.8139 167.895C18.4212 166.302 19.2774 164.93 20.3161 163.886C21.3188 162.895 22.378 162.026 23.4824 161.287C24.5471 160.579 25.5434 159.678 26.4465 158.605C27.3257 157.468 27.9698 156.007 28.3088 154.383C28.1359 156.137 27.5919 157.773 26.7497 159.073C25.8888 160.321 24.9008 161.376 23.8192 162.202C22.7862 163.011 21.7912 163.916 20.8406 164.911C19.9331 165.887 19.1845 167.133 18.6463 168.562C18.1277 170.016 17.8014 171.594 17.6839 173.218C17.5396 174.868 17.5396 176.56 17.477 178.292C17.4502 179.175 17.3762 180.053 17.2557 180.919C17.1152 181.802 16.8659 182.643 16.5194 183.401C15.8361 184.837 14.9809 186.09 13.9932 187.101V187.101Z" fill="#263238"/>
<path d="M46.8058 146.908C47.0472 149.001 47.1086 151.128 46.9887 153.241C46.9021 155.352 46.7433 157.457 46.5701 159.547L46.3295 162.669C46.241 163.675 46.2216 164.69 46.2717 165.701C46.4467 167.72 46.8754 169.677 47.5373 171.477C47.8542 172.46 48.1258 173.47 48.3505 174.503C48.5651 175.564 48.699 176.654 48.7499 177.756C48.7719 178.844 48.7381 179.933 48.6489 181.015C48.5623 182.103 48.3829 183.173 48.1147 184.199C47.8452 185.23 47.5084 186.179 47.2052 187.114C46.9014 188.047 46.6598 189.019 46.4834 190.016C46.3303 191.022 46.3478 192.065 46.5344 193.059C46.7211 194.053 47.0716 194.969 47.5565 195.73C46.985 195.013 46.547 194.104 46.2816 193.085C46.0162 192.066 45.9318 190.969 46.0359 189.892C46.1588 188.827 46.3587 187.783 46.6326 186.777C46.8925 185.766 47.2004 184.824 47.4073 183.855C47.8076 181.904 47.956 179.865 47.8452 177.838C47.7836 176.838 47.6514 175.85 47.4507 174.888C47.2324 173.913 46.9688 172.959 46.6615 172.034C46.3432 171.062 46.0621 170.066 45.8194 169.05C45.5748 167.997 45.4228 166.904 45.367 165.798C45.3355 164.706 45.3774 163.612 45.4922 162.531C45.5884 161.479 45.7087 160.434 45.829 159.396C46.0648 157.333 46.3102 155.27 46.5171 153.173C46.7647 151.104 46.8614 149.005 46.8058 146.908V146.908Z" fill="#263238"/>
<path d="M35.1561 178.966C37.5284 188.187 48.2687 212.227 53.2443 215.755C56.9254 218.354 67.916 221.544 69.3307 221.042C71.371 220.355 75.9375 200.523 74.0705 200.331C65.0913 199.403 59.3747 197.739 57.2575 196.542C55.4722 195.531 48.0329 185.712 38.3801 173.72C35.0166 169.546 33.7318 173.451 35.1561 178.966Z" fill="#A75F56"/>
<path d="M40.6706 199.114L46.8347 182.328C46.8347 182.328 41.8447 176.009 38.7362 173.066C34.622 169.181 32.6443 170.453 34.2467 178.787C35.3149 184.357 40.6706 199.114 40.6706 199.114Z" fill="#2965F1"/>
<path d="M41.1855 175.61H41.1326C40.9283 175.61 40.7302 175.51 40.5717 175.326C40.4131 175.142 40.3036 174.885 40.2616 174.6C40.56 174.964 40.8679 175.26 41.1855 175.61ZM41.1326 195.304C40.8965 195.304 40.6701 195.438 40.5031 195.677C40.3362 195.915 40.2424 196.239 40.2424 196.576C40.2424 196.914 40.3362 197.237 40.5031 197.476C40.6701 197.714 40.8965 197.849 41.1326 197.849V197.849L41.8592 195.861C41.7783 195.69 41.6694 195.55 41.5419 195.453C41.4144 195.356 41.2723 195.305 41.1278 195.304H41.1326ZM36.2051 184.302C36.045 184.3 35.8878 184.365 35.7528 184.488C35.9838 185.237 36.234 186.007 36.4698 186.784C36.6514 186.706 36.8104 186.546 36.9231 186.328C37.0358 186.11 37.0962 185.845 37.0954 185.574C37.0966 185.405 37.0744 185.238 37.0299 185.082C36.9855 184.925 36.9197 184.783 36.8364 184.663C36.753 184.544 36.6539 184.449 36.5447 184.385C36.4355 184.32 36.3184 184.287 36.2003 184.288L36.2051 184.302ZM46.0601 184.302C45.9432 184.302 45.8274 184.335 45.7194 184.399C45.6114 184.463 45.5133 184.557 45.4306 184.675C45.3479 184.793 45.2824 184.933 45.2376 185.087C45.1929 185.242 45.1699 185.407 45.1699 185.574C45.1697 185.859 45.2376 186.136 45.3623 186.358L46.1178 184.295L46.0601 184.302Z" fill="white"/>
<path d="M40.1847 196.577C40.9642 194.046 41.763 191.536 42.6484 189.074C43.0847 187.846 43.537 186.626 44.0054 185.416C44.4866 184.206 45.0255 183.065 45.4778 181.847C45.5019 181.786 45.574 181.847 45.5452 181.909C45.064 183.085 44.6646 184.378 44.2123 185.588C43.76 186.798 43.3125 188.036 42.8698 189.26C41.9844 191.708 41.099 194.163 40.2521 196.638C40.2232 196.707 40.1607 196.645 40.1847 196.577Z" fill="#263238"/>
<path opacity="0.1" d="M45.8676 184.969L40.6707 199.121C40.6707 199.121 35.3198 184.357 34.2419 178.787C33.7607 176.209 33.5971 174.311 33.7607 173.025L45.8676 184.969Z" fill="black"/>
<path d="M69.3306 221.036C71.2742 222.557 73.2851 223.896 75.3504 225.045C77.0009 225.849 81.7936 227.981 82.5924 225.471C83.141 223.759 80.427 222.033 78.5215 220.747C77.5206 220.059 76.3128 218.464 76.6448 217.543C77.2223 215.94 79.8015 217.763 81.4809 219.31C84.7337 222.308 89.026 227.603 91.1481 225.313C91.9469 224.446 91.1048 222.72 89.8489 220.994C91.9132 223.057 94.1315 224.756 95.0506 223.848C95.5751 223.326 95.6232 222.569 95.3682 221.689C95.6314 221.884 95.929 221.963 96.2235 221.916C96.5181 221.87 96.7964 221.7 97.0235 221.428C97.7501 220.444 97.4614 218.89 96.754 217.302C96.8846 217.291 97.0114 217.236 97.1243 217.141C97.2371 217.047 97.3328 216.916 97.4037 216.759C98.9724 213.664 91.9373 204.017 89.4302 203.006C82.0535 199.98 74.0849 200.379 74.0849 200.379C71.0196 203.487 69.3258 221.036 69.3306 221.036Z" fill="#A75F56"/>
<path d="M80.6436 211.835C82.4117 212.325 84.0816 213.37 85.5325 214.895C87.2167 216.724 88.5255 219.145 90.0701 221.187C90.1134 221.242 90.0701 221.331 90.0076 221.276C89.2858 220.224 88.4822 219.275 87.7267 218.271C86.9713 217.267 86.2832 216.264 85.494 215.356C84.0819 213.683 82.4214 212.493 80.6388 211.876C80.6388 211.876 80.6003 211.828 80.6436 211.835Z" fill="#263238"/>
<path d="M82.1594 207.4C84.1333 208.201 86.0442 209.291 87.8615 210.652C89.7863 212.234 91.2876 214.695 92.7457 217.075C93.6214 218.505 94.478 219.956 95.3104 221.441C95.3441 221.503 95.2816 221.592 95.2479 221.53C93.7658 219.073 92.2356 216.685 90.6573 214.365C89.2014 212.196 87.4597 210.46 85.5326 209.256C84.4306 208.569 83.295 208.012 82.1642 207.448C82.1257 207.441 82.1353 207.393 82.1594 207.4Z" fill="#263238"/>
<path d="M84.3825 203.583C86.2688 204.271 87.9144 204.856 89.5505 206.43C91.7207 208.493 93.7706 211.931 94.4923 213.107C95.2863 214.434 96.0466 215.803 96.7973 217.185C96.8261 217.24 96.7588 217.316 96.7251 217.261C95.0081 214.226 93.1565 211.353 91.1817 208.658C90.2538 207.356 89.1907 206.265 88.0299 205.426C86.8518 204.67 85.6298 204.063 84.3777 203.611C84.3777 203.611 84.3729 203.583 84.3825 203.583Z" fill="#263238"/>
<path d="M15.2346 230.587C16.3751 231.116 48.9184 217.659 48.9184 217.659L45.0688 201.52C45.0688 201.52 46.9936 196.329 46.0841 191.336C44.91 184.666 36.2677 173.699 35.5892 173.052C32.8656 170.474 30.2961 170.515 28.0489 172.227C18.6415 179.372 15.2346 230.587 15.2346 230.587Z" fill="#2965F1"/>
<path d="M32.1631 174.345C32.1631 174.597 32.1109 174.843 32.0131 175.052C31.9152 175.261 31.7762 175.424 31.6135 175.521C31.4509 175.617 31.2719 175.642 31.0992 175.593C30.9265 175.544 30.7679 175.423 30.6434 175.245C30.5189 175.067 30.4341 174.84 30.3998 174.594C30.3654 174.347 30.383 174.091 30.4504 173.859C30.5178 173.626 30.6319 173.427 30.7783 173.288C30.9247 173.148 31.0968 173.073 31.2729 173.073C31.509 173.073 31.7354 173.207 31.9023 173.446C32.0693 173.684 32.1631 174.008 32.1631 174.345V174.345ZM21.418 195.304C21.2419 195.304 21.0698 195.379 20.9234 195.519C20.777 195.659 20.6629 195.857 20.5955 196.09C20.5282 196.322 20.5105 196.578 20.5449 196.825C20.5792 197.072 20.664 197.298 20.7885 197.476C20.913 197.654 21.0716 197.775 21.2443 197.824C21.417 197.873 21.596 197.848 21.7587 197.752C21.9213 197.656 22.0604 197.493 22.1582 197.283C22.256 197.074 22.3082 196.828 22.3082 196.577C22.3082 196.41 22.2852 196.244 22.2404 196.09C22.1957 195.935 22.1301 195.795 22.0475 195.677C21.9648 195.559 21.8667 195.465 21.7587 195.401C21.6507 195.337 21.5349 195.304 21.418 195.304V195.304ZM31.2729 195.304C31.0968 195.304 30.9247 195.379 30.7783 195.519C30.6319 195.659 30.5178 195.857 30.4504 196.09C30.383 196.322 30.3654 196.578 30.3998 196.825C30.4341 197.072 30.5189 197.298 30.6434 197.476C30.7679 197.654 30.9265 197.775 31.0992 197.824C31.2719 197.873 31.4509 197.848 31.6135 197.752C31.7762 197.656 31.9152 197.493 32.0131 197.283C32.1109 197.074 32.1631 196.828 32.1631 196.577C32.1631 196.41 32.1401 196.244 32.0953 196.09C32.0506 195.935 31.985 195.795 31.9023 195.677C31.8197 195.559 31.7215 195.465 31.6135 195.401C31.5055 195.337 31.3898 195.304 31.2729 195.304V195.304ZM41.1277 195.304C40.9517 195.304 40.7796 195.379 40.6332 195.519C40.4868 195.659 40.3727 195.857 40.3053 196.09C40.2379 196.322 40.2203 196.578 40.2546 196.825C40.289 197.072 40.3738 197.298 40.4983 197.476C40.6228 197.654 40.7814 197.775 40.9541 197.824C41.1268 197.873 41.3058 197.848 41.4684 197.752C41.6311 197.656 41.7701 197.493 41.8679 197.283C41.9657 197.074 42.018 196.828 42.018 196.577C42.018 196.41 41.9949 196.244 41.9502 196.09C41.9055 195.935 41.8399 195.795 41.7572 195.677C41.6746 195.559 41.5764 195.465 41.4684 195.401C41.3604 195.337 41.2447 195.304 41.1277 195.304V195.304ZM26.3454 184.302C26.1688 184.301 25.9958 184.375 25.8486 184.514C25.7013 184.654 25.5865 184.853 25.5187 185.086C25.4508 185.319 25.4331 185.576 25.4677 185.823C25.5023 186.071 25.5876 186.298 25.7129 186.476C25.8382 186.654 25.9977 186.775 26.1711 186.823C26.3446 186.871 26.5241 186.845 26.6869 186.746C26.8497 186.648 26.9883 186.483 27.0852 186.272C27.182 186.061 27.2327 185.813 27.2308 185.561C27.2308 185.224 27.1377 184.902 26.9718 184.664C26.8059 184.425 26.5807 184.29 26.3454 184.289V184.302ZM36.2003 184.302C36.0242 184.302 35.8521 184.377 35.7057 184.517C35.5593 184.656 35.4452 184.855 35.3779 185.088C35.3105 185.32 35.2929 185.576 35.3272 185.823C35.3616 186.069 35.4463 186.296 35.5708 186.474C35.6953 186.652 35.854 186.773 36.0266 186.822C36.1993 186.871 36.3783 186.846 36.541 186.75C36.7036 186.653 36.8427 186.49 36.9405 186.281C37.0383 186.072 37.0905 185.826 37.0905 185.574C37.0918 185.406 37.0697 185.239 37.0255 185.083C36.9814 184.927 36.916 184.786 36.8332 184.666C36.7504 184.546 36.6519 184.451 36.5432 184.387C36.4346 184.322 36.318 184.289 36.2003 184.289V184.302ZM21.418 217.536C21.2419 217.536 21.0698 217.61 20.9234 217.75C20.777 217.89 20.6629 218.089 20.5955 218.321C20.5282 218.553 20.5105 218.809 20.5449 219.056C20.5792 219.303 20.664 219.529 20.7885 219.707C20.913 219.885 21.0716 220.006 21.2443 220.055C21.417 220.105 21.596 220.079 21.7587 219.983C21.9213 219.887 22.0604 219.724 22.1582 219.515C22.256 219.305 22.3082 219.059 22.3082 218.808C22.3082 218.47 22.2144 218.147 22.0475 217.908C21.8805 217.67 21.6541 217.536 21.418 217.536V217.536ZM31.2729 217.536C31.0968 217.536 30.9247 217.61 30.7783 217.75C30.6319 217.89 30.5178 218.089 30.4504 218.321C30.383 218.553 30.3654 218.809 30.3998 219.056C30.4341 219.303 30.5189 219.529 30.6434 219.707C30.7679 219.885 30.9265 220.006 31.0992 220.055C31.2719 220.105 31.4509 220.079 31.6135 219.983C31.7762 219.887 31.9152 219.724 32.0131 219.515C32.1109 219.305 32.1631 219.059 32.1631 218.808C32.1631 218.47 32.0693 218.147 31.9023 217.908C31.7354 217.67 31.509 217.536 31.2729 217.536V217.536ZM41.1277 217.536C40.9517 217.536 40.7796 217.61 40.6332 217.75C40.4868 217.89 40.3727 218.089 40.3053 218.321C40.2379 218.553 40.2203 218.809 40.2546 219.056C40.289 219.303 40.3738 219.529 40.4983 219.707C40.6228 219.885 40.7814 220.006 40.9541 220.055C41.1268 220.105 41.3058 220.079 41.4684 219.983C41.6311 219.887 41.7701 219.724 41.8679 219.515C41.9657 219.305 42.018 219.059 42.018 218.808C42.018 218.47 41.9242 218.147 41.7572 217.908C41.5903 217.67 41.3638 217.536 41.1277 217.536V217.536ZM26.3454 206.534C26.1688 206.532 25.9958 206.606 25.8486 206.746C25.7013 206.885 25.5865 207.084 25.5187 207.317C25.4508 207.55 25.4331 207.807 25.4677 208.055C25.5023 208.302 25.5876 208.53 25.7129 208.708C25.8382 208.886 25.9977 209.006 26.1711 209.054C26.3446 209.103 26.5241 209.076 26.6869 208.978C26.8497 208.879 26.9883 208.714 27.0852 208.503C27.182 208.292 27.2327 208.044 27.2308 207.792C27.2308 207.456 27.1377 207.133 26.9718 206.895C26.8059 206.656 26.5807 206.522 26.3454 206.52V206.534ZM36.2003 206.534C36.0242 206.534 35.8521 206.608 35.7057 206.748C35.5593 206.888 35.4452 207.086 35.3779 207.319C35.3105 207.551 35.2929 207.807 35.3272 208.054C35.3616 208.301 35.4463 208.527 35.5708 208.705C35.6953 208.883 35.854 209.004 36.0266 209.053C36.1993 209.102 36.3783 209.077 36.541 208.981C36.7036 208.885 36.8427 208.722 36.9405 208.512C37.0383 208.303 37.0905 208.057 37.0905 207.806C37.0918 207.637 37.0697 207.471 37.0255 207.315C36.9814 207.159 36.916 207.017 36.8332 206.897C36.7504 206.778 36.6519 206.683 36.5432 206.618C36.4346 206.553 36.318 206.52 36.2003 206.52V206.534ZM46.2717 206.575C46.2013 206.547 46.1284 206.533 46.0552 206.534C45.8191 206.534 45.5927 206.668 45.4257 206.906C45.2588 207.145 45.165 207.468 45.165 207.806C45.165 208.143 45.2588 208.467 45.4257 208.705C45.5927 208.944 45.8191 209.078 46.0552 209.078C46.1888 209.079 46.321 209.037 46.4412 208.953C46.5614 208.87 46.6664 208.748 46.7481 208.596L46.2717 206.575ZM16.4906 228.751C16.2545 228.751 16.028 228.885 15.8611 229.124C15.6941 229.362 15.6003 229.686 15.6003 230.023C15.5988 230.207 15.6285 230.389 15.687 230.553C16.0575 230.477 16.6493 230.305 17.3759 230.064C17.3782 230.051 17.3782 230.037 17.3759 230.023C17.376 229.687 17.2828 229.364 17.1169 229.126C16.951 228.888 16.7258 228.753 16.4906 228.751V228.751Z" fill="white"/>
<path d="M34.6316 200.358C36.0311 199.982 37.448 199.752 38.871 199.671C39.5783 199.671 40.2809 199.671 40.9882 199.719C41.3395 199.719 41.6908 199.719 42.042 199.753C42.4119 199.769 42.7817 199.723 43.144 199.616C43.1729 199.616 43.1873 199.671 43.144 199.684C42.8133 199.842 42.4757 199.968 42.1335 200.063C41.8005 200.135 41.4645 200.176 41.1278 200.186C40.4108 200.221 39.6842 200.186 38.972 200.228C37.5284 200.269 36.0848 200.317 34.6412 200.51C34.5787 200.53 34.5642 200.406 34.6316 200.358Z" fill="#263238"/>
<path d="M31.6001 203.432C32.6916 202.815 33.8065 202.287 34.9396 201.85C35.5074 201.63 36.08 201.465 36.6575 201.314L37.4851 201.121C37.7931 201.06 38.1059 201.053 38.409 200.984C38.4154 200.984 38.4215 200.988 38.4261 200.994C38.4306 201 38.4331 201.009 38.4331 201.018C38.4331 201.027 38.4306 201.036 38.4261 201.043C38.4215 201.049 38.4154 201.053 38.409 201.053C38.1251 201.128 37.846 201.28 37.5669 201.383L36.7152 201.685C36.1474 201.892 35.5796 202.105 35.0118 202.304C33.8713 202.703 32.7405 203.116 31.6145 203.569C31.6018 203.572 31.5888 203.568 31.5784 203.557C31.568 203.546 31.5611 203.529 31.5592 203.511C31.5573 203.493 31.5605 203.474 31.5682 203.459C31.5759 203.444 31.5873 203.435 31.6001 203.432Z" fill="#263238"/>
<path d="M30.0891 171.395C30.0891 172.255 32.0861 178.409 34.7471 179C35.6133 179.193 36.5564 172.482 36.5564 172.482L36.7056 172.007L38.7844 165.392L33.111 157.56C33.111 157.56 30.0843 171.024 30.0891 171.395Z" fill="#A75F56"/>
<path d="M38.7796 165.392L36.7008 172.007C35.4903 170.922 34.4531 169.485 33.6564 167.79C32.8598 166.095 32.3215 164.179 32.0765 162.167C32.5962 159.829 33.0389 157.89 33.0918 157.601C33.0942 157.588 33.0942 157.574 33.0918 157.56L33.8184 158.495L38.7796 165.392Z" fill="#263238"/>
<path d="M46.6326 156.157C45.8483 168.837 40.4397 169.594 38.5293 169.353C36.7922 169.126 30.8976 168.06 30.758 155.325C30.6185 142.59 34.9973 139.111 38.9913 139.317C42.9852 139.523 47.441 143.47 46.6326 156.157Z" fill="#A75F56"/>
<path d="M45.42 153.922C45.2254 153.831 45.0343 153.726 44.8474 153.606C44.6331 153.539 44.4412 153.369 44.3037 153.125C44.2696 153.038 44.2568 152.937 44.2672 152.839C44.2777 152.741 44.3108 152.65 44.3614 152.582C44.4773 152.467 44.6125 152.399 44.7529 152.385C44.8934 152.37 45.034 152.41 45.1602 152.499C45.4323 152.623 45.6634 152.884 45.8098 153.235C45.8405 153.318 45.8535 153.413 45.8471 153.506C45.8406 153.6 45.8151 153.689 45.7736 153.762C45.7321 153.836 45.6765 153.89 45.6136 153.918C45.5508 153.947 45.4835 153.948 45.42 153.922Z" fill="#263238"/>
<path d="M39.3377 153.647C39.5494 153.647 39.7467 153.647 39.9536 153.606C40.1718 153.632 40.3899 153.554 40.5744 153.386C40.6258 153.319 40.6598 153.228 40.6711 153.13C40.6825 153.031 40.6704 152.93 40.637 152.843C40.5521 152.684 40.4392 152.56 40.3099 152.484C40.1805 152.408 40.0393 152.382 39.9007 152.41C39.6141 152.405 39.3364 152.552 39.1212 152.822C39.0744 152.887 39.0419 152.971 39.0276 153.062C39.0134 153.153 39.018 153.248 39.041 153.336C39.0639 153.423 39.1042 153.499 39.1569 153.555C39.2096 153.61 39.2724 153.642 39.3377 153.647Z" fill="#263238"/>
<path d="M40.3915 156.185C40.3915 156.15 40.3434 156.185 40.3386 156.246C40.276 157.113 40.1028 158.083 39.535 158.268V158.316C40.2231 158.31 40.43 157.017 40.3915 156.185Z" fill="#263238"/>
<path d="M39.9392 155.181C38.9769 154.892 38.6448 157.643 39.5302 157.932C40.4156 158.22 40.7428 155.428 39.9392 155.181Z" fill="#263238"/>
<path d="M39.5447 155.229C39.357 155.346 39.1597 155.579 38.9528 155.559C38.7459 155.538 38.5727 155.201 38.4716 154.871C38.4716 154.837 38.4379 154.871 38.4331 154.871C38.3609 155.401 38.4331 155.978 38.8277 156.15C39.2223 156.322 39.4965 155.916 39.6505 155.408C39.6601 155.346 39.6216 155.188 39.5447 155.229Z" fill="#263238"/>
<path d="M43.8706 156.398C43.8706 156.398 43.9139 156.453 43.9091 156.487C43.7792 157.333 43.731 158.337 44.2363 158.763C44.2363 158.763 44.2363 158.818 44.2363 158.805C43.5915 158.461 43.6541 157.147 43.8706 156.398Z" fill="#263238"/>
<path d="M44.5202 155.621C45.4827 155.772 45.2132 158.536 44.3133 158.406C43.4134 158.275 43.7021 155.497 44.5202 155.621Z" fill="#263238"/>
<path d="M44.9052 155.889C45.0447 156.068 45.1698 156.363 45.3479 156.418C45.5259 156.473 45.7473 156.212 45.9109 155.951C45.9109 155.951 45.9397 155.951 45.9397 155.992C45.8964 156.522 45.7184 157.051 45.3527 157.078C44.987 157.106 44.8234 156.597 44.7897 156.054C44.7801 155.951 44.8474 155.813 44.9052 155.889Z" fill="#263238"/>
<path d="M42.3548 160.682C42.3548 160.682 42.3067 161.988 42.2297 162.586C42.2297 162.641 42.1142 162.641 41.9699 162.586C41.5968 162.583 41.2316 162.432 40.9149 162.151C40.5981 161.869 40.342 161.468 40.175 160.991C40.1719 160.984 40.1697 160.977 40.1685 160.969C40.1674 160.961 40.1675 160.953 40.1686 160.945C40.1697 160.937 40.1719 160.929 40.1751 160.922C40.1782 160.915 40.1823 160.91 40.187 160.905C40.1918 160.901 40.1971 160.897 40.2027 160.896C40.2083 160.894 40.214 160.894 40.2196 160.896C40.2252 160.898 40.2305 160.901 40.2352 160.905C40.24 160.91 40.244 160.916 40.2472 160.922C40.7124 161.593 41.3164 162.032 41.9699 162.174C42.0228 162.016 41.9987 159.932 42.0661 159.946C42.3878 160.075 42.6955 160.267 42.9804 160.517C43.1344 157.8 42.9804 155.071 43.168 152.368C43.168 152.346 43.1741 152.325 43.185 152.31C43.1958 152.294 43.2105 152.286 43.2258 152.286C43.2411 152.286 43.2558 152.294 43.2666 152.31C43.2774 152.325 43.2835 152.346 43.2835 152.368C43.5071 155.285 43.5264 158.227 43.3413 161.149C43.3124 161.514 42.5088 160.826 42.3548 160.682Z" fill="#263238"/>
<path d="M41.9843 162.366C41.6944 162.815 41.328 163.15 40.9208 163.336C40.6984 163.435 40.46 163.435 40.2375 163.336C39.7563 163.082 39.79 162.442 39.9151 161.906C39.9824 161.62 40.0745 161.347 40.1894 161.094C40.6788 161.778 41.307 162.224 41.9843 162.366V162.366Z" fill="#263238"/>
<path d="M40.9208 163.336C40.6984 163.435 40.46 163.435 40.2375 163.336C39.7563 163.082 39.79 162.442 39.9151 161.906C40.1699 161.951 40.4069 162.117 40.5889 162.375C40.7709 162.634 40.8877 162.972 40.9208 163.336V163.336Z" fill="#FF9CBD"/>
<path d="M31.1285 156.494C32.0909 156.494 34.853 152.96 35.2861 146.241C35.2861 146.241 34.6028 152.231 34.2371 153.118C33.8713 154.005 35.7721 151.117 36.1618 145.705C37.2916 147.06 38.5526 148.174 39.9056 149.013C41.6571 149.927 42.7542 150.023 42.8938 149.852C43.0333 149.68 40.4589 148.208 39.8045 146.95C39.8045 146.95 44.4047 150.635 46.5942 151.117C46.8444 151.172 47.4459 144.454 44.1882 140.912C40.9305 137.371 35.4978 139.489 33.9435 141.332C33.9435 141.332 32.2257 141.49 30.1854 144.887C28.1451 148.284 30.0747 156.467 31.1285 156.494Z" fill="#263238"/>
<path d="M38.2358 160.661C37.7044 160.514 37.2125 160.157 36.8163 159.63C36.4201 159.103 36.1355 158.428 35.9951 157.681C35.8547 156.934 35.864 156.145 36.022 155.406C36.1801 154.666 36.4805 154.004 36.8889 153.497C37.2973 152.989 37.7974 152.656 38.332 152.535C38.8666 152.414 39.4142 152.51 39.9124 152.813C40.4106 153.115 40.8392 153.612 41.1494 154.246C41.4596 154.88 41.6388 155.625 41.6667 156.398V156.398C41.6881 156.94 41.6345 157.482 41.5089 157.995C41.3833 158.507 41.1882 158.979 40.9347 159.383C40.6812 159.788 40.3744 160.117 40.0319 160.351C39.6893 160.586 39.3177 160.721 38.9383 160.75C38.7024 160.764 38.4663 160.734 38.2358 160.661V160.661ZM39.2752 153.097C39.071 153.038 38.8624 153.017 38.6544 153.035C38.0175 153.085 37.4178 153.48 36.9775 154.14C36.5372 154.8 36.2895 155.674 36.2847 156.586C36.28 157.497 36.5186 158.377 36.952 159.046C37.3853 159.715 37.9808 160.123 38.6172 160.186C39.2536 160.25 39.8829 159.964 40.3771 159.388C40.8712 158.811 41.193 157.987 41.2769 157.083C41.3608 156.18 41.2004 155.264 40.8285 154.524C40.4566 153.783 39.9011 153.273 39.2752 153.097V153.097Z" fill="#C7C7C7"/>
<path d="M44.857 161.342C43.7695 161.039 43.0044 159.176 43.1199 157.024C43.1633 155.993 43.4308 155.007 43.885 154.204C44.0667 153.845 44.3099 153.559 44.5914 153.372C44.8729 153.186 45.1831 153.107 45.4924 153.141C45.8016 153.176 46.0994 153.323 46.3572 153.57C46.6151 153.816 46.8242 154.153 46.9647 154.548C47.3267 155.44 47.4849 156.472 47.417 157.498C47.2919 159.767 46.2284 161.514 45.0447 161.383C44.9815 161.376 44.9188 161.362 44.857 161.342V161.342ZM45.6077 153.716H45.4633C45.2159 153.704 44.9702 153.778 44.7467 153.93C44.5231 154.082 44.3283 154.308 44.1785 154.589C43.7786 155.304 43.5433 156.179 43.5049 157.092C43.399 159.059 44.1016 160.751 45.0736 160.861C46.0456 160.971 46.9262 159.451 47.032 157.484C47.0932 156.573 46.9535 155.657 46.6326 154.864C46.5286 154.58 46.3833 154.331 46.2066 154.133C46.0299 153.935 45.8258 153.793 45.6077 153.716V153.716Z" fill="#C7C7C7"/>
<path d="M41.5609 156.845L41.3347 156.391C41.8159 155.916 42.8505 155.325 43.4952 156.48L43.1921 156.824C42.6291 155.786 41.5994 156.796 41.5609 156.845Z" fill="#C7C7C7"/>
<path d="M28.6455 156.48L28.3183 156.192C28.4145 155.972 29.2807 154.046 30.142 153.943C31.0034 153.84 36.0896 155.112 36.3062 155.167L36.2436 155.71C34.7712 155.346 30.8061 154.417 30.1757 154.493C29.5454 154.569 28.8765 155.951 28.6455 156.48Z" fill="#C7C7C7"/>
<path d="M32.1102 156.48C32.1102 156.48 30.6666 152.08 29.3144 152.747C27.9622 153.414 28.6937 159.444 30.0555 160.586C30.2229 160.75 30.412 160.864 30.6113 160.921C30.8106 160.978 31.0159 160.977 31.2147 160.917C31.4136 160.857 31.6019 160.74 31.7682 160.573C31.9345 160.406 32.0754 160.193 32.1823 159.946L32.1102 156.48Z" fill="#A75F56"/>
<path d="M29.5598 154.465V154.52C30.5222 155.373 30.8783 156.865 31.0804 158.364C31.0391 158.203 30.9739 158.057 30.8893 157.935C30.8047 157.813 30.7027 157.719 30.5903 157.659C30.4778 157.599 30.3576 157.574 30.2379 157.587C30.1182 157.599 30.0018 157.649 29.8966 157.732C29.8678 157.732 29.8966 157.821 29.8966 157.821C30.0872 157.778 30.2825 157.821 30.4551 157.944C30.6277 158.067 30.769 158.265 30.859 158.509C31.0031 158.917 31.116 159.345 31.1958 159.788C31.2247 159.932 31.3979 159.905 31.3835 159.746C31.3835 159.746 31.3835 159.746 31.3835 159.705C31.6241 157.869 30.936 155.022 29.5598 154.465Z" fill="#263238"/>
<path d="M23.1888 180.754C16.3751 199.96 15.5666 216.222 17.578 219.138C22.9915 227.025 40.7669 223.511 45.5981 223.38C47.5517 223.325 43.5819 200.379 41.5127 200.792C36.6334 201.754 29.6272 203.948 29.3914 203.81C28.9102 203.528 29.4636 198.11 30.1902 181.937C30.7772 168.851 25.9749 172.901 23.1888 180.754Z" fill="#A75F56"/>
<path d="M48.0329 197.972C52.8834 197.003 54.2308 197.821 58.0178 193.901C60.5056 191.33 62.7239 192.492 61.3044 196.583C58.9898 203.267 52.9123 206.389 50.5881 206.595L48.0329 197.972Z" fill="#A75F56"/>
<path d="M35.1561 204.642C35.1561 204.642 40.6033 200.317 45.6991 198.557C49.2215 197.339 56.6415 196.583 64.6246 207.014C66.737 209.765 67.1605 215.314 63.3879 212.247C60.6354 210.006 59.4036 207.963 57.6135 207.241C57.6135 207.241 58.6048 214.585 56.6896 217.04C55.0137 219.186 53.2337 221.16 51.3628 222.947C51.0575 222.529 50.7699 222.086 50.5015 221.62C50.5015 221.62 48.5767 223.683 44.9051 223.174L35.1561 204.642Z" fill="#A75F56"/>
<path d="M49.1926 198.165C50.8768 199.423 54.4136 202.167 56.7618 205.852C59.3699 209.944 63.6237 218.835 61.492 221.558C59.9233 223.552 58.0947 220.361 58.0947 220.361C58.0947 220.361 59.3073 224.563 57.6135 225.924C56.0737 227.162 54.7601 224.549 54.7601 224.549C54.7601 224.549 55.1931 227.3 53.5475 228.063C51.5697 229.012 50.9923 223.133 48.4083 221.613C47.8357 221.303 49.1926 198.165 49.1926 198.165Z" fill="#A75F56"/>
<path d="M53.2779 209.071C54.7215 210.618 57.3825 215.349 58.1188 220.251C58.1188 220.361 58.0851 220.437 58.0562 220.341C56.7771 216.33 55.1613 212.557 53.2443 209.105C53.2443 209.105 53.2587 209.05 53.2779 209.071Z" fill="#263238"/>
<path d="M50.4629 212.949C51.6178 214.475 54.2019 219.523 54.8275 224.529C54.8275 224.639 54.789 224.714 54.7601 224.611C53.6281 220.514 52.1752 216.613 50.4293 212.983C50.4293 212.983 50.4485 212.935 50.4629 212.949Z" fill="#263238"/>
<path d="M40.5937 200.977C42.7667 199.621 45.037 198.609 47.3641 197.959C48.5279 197.623 49.7038 197.38 50.8864 197.23C51.4831 197.161 52.0798 197.14 52.6476 197.03C53.2226 196.906 53.7892 196.713 54.3414 196.453C55.4504 195.931 56.4971 195.171 57.4451 194.197C57.9195 193.656 58.4484 193.22 59.0138 192.904C59.5893 192.55 60.2202 192.42 60.8423 192.526C61.1814 192.585 61.4907 192.832 61.7037 193.214C61.8926 193.619 61.9792 194.104 61.9491 194.589C61.9028 195.471 61.7309 196.33 61.4438 197.113C60.8716 198.641 60.0834 199.983 59.1293 201.053V200.647C60.6153 202.027 62.0466 203.524 63.4167 205.131C64.1092 205.937 64.7531 206.825 65.3415 207.785C65.6302 208.282 65.8787 208.824 66.0825 209.401C66.3024 209.986 66.4351 210.63 66.4723 211.292C66.4836 211.643 66.4392 211.993 66.3424 212.316C66.2347 212.648 66.0491 212.916 65.8179 213.073C65.3684 213.317 64.8719 213.317 64.4224 213.073C63.591 212.6 62.8 211.993 62.0646 211.264C61.3235 210.577 60.621 209.841 59.8703 209.139C59.5094 208.789 59.1389 208.452 58.7636 208.122C58.3989 207.789 58.0038 207.53 57.5895 207.352L57.6809 207.138C58.6373 208.83 59.5073 210.618 60.2842 212.488C60.6721 213.423 61.0207 214.389 61.3283 215.383C61.637 216.376 61.8709 217.414 62.0261 218.478C61.8575 217.42 61.609 216.392 61.285 215.411C60.967 214.428 60.6054 213.474 60.2023 212.557C59.4042 210.717 58.5149 208.962 57.5413 207.303L57.3585 206.994L57.6328 207.097C58.0648 207.278 58.4776 207.541 58.8598 207.881C59.2448 208.204 59.6201 208.569 59.9906 208.885C60.7268 209.573 61.4342 210.295 62.1945 210.948C62.9155 211.65 63.6905 212.231 64.5042 212.681C64.8872 212.887 65.3097 212.887 65.6928 212.681C65.8597 212.546 65.9947 212.343 66.0804 212.098C66.1662 211.853 66.1987 211.577 66.174 211.306C66.0499 210.097 65.6782 208.967 65.1057 208.06C64.5269 207.126 63.8943 206.264 63.2146 205.481C61.8527 203.891 60.4276 202.415 58.9464 201.06L58.7491 200.874L58.9368 200.654C59.8438 199.623 60.5937 198.339 61.1407 196.879C61.4049 196.161 61.5684 195.376 61.6219 194.568C61.6271 194.197 61.5477 193.832 61.3957 193.53C61.2405 193.243 61.0122 193.055 60.7605 193.008C60.2016 192.924 59.637 193.045 59.1197 193.358C58.5807 193.654 58.0762 194.064 57.6231 194.575C56.6469 195.578 55.5673 196.358 54.4232 196.886C53.8518 197.152 53.2659 197.349 52.6717 197.477C52.0654 197.587 51.4783 197.601 50.8912 197.663C49.7219 197.793 48.5478 197.986 47.3881 198.282C45.0678 198.865 42.7923 199.767 40.5937 200.977V200.977Z" fill="#263238"/>
<path d="M17.0247 197.353L30.118 194.135C30.118 194.135 30.5992 184.625 30.3298 179.31C29.9737 172.282 28.0681 170.838 24.411 177.715C21.9666 182.308 17.0247 197.353 17.0247 197.353Z" fill="#2965F1"/>
<path d="M22.2312 196.074L20.5326 196.487C20.5454 196.203 20.625 195.933 20.7584 195.721C20.8919 195.51 21.0713 195.369 21.2678 195.321C21.4643 195.273 21.6662 195.322 21.8411 195.458C22.0159 195.595 22.1534 195.812 22.2312 196.074V196.074ZM26.3454 184.288C26.1692 184.287 25.9966 184.36 25.8496 184.499C25.7025 184.638 25.5877 184.836 25.5196 185.069C25.4514 185.301 25.4331 185.557 25.4669 185.804C25.5007 186.051 25.5851 186.279 25.7094 186.457C25.8337 186.636 25.9924 186.758 26.1652 186.807C26.338 186.857 26.5172 186.832 26.6802 186.736C26.8431 186.64 26.9824 186.477 27.0805 186.268C27.1785 186.058 27.2308 185.812 27.2308 185.56C27.2308 185.224 27.1377 184.901 26.9718 184.663C26.8059 184.425 26.5807 184.29 26.3454 184.288V184.288Z" fill="white"/>
<path d="M18.141 195.256C20.0225 194.603 21.904 193.984 23.8095 193.482C24.7719 193.235 25.7231 193.005 26.663 192.794C27.6254 192.588 28.5878 192.519 29.5502 192.292C29.5983 192.292 29.6128 192.402 29.5502 192.409C28.5878 192.568 27.6254 192.904 26.6919 193.138C25.7584 193.372 24.7912 193.599 23.8384 193.826C21.9425 194.314 20.0418 194.795 18.1507 195.346C18.0881 195.387 18.0881 195.277 18.141 195.256Z" fill="#263238"/>
<path d="M28.5108 194.534C29.0296 194.345 29.5547 194.193 30.0843 194.08C30.118 192.959 30.1421 191.839 30.1902 190.718C30.1902 190.161 30.2383 189.597 30.272 189.04C30.3057 188.483 30.3345 187.72 30.3682 187.176C30.3659 187.167 30.3653 187.157 30.3662 187.147C30.3672 187.138 30.3698 187.128 30.3738 187.12C30.3778 187.112 30.3831 187.106 30.3893 187.101C30.3954 187.097 30.4022 187.094 30.4091 187.094C30.416 187.094 30.4228 187.097 30.429 187.101C30.4351 187.106 30.4404 187.112 30.4444 187.12C30.4484 187.128 30.451 187.138 30.452 187.147C30.453 187.157 30.4523 187.167 30.45 187.176C30.45 187.864 30.45 188.428 30.45 189.047C30.45 189.666 30.45 190.147 30.426 190.697C30.3971 191.866 30.3971 193.111 30.3201 194.273C29.726 194.439 29.1248 194.55 28.5204 194.603C28.5204 194.603 28.4867 194.541 28.5108 194.534Z" fill="#263238"/>
<path d="M30.8494 188.187C30.7883 188.862 30.6484 189.517 30.4357 190.126C30.4637 189.788 30.5136 189.454 30.5848 189.129C30.6546 188.805 30.7431 188.49 30.8494 188.187Z" fill="#263238"/>
<path d="M80.5618 226.922H46.0408V229.136H80.5618V226.922Z" fill="#C7C7C7"/>
<path d="M60.9002 226.922L59.7213 229.129H88.0348V226.922H60.9002Z" fill="#A6A6A6"/>
<path d="M62.3918 229.129H96.0323L102.865 196.48H69.22L62.3918 229.129Z" fill="#A6A6A6"/>
<path d="M63.5563 229.129H97.1967L104.025 196.48H70.3845L63.5563 229.129Z" fill="#C7C7C7"/>
<path d="M82.3904 212.784C82.3263 213.137 82.321 213.507 82.375 213.864C82.4289 214.221 82.5405 214.555 82.701 214.839C82.8614 215.123 83.0662 215.349 83.2988 215.5C83.5315 215.651 83.7856 215.721 84.0409 215.706C84.6173 215.675 85.1702 215.371 85.6126 214.842C86.0551 214.313 86.362 213.589 86.4853 212.784C86.5492 212.43 86.5544 212.06 86.5005 211.703C86.4465 211.346 86.3349 211.012 86.1746 210.727C86.0143 210.443 85.8097 210.216 85.5771 210.064C85.3445 209.913 85.0903 209.841 84.8348 209.855C84.258 209.887 83.705 210.193 83.2626 210.723C82.8203 211.253 82.5135 211.978 82.3904 212.784V212.784Z" fill="white"/>
<path d="M74.0175 154.816V184.639H76.948V191.88L82.0102 184.639H109.794V154.816H74.0175Z" fill="white"/>
<path d="M74.0175 154.816L74.0945 169.772C74.1298 174.746 74.1491 179.702 74.1523 184.639L74.0175 184.447H77.0876V184.646V191.88L76.8229 191.729L81.8707 184.474L81.9236 184.398H81.9958L95.888 184.343C100.517 184.343 105.151 184.282 109.78 184.343L109.549 184.674L109.607 154.851L109.78 155.098L91.9421 155.016L74.0175 154.816ZM74.0175 154.816L91.8555 154.645L109.795 154.562H109.968V154.816L110.021 184.639V184.969H109.79C105.161 185.004 100.527 184.969 95.8976 184.969L82.0054 184.921L82.1305 184.845L77.0539 192.059L76.7844 192.444V191.901V184.667L76.9288 184.873H73.9983H73.9069V184.68C73.9069 179.688 73.9261 174.703 73.9646 169.724L74.0175 154.816Z" fill="#263238"/>
<path d="M87.1012 174.503C87.2217 174.674 87.3041 174.892 87.3381 175.13C87.3722 175.368 87.3563 175.614 87.2926 175.839C87.2288 176.064 87.12 176.257 86.9798 176.394C86.8396 176.53 86.6743 176.605 86.5045 176.608C86.2721 176.611 86.048 176.485 85.879 176.257L82.0294 170.708C81.9909 170.708 81.9764 170.653 81.962 170.591C81.9506 170.576 81.9376 170.565 81.9235 170.556C81.9037 170.507 81.8891 170.454 81.8802 170.398C81.87 170.391 81.8613 170.38 81.8546 170.367C81.8479 170.354 81.8435 170.339 81.8417 170.323C81.8417 170.281 81.8417 170.22 81.8128 170.206C81.7839 170.192 81.7839 170.123 81.7839 170.11V169.972C81.7839 169.931 81.7839 169.91 81.7839 169.855C81.7839 169.8 81.7839 169.773 81.7839 169.759V169.621C81.7839 169.58 81.8128 169.559 81.8128 169.539C81.8128 169.518 81.8128 169.443 81.8417 169.388C81.8706 169.332 81.8417 169.387 81.8417 169.346C81.8417 169.305 81.885 169.209 81.9139 169.174C81.9427 169.14 81.9139 169.133 81.9379 169.133C81.9578 169.079 81.9857 169.032 82.0197 168.996L85.8693 163.453C86.034 163.229 86.2529 163.104 86.4805 163.104C86.7081 163.104 86.9269 163.229 87.0916 163.453C87.1728 163.567 87.2373 163.703 87.2813 163.853C87.3253 164.003 87.348 164.164 87.348 164.327C87.348 164.489 87.3253 164.65 87.2813 164.8C87.2373 164.95 87.1728 165.086 87.0916 165.2L83.8675 169.855L87.1012 174.503Z" fill="#2965F1"/>
<path d="M90.5707 175.129L93.9054 163.783C93.9857 163.521 94.1355 163.314 94.3221 163.208C94.5087 163.103 94.717 163.107 94.9015 163.22C95.0787 163.331 95.218 163.538 95.2891 163.796C95.3603 164.053 95.3576 164.34 95.2816 164.595L91.9469 175.955C91.8876 176.148 91.7899 176.312 91.6659 176.427C91.5418 176.542 91.3969 176.603 91.2491 176.601C91.1566 176.602 91.0649 176.577 90.9797 176.525C90.888 176.473 90.8046 176.396 90.7342 176.297C90.6638 176.198 90.6079 176.08 90.5698 175.95C90.5317 175.82 90.5122 175.681 90.5123 175.54C90.5125 175.399 90.5323 175.259 90.5707 175.129V175.129Z" fill="#2965F1"/>
<path d="M101.874 170.557C101.846 170.607 101.813 170.654 101.778 170.694L97.9282 176.243C97.8482 176.362 97.7525 176.457 97.6466 176.522C97.5407 176.587 97.4268 176.621 97.3115 176.623C97.1962 176.624 97.0819 176.593 96.9752 176.53C96.8685 176.468 96.7717 176.375 96.6903 176.259C96.6089 176.142 96.5447 176.003 96.5013 175.851C96.458 175.698 96.4364 175.534 96.4379 175.37C96.4393 175.205 96.4638 175.042 96.5098 174.891C96.5559 174.74 96.6225 174.604 96.7059 174.49L99.93 169.841L96.7059 165.186C96.6247 165.072 96.5603 164.936 96.5162 164.786C96.4722 164.636 96.4495 164.475 96.4495 164.313C96.4495 164.15 96.4722 163.989 96.5162 163.839C96.5603 163.689 96.6247 163.553 96.7059 163.44C96.8706 163.215 97.0895 163.09 97.3171 163.09C97.5446 163.09 97.7635 163.215 97.9282 163.44L101.778 168.982C101.812 169.024 101.844 169.07 101.874 169.119C101.874 169.119 101.874 169.161 101.874 169.161C101.874 169.161 101.927 169.278 101.941 169.333C101.956 169.388 101.941 169.333 101.941 169.374C101.952 169.433 101.966 169.491 101.985 169.546C101.985 169.546 101.985 169.546 101.985 169.608V169.745C101.985 169.745 101.985 169.821 101.985 169.841C101.985 169.862 101.985 169.917 101.985 169.938V170.096C101.985 170.096 101.985 170.096 101.985 170.13C101.967 170.188 101.953 170.248 101.941 170.309C101.941 170.309 101.941 170.309 101.941 170.364C101.916 170.426 101.894 170.491 101.874 170.557V170.557Z" fill="#2965F1"/>
<path d="M273.353 41.6328L270 3H306L302.727 41.6328L288.04 46" fill="#264DE4"/>
<path d="M288.04 6.10742V42.6406L299.933 39.1973L302.727 6.10742" fill="#2965F1"/>
<path d="M276.705 10.8945H288.04V15.5977H277.104L276.705 10.8945ZM277.503 20.4687H288.04V25.2559H277.902L277.503 20.4687ZM278.142 27.6074H282.612L282.931 31.3867L288.04 32.8145V37.7695L278.701 35.082" fill="#EBEBEB"/>
<path d="M288.04 20.4687V25.2559H293.548L292.989 31.3867L288.04 32.8145V37.7695L297.22 35.082L299.295 10.8945H288.04V15.5977H294.426L293.987 20.4687H288.04Z" fill="white"/>
</svg>
