<svg width="500" height="438" viewBox="0 0 500 438" fill="none" xmlns="http://www.w3.org/2000/svg">
<g clip-path="url(#clip0_34_1512)">
<path d="M0.570862 422.706L57.4294 386.687L332.941 385.456L345.544 423.25L0.570862 422.706Z" fill="#455A64"/>
<path d="M344.834 437.459L0 437.228V421.997L344.984 423.01L344.834 437.459Z" fill="#455A64"/>
<path d="M336.378 422.928C336.378 423.069 261.906 423.16 170.08 423.119C78.2528 423.078 3.77045 422.928 3.77045 422.775C3.77045 422.625 78.2206 422.544 170.08 422.585C261.937 422.625 336.378 422.775 336.378 422.928Z" fill="#263238"/>
<path d="M250.627 88.8228H196.461C194.664 88.8228 192.941 88.1531 191.67 86.9612C190.4 85.769 189.686 84.1522 189.686 82.4665V12.1711C189.686 11.3368 189.861 10.5107 190.202 9.74009C190.542 8.96947 191.042 8.2694 191.67 7.67994C192.3 7.0905 193.047 6.62325 193.869 6.3049C194.691 5.98656 195.572 5.82337 196.461 5.82472H230.794L257.37 31.5134V82.4665C257.37 84.1469 256.661 85.7594 255.397 86.9503C254.133 88.1415 252.419 88.815 250.627 88.8228Z" fill="#E44D26"/>
<g opacity="0.2">
<path opacity="0.2" d="M191.022 63.6392H256.013C256.367 63.6392 256.708 63.7713 256.958 64.0063C257.208 64.2413 257.348 64.5601 257.348 64.8923V82.2742C257.348 84.0111 256.614 85.6767 255.305 86.9048C253.995 88.1326 252.22 88.8226 250.369 88.8226H196.666C194.816 88.8226 193.039 88.1326 191.73 86.9048C190.42 85.6767 189.686 84.0111 189.686 82.2742V64.8923C189.686 64.5601 189.827 64.2413 190.077 64.0063C190.327 63.7713 190.667 63.6392 191.022 63.6392Z" fill="black"/>
</g>
<g opacity="0.2">
<path opacity="0.2" d="M230.794 5.82471V25.6015C230.792 26.3775 230.955 27.1459 231.27 27.8631C231.586 28.5804 232.048 29.2321 232.633 29.7812C233.217 30.3303 233.911 30.7659 234.675 31.0632C235.439 31.3603 236.258 31.5134 237.086 31.5134H257.37L230.794 5.82471Z" fill="white"/>
</g>
<g opacity="0.2">
<path opacity="0.2" d="M231.064 27.3398C231.064 27.3398 230.805 32.1605 236.622 33.7167C236.842 33.7745 237.066 33.8217 237.291 33.858C239.941 34.3027 257.37 37.203 257.37 36.8292V31.5136H237.086C237.086 31.5136 232.022 31.352 231.064 27.3398Z" fill="black"/>
</g>
<path d="M212.491 42.6498C213.569 42.9732 214.119 43.6604 214.119 45.1963V48.8245C214.088 49.0498 214.111 49.2788 214.189 49.4944C214.266 49.7098 214.395 49.9057 214.566 50.0676C214.736 50.2291 214.942 50.3526 215.172 50.4276C215.4 50.5029 215.644 50.5282 215.884 50.5019H216.316V53.2707H214.916C211.888 53.2707 210.347 51.8157 210.347 49.2285V45.1054C210.372 44.9651 210.361 44.8213 210.316 44.6854C210.272 44.5495 210.194 44.4248 210.089 44.3213C209.986 44.2179 209.858 44.1382 209.716 44.0885C209.573 44.0385 209.422 44.0201 209.27 44.0341H208.473V41.2551H209.27C209.42 41.271 209.573 41.2541 209.716 41.2054C209.858 41.157 209.986 41.0782 210.089 40.9754C210.194 40.8729 210.272 40.7488 210.317 40.6132C210.361 40.4776 210.372 40.3341 210.347 40.1941V36.091C210.347 33.4838 211.888 32.0488 214.916 32.0488H216.316V34.8076H215.884C215.644 34.781 215.398 34.8063 215.169 34.8823C214.939 34.9582 214.731 35.0823 214.561 35.2451C214.389 35.4079 214.261 35.6054 214.184 35.8223C214.108 36.0388 214.084 36.2691 214.119 36.4954V40.1232C214.119 41.6795 213.613 42.3363 212.491 42.6498Z" fill="#FAFAFA"/>
<path d="M238.572 41.2551V44.0242H237.764C237.117 44.0242 236.688 44.3676 236.688 45.0951V49.1983C236.688 51.8054 235.136 53.2405 232.108 53.2405H230.708V50.5017H231.15C231.391 50.5283 231.634 50.5029 231.863 50.4276C232.092 50.3523 232.298 50.2292 232.469 50.0676C232.639 49.9058 232.769 49.7098 232.845 49.4942C232.923 49.2789 232.947 49.0498 232.916 48.8242V45.1964C232.916 43.6298 233.423 42.9729 234.533 42.6498C233.455 42.3364 232.916 41.6392 232.916 40.1133V36.4851C232.95 36.2589 232.927 36.0286 232.85 35.812C232.773 35.5951 232.645 35.3979 232.473 35.2348C232.303 35.072 232.095 34.9479 231.866 34.872C231.636 34.7964 231.391 34.7708 231.15 34.7976H230.708V32.0386H232.108C235.136 32.0386 236.688 33.4839 236.688 36.0811V40.2445C236.688 40.972 237.097 41.3058 237.764 41.3058L238.572 41.2551Z" fill="#FAFAFA"/>
<path d="M215.205 72.0293V80.69H213.05V77.1431H208.859V80.69H206.705V72.0293H208.859V75.4452H213.05V72.0293H215.205Z" fill="#FAFAFA"/>
<path d="M219.309 73.6665H216.356V72.0293H224.405V73.6665H221.442V80.69H219.287L219.309 73.6665Z" fill="#FAFAFA"/>
<path d="M233.948 80.69V75.4959L231.234 79.7806H230.264L227.561 75.6069V80.6597H225.556V71.999H227.323L230.792 77.4056L234.197 72.0193H235.953V80.68L233.948 80.69Z" fill="#FAFAFA"/>
<path d="M238.139 72.0293H240.294V79.1034H244.927V80.7306H238.15L238.139 72.0293Z" fill="#FAFAFA"/>
<path d="M132.892 82.0522H33.1151C31.2945 82.0522 29.8187 83.4366 29.8187 85.1444V239.792C29.8187 241.5 31.2945 242.884 33.1151 242.884H132.892C134.712 242.884 136.188 241.5 136.188 239.792V85.1444C136.188 83.4366 134.712 82.0522 132.892 82.0522Z" fill="white"/>
<path d="M33.708 82.0519H132.45C133.442 82.0519 134.392 82.4213 135.093 83.0788C135.794 83.7366 136.188 84.6284 136.188 85.5584V100.02H29.7866V85.7203C29.7837 85.2369 29.8833 84.7578 30.0794 84.311C30.2756 83.8638 30.5645 83.4581 30.9294 83.1166C31.2942 82.7753 31.7276 82.5053 32.2048 82.3225C32.6817 82.14 33.1926 82.0478 33.708 82.0519Z" fill="#D7D7D7"/>
<path d="M132.622 242.884C133.092 242.861 133.554 242.766 133.991 242.601C134.621 242.342 135.16 241.919 135.542 241.381C135.923 240.844 136.133 240.216 136.145 239.57C136.145 236.123 136.145 231.061 136.091 224.542C136.091 211.495 136.091 192.628 136.005 169.314C135.919 146.001 136.005 118.22 135.941 87.3877V85.9427C135.97 85.4811 135.927 85.018 135.811 84.5683C135.609 83.9121 135.184 83.3358 134.601 82.9271C134.017 82.5183 133.307 82.2999 132.579 82.3046H33.4706C32.6497 82.303 31.8587 82.5946 31.2584 83.1199C30.6581 83.6455 30.2936 84.3658 30.2389 85.1343C30.2389 85.6496 30.2389 86.2255 30.2389 86.7715V132.075C30.2389 148.851 30.2389 165.041 30.2389 180.461C30.2389 195.883 30.2389 210.526 30.2389 224.239C30.2389 227.666 30.2389 231.041 30.2389 234.345V239.256C30.1781 240.02 30.4125 240.778 30.8992 241.392C31.3859 242.006 32.0925 242.436 32.889 242.601C33.7119 242.681 34.54 242.705 35.3669 242.672H52.1506L111.034 242.753L127.042 242.803H131.201H132.622H131.201H127.042L111.034 242.855L52.1506 242.934H35.1728C34.3137 242.962 33.4534 242.936 32.5981 242.855C31.7075 242.676 30.9153 242.203 30.3681 241.52C29.8172 240.828 29.5461 239.976 29.6033 239.116C29.6033 237.498 29.6033 235.861 29.6033 234.203V224.098C29.6033 210.384 29.6033 195.731 29.6033 180.32C29.6033 164.909 29.6033 148.709 29.6033 131.934C29.6033 123.532 29.6033 115 29.6033 106.336V86.6299C29.6033 86.074 29.6033 85.5486 29.6033 84.9524C29.6533 84.3533 29.8645 83.7761 30.2173 83.2749C30.5684 82.7715 31.0478 82.358 31.6122 82.0721C32.1765 81.7861 32.8078 81.6371 33.449 81.6377H132.612C133.172 81.629 133.727 81.7358 134.238 81.9508C134.755 82.1643 135.216 82.4811 135.588 82.879C135.96 83.2771 136.235 83.7468 136.393 84.2549C136.512 84.7486 136.56 85.2552 136.533 85.7608V87.2058C136.533 118.038 136.533 145.819 136.468 169.133C136.404 192.447 136.404 211.314 136.382 224.361C136.382 230.878 136.382 235.942 136.328 239.387C136.319 240.159 136.03 240.903 135.51 241.5C135.132 241.937 134.648 242.283 134.098 242.511C133.752 242.633 133.39 242.711 133.021 242.742L132.622 242.884Z" fill="#263238"/>
<path d="M45.5037 92.4404C45.5037 93.0241 45.3194 93.5948 44.9737 94.0801C44.6281 94.5651 44.1369 94.9435 43.5619 95.1666C42.9872 95.3901 42.3547 95.4485 41.7447 95.3347C41.1344 95.2207 40.5737 94.9397 40.134 94.5272C39.694 94.1144 39.3944 93.5885 39.2731 93.0163C39.1515 92.4438 39.214 91.8504 39.4522 91.3113C39.69 90.7719 40.0934 90.3113 40.6106 89.987C41.1278 89.6629 41.7359 89.4898 42.3581 89.4898C42.7719 89.4882 43.1815 89.5638 43.5637 89.7116C43.9459 89.8595 44.2934 90.0766 44.5856 90.351C44.8781 90.6254 45.1097 90.951 45.2672 91.3098C45.425 91.6682 45.5053 92.0526 45.5037 92.4404Z" fill="#E44D26"/>
<path d="M52.0213 95.3816C53.7525 95.3816 55.1563 94.065 55.1563 92.4406C55.1563 90.8166 53.7525 89.5 52.0213 89.5C50.29 89.5 48.8866 90.8166 48.8866 92.4406C48.8866 94.065 50.29 95.3816 52.0213 95.3816Z" fill="#E4A126"/>
<path d="M61.6738 95.3816C63.405 95.3816 64.8084 94.065 64.8084 92.4406C64.8084 90.8166 63.405 89.5 61.6738 89.5C59.9422 89.5 58.5388 90.8166 58.5388 92.4406C58.5388 94.065 59.9422 95.3816 61.6738 95.3816Z" fill="#62BD6B"/>
<path d="M76.1091 124.384H56.5134C55.9422 124.384 55.3941 124.172 54.99 123.793C54.5859 123.414 54.3591 122.899 54.3591 122.364C54.3591 121.828 54.5859 121.313 54.99 120.934C55.3941 120.555 55.9422 120.342 56.5134 120.342H76.1091C76.6803 120.342 77.2285 120.555 77.6325 120.934C78.0366 121.313 78.2635 121.828 78.2635 122.364C78.2635 122.899 78.0366 123.414 77.6325 123.793C77.2285 124.172 76.6803 124.384 76.1091 124.384Z" fill="#263238"/>
<path d="M76.1091 134.824H56.5134C55.9422 134.824 55.3941 134.611 54.99 134.232C54.5859 133.853 54.3591 133.339 54.3591 132.803C54.3591 132.267 54.5859 131.753 54.99 131.374C55.3941 130.995 55.9422 130.782 56.5134 130.782H76.1091C76.6803 130.782 77.2285 130.995 77.6325 131.374C78.0366 131.753 78.2635 132.267 78.2635 132.803C78.2635 133.339 78.0366 133.853 77.6325 134.232C77.2285 134.611 76.6803 134.824 76.1091 134.824Z" fill="#264DE4"/>
<path d="M76.6694 163.412H57.0738C56.5022 163.412 55.9544 163.2 55.5503 162.822C55.1463 162.442 54.9191 161.928 54.9191 161.392C54.9191 160.856 55.1463 160.342 55.5503 159.962C55.9544 159.584 56.5022 159.37 57.0738 159.37H76.6694C77.2406 159.37 77.7888 159.584 78.1928 159.962C78.5969 160.342 78.8238 160.856 78.8238 161.392C78.8238 161.928 78.5969 162.442 78.1928 162.822C77.7888 163.2 77.2406 163.412 76.6694 163.412Z" fill="#264DE4"/>
<path d="M76.1091 145.607H56.5134C55.9422 145.607 55.3941 145.394 54.99 145.015C54.5859 144.636 54.3591 144.122 54.3591 143.585C54.3591 143.049 54.5859 142.535 54.99 142.156C55.3941 141.777 55.9422 141.564 56.5134 141.564H76.1091C76.6803 141.564 77.2285 141.777 77.6325 142.156C78.0366 142.535 78.2635 143.049 78.2635 143.585C78.2635 144.122 78.0366 144.636 77.6325 145.015C77.2285 145.394 76.6803 145.607 76.1091 145.607Z" fill="#E44D26"/>
<path d="M76.1091 205.756H56.5134C55.9422 205.756 55.3941 205.544 54.99 205.164C54.5859 204.784 54.3591 204.27 54.3591 203.734C54.3591 203.198 54.5859 202.684 54.99 202.306C55.3941 201.926 55.9422 201.714 56.5134 201.714H76.1091C76.6803 201.714 77.2285 201.926 77.6325 202.306C78.0366 202.684 78.2635 203.198 78.2635 203.734C78.2635 204.27 78.0366 204.784 77.6325 205.164C77.2285 205.544 76.6803 205.756 76.1091 205.756Z" fill="#E44D26"/>
<path d="M107.49 124.384H87.8945C87.3233 124.384 86.7752 124.172 86.3711 123.793C85.967 123.414 85.7402 122.899 85.7402 122.364C85.7402 121.828 85.967 121.313 86.3711 120.934C86.7752 120.555 87.3233 120.342 87.8945 120.342H107.49C108.061 120.342 108.61 120.555 109.014 120.934C109.418 121.313 109.645 121.828 109.645 122.364C109.645 122.899 109.418 123.414 109.014 123.793C108.61 124.172 108.061 124.384 107.49 124.384Z" fill="#455A64"/>
<path d="M128.701 134.824H87.7648C87.4954 134.812 87.2314 134.751 86.9876 134.642C86.7439 134.534 86.5254 134.382 86.3448 134.194C86.1645 134.006 86.0258 133.786 85.9367 133.547C85.8476 133.308 85.8098 133.055 85.8258 132.803C85.8098 132.55 85.8476 132.297 85.9367 132.059C86.0258 131.82 86.1645 131.6 86.3448 131.412C86.5254 131.224 86.7439 131.071 86.9876 130.963C87.2314 130.855 87.4954 130.793 87.7648 130.782H128.755C129.025 130.793 129.289 130.855 129.532 130.963C129.776 131.071 129.995 131.224 130.175 131.412C130.355 131.6 130.494 131.82 130.583 132.059C130.672 132.297 130.71 132.55 130.694 132.803C130.71 133.06 130.671 133.316 130.578 133.559C130.486 133.801 130.342 134.023 130.156 134.211C129.97 134.4 129.745 134.551 129.495 134.657C129.245 134.762 128.975 134.819 128.701 134.824Z" fill="#263238"/>
<path d="M127.592 145.607H86.3322C86.0585 145.6 85.7885 145.543 85.5385 145.437C85.2888 145.331 85.0638 145.18 84.8772 144.992C84.6906 144.803 84.546 144.582 84.4516 144.34C84.3575 144.099 84.3156 143.842 84.3288 143.585C84.3156 143.329 84.3575 143.072 84.4516 142.83C84.546 142.589 84.6906 142.368 84.8772 142.179C85.0638 141.991 85.2888 141.84 85.5385 141.734C85.7885 141.629 86.0585 141.571 86.3322 141.564H127.592C127.866 141.571 128.136 141.629 128.386 141.734C128.635 141.84 128.86 141.991 129.047 142.179C129.233 142.368 129.378 142.589 129.472 142.83C129.567 143.072 129.608 143.329 129.595 143.585C129.608 143.842 129.567 144.099 129.472 144.34C129.378 144.582 129.233 144.803 129.047 144.992C128.86 145.18 128.635 145.331 128.386 145.437C128.136 145.543 127.866 145.6 127.592 145.607Z" fill="#264DE4"/>
<path d="M97.7837 154.328H56.5243C56.2503 154.321 55.9803 154.264 55.7306 154.158C55.4806 154.053 55.2559 153.901 55.069 153.713C54.8825 153.524 54.7378 153.303 54.6437 153.062C54.5494 152.82 54.5075 152.563 54.5206 152.307C54.5075 152.05 54.5494 151.793 54.6437 151.552C54.7378 151.31 54.8825 151.089 55.069 150.901C55.2559 150.712 55.4806 150.561 55.7306 150.455C55.9803 150.35 56.2503 150.292 56.5243 150.286H97.7837C98.0578 150.292 98.3275 150.35 98.5775 150.455C98.8275 150.561 99.0522 150.712 99.2387 150.901C99.4256 151.089 99.5703 151.31 99.6643 151.552C99.7587 151.793 99.8003 152.05 99.7875 152.307C99.8003 152.563 99.7587 152.82 99.6643 153.062C99.5703 153.303 99.4256 153.524 99.2387 153.713C99.0522 153.901 98.8275 154.053 98.5775 154.158C98.3275 154.264 98.0578 154.321 97.7837 154.328Z" fill="#E4A126"/>
<path d="M46.9148 122.394C46.9148 122.794 46.7886 123.184 46.5517 123.517C46.3151 123.849 45.9786 124.108 45.5848 124.261C45.1911 124.414 44.758 124.454 44.3401 124.376C43.922 124.298 43.5383 124.106 43.237 123.823C42.9355 123.54 42.7305 123.18 42.6473 122.788C42.5642 122.396 42.6067 121.99 42.7698 121.62C42.933 121.251 43.2092 120.935 43.5633 120.713C43.9176 120.491 44.3342 120.373 44.7605 120.373C45.3317 120.373 45.8798 120.586 46.2839 120.965C46.688 121.344 46.9148 121.858 46.9148 122.394Z" fill="#455A64"/>
<path d="M46.9148 112.409C46.9148 112.809 46.7886 113.2 46.5517 113.532C46.3151 113.865 45.9786 114.124 45.5848 114.277C45.1911 114.43 44.758 114.47 44.3401 114.392C43.922 114.314 43.5383 114.121 43.237 113.839C42.9355 113.556 42.7305 113.196 42.6473 112.804C42.5642 112.412 42.6067 112.005 42.7698 111.636C42.933 111.267 43.2092 110.951 43.5633 110.729C43.9176 110.507 44.3342 110.388 44.7605 110.388C45.3317 110.388 45.8798 110.601 46.2839 110.98C46.688 111.359 46.9148 111.874 46.9148 112.409Z" fill="#455A64"/>
<path d="M46.9148 132.803C46.9148 133.203 46.7886 133.593 46.5517 133.926C46.3151 134.258 45.9786 134.517 45.5848 134.67C45.1911 134.823 44.758 134.863 44.3401 134.785C43.922 134.707 43.5383 134.515 43.237 134.232C42.9355 133.949 42.7305 133.589 42.6473 133.197C42.5642 132.805 42.6067 132.399 42.7698 132.029C42.933 131.66 43.2092 131.344 43.5633 131.122C43.9176 130.9 44.3342 130.782 44.7605 130.782C45.3317 130.782 45.8798 130.995 46.2839 131.374C46.688 131.753 46.9148 132.267 46.9148 132.803Z" fill="#455A64"/>
<path d="M46.9148 143.616C46.9148 144.016 46.7886 144.406 46.5517 144.739C46.3151 145.071 45.9786 145.33 45.5848 145.483C45.1911 145.636 44.758 145.676 44.3401 145.598C43.922 145.52 43.5383 145.328 43.237 145.045C42.9355 144.762 42.7305 144.402 42.6473 144.01C42.5642 143.618 42.6067 143.212 42.7698 142.842C42.933 142.473 43.2092 142.157 43.5633 141.935C43.9176 141.713 44.3342 141.595 44.7605 141.595C45.3317 141.595 45.8798 141.808 46.2839 142.187C46.688 142.566 46.9148 143.08 46.9148 143.616Z" fill="#455A64"/>
<path d="M76.6694 192.598H57.0738C56.5022 192.598 55.9544 192.386 55.5503 192.006C55.1463 191.627 54.9191 191.112 54.9191 190.576C54.9191 190.041 55.1463 189.526 55.5503 189.148C55.9544 188.769 56.5022 188.556 57.0738 188.556H76.6694C77.2406 188.556 77.7888 188.769 78.1928 189.148C78.5969 189.526 78.8238 190.041 78.8238 190.576C78.8238 191.112 78.5969 191.627 78.1928 192.006C77.7888 192.386 77.2406 192.598 76.6694 192.598Z" fill="#E4A126"/>
<path d="M76.1091 174.792H56.5134C55.9422 174.792 55.3941 174.58 54.99 174.2C54.5859 173.822 54.3591 173.308 54.3591 172.77C54.3591 172.234 54.5859 171.72 54.99 171.342C55.3941 170.962 55.9422 170.75 56.5134 170.75H76.1091C76.6803 170.75 77.2285 170.962 77.6325 171.342C78.0366 171.72 78.2635 172.234 78.2635 172.77C78.2635 173.308 78.0366 173.822 77.6325 174.2C77.2285 174.58 76.6803 174.792 76.1091 174.792Z" fill="#E44D26"/>
<path d="M127.592 174.792H86.3322C86.0585 174.786 85.7885 174.728 85.5385 174.622C85.2888 174.517 85.0638 174.366 84.8772 174.177C84.6906 173.989 84.546 173.767 84.4516 173.527C84.3575 173.284 84.3156 173.028 84.3288 172.77C84.3156 172.514 84.3575 172.258 84.4516 172.016C84.546 171.775 84.6906 171.553 84.8772 171.366C85.0638 171.177 85.2888 171.025 85.5385 170.92C85.7885 170.814 86.0585 170.756 86.3322 170.75H127.592C127.866 170.756 128.136 170.814 128.386 170.92C128.635 171.025 128.86 171.177 129.047 171.366C129.233 171.553 129.378 171.775 129.472 172.016C129.567 172.258 129.608 172.514 129.595 172.77C129.608 173.028 129.567 173.284 129.472 173.527C129.378 173.767 129.233 173.989 129.047 174.177C128.86 174.366 128.635 174.517 128.386 174.622C128.136 174.728 127.866 174.786 127.592 174.792Z" fill="#E4A126"/>
<path d="M97.7837 183.514H56.5243C56.2503 183.506 55.9803 183.45 55.7306 183.344C55.4806 183.237 55.2559 183.086 55.069 182.898C54.8825 182.709 54.7378 182.489 54.6437 182.247C54.5494 182.006 54.5075 181.748 54.5206 181.492C54.5075 181.236 54.5494 180.978 54.6437 180.737C54.7378 180.495 54.8825 180.275 55.069 180.086C55.2559 179.898 55.4806 179.747 55.7306 179.64C55.9803 179.536 56.2503 179.478 56.5243 179.472H97.7837C98.0578 179.478 98.3275 179.536 98.5775 179.64C98.8275 179.747 99.0522 179.898 99.2387 180.086C99.4256 180.275 99.5703 180.495 99.6643 180.737C99.7587 180.978 99.8003 181.236 99.7875 181.492C99.8003 181.748 99.7587 182.006 99.6643 182.247C99.5703 182.489 99.4256 182.709 99.2387 182.898C99.0522 183.086 98.8275 183.237 98.5775 183.344C98.3275 183.45 98.0578 183.506 97.7837 183.514Z" fill="#264DE4"/>
<path d="M46.9148 172.802C46.9148 173.202 46.7886 173.592 46.5517 173.925C46.3151 174.256 45.9786 174.516 45.5848 174.669C45.1911 174.822 44.758 174.861 44.3401 174.784C43.922 174.706 43.5383 174.513 43.237 174.231C42.9355 173.949 42.7305 173.588 42.6473 173.195C42.5642 172.803 42.6067 172.397 42.7698 172.028C42.933 171.658 43.2092 171.342 43.5633 171.12C43.9176 170.899 44.3342 170.78 44.7605 170.78C45.3317 170.78 45.8798 170.994 46.2839 171.372C46.688 171.752 46.9148 172.266 46.9148 172.802Z" fill="#455A64"/>
<path d="M67.8035 110.975H55.5441C54.9728 110.975 54.5097 111.409 54.5097 111.945V113.855C54.5097 114.39 54.9728 114.825 55.5441 114.825H67.8035C68.3744 114.825 68.8375 114.39 68.8375 113.855V111.945C68.8375 111.409 68.3744 110.975 67.8035 110.975Z" fill="#455A64"/>
<path d="M76.1091 216.377H56.5134C55.9422 216.377 55.3941 216.164 54.99 215.785C54.5859 215.406 54.3591 214.892 54.3591 214.356C54.3591 213.82 54.5859 213.306 54.99 212.927C55.3941 212.549 55.9422 212.334 56.5134 212.334H76.1091C76.6803 212.334 77.2285 212.549 77.6325 212.927C78.0366 213.306 78.2635 213.82 78.2635 214.356C78.2635 214.892 78.0366 215.406 77.6325 215.785C77.2285 216.164 76.6803 216.377 76.1091 216.377Z" fill="#263238"/>
<path d="M107.49 216.377H87.8945C87.3233 216.377 86.7752 216.164 86.3711 215.785C85.967 215.406 85.7402 214.892 85.7402 214.356C85.7402 213.82 85.967 213.306 86.3711 212.927C86.7752 212.549 87.3233 212.334 87.8945 212.334H107.49C108.061 212.334 108.61 212.549 109.014 212.927C109.418 213.306 109.645 213.82 109.645 214.356C109.645 214.892 109.418 215.406 109.014 215.785C108.61 216.164 108.061 216.377 107.49 216.377Z" fill="#455A64"/>
<path d="M46.9148 214.386C46.9148 214.786 46.7886 215.177 46.5517 215.509C46.3151 215.842 45.9786 216.1 45.5848 216.253C45.1911 216.406 44.758 216.447 44.3401 216.369C43.922 216.291 43.5383 216.099 43.237 215.816C42.9355 215.533 42.7305 215.174 42.6473 214.781C42.5642 214.389 42.6067 213.983 42.7698 213.613C42.933 213.244 43.2092 212.928 43.5633 212.706C43.9176 212.484 44.3342 212.366 44.7605 212.366C45.3317 212.366 45.8798 212.578 46.2839 212.958C46.688 213.336 46.9148 213.85 46.9148 214.386Z" fill="#455A64"/>
<path d="M46.9148 223.986C46.9148 224.386 46.7886 224.777 46.5517 225.11C46.3151 225.442 45.9786 225.702 45.5848 225.855C45.1911 226.006 44.758 226.047 44.3401 225.969C43.922 225.891 43.5383 225.699 43.237 225.416C42.9355 225.133 42.7305 224.774 42.6473 224.381C42.5642 223.989 42.6067 223.583 42.7698 223.213C42.933 222.844 43.2092 222.528 43.5633 222.306C43.9176 222.085 44.3342 221.966 44.7605 221.966C45.3317 221.966 45.8798 222.178 46.2839 222.558C46.688 222.936 46.9148 223.45 46.9148 223.986Z" fill="#455A64"/>
<path d="M67.8035 222.552H55.5441C54.9728 222.552 54.5097 222.986 54.5097 223.522V225.431C54.5097 225.967 54.9728 226.402 55.5441 226.402H67.8035C68.3744 226.402 68.8375 225.967 68.8375 225.431V223.522C68.8375 222.986 68.3744 222.552 67.8035 222.552Z" fill="#455A64"/>
<path d="M337.572 218.055H143.287V333.988H337.572V218.055Z" fill="white"/>
<path d="M178.277 218.055H143.287V333.988H178.277V218.055Z" fill="#E0E0E0"/>
<path d="M158.67 230.566C158.853 230.464 159.048 230.384 159.253 230.333L159.372 229.788H160.341L160.492 230.324C160.695 230.374 160.891 230.449 161.073 230.545L161.569 230.242L162.269 230.869L161.967 231.344C162.077 231.514 162.159 231.697 162.216 231.889L162.797 232V232.92L162.227 233.052C162.18 233.247 162.105 233.433 162 233.608L162.323 234.063L161.644 234.719L161.138 234.436C160.956 234.541 160.761 234.623 160.556 234.678L160.438 235.214H159.458L159.317 234.678C159.114 234.628 158.919 234.553 158.736 234.456L158.241 234.759L157.539 234.123L157.842 233.648C157.733 233.478 157.648 233.294 157.594 233.102L157.013 232.991V232.081L157.583 231.95C157.631 231.756 157.708 231.569 157.809 231.394L157.486 230.93L158.164 230.272L158.67 230.555V230.566ZM159.188 231.789C159 231.975 158.895 232.223 158.895 232.481C158.895 232.738 159 232.986 159.188 233.173C159.389 233.352 159.655 233.452 159.931 233.452C160.208 233.452 160.475 233.352 160.675 233.173C160.797 232.977 160.847 232.749 160.814 232.524C160.781 232.299 160.669 232.091 160.494 231.933C160.32 231.775 160.094 231.677 159.853 231.655C159.613 231.633 159.37 231.686 159.167 231.808L159.188 231.789Z" fill="#9A9A9A"/>
<path d="M166.75 256.183H151.518C151.312 256.183 151.108 256.145 150.918 256.07C150.728 255.997 150.555 255.887 150.41 255.75C150.264 255.614 150.149 255.452 150.072 255.272C149.994 255.092 149.954 254.902 149.956 254.708C149.956 254.319 150.12 253.947 150.413 253.672C150.706 253.397 151.104 253.242 151.518 253.242H166.772C166.978 253.241 167.183 253.278 167.373 253.352C167.564 253.425 167.737 253.533 167.883 253.669C168.03 253.805 168.145 253.967 168.225 254.145C168.305 254.323 168.345 254.514 168.345 254.708C168.345 254.903 168.303 255.097 168.223 255.278C168.142 255.458 168.025 255.622 167.877 255.758C167.728 255.895 167.552 256.005 167.359 256.077C167.166 256.15 166.959 256.186 166.75 256.183Z" fill="#9A9A9A"/>
<path d="M166.75 248.695H151.518C151.102 248.692 150.705 248.536 150.413 248.259C150.12 247.983 149.956 247.609 149.956 247.22C149.956 246.831 150.12 246.458 150.413 246.184C150.706 245.909 151.104 245.754 151.518 245.754H166.772C166.978 245.753 167.183 245.79 167.373 245.862C167.564 245.936 167.737 246.043 167.883 246.179C168.03 246.315 168.145 246.478 168.225 246.656C168.305 246.834 168.345 247.026 168.345 247.22C168.345 247.415 168.303 247.609 168.223 247.789C168.142 247.968 168.025 248.133 167.877 248.27C167.728 248.408 167.552 248.515 167.359 248.589C167.166 248.661 166.959 248.698 166.75 248.695Z" fill="#9A9A9A"/>
<path d="M166.75 241.833H151.518C151.104 241.833 150.706 241.68 150.413 241.405C150.12 241.13 149.956 240.756 149.956 240.369C149.956 239.978 150.12 239.605 150.413 239.328C150.705 239.051 151.102 238.895 151.518 238.892H166.772C167.18 238.898 167.57 239.051 167.859 239.32C168.148 239.591 168.316 239.955 168.323 240.337C168.328 240.534 168.291 240.728 168.212 240.911C168.136 241.092 168.02 241.258 167.873 241.397C167.727 241.536 167.552 241.647 167.359 241.722C167.166 241.797 166.959 241.834 166.75 241.833Z" fill="#9A9A9A"/>
<path d="M207.741 235.184H193.284C192.869 235.184 192.472 235.03 192.18 234.755C191.886 234.48 191.722 234.108 191.722 233.719C191.72 233.525 191.759 233.333 191.838 233.155C191.916 232.975 192.03 232.812 192.175 232.676C192.32 232.539 192.494 232.43 192.683 232.356C192.873 232.281 193.078 232.244 193.284 232.244H207.741C207.947 232.244 208.15 232.281 208.341 232.356C208.531 232.43 208.703 232.539 208.848 232.676C208.994 232.812 209.109 232.975 209.187 233.155C209.264 233.333 209.305 233.525 209.303 233.719C209.303 234.108 209.137 234.48 208.845 234.755C208.552 235.03 208.155 235.184 207.741 235.184Z" fill="#E44D26"/>
<path d="M207.741 242.884H193.284C193.078 242.884 192.873 242.847 192.683 242.772C192.494 242.697 192.32 242.589 192.175 242.452C192.03 242.314 191.916 242.152 191.838 241.974C191.759 241.794 191.72 241.602 191.722 241.409C191.722 241.02 191.886 240.647 192.18 240.374C192.472 240.099 192.869 239.944 193.284 239.944H207.741C208.155 239.944 208.552 240.099 208.845 240.374C209.137 240.647 209.303 241.02 209.303 241.409C209.305 241.602 209.264 241.794 209.187 241.974C209.109 242.152 208.994 242.314 208.848 242.452C208.703 242.589 208.531 242.697 208.341 242.772C208.15 242.847 207.947 242.884 207.741 242.884Z" fill="#E4A126"/>
<path d="M207.741 250.838H193.284C192.869 250.838 192.472 250.683 192.18 250.408C191.886 250.133 191.722 249.761 191.722 249.372C191.72 249.18 191.759 248.988 191.838 248.808C191.916 248.63 192.03 248.467 192.175 248.33C192.32 248.192 192.494 248.083 192.683 248.009C192.873 247.934 193.078 247.897 193.284 247.897H207.741C207.947 247.897 208.15 247.934 208.341 248.009C208.531 248.083 208.703 248.192 208.848 248.33C208.994 248.467 209.109 248.63 209.187 248.808C209.264 248.988 209.305 249.18 209.303 249.372C209.303 249.761 209.137 250.133 208.845 250.408C208.552 250.683 208.155 250.838 207.741 250.838Z" fill="#E44D26"/>
<path d="M201.578 266.219H193.284C193.078 266.219 192.873 266.18 192.683 266.106C192.494 266.031 192.32 265.924 192.175 265.786C192.03 265.649 191.916 265.486 191.838 265.306C191.759 265.128 191.72 264.936 191.722 264.744C191.722 264.355 191.886 263.981 192.18 263.706C192.472 263.433 192.869 263.278 193.284 263.278H201.578C201.992 263.278 202.391 263.433 202.683 263.706C202.977 263.981 203.141 264.355 203.141 264.744C203.142 264.936 203.103 265.128 203.025 265.306C202.947 265.486 202.833 265.649 202.687 265.786C202.542 265.924 202.369 266.031 202.178 266.106C201.989 266.18 201.784 266.219 201.578 266.219Z" fill="#263238"/>
<path d="M201.578 274.192H193.284C193.078 274.192 192.873 274.153 192.683 274.079C192.494 274.004 192.32 273.897 192.175 273.759C192.03 273.622 191.916 273.459 191.838 273.279C191.759 273.101 191.72 272.909 191.722 272.717C191.722 272.328 191.886 271.955 192.18 271.68C192.472 271.406 192.869 271.251 193.284 271.251H201.578C201.992 271.251 202.391 271.406 202.683 271.68C202.977 271.955 203.141 272.328 203.141 272.717C203.142 272.909 203.103 273.101 203.025 273.279C202.947 273.459 202.833 273.622 202.687 273.759C202.542 273.897 202.369 274.004 202.178 274.079C201.989 274.153 201.784 274.192 201.578 274.192Z" fill="#263238"/>
<path d="M226.194 274.192H211.005C210.588 274.192 210.188 274.036 209.892 273.759C209.597 273.483 209.431 273.108 209.431 272.717C209.434 272.326 209.602 271.955 209.897 271.68C210.191 271.405 210.589 271.252 211.005 271.252H226.194C226.4 271.25 226.605 271.286 226.795 271.359C226.986 271.433 227.159 271.541 227.306 271.676C227.452 271.812 227.567 271.975 227.647 272.153C227.727 272.331 227.767 272.523 227.767 272.717C227.767 273.108 227.602 273.483 227.306 273.759C227.011 274.036 226.611 274.192 226.194 274.192Z" fill="#264DE4"/>
<path d="M217.608 281.277H202.408C201.994 281.277 201.597 281.122 201.303 280.847C201.011 280.572 200.845 280.2 200.845 279.811C200.845 279.42 201.011 279.047 201.303 278.77C201.595 278.494 201.992 278.338 202.408 278.336H217.608C218.023 278.338 218.42 278.494 218.714 278.77C219.006 279.047 219.17 279.42 219.17 279.811C219.17 280.2 219.006 280.572 218.712 280.847C218.42 281.122 218.023 281.277 217.608 281.277Z" fill="#E44D26"/>
<path d="M220.969 286.43H210.531C209.942 286.43 209.464 286.878 209.464 287.43V288.37C209.464 288.924 209.942 289.37 210.531 289.37H220.969C221.558 289.37 222.036 288.924 222.036 288.37V287.43C222.036 286.878 221.558 286.43 220.969 286.43Z" fill="#E44D26"/>
<path d="M220.463 305.216H211.027C210.82 305.216 210.616 305.178 210.425 305.105C210.233 305.03 210.059 304.922 209.914 304.784C209.769 304.647 209.652 304.484 209.573 304.306C209.494 304.126 209.453 303.934 209.453 303.741C209.453 303.547 209.494 303.356 209.573 303.178C209.653 303 209.769 302.837 209.914 302.701C210.061 302.566 210.234 302.458 210.425 302.384C210.616 302.311 210.82 302.275 211.027 302.275H220.463C220.878 302.275 221.275 302.43 221.567 302.705C221.861 302.98 222.025 303.351 222.025 303.741C222.027 303.934 221.988 304.127 221.909 304.305C221.831 304.484 221.717 304.647 221.572 304.783C221.427 304.92 221.253 305.03 221.064 305.103C220.873 305.178 220.669 305.216 220.463 305.216Z" fill="#E44D26"/>
<path d="M220.463 321.95H211.027C210.82 321.953 210.616 321.916 210.425 321.844C210.234 321.769 210.061 321.662 209.914 321.525C209.769 321.391 209.653 321.228 209.573 321.05C209.494 320.872 209.453 320.678 209.453 320.487C209.453 320.294 209.494 320.1 209.573 319.922C209.652 319.744 209.769 319.581 209.914 319.444C210.059 319.306 210.233 319.197 210.425 319.122C210.616 319.05 210.82 319.009 211.027 319.009H220.463C220.669 319.009 220.873 319.05 221.064 319.122C221.253 319.197 221.427 319.306 221.572 319.444C221.717 319.581 221.831 319.744 221.909 319.922C221.988 320.1 222.027 320.294 222.025 320.487C222.025 320.875 221.861 321.247 221.567 321.522C221.275 321.797 220.878 321.95 220.463 321.95Z" fill="#E44D26"/>
<path d="M243.678 321.95H227.131C226.925 321.953 226.722 321.916 226.53 321.844C226.339 321.769 226.166 321.662 226.02 321.525C225.873 321.391 225.758 321.228 225.678 321.05C225.6 320.872 225.559 320.678 225.559 320.487C225.559 320.094 225.725 319.719 226.019 319.444C226.314 319.166 226.714 319.009 227.131 319.009H243.678C243.884 319.009 244.089 319.05 244.278 319.122C244.469 319.197 244.642 319.306 244.786 319.444C244.931 319.581 245.047 319.744 245.125 319.922C245.203 320.1 245.242 320.294 245.241 320.487C245.241 320.875 245.075 321.247 244.783 321.522C244.491 321.797 244.092 321.95 243.678 321.95Z" fill="#455A64"/>
<path d="M255.259 321.95H252.878C252.672 321.953 252.467 321.916 252.277 321.844C252.086 321.769 251.913 321.662 251.767 321.525C251.62 321.391 251.505 321.228 251.425 321.05C251.345 320.872 251.305 320.678 251.305 320.487C251.305 320.294 251.345 320.1 251.425 319.922C251.505 319.744 251.62 319.581 251.766 319.444C251.913 319.306 252.086 319.197 252.277 319.122C252.467 319.05 252.672 319.009 252.878 319.009H255.259C255.677 319.009 256.077 319.166 256.37 319.444C256.666 319.719 256.831 320.094 256.831 320.487C256.828 320.875 256.663 321.247 256.367 321.522C256.072 321.797 255.673 321.95 255.259 321.95Z" fill="#E4A126"/>
<path d="M242.688 305.216H228.683C228.266 305.216 227.866 305.061 227.57 304.784C227.275 304.508 227.109 304.133 227.109 303.741C227.109 303.547 227.15 303.356 227.23 303.178C227.309 303 227.425 302.837 227.572 302.701C227.717 302.566 227.891 302.458 228.081 302.384C228.272 302.311 228.477 302.275 228.683 302.275H242.688C243.102 302.275 243.498 302.43 243.792 302.705C244.084 302.98 244.25 303.351 244.25 303.741C244.25 303.934 244.211 304.127 244.133 304.305C244.056 304.484 243.941 304.647 243.795 304.783C243.65 304.92 243.478 305.03 243.287 305.103C243.097 305.178 242.894 305.216 242.688 305.216Z" fill="#264DE4"/>
<path d="M273.358 312.562H228.705C228.287 312.562 227.887 312.408 227.592 312.131C227.297 311.855 227.131 311.479 227.131 311.087C227.131 310.894 227.172 310.703 227.252 310.525C227.331 310.347 227.447 310.184 227.592 310.048C227.739 309.912 227.912 309.804 228.103 309.731C228.294 309.658 228.498 309.622 228.705 309.622H273.358C273.772 309.622 274.169 309.776 274.461 310.051C274.755 310.326 274.919 310.698 274.919 311.087C274.92 311.281 274.881 311.473 274.803 311.651C274.725 311.831 274.611 311.994 274.466 312.131C274.32 312.267 274.147 312.376 273.958 312.45C273.767 312.525 273.563 312.562 273.358 312.562Z" fill="#E4A126"/>
<path d="M278.506 305.216H250.002C249.584 305.216 249.184 305.061 248.889 304.784C248.595 304.508 248.43 304.133 248.43 303.741C248.431 303.351 248.598 302.978 248.894 302.705C249.188 302.43 249.586 302.275 250.002 302.275H278.506C278.712 302.275 278.917 302.311 279.108 302.384C279.298 302.458 279.472 302.566 279.617 302.701C279.764 302.837 279.88 303 279.959 303.178C280.039 303.356 280.08 303.547 280.08 303.741C280.08 304.133 279.914 304.508 279.619 304.784C279.323 305.061 278.923 305.216 278.506 305.216Z" fill="#455A64"/>
<path d="M240.016 286.43H227.206C226.617 286.43 226.141 286.878 226.141 287.43V288.37C226.141 288.924 226.617 289.37 227.206 289.37H240.016C240.605 289.37 241.083 288.924 241.083 288.37V287.43C241.083 286.878 240.605 286.43 240.016 286.43Z" fill="#455A64"/>
<path d="M250.239 286.43H246.306C245.717 286.43 245.241 286.878 245.241 287.43V288.37C245.241 288.924 245.717 289.37 246.306 289.37H250.239C250.828 289.37 251.305 288.924 251.305 288.37V287.43C251.305 286.878 250.828 286.43 250.239 286.43Z" fill="#E0E0E0"/>
<path d="M272.764 286.43H256.994C256.405 286.43 255.927 286.878 255.927 287.43V288.37C255.927 288.924 256.405 289.37 256.994 289.37H272.764C273.353 289.37 273.831 288.924 273.831 288.37V287.43C273.831 286.878 273.353 286.43 272.764 286.43Z" fill="#E0E0E0"/>
<path d="M227.897 281.277H224.514C224.308 281.277 224.103 281.241 223.912 281.167C223.722 281.094 223.548 280.986 223.402 280.85C223.256 280.714 223.141 280.552 223.061 280.373C222.981 280.195 222.941 280.003 222.941 279.811C222.941 279.419 223.106 279.044 223.402 278.767C223.697 278.491 224.097 278.336 224.514 278.336H227.897C228.311 278.338 228.709 278.494 229.002 278.77C229.294 279.047 229.458 279.42 229.458 279.811C229.458 280.2 229.294 280.572 229.002 280.847C228.708 281.122 228.311 281.277 227.897 281.277Z" fill="#263238"/>
<path d="M256.573 281.277H235.028C234.614 281.277 234.216 281.122 233.923 280.847C233.63 280.572 233.466 280.2 233.466 279.811C233.466 279.42 233.63 279.047 233.922 278.77C234.216 278.494 234.613 278.338 235.028 278.336H256.573C256.989 278.338 257.388 278.494 257.683 278.77C257.977 279.047 258.144 279.42 258.145 279.811C258.144 280.2 257.977 280.573 257.681 280.847C257.388 281.122 256.989 281.277 256.573 281.277Z" fill="#E4A126"/>
<path d="M230.88 235.184H216.434C216.02 235.184 215.622 235.03 215.33 234.755C215.036 234.48 214.872 234.108 214.872 233.719C214.87 233.525 214.909 233.333 214.987 233.155C215.066 232.975 215.181 232.812 215.327 232.676C215.47 232.539 215.644 232.43 215.834 232.356C216.023 232.281 216.228 232.244 216.434 232.244H230.88C231.297 232.244 231.697 232.398 231.992 232.675C232.287 232.951 232.453 233.326 232.453 233.719C232.453 233.912 232.412 234.103 232.333 234.281C232.255 234.459 232.137 234.622 231.992 234.758C231.845 234.894 231.672 235.001 231.481 235.075C231.291 235.148 231.086 235.184 230.88 235.184Z" fill="#455A64"/>
<path d="M249.55 242.885H216.434C216.228 242.885 216.023 242.847 215.834 242.772C215.644 242.697 215.47 242.589 215.327 242.452C215.181 242.314 215.066 242.152 214.987 241.974C214.909 241.794 214.87 241.602 214.872 241.41C214.872 241.02 215.036 240.647 215.33 240.374C215.622 240.099 216.02 239.944 216.434 239.944H249.55C249.755 239.942 249.959 239.98 250.15 240.052C250.341 240.125 250.514 240.233 250.661 240.369C250.808 240.505 250.923 240.667 251.002 240.845C251.081 241.025 251.122 241.216 251.122 241.41C251.122 241.8 250.956 242.175 250.661 242.452C250.367 242.728 249.967 242.885 249.55 242.885Z" fill="#263238"/>
<path d="M285.1 250.838H216.434C216.02 250.838 215.622 250.683 215.33 250.408C215.036 250.133 214.872 249.761 214.872 249.372C214.87 249.18 214.909 248.988 214.987 248.808C215.066 248.63 215.181 248.467 215.327 248.33C215.47 248.192 215.644 248.083 215.834 248.009C216.023 247.934 216.228 247.897 216.434 247.897H285.1C285.305 247.897 285.509 247.934 285.7 248.009C285.889 248.083 286.062 248.192 286.208 248.33C286.353 248.467 286.467 248.63 286.545 248.808C286.623 248.988 286.662 249.18 286.661 249.372C286.661 249.761 286.497 250.133 286.203 250.408C285.911 250.683 285.514 250.838 285.1 250.838Z" fill="#264DE4"/>
<path d="M248.806 256.447H216.434C216.019 256.444 215.622 256.288 215.33 256.011C215.036 255.735 214.872 255.361 214.872 254.97C214.872 254.583 215.036 254.21 215.33 253.935C215.622 253.66 216.02 253.505 216.434 253.505H248.806C249.012 253.505 249.216 253.541 249.408 253.614C249.598 253.688 249.772 253.796 249.917 253.931C250.064 254.067 250.18 254.23 250.259 254.408C250.337 254.586 250.378 254.778 250.378 254.97C250.378 255.363 250.212 255.738 249.919 256.014C249.623 256.291 249.223 256.447 248.806 256.447Z" fill="#E4A126"/>
<path d="M242.192 266.219H209.809C209.603 266.219 209.398 266.18 209.209 266.106C209.019 266.031 208.845 265.924 208.7 265.786C208.555 265.649 208.441 265.486 208.363 265.306C208.284 265.128 208.245 264.936 208.247 264.744C208.247 264.355 208.411 263.981 208.705 263.706C208.997 263.433 209.395 263.278 209.809 263.278H242.192C242.606 263.278 243.003 263.433 243.297 263.706C243.589 263.981 243.753 264.355 243.753 264.744C243.755 264.936 243.716 265.128 243.637 265.306C243.559 265.486 243.445 265.649 243.3 265.786C243.155 265.924 242.983 266.031 242.792 266.106C242.602 266.18 242.398 266.219 242.192 266.219Z" fill="#455A64"/>
<path d="M260.322 266.219H249.463C249.045 266.219 248.645 266.062 248.352 265.786C248.056 265.509 247.891 265.134 247.891 264.744C247.891 264.55 247.931 264.358 248.011 264.179C248.089 264.001 248.206 263.839 248.352 263.703C248.498 263.567 248.672 263.459 248.863 263.386C249.053 263.312 249.258 263.276 249.463 263.278H260.322C260.738 263.278 261.136 263.431 261.431 263.706C261.725 263.981 261.892 264.353 261.895 264.744C261.895 265.134 261.73 265.509 261.434 265.786C261.139 266.062 260.739 266.219 260.322 266.219Z" fill="#E44D26"/>
<path d="M288.063 266.167H267.594C267.387 266.169 267.183 266.133 266.992 266.059C266.802 265.986 266.628 265.878 266.483 265.742C266.336 265.606 266.22 265.444 266.141 265.266C266.061 265.088 266.02 264.895 266.02 264.703C266.02 264.311 266.186 263.936 266.481 263.659C266.777 263.383 267.177 263.227 267.594 263.227H288.063C288.267 263.227 288.472 263.266 288.663 263.339C288.852 263.414 289.025 263.523 289.17 263.659C289.316 263.797 289.43 263.959 289.508 264.139C289.586 264.317 289.625 264.509 289.623 264.703C289.623 265.091 289.459 265.464 289.166 265.739C288.873 266.014 288.477 266.167 288.063 266.167Z" fill="#263238"/>
<path d="M315.953 266.167H295.484C295.07 266.167 294.672 266.014 294.38 265.739C294.086 265.464 293.922 265.091 293.922 264.703C293.92 264.509 293.959 264.317 294.037 264.139C294.116 263.959 294.231 263.797 294.377 263.659C294.52 263.523 294.694 263.414 294.884 263.339C295.073 263.266 295.278 263.227 295.484 263.227H315.953C316.369 263.227 316.769 263.383 317.066 263.659C317.359 263.936 317.525 264.311 317.525 264.703C317.525 264.895 317.484 265.088 317.406 265.266C317.325 265.444 317.209 265.606 317.062 265.742C316.919 265.878 316.744 265.986 316.553 266.059C316.362 266.133 316.159 266.169 315.953 266.167Z" fill="#E4A126"/>
<path d="M160.136 264.117H151.518C151.102 264.114 150.705 263.958 150.413 263.681C150.12 263.405 149.956 263.031 149.956 262.64C149.956 262.253 150.12 261.88 150.413 261.605C150.706 261.33 151.104 261.175 151.518 261.175H160.136C160.55 261.175 160.948 261.33 161.241 261.605C161.533 261.88 161.698 262.253 161.698 262.64C161.698 263.031 161.534 263.405 161.241 263.681C160.948 263.958 160.552 264.114 160.136 264.117Z" fill="#9A9A9A"/>
<path d="M157.561 287.905H151.518C151.312 287.905 151.108 287.867 150.918 287.792C150.728 287.719 150.555 287.609 150.41 287.472C150.264 287.336 150.149 287.173 150.072 286.994C149.994 286.814 149.954 286.623 149.956 286.43C149.956 286.04 150.12 285.669 150.413 285.394C150.706 285.119 151.104 284.964 151.518 284.964H157.583C157.997 284.964 158.394 285.119 158.688 285.394C158.98 285.669 159.145 286.04 159.145 286.43C159.147 286.625 159.106 286.819 159.027 286.998C158.948 287.178 158.831 287.342 158.684 287.48C158.536 287.617 158.361 287.725 158.169 287.798C157.975 287.872 157.769 287.908 157.561 287.905Z" fill="#9A9A9A"/>
<path d="M168.323 272.039H151.518C151.104 272.039 150.706 271.885 150.413 271.611C150.12 271.336 149.956 270.963 149.956 270.574C149.954 270.381 149.994 270.189 150.072 270.011C150.149 269.831 150.264 269.669 150.41 269.531C150.555 269.394 150.728 269.286 150.918 269.211C151.108 269.138 151.312 269.099 151.518 269.099H168.323C168.53 269.099 168.733 269.138 168.923 269.211C169.114 269.286 169.286 269.394 169.431 269.531C169.577 269.669 169.692 269.831 169.77 270.011C169.847 270.189 169.887 270.381 169.886 270.574C169.886 270.963 169.72 271.336 169.428 271.611C169.134 271.885 168.737 272.039 168.323 272.039Z" fill="#9A9A9A"/>
<path d="M165.372 279.972H151.518C151.104 279.972 150.706 279.817 150.413 279.544C150.12 279.269 149.956 278.895 149.956 278.506C149.954 278.314 149.994 278.122 150.072 277.944C150.149 277.764 150.264 277.602 150.41 277.464C150.555 277.327 150.728 277.219 150.918 277.144C151.108 277.07 151.312 277.031 151.518 277.031H165.394C165.598 277.031 165.803 277.07 165.994 277.144C166.184 277.219 166.356 277.327 166.502 277.464C166.647 277.602 166.761 277.764 166.839 277.944C166.917 278.122 166.956 278.314 166.955 278.506C166.955 278.702 166.914 278.894 166.834 279.072C166.755 279.252 166.638 279.414 166.491 279.55C166.342 279.686 166.169 279.794 165.977 279.867C165.784 279.939 165.578 279.975 165.372 279.972Z" fill="#9A9A9A"/>
<path d="M186.206 233.719C186.206 234.014 186.113 234.303 185.938 234.55C185.763 234.795 185.513 234.987 185.222 235.1C184.93 235.214 184.609 235.244 184.3 235.186C183.991 235.128 183.708 234.986 183.484 234.776C183.261 234.567 183.109 234.3 183.048 234.011C182.986 233.72 183.017 233.419 183.139 233.147C183.259 232.873 183.464 232.639 183.727 232.475C183.988 232.311 184.297 232.223 184.611 232.223C185.034 232.223 185.441 232.379 185.739 232.661C186.038 232.94 186.206 233.322 186.206 233.719Z" fill="#455A64"/>
<path d="M184.611 227.362C185.492 227.362 186.206 226.692 186.206 225.865C186.206 225.04 185.492 224.37 184.611 224.37C183.731 224.37 183.017 225.04 183.017 225.865C183.017 226.692 183.731 227.362 184.611 227.362Z" fill="#455A64"/>
<path d="M184.611 242.884C185.492 242.884 186.206 242.214 186.206 241.389C186.206 240.562 185.492 239.894 184.611 239.894C183.731 239.894 183.017 240.562 183.017 241.389C183.017 242.214 183.731 242.884 184.611 242.884Z" fill="#455A64"/>
<path d="M184.611 250.867C185.492 250.867 186.206 250.198 186.206 249.372C186.206 248.547 185.492 247.876 184.611 247.876C183.731 247.876 183.017 248.547 183.017 249.372C183.017 250.198 183.731 250.867 184.611 250.867Z" fill="#455A64"/>
<path d="M184.611 258.841C185.492 258.841 186.206 258.172 186.206 257.345C186.206 256.52 185.492 255.85 184.611 255.85C183.731 255.85 183.017 256.52 183.017 257.345C183.017 258.172 183.731 258.841 184.611 258.841Z" fill="#455A64"/>
<path d="M186.206 265.319C186.208 265.616 186.117 265.905 185.942 266.153C185.769 266.4 185.52 266.594 185.23 266.708C184.937 266.824 184.617 266.853 184.308 266.797C183.997 266.741 183.712 266.599 183.487 266.391C183.264 266.181 183.111 265.916 183.048 265.625C182.986 265.335 183.017 265.033 183.137 264.76C183.258 264.486 183.462 264.252 183.725 264.086C183.987 263.922 184.295 263.833 184.611 263.833C185.033 263.833 185.436 263.989 185.736 264.267C186.034 264.547 186.203 264.924 186.206 265.319Z" fill="#455A64"/>
<path d="M184.611 274.798C185.492 274.798 186.206 274.128 186.206 273.303C186.206 272.476 185.492 271.806 184.611 271.806C183.731 271.806 183.017 272.476 183.017 273.303C183.017 274.128 183.731 274.798 184.611 274.798Z" fill="#455A64"/>
<path d="M184.611 282.772C185.492 282.772 186.206 282.102 186.206 281.277C186.206 280.45 185.492 279.78 184.611 279.78C183.731 279.78 183.017 280.45 183.017 281.277C183.017 282.102 183.731 282.772 184.611 282.772Z" fill="#455A64"/>
<path d="M186.206 289.259C186.206 289.555 186.113 289.844 185.938 290.091C185.763 290.336 185.513 290.528 185.222 290.641C184.93 290.755 184.609 290.784 184.3 290.727C183.991 290.669 183.708 290.527 183.484 290.317C183.261 290.108 183.109 289.841 183.048 289.552C182.986 289.261 183.017 288.961 183.139 288.688C183.259 288.414 183.464 288.18 183.727 288.016C183.988 287.852 184.297 287.764 184.611 287.764C185.034 287.764 185.441 287.922 185.739 288.202C186.038 288.483 186.206 288.863 186.206 289.259Z" fill="#455A64"/>
<path d="M186.206 297.233C186.206 297.528 186.113 297.817 185.938 298.064C185.763 298.309 185.513 298.501 185.222 298.614C184.93 298.728 184.609 298.758 184.3 298.7C183.991 298.642 183.708 298.5 183.484 298.29C183.261 298.081 183.109 297.814 183.048 297.525C182.986 297.234 183.017 296.934 183.139 296.661C183.259 296.387 183.464 296.153 183.727 295.989C183.988 295.825 184.297 295.737 184.611 295.737C185.034 295.737 185.441 295.895 185.739 296.175C186.038 296.456 186.206 296.836 186.206 297.233Z" fill="#455A64"/>
<path d="M184.611 306.712C185.492 306.712 186.206 306.042 186.206 305.216C186.206 304.391 185.492 303.72 184.611 303.72C183.731 303.72 183.017 304.391 183.017 305.216C183.017 306.042 183.731 306.712 184.611 306.712Z" fill="#455A64"/>
<path d="M186.206 313.191C186.206 313.484 186.113 313.775 185.938 314.022C185.763 314.266 185.513 314.459 185.222 314.572C184.93 314.684 184.609 314.716 184.3 314.656C183.991 314.6 183.708 314.456 183.484 314.247C183.261 314.037 183.109 313.772 183.048 313.481C182.986 313.191 183.017 312.891 183.139 312.619C183.259 312.344 183.464 312.111 183.727 311.947C183.988 311.781 184.297 311.694 184.611 311.694C185.034 311.694 185.441 311.852 185.739 312.133C186.038 312.413 186.206 312.794 186.206 313.191Z" fill="#455A64"/>
<path d="M184.611 322.669C185.492 322.669 186.206 322 186.206 321.172C186.206 320.347 185.492 319.678 184.611 319.678C183.731 319.678 183.017 320.347 183.017 321.172C183.017 322 183.731 322.669 184.611 322.669Z" fill="#455A64"/>
<path d="M149.116 202.25H333.447C334.541 202.25 335.591 202.658 336.366 203.383C337.138 204.109 337.572 205.094 337.572 206.12V218.105H143.287V207.706C143.287 206.989 143.438 206.278 143.731 205.616C144.024 204.953 144.454 204.352 144.995 203.844C145.537 203.338 146.179 202.936 146.886 202.663C147.593 202.388 148.351 202.248 149.116 202.25Z" fill="#D7D7D7"/>
<path d="M153.328 212.809C154.607 212.809 155.644 211.837 155.644 210.637C155.644 209.437 154.607 208.464 153.328 208.464C152.048 208.464 151.012 209.437 151.012 210.637C151.012 211.837 152.048 212.809 153.328 212.809Z" fill="#E44D26"/>
<path d="M162.764 210.637C162.764 211.067 162.628 211.487 162.375 211.844C162.12 212.201 161.758 212.48 161.334 212.644C160.911 212.809 160.445 212.851 159.997 212.769C159.547 212.684 159.134 212.476 158.811 212.173C158.488 211.87 158.266 211.483 158.177 211.061C158.088 210.639 158.133 210.203 158.309 209.806C158.484 209.409 158.781 209.069 159.161 208.831C159.542 208.592 159.991 208.464 160.448 208.464C160.753 208.462 161.055 208.519 161.336 208.626C161.619 208.736 161.873 208.895 162.089 209.098C162.305 209.3 162.475 209.539 162.591 209.805C162.708 210.069 162.766 210.351 162.764 210.637Z" fill="#E4A126"/>
<path d="M169.886 210.637C169.886 211.067 169.75 211.487 169.495 211.844C169.241 212.201 168.878 212.48 168.456 212.644C168.033 212.809 167.567 212.851 167.117 212.769C166.669 212.684 166.255 212.476 165.931 212.173C165.608 211.87 165.388 211.483 165.297 211.061C165.208 210.639 165.255 210.203 165.43 209.806C165.605 209.409 165.902 209.069 166.283 208.831C166.664 208.592 167.111 208.464 167.569 208.464C167.873 208.462 168.175 208.519 168.458 208.626C168.739 208.736 168.995 208.895 169.209 209.098C169.425 209.3 169.595 209.539 169.712 209.805C169.828 210.069 169.887 210.351 169.886 210.637Z" fill="#62BD6B"/>
<path d="M184.611 332.178L201.041 348.844L215.939 332.178H184.611Z" fill="white"/>
<path d="M332.306 333.997C332.884 333.966 333.456 333.862 334.006 333.694C334.806 333.431 335.528 332.987 336.106 332.406C336.684 331.822 337.103 331.116 337.325 330.35C337.481 329.816 337.544 329.262 337.509 328.712V326.853C337.509 325.55 337.509 324.125 337.509 322.587C337.509 319.506 337.509 315.95 337.509 311.947C337.509 295.93 337.453 272.767 337.422 244.137C337.422 236.983 337.422 229.494 337.422 221.672C337.422 217.758 337.422 213.773 337.422 209.717C337.422 208.706 337.422 207.697 337.422 206.686C337.306 205.695 336.862 204.765 336.15 204.026C335.437 203.289 334.497 202.78 333.459 202.573C332.362 202.462 331.262 202.428 330.162 202.472H272.872H209.561H150.311C149.6 202.472 148.836 202.472 148.157 202.472C147.471 202.534 146.807 202.73 146.207 203.048C145.605 203.37 145.08 203.805 144.667 204.326C144.253 204.848 143.96 205.445 143.805 206.08C143.659 207.003 143.612 207.937 143.665 208.869V250.887C143.665 265.541 143.665 279.837 143.665 293.776V314.322C143.665 317.691 143.665 321.034 143.665 324.356C143.665 326.003 143.665 327.672 143.665 329.287C143.713 330.066 143.969 330.819 144.407 331.481C144.845 332.144 145.453 332.691 146.175 333.078C146.893 333.466 147.705 333.678 148.534 333.694H185.991L186.066 333.766L201.148 348.622H200.814L214 333.866L214.064 333.797H214.161L300.525 333.875L324.106 333.937L300.525 333.997L214.161 334.078L214.323 334.006L201.072 348.975L200.911 349.156L200.739 348.984L185.656 334.15L185.83 334.219H148.448C147.54 334.194 146.653 333.959 145.862 333.544C145.065 333.116 144.394 332.512 143.908 331.781C143.423 331.05 143.14 330.219 143.083 329.359C143.083 327.681 143.083 326.053 143.083 324.397V314.362C143.083 307.625 143.083 300.776 143.083 293.817V250.939C143.083 243.616 143.083 236.205 143.083 228.706V207.484C143.07 206.989 143.121 206.494 143.234 206.009C143.412 205.309 143.741 204.651 144.201 204.076C144.66 203.501 145.24 203.02 145.905 202.664C146.568 202.311 147.302 202.092 148.06 202.017C148.846 201.965 149.525 202.017 150.214 202.017H272.764H330.053C331.181 201.969 332.312 202.006 333.437 202.128C334.566 202.356 335.591 202.912 336.366 203.717C337.137 204.523 337.622 205.537 337.747 206.615C337.809 207.686 337.747 208.636 337.747 209.647C337.747 213.689 337.747 217.673 337.747 221.601C337.747 229.417 337.747 236.905 337.747 244.067C337.747 272.697 337.669 295.858 337.65 311.876C337.65 315.919 337.65 319.434 337.65 322.519C337.65 324.053 337.65 325.478 337.65 326.781V328.641C337.675 329.203 337.606 329.766 337.444 330.309C337.178 331.219 336.634 332.037 335.881 332.662C335.35 333.119 334.722 333.462 334.041 333.675C333.625 333.806 333.194 333.887 332.756 333.916L332.306 333.997Z" fill="#263238"/>
<path d="M158.553 102.385H305.32C306.225 102.385 307.094 102.722 307.734 103.323C308.375 103.924 308.734 104.739 308.734 105.589V174.842C308.734 175.858 308.305 176.833 307.539 177.552C306.773 178.269 305.734 178.674 304.652 178.674H158.553C157.647 178.674 156.778 178.336 156.138 177.734C155.497 177.134 155.138 176.319 155.138 175.469V105.589C155.138 104.739 155.497 103.924 156.138 103.323C156.778 102.722 157.647 102.385 158.553 102.385Z" fill="white"/>
<path d="M158.875 102.385H304.997C305.987 102.385 306.939 102.754 307.639 103.412C308.341 104.069 308.734 104.962 308.734 105.892V118.766H155.138V105.932C155.132 105.468 155.224 105.008 155.41 104.578C155.595 104.148 155.869 103.756 156.217 103.426C156.564 103.096 156.978 102.834 157.434 102.656C157.892 102.477 158.381 102.385 158.875 102.385Z" fill="#D7D7D7"/>
<path d="M304.414 178.692C304.811 178.659 305.203 178.595 305.589 178.502C306.145 178.348 306.664 178.091 307.111 177.742C307.556 177.395 307.923 176.966 308.184 176.48C308.569 175.761 308.733 174.956 308.659 174.156C308.659 173.256 308.659 172.286 308.659 171.225C308.659 169.113 308.659 166.667 308.659 163.919C308.659 152.923 308.659 137.027 308.573 117.382C308.573 114.923 308.573 112.406 308.573 109.833C308.573 108.549 308.573 107.256 308.573 105.942C308.634 105.318 308.489 104.691 308.155 104.148C307.82 103.605 307.316 103.173 306.709 102.91C306.072 102.666 305.381 102.569 304.695 102.627H288.967H249.647H159.544C159.067 102.605 158.591 102.636 158.122 102.718C157.444 102.868 156.83 103.204 156.355 103.683C155.882 104.161 155.57 104.761 155.461 105.406C155.422 105.857 155.422 106.31 155.461 106.761V121.919C155.461 129.215 155.461 136.404 155.461 143.485V164.303C155.461 167.67 155.461 171.039 155.461 174.408C155.431 175.192 155.657 175.966 156.11 176.625C156.562 177.284 157.219 177.798 157.992 178.097C158.792 178.353 159.641 178.445 160.481 178.37H163.087H236.677L286.284 178.45H299.772H303.283H304.48H303.283H299.772L286.284 178.502L236.677 178.581L163.087 178.642H160.481C159.573 178.711 158.661 178.605 157.798 178.33C156.93 177.992 156.191 177.416 155.679 176.675C155.167 175.936 154.907 175.067 154.933 174.186V164.08C154.933 157.28 154.933 150.326 154.933 143.262V106.781C154.908 106.302 154.927 105.822 154.987 105.346C155.107 104.597 155.466 103.899 156.015 103.344C156.566 102.788 157.28 102.402 158.067 102.233C158.578 102.133 159.098 102.095 159.619 102.122H249.722H289.042H304.716C305.452 102.062 306.192 102.173 306.87 102.445C307.561 102.741 308.137 103.228 308.522 103.841C308.908 104.453 309.083 105.162 309.025 105.871C309.025 107.185 309.025 108.478 309.025 109.762C309.025 112.342 309.025 114.858 309.025 117.311C309.025 136.956 308.961 152.853 308.939 163.848C308.939 166.597 308.939 169.042 308.939 171.155C308.939 172.216 308.939 173.175 308.939 174.084C308.961 174.514 308.931 174.945 308.853 175.369C308.764 175.747 308.622 176.114 308.433 176.459C308.152 176.948 307.769 177.38 307.306 177.728C306.844 178.075 306.311 178.331 305.739 178.481C305.317 178.63 304.867 178.702 304.414 178.692Z" fill="#263238"/>
<path d="M166.567 114.542C168.15 114.542 169.433 113.338 169.433 111.854C169.433 110.369 168.15 109.166 166.567 109.166C164.984 109.166 163.702 110.369 163.702 111.854C163.702 113.338 164.984 114.542 166.567 114.542Z" fill="#E44D26"/>
<path d="M178.223 111.854C178.223 112.386 178.055 112.906 177.739 113.348C177.425 113.791 176.977 114.135 176.452 114.338C175.928 114.541 175.352 114.594 174.795 114.489C174.239 114.385 173.728 114.128 173.328 113.751C172.928 113.374 172.655 112.894 172.545 112.372C172.438 111.85 172.495 111.309 172.714 110.818C172.933 110.327 173.302 109.908 173.773 109.614C174.247 109.32 174.802 109.164 175.369 109.166C175.744 109.166 176.117 109.235 176.464 109.371C176.811 109.506 177.127 109.704 177.391 109.954C177.656 110.203 177.866 110.5 178.009 110.826C178.152 111.152 178.225 111.501 178.223 111.854Z" fill="#E4A126"/>
<path d="M184.17 114.542C185.753 114.542 187.036 113.338 187.036 111.854C187.036 110.369 185.753 109.166 184.17 109.166C182.588 109.166 181.305 110.369 181.305 111.854C181.305 113.338 182.588 114.542 184.17 114.542Z" fill="#62BD6B"/>
<path d="M199.392 141.848H181.541C181.287 141.849 181.036 141.803 180.8 141.713C180.566 141.623 180.352 141.489 180.17 141.321C179.991 141.153 179.848 140.954 179.75 140.733C179.653 140.513 179.602 140.277 179.602 140.039C179.602 139.799 179.65 139.562 179.747 139.341C179.844 139.12 179.986 138.919 180.167 138.749C180.347 138.58 180.562 138.446 180.797 138.355C181.033 138.264 181.286 138.219 181.541 138.22H199.392C199.906 138.22 200.398 138.411 200.762 138.753C201.127 139.093 201.331 139.556 201.331 140.039C201.328 140.519 201.122 140.979 200.759 141.319C200.395 141.657 199.905 141.848 199.392 141.848Z" fill="#263238"/>
<path d="M199.392 151.408H181.541C181.287 151.408 181.034 151.361 180.8 151.269C180.564 151.178 180.35 151.044 180.17 150.875C179.991 150.706 179.847 150.505 179.75 150.285C179.653 150.064 179.602 149.828 179.602 149.589C179.602 149.106 179.806 148.644 180.17 148.302C180.534 147.961 181.027 147.77 181.541 147.77H199.392C199.905 147.772 200.397 147.965 200.759 148.305C201.123 148.646 201.328 149.107 201.331 149.589C201.328 150.07 201.123 150.531 200.759 150.872C200.397 151.213 199.905 151.405 199.392 151.408Z" fill="#E4A126"/>
<path d="M293.653 141.847H241.858C241.345 141.847 240.853 141.657 240.491 141.318C240.127 140.979 239.922 140.519 239.919 140.039C239.919 139.556 240.123 139.093 240.486 138.753C240.85 138.411 241.344 138.22 241.858 138.22H293.653C294.167 138.22 294.661 138.411 295.023 138.753C295.388 139.093 295.592 139.556 295.592 140.039C295.589 140.519 295.383 140.979 295.02 141.318C294.656 141.657 294.166 141.847 293.653 141.847Z" fill="#264DE4"/>
<path d="M199.392 161.2H181.541C181.027 161.2 180.534 161.008 180.17 160.667C179.806 160.327 179.602 159.864 179.602 159.381C179.602 159.142 179.65 158.905 179.747 158.683C179.844 158.463 179.986 158.261 180.167 158.092C180.347 157.922 180.562 157.789 180.797 157.697C181.033 157.606 181.286 157.561 181.541 157.563H199.392C199.906 157.563 200.398 157.753 200.762 158.095C201.127 158.436 201.331 158.898 201.331 159.381C201.328 159.863 201.123 160.323 200.759 160.664C200.397 161.005 199.905 161.197 199.392 161.2Z" fill="#E44D26"/>
<path d="M281.297 151.408H263.436C262.923 151.405 262.433 151.212 262.072 150.871C261.709 150.53 261.508 150.069 261.508 149.589C261.508 149.108 261.709 148.647 262.072 148.306C262.433 147.965 262.923 147.772 263.436 147.77H281.297C281.809 147.772 282.302 147.965 282.664 148.305C283.028 148.646 283.233 149.107 283.236 149.589C283.233 150.07 283.028 150.531 282.664 150.872C282.302 151.213 281.809 151.405 281.297 151.408Z" fill="#E44D26"/>
<path d="M228.005 141.847H210.142C209.631 141.847 209.139 141.657 208.775 141.318C208.412 140.979 208.206 140.519 208.203 140.039C208.203 139.556 208.408 139.093 208.772 138.753C209.136 138.411 209.628 138.22 210.142 138.22H228.005C228.258 138.22 228.509 138.267 228.744 138.358C228.98 138.45 229.192 138.584 229.372 138.753C229.55 138.922 229.692 139.123 229.789 139.343C229.884 139.564 229.934 139.8 229.933 140.039C229.933 140.518 229.73 140.978 229.367 141.318C229.006 141.657 228.516 141.847 228.005 141.847Z" fill="#455A64"/>
<path d="M251.003 151.408H210.142C209.63 151.405 209.137 151.213 208.775 150.872C208.412 150.531 208.206 150.07 208.203 149.589C208.206 149.107 208.412 148.646 208.775 148.305C209.137 147.965 209.63 147.772 210.142 147.77H251.003C251.519 147.77 252.011 147.961 252.375 148.302C252.739 148.644 252.942 149.106 252.942 149.589C252.942 149.828 252.892 150.064 252.795 150.285C252.698 150.505 252.555 150.706 252.375 150.875C252.195 151.044 251.981 151.178 251.745 151.269C251.511 151.361 251.258 151.408 251.003 151.408Z" fill="#263238"/>
<path d="M291.089 161.2H210.056C209.808 161.195 209.562 161.144 209.334 161.048C209.106 160.955 208.9 160.819 208.728 160.65C208.556 160.481 208.422 160.283 208.331 160.064C208.242 159.847 208.198 159.614 208.203 159.381C208.198 159.147 208.242 158.916 208.331 158.697C208.422 158.48 208.556 158.28 208.728 158.111C208.9 157.942 209.106 157.806 209.334 157.712C209.562 157.619 209.808 157.567 210.056 157.562H291.089C291.337 157.567 291.583 157.619 291.809 157.712C292.037 157.808 292.242 157.942 292.414 158.112C292.584 158.281 292.719 158.48 292.808 158.698C292.897 158.916 292.937 159.148 292.931 159.381C292.942 159.852 292.755 160.306 292.409 160.647C292.066 160.987 291.591 161.186 291.089 161.2Z" fill="#E4A126"/>
<path d="M250.153 168.122H210.142C209.63 168.12 209.137 167.927 208.775 167.586C208.412 167.247 208.206 166.784 208.203 166.303C208.206 165.822 208.412 165.361 208.775 165.02C209.137 164.68 209.63 164.487 210.142 164.484H250.153C250.408 164.484 250.659 164.531 250.895 164.623C251.13 164.714 251.344 164.848 251.523 165.017C251.703 165.186 251.847 165.386 251.944 165.608C252.042 165.828 252.092 166.064 252.092 166.303C252.092 166.542 252.042 166.778 251.944 167C251.847 167.22 251.703 167.42 251.523 167.589C251.344 167.758 251.13 167.892 250.895 167.984C250.659 168.075 250.408 168.122 250.153 168.122Z" fill="#264DE4"/>
<path d="M172.783 140.039C172.783 140.404 172.667 140.762 172.452 141.066C172.234 141.37 171.927 141.607 171.566 141.747C171.206 141.887 170.809 141.924 170.427 141.853C170.045 141.781 169.694 141.605 169.417 141.346C169.142 141.088 168.955 140.758 168.878 140.399C168.802 140.041 168.841 139.669 168.991 139.331C169.139 138.993 169.392 138.704 169.717 138.501C170.041 138.298 170.422 138.189 170.813 138.189C171.07 138.189 171.327 138.237 171.566 138.33C171.805 138.423 172.023 138.559 172.206 138.731C172.389 138.903 172.534 139.107 172.633 139.331C172.733 139.555 172.783 139.796 172.783 140.039Z" fill="#455A64"/>
<path d="M172.783 130.933C172.783 131.299 172.667 131.657 172.452 131.961C172.234 132.265 171.927 132.502 171.566 132.642C171.206 132.782 170.809 132.818 170.427 132.747C170.045 132.676 169.694 132.5 169.417 132.241C169.142 131.982 168.955 131.653 168.878 131.294C168.802 130.935 168.841 130.563 168.991 130.226C169.139 129.888 169.392 129.599 169.717 129.396C170.041 129.192 170.422 129.084 170.813 129.084C171.072 129.083 171.328 129.13 171.567 129.222C171.808 129.315 172.025 129.451 172.209 129.623C172.392 129.795 172.538 129.999 172.636 130.224C172.734 130.449 172.784 130.69 172.783 130.933Z" fill="#455A64"/>
<path d="M170.813 151.367C171.9 151.367 172.783 150.539 172.783 149.518C172.783 148.497 171.9 147.668 170.813 147.668C169.723 147.668 168.841 148.497 168.841 149.518C168.841 150.539 169.723 151.367 170.813 151.367Z" fill="#455A64"/>
<path d="M170.813 161.23C171.9 161.23 172.783 160.402 172.783 159.381C172.783 158.359 171.9 157.531 170.813 157.531C169.723 157.531 168.841 158.359 168.841 159.381C168.841 160.402 169.723 161.23 170.813 161.23Z" fill="#455A64"/>
<path d="M192.023 128.75H181.034C180.464 128.75 180.002 129.185 180.002 129.721V131.287C180.002 131.823 180.464 132.257 181.034 132.257H192.023C192.594 132.257 193.058 131.823 193.058 131.287V129.721C193.058 129.185 192.594 128.75 192.023 128.75Z" fill="#455A64"/>
<path d="M79.9117 416.178C70.9273 419.844 62.2661 420.219 54.0573 416.178L48.0567 368.953H85.3628L79.9117 416.178Z" fill="#6F4439"/>
<path d="M82.8961 366.225L81.8186 362.85L53.6483 359.584C53.2783 359.544 52.9045 359.622 52.5877 359.803C52.2708 359.987 52.0292 360.265 51.903 360.597L49.867 366.162H46.2689V372.278C60.3917 374.612 73.9117 374.744 86.7202 372.278V366.162L82.8961 366.225Z" fill="#E0E0E0"/>
<path d="M82.8958 366.225C82.9811 366.209 83.0686 366.209 83.1542 366.225H83.8977H86.7198H86.817V366.325C86.817 367.903 86.817 369.962 86.8817 372.441V372.559H86.7523C81.0377 373.684 75.2242 374.306 69.3867 374.419C61.6723 374.525 53.9658 373.922 46.3764 372.622H46.2255H45.9886V366.022H49.8667L49.608 366.194C50.2867 364.334 50.9655 362.516 51.6117 360.737C51.6898 360.481 51.8267 360.244 52.013 360.044C52.1989 359.844 52.4298 359.684 52.6892 359.575C52.9517 359.472 53.2345 359.425 53.5186 359.434C53.7986 359.434 54.0142 359.494 54.262 359.516L57.1058 359.847L67.4908 361.009L81.8183 362.747H81.883V362.809C82.2061 363.869 82.4648 364.709 82.6586 365.316C82.7342 365.578 82.7986 365.8 82.8527 365.972C82.8595 366.053 82.8595 366.134 82.8527 366.216C82.8139 366.15 82.7852 366.084 82.7664 366.012L82.5295 365.384C82.3033 364.769 82.0123 363.941 81.6245 362.869L81.7108 362.941L67.4045 361.403L57.0736 360.262L54.2295 359.937C53.7998 359.825 53.3452 359.825 52.9152 359.937C52.7205 360.016 52.5476 360.137 52.4095 360.287C52.2711 360.437 52.1717 360.616 52.118 360.806L50.1252 366.275L50.0605 366.447H46.2686L46.5486 366.184V372.297L46.3223 372.034H46.4733C54.0302 373.309 61.6986 373.909 69.3761 373.825C75.1855 373.734 80.9748 373.162 86.677 372.116L86.5477 372.278C86.5477 369.803 86.5477 367.741 86.6123 366.162L86.7198 366.266L83.8436 366.203H83.122L82.8958 366.225Z" fill="#263238"/>
<path d="M82.5728 400.534C72.8125 402.009 62.1047 401.797 50.6531 400.534L49.1019 386.212C60.8466 387.453 72.7022 387.453 84.4472 386.212L82.5728 400.534Z" fill="#AE7461"/>
<path d="M64.5931 390.812C63.8831 391.216 63.3566 391.853 63.1144 392.597C62.8719 393.344 62.9303 394.147 63.2788 394.853L64.2916 396.875C64.6431 397.584 65.2622 398.15 66.03 398.456C66.7975 398.766 67.6594 398.794 68.4497 398.544L64.5931 390.812Z" fill="#6F4439"/>
<path d="M65.2717 390.519L69.1283 398.3C69.8345 397.891 70.358 397.256 70.6002 396.513C70.8421 395.769 70.7861 394.966 70.4424 394.256L69.4299 392.238C69.0858 391.519 68.4705 390.947 67.7024 390.628C66.9345 390.313 66.0686 390.272 65.2717 390.519Z" fill="#6F4439"/>
<path d="M83.2081 366.315C82.7994 366.475 82.3731 366.594 81.9372 366.669C81.1184 366.872 79.9119 367.112 78.4037 367.365C70.5397 368.675 62.4922 368.675 54.6284 367.365C53.1309 367.103 51.9244 366.862 51.095 366.65C50.6594 366.565 50.2337 366.444 49.8237 366.284C50.2669 366.294 50.7075 366.347 51.1378 366.447C51.9781 366.597 53.1956 366.79 54.6928 366.994C62.5325 368.078 70.4994 368.078 78.339 366.994C79.8472 366.79 81.0644 366.597 81.894 366.456C82.3247 366.362 82.7656 366.315 83.2081 366.315Z" fill="#263238"/>
<path d="M102.394 296.081C102.394 296.081 96.2431 297.323 95.1769 301.426C94.1103 305.529 103.795 403.493 104.129 405.868C104.743 409.618 108.115 414.387 115.699 414.125C122.324 413.903 212.502 414.125 235.2 414.125C238.227 414.125 240.037 411.722 240.436 408.85L128.777 402.665L102.394 296.081Z" fill="#E0E0E0"/>
<path d="M99.5934 299.355L109.289 405C109.378 405.834 109.791 406.609 110.448 407.175C111.105 407.744 111.961 408.066 112.855 408.081L240.458 408.619L215.939 385.8L133.053 385.253L124.187 302.478C124.125 301.937 123.883 301.43 123.497 301.027C123.11 300.622 122.598 300.341 122.033 300.223L103.461 296.181C102.974 296.089 102.47 296.103 101.99 296.222C101.509 296.342 101.065 296.564 100.691 296.87C100.316 297.178 100.023 297.562 99.8325 297.992C99.6422 298.423 99.5603 298.889 99.5934 299.355Z" fill="#E0E0E0"/>
<path d="M99.5934 299.355C99.5744 299.184 99.5744 299.011 99.5934 298.839C99.6181 298.331 99.7894 297.839 100.089 297.414C100.33 297.064 100.646 296.762 101.017 296.531C101.387 296.3 101.805 296.144 102.244 296.07C102.814 296 103.395 296.045 103.946 296.202L105.831 296.606L115.688 298.728L121.936 300.083C122.544 300.191 123.1 300.478 123.523 300.9C123.947 301.323 124.217 301.861 124.295 302.437C124.414 303.569 124.543 304.731 124.672 305.923C126.752 325.125 129.714 352.409 133.291 385.234L133.053 385.022L215.95 385.537H216.058L216.144 385.619L240.652 408.425L241.136 408.881H240.458H234.802L141.262 408.466L120.256 408.366H115.192C114.352 408.366 113.533 408.366 112.672 408.366C111.78 408.312 110.936 407.975 110.28 407.406C109.629 406.844 109.207 406.084 109.084 405.263C108.987 404.484 108.933 403.737 108.858 402.969C108.729 401.453 108.589 399.937 108.449 398.45C107.372 386.506 106.359 375.369 105.443 365.212C103.622 344.891 102.147 328.45 101.134 317.081C100.638 311.402 100.251 306.975 99.9922 303.994C99.8628 302.498 99.7766 301.366 99.7122 300.587C99.6475 299.809 99.6259 299.425 99.6259 299.425C99.6259 299.425 99.6906 299.809 99.7659 300.578C99.8412 301.345 99.9597 302.498 100.1 303.983C100.391 307.016 100.811 311.391 101.349 317.059C102.427 328.428 103.957 344.872 105.852 365.175C106.79 375.341 107.824 386.466 108.923 398.412C109.059 399.906 109.199 401.412 109.343 402.928C109.418 403.687 109.472 404.466 109.558 405.203C109.687 405.922 110.065 406.584 110.636 407.081C111.229 407.584 111.991 407.878 112.79 407.909C113.598 407.909 114.449 407.909 115.278 407.909H120.352L141.359 407.991L234.888 408.366H240.544L240.339 408.809L215.723 385.981L215.917 386.062L133.032 385.475H132.817V385.275C129.337 352.45 126.45 325.103 124.425 305.955C124.295 304.761 124.166 303.6 124.047 302.467C123.98 301.939 123.734 301.445 123.347 301.056C122.96 300.667 122.45 300.405 121.893 300.305L115.645 298.931L105.809 296.737L103.924 296.323C103.393 296.162 102.831 296.111 102.276 296.172C101.843 296.237 101.428 296.384 101.058 296.605C100.687 296.827 100.369 297.116 100.121 297.455C99.8206 297.869 99.6422 298.35 99.6044 298.85C99.5828 299.183 99.615 299.355 99.5934 299.355Z" fill="#263238"/>
<path d="M192.992 405.868H204.853L189.858 387.628H182.823L192.992 405.868Z" fill="#263238"/>
<path d="M103.978 304.125L113.038 395.966L129.972 383.334L122.647 306.025C122.621 305.724 122.486 305.439 122.265 305.219C122.044 304.999 121.749 304.855 121.43 304.813L105.605 302.691C105.392 302.663 105.177 302.68 104.972 302.741C104.768 302.802 104.581 302.905 104.425 303.042C104.269 303.18 104.148 303.349 104.07 303.536C103.993 303.724 103.962 303.925 103.978 304.125Z" fill="#263238"/>
<path d="M122.108 405.868H134.346L146.789 387.628H139.743L122.108 405.868Z" fill="#263238"/>
<path d="M137.136 405.868H148.997L155.493 387.628H148.448L137.136 405.868Z" fill="#263238"/>
<path d="M151.647 405.868H163.508L164.144 387.628H157.109L151.647 405.868Z" fill="#263238"/>
<path d="M165.112 405.868H176.973L172.589 387.628H165.555L165.112 405.868Z" fill="#263238"/>
<path d="M179.139 405.868H191L181.336 387.628H174.302L179.139 405.868Z" fill="#263238"/>
<path d="M204.305 402.312C204.305 402.403 186.217 402.475 163.906 402.475C141.596 402.475 123.52 402.403 123.52 402.312C123.52 402.222 141.596 402.159 163.906 402.159C186.217 402.159 204.305 402.231 204.305 402.312Z" fill="#E0E0E0"/>
<path d="M202.15 398.997C202.15 399.088 184.978 399.16 163.787 399.16C142.598 399.16 125.427 399.088 125.427 398.997C125.427 398.907 142.598 398.847 163.787 398.847C184.978 398.847 202.15 398.888 202.15 398.997Z" fill="#E0E0E0"/>
<path d="M202.15 395.966C202.15 396.138 185.991 396.278 166.061 396.278C146.132 396.278 129.973 396.106 129.973 395.966C129.973 395.825 146.132 395.653 166.072 395.653C186.013 395.653 202.15 395.763 202.15 395.966Z" fill="#E0E0E0"/>
<path d="M202.602 393.166C202.602 393.337 186.788 393.478 167.289 393.478C147.791 393.478 131.966 393.337 131.966 393.166C131.966 392.994 147.78 392.844 167.289 392.844C186.798 392.844 202.602 392.984 202.602 393.166Z" fill="#E0E0E0"/>
<path d="M204.305 391.144C204.305 391.315 188.383 391.459 168.755 391.459C149.126 391.459 133.204 391.315 133.204 391.144C133.204 390.972 149.116 390.822 168.755 390.822C188.392 390.822 204.305 390.962 204.305 391.144Z" fill="#E0E0E0"/>
<path d="M206.006 389.022C206.006 389.206 189.794 389.347 169.798 389.347C149.805 389.347 133.581 389.206 133.581 389.022C133.581 388.841 149.74 388.709 169.798 388.709C189.858 388.709 206.006 388.891 206.006 389.022Z" fill="#E0E0E0"/>
<path d="M111.056 405L133.204 385.606L111.056 405Z" fill="#E0E0E0"/>
<path d="M133.204 385.606C133.312 385.709 128.443 390.134 122.346 395.491C116.248 400.847 111.207 405.112 111.099 405C110.991 404.887 115.85 400.472 121.957 395.106C128.066 389.74 133.053 385.497 133.204 385.606Z" fill="#263238"/>
<path d="M498.947 313.341C498.947 313.341 497.872 302.61 469.366 295.747C455.609 292.433 422.763 290.845 419.047 310.906C418.928 311.553 402.694 437.5 402.694 437.5H463.419L498.947 313.341Z" fill="#455A64"/>
<path d="M489.328 437.459H461.319L470.669 314.109C471.359 308.106 477.984 303.772 485.472 304.438L487.981 304.661C495.456 305.328 500.209 312.088 499.994 319.819L489.328 437.459Z" fill="#455A64"/>
<path d="M463.419 433.022C463.259 433.022 465.241 408.7 467.838 378.734C470.431 348.772 472.663 324.478 472.813 324.487C472.966 324.497 470.994 348.803 468.397 378.775C465.8 408.75 463.572 433.034 463.419 433.022Z" fill="#263238"/>
<path d="M493.572 307.511C492.281 307.136 490.963 306.845 489.628 306.641C486.4 306.228 483.116 306.83 480.288 308.35C477.463 309.87 475.25 312.227 474 315.05C473.519 316.231 473.122 317.444 472.813 318.678C472.778 318.341 472.797 318 472.869 317.666C473.006 316.728 473.266 315.809 473.631 314.928C474.828 311.967 477.081 309.489 480.009 307.916C482.938 306.341 486.356 305.769 489.684 306.297C490.681 306.441 491.659 306.695 492.591 307.056C492.941 307.16 493.272 307.313 493.572 307.511Z" fill="#263238"/>
<path d="M405.119 153.236C405.409 146.011 400.184 145.041 396.166 145.87C393.672 144.239 390.669 143.439 387.631 143.594C384.597 143.75 381.703 144.853 379.416 146.728C377.575 145.787 375.506 145.308 373.412 145.34C371.319 145.371 369.269 145.912 367.462 146.909C365.656 147.905 364.156 149.324 363.109 151.026C362.062 152.729 361.503 154.657 361.487 156.622C359.378 156.38 357.241 156.769 355.378 157.73C353.516 158.692 352.022 160.181 351.112 161.983C350.2 163.786 349.919 165.811 350.303 167.773C350.687 169.734 351.722 171.533 353.259 172.912C350.862 173.586 348.837 175.1 347.603 177.142C346.369 179.183 346.025 181.592 346.641 183.866C347.259 186.139 348.787 188.101 350.909 189.344C353.031 190.584 355.581 191.009 358.031 190.526L405.278 161.008C408.112 158.209 404.966 157.097 405.119 153.236Z" fill="#263238"/>
<path d="M356.663 191.83C357.128 182.103 361.484 172.898 368.856 166.047C376.231 159.195 386.084 155.199 396.456 154.853L398.613 154.783C421.697 155.278 434.163 173.984 432.988 195.589L432.384 267.684L432.231 281.376L379.447 293.15L378.909 264.611C378.909 264.611 356.631 262.125 355.575 241.369C355.025 231.344 355.769 210.606 356.663 191.83Z" fill="#AE7461"/>
<path d="M378.694 264.591C388.978 264.253 398.947 261.151 407.412 255.658C407.412 255.658 401.153 270.817 378.984 269.705L378.694 264.591Z" fill="#6F4439"/>
<path d="M363.116 212.809C363.134 213.583 363.475 214.317 364.066 214.858C364.656 215.398 365.447 215.7 366.272 215.7C366.675 215.715 367.078 215.656 367.456 215.523C367.838 215.392 368.181 215.19 368.478 214.929C368.772 214.67 369.006 214.358 369.169 214.011C369.334 213.664 369.422 213.289 369.428 212.911C369.409 212.137 369.066 211.403 368.478 210.862C367.888 210.322 367.097 210.02 366.272 210.02C365.869 210.003 365.463 210.061 365.084 210.193C364.706 210.325 364.356 210.526 364.063 210.787C363.769 211.047 363.531 211.361 363.369 211.708C363.206 212.056 363.122 212.429 363.116 212.809Z" fill="#263238"/>
<path d="M361.584 202.947C361.984 203.311 364.322 201.572 367.725 201.472C371.131 201.37 373.684 202.877 374.038 202.481C374.213 202.3 373.791 201.612 372.672 200.916C371.163 200.003 369.388 199.553 367.597 199.631C365.825 199.681 364.119 200.262 362.728 201.289C361.725 202.047 361.403 202.755 361.584 202.947Z" fill="#263238"/>
<path d="M390.466 212.153C390.491 212.926 390.834 213.662 391.425 214.201C392.016 214.742 392.809 215.043 393.634 215.043C394.038 215.059 394.441 215 394.819 214.867C395.2 214.734 395.544 214.532 395.841 214.273C396.134 214.012 396.369 213.7 396.531 213.353C396.697 213.006 396.784 212.632 396.791 212.254C396.772 211.481 396.428 210.745 395.841 210.206C395.25 209.665 394.459 209.364 393.634 209.364C393.228 209.345 392.825 209.404 392.444 209.536C392.066 209.668 391.716 209.87 391.422 210.129C391.125 210.39 390.891 210.703 390.725 211.05C390.562 211.398 390.475 211.773 390.466 212.153Z" fill="#263238"/>
<path d="M394.15 201.391C394.55 201.764 396.888 200.026 400.291 199.916C403.697 199.803 406.25 201.33 406.603 200.925C406.778 200.744 406.356 200.056 405.238 199.348C403.725 198.442 401.953 197.994 400.163 198.066C398.394 198.123 396.691 198.703 395.294 199.723C394.281 200.511 393.903 201.228 394.15 201.391Z" fill="#263238"/>
<path d="M383.831 225.431C383.831 225.25 381.675 224.977 378.272 224.674C377.4 224.624 376.569 224.492 376.397 223.936C376.294 223.095 376.466 222.245 376.894 221.5C377.613 219.48 378.387 217.381 379.219 215.205C382.453 206.252 384.769 198.894 384.381 198.773C383.994 198.652 381.062 205.847 377.831 214.78L375.591 221.138C375.084 222.139 374.966 223.275 375.256 224.35C375.391 224.634 375.597 224.886 375.85 225.083C376.106 225.281 376.409 225.422 376.731 225.492C377.219 225.599 377.719 225.645 378.219 225.634C381.687 225.664 383.831 225.614 383.831 225.431Z" fill="#263238"/>
<path d="M393.903 227.302C393.344 227.302 393.472 230.758 390.403 233.364C387.331 235.972 383.391 235.68 383.378 236.164C383.378 236.386 384.272 236.811 385.944 236.791C388.109 236.75 390.187 235.991 391.812 234.648C393.381 233.359 394.353 231.545 394.519 229.595C394.625 228.12 394.184 227.27 393.903 227.302Z" fill="#263238"/>
<path d="M393.753 192.275C394.194 193.083 397.094 192.275 400.659 192.184C404.225 192.094 407.219 192.709 407.553 191.881C407.694 191.477 407.069 190.739 405.797 190.081C404.137 189.266 402.281 188.875 400.409 188.95C398.578 188.986 396.791 189.477 395.228 190.375C394.097 191.113 393.559 191.881 393.753 192.275Z" fill="#263238"/>
<path d="M362.037 194.134C362.609 194.892 364.991 194.236 367.8 194.327C370.612 194.417 372.984 195.044 373.575 194.327C373.834 193.973 373.491 193.225 372.497 192.497C371.137 191.613 369.528 191.128 367.872 191.102C366.219 191.077 364.591 191.514 363.2 192.356C362.156 193.044 361.791 193.77 362.037 194.134Z" fill="#263238"/>
<path d="M358.428 182.25C358.428 182.25 363.816 169.042 370.353 165.787C378.316 161.836 382.119 170.062 389.744 167.809C397.372 165.556 404.978 161.745 413.078 167.081C421.934 172.912 418.056 177.348 418.941 186.545C422.516 223.855 430.197 234.173 431.597 216.498C431.747 214.569 437.403 212.841 437.931 204.664C438.631 194.064 438.578 181.219 435.778 173.802C433.419 167.556 429.409 163.312 422.344 158.723C411.184 151.488 396.241 151.822 386.125 153.125C376.009 154.429 356.887 165.991 358.428 182.25Z" fill="#263238"/>
<path d="M430.175 215.953C430.172 215.189 430.334 214.434 430.653 213.731C430.972 213.03 431.438 212.395 432.025 211.867C432.613 211.339 433.309 210.928 434.069 210.659C434.831 210.391 435.644 210.269 436.456 210.303C440.603 210.536 445.291 212.576 445.309 220.602C445.375 234.82 430.144 231.939 430.109 231.525C430.078 231.111 430.144 221.905 430.175 215.953Z" fill="#AE7461"/>
<path d="M433.384 226.189C433.459 226.189 433.656 226.361 434.106 226.553C434.741 226.787 435.444 226.787 436.078 226.553C437.672 225.998 439.019 223.603 439.072 221.045C439.113 219.826 438.859 218.614 438.331 217.498C438.184 217.055 437.925 216.65 437.575 216.319C437.228 215.987 436.8 215.74 436.325 215.598C436.022 215.525 435.7 215.553 435.419 215.678C435.134 215.803 434.906 216.019 434.775 216.286C434.572 216.68 434.669 216.962 434.591 216.994C434.516 217.023 434.269 216.751 434.387 216.164C434.466 215.812 434.675 215.497 434.981 215.275C435.184 215.126 435.419 215.017 435.669 214.955C435.919 214.892 436.178 214.878 436.434 214.912C437.059 215.022 437.641 215.283 438.125 215.667C438.609 216.051 438.981 216.547 439.203 217.105C439.853 218.334 440.172 219.694 440.128 221.065C440.053 223.926 438.491 226.614 436.306 227.22C435.897 227.331 435.472 227.355 435.053 227.291C434.634 227.225 434.238 227.073 433.891 226.847C433.419 226.512 433.344 226.189 433.384 226.189Z" fill="#6F4439"/>
<path d="M428.841 188.445C426.922 189.769 424.884 191.133 422.525 191.476C420.169 191.82 417.409 190.587 416.925 188.394C416.709 187.384 416.925 186.262 416.203 185.525C415.341 184.634 413.822 184.969 412.563 185.14C410.356 185.372 408.131 184.886 406.259 183.764C404.391 182.642 402.988 180.951 402.284 178.976C401.206 180.592 398.6 180.603 396.897 179.633C395.197 178.662 394 177.025 392.591 175.641C391.178 174.256 389.294 173.034 387.3 173.367C386.222 173.559 385.144 174.216 384.069 174.166C382.066 174.064 381.019 171.912 380.644 170.123C380.266 168.334 379.953 166.081 378.241 165.172C376.528 164.262 374.631 164.898 372.853 165.172C371.075 165.444 368.663 165.172 368.125 163.505C368.028 163.056 368.028 162.595 368.128 162.148C368.228 161.701 368.425 161.28 368.706 160.906C369.869 159.147 371.631 157.806 373.709 157.103C375.784 156.401 378.053 156.376 380.147 157.036C380.803 154.647 382.2 152.494 384.163 150.849C386.122 149.205 388.559 148.142 391.163 147.796C393.769 147.45 396.422 147.836 398.794 148.905C401.166 149.974 403.144 151.678 404.481 153.802C406.041 152.382 407.937 151.335 410.019 150.75C412.097 150.164 414.297 150.058 416.431 150.44C418.566 150.822 420.569 151.68 422.272 152.943C423.978 154.206 425.331 155.835 426.222 157.694C428.047 157.205 429.981 157.225 431.794 157.75C433.606 158.275 435.219 159.283 436.431 160.651C437.644 162.02 438.403 163.691 438.622 165.458C438.841 167.226 438.509 169.016 437.662 170.608C440.441 171.983 442.866 174.439 443.05 177.38C443.231 180.32 440.269 183.342 437.222 182.675C437.981 183.815 438.225 185.194 437.903 186.506C437.578 187.817 436.712 188.955 435.497 189.667C434.281 190.381 432.809 190.611 431.412 190.308C430.016 190.005 428.803 189.192 428.041 188.05" fill="#263238"/>
<path d="M438.319 182.614C438.4 183.103 438.366 183.603 438.222 184.079C438.075 184.556 437.822 184.997 437.478 185.373C436.766 186.303 435.703 186.947 434.506 187.172C433.744 187.318 432.956 187.303 432.203 187.128C431.447 186.954 430.744 186.623 430.144 186.161L430.778 186.05C430.034 187.404 429.059 188.637 427.891 189.698C427.116 190.418 426.203 190.995 425.197 191.395C423.894 191.859 422.466 191.931 421.116 191.601C419.766 191.272 418.556 190.558 417.656 189.556C417.012 188.678 416.556 187.689 416.322 186.645C416.181 186.281 416.125 185.89 416.159 185.504C416.225 185.504 416.366 185.867 416.644 186.514C416.988 187.47 417.494 188.367 418.141 189.172C419.662 191.193 424.369 192.053 427.256 189.072C428.347 188.067 429.275 186.915 430.003 185.656L430.263 185.231L430.65 185.545C431.147 185.953 431.737 186.256 432.372 186.431C433.009 186.604 433.678 186.647 434.334 186.554C435.384 186.389 436.341 185.876 437.028 185.109C437.628 184.365 438.069 183.517 438.319 182.614Z" fill="#455A64"/>
<path d="M259.245 368.681C259.245 368.681 230.666 367.881 228.952 367.375C226.345 366.831 223.641 366.831 221.034 367.375C218.998 367.984 210.864 370.691 210.864 370.691L193.628 375.006C193.628 375.006 176.295 385.606 176.639 387.741C176.984 389.872 178.891 391.328 182.027 390.225C185.161 389.125 200.792 381.484 200.792 381.484L218.028 379.775C218.028 379.775 241.534 387.7 246.286 387.306C251.036 386.909 263.198 384.981 263.198 384.981C263.198 384.981 264.911 373.55 264.05 371.744C263.188 369.934 259.245 368.681 259.245 368.681Z" fill="#AE7461"/>
<path d="M177.878 397.197C177.878 397.197 192.367 382.638 196.375 380.675C200.383 378.716 222.725 375.269 222.725 375.269C222.725 375.269 229.878 372.491 232.497 373.469C235.114 374.45 262.853 378.381 264.07 378.522C265.289 378.666 258.145 401.444 258.145 401.444C251.228 402.375 244.186 402.097 237.377 400.625C226.216 398.169 222.37 394.894 222.37 394.894L211.231 392.147L204.402 394.581C204.402 394.581 203.184 404.06 198.292 403.566L196.031 402.091L197.777 391.619L190.623 394.4C190.623 394.4 185.031 402.263 180.852 401.11C176.672 399.956 177.878 397.197 177.878 397.197Z" fill="#AE7461"/>
<path d="M177.878 397.197C177.777 397.572 177.741 397.956 177.77 398.341C177.822 398.803 178.008 399.244 178.309 399.613C178.742 400.113 179.308 400.5 179.947 400.735C180.725 401.094 181.603 401.216 182.458 401.078C183.47 400.819 184.416 400.369 185.236 399.756C187.275 398.213 189.048 396.388 190.494 394.338L197.636 391.541L197.927 391.419V391.713C197.409 394.863 196.85 398.4 196.214 402.191L196.128 402.01L198.391 403.475H198.292C198.755 403.51 199.217 403.45 199.653 403.3C200.088 403.153 200.483 402.919 200.814 402.616C201.523 401.969 202.092 401.194 202.483 400.341C203.323 398.534 203.886 396.625 204.153 394.672V394.541L204.283 394.491L211.091 392.044H211.166H211.242L222.402 394.772H222.467C224.828 396.356 227.427 397.6 230.18 398.463C233.047 399.416 235.98 400.185 238.959 400.756C242.048 401.335 245.184 401.672 248.333 401.766C251.573 401.875 254.819 401.706 258.028 401.26L257.813 401.444C258.308 399.838 258.889 398.119 259.364 396.391C260.903 391.238 262.444 386.172 263.553 381.16C263.694 380.547 263.798 379.925 263.866 379.3C263.877 379.16 263.877 379.019 263.866 378.878C263.866 378.806 263.802 378.775 263.866 378.878H263.738L262.734 378.735L258.75 378.169L250.939 377.019C245.822 376.241 240.856 375.472 236.083 374.622C234.898 374.391 233.734 374.197 232.55 373.866C231.463 373.556 230.306 373.522 229.2 373.763C226.986 374.169 224.822 374.778 222.736 375.581H222.683C214.883 376.806 207.741 378.019 201.503 379.413C200.003 379.738 198.525 380.147 197.075 380.635C195.783 381.2 194.594 381.953 193.553 382.869C191.398 384.547 189.609 386.203 187.963 387.7C184.666 390.731 182.166 393.135 180.42 394.772L178.472 396.663C178.019 397.088 177.781 397.291 177.781 397.291C177.781 397.291 177.986 397.056 178.417 396.613L180.314 394.681C182.005 393.016 184.483 390.55 187.747 387.516C189.384 386.013 191.205 384.335 193.316 382.638C193.844 382.213 194.394 381.778 194.975 381.372C195.57 380.956 196.222 380.616 196.914 380.363C198.38 379.863 199.877 379.444 201.395 379.11C207.644 377.675 214.775 376.441 222.586 375.178H222.531C224.647 374.353 226.845 373.728 229.092 373.31C230.284 373.053 231.528 373.091 232.702 373.419C233.778 373.735 234.984 373.925 236.159 374.156C240.909 374.997 245.855 375.744 251.003 376.513L258.814 377.653L262.8 378.231L263.802 378.372H264.017H264.136C264.208 378.416 264.267 378.475 264.309 378.547C264.353 378.616 264.378 378.694 264.383 378.775C264.4 378.95 264.4 379.125 264.383 379.3C264.319 379.95 264.214 380.594 264.07 381.231C262.994 386.285 261.409 391.338 259.87 396.5C259.342 398.241 258.792 399.969 258.319 401.553V401.716H258.145C254.906 402.169 251.628 402.338 248.353 402.222C245.177 402.138 242.011 401.8 238.895 401.209C235.888 400.638 232.928 399.86 230.041 398.888C228.633 398.416 227.256 397.872 225.914 397.26C224.58 396.669 223.319 395.944 222.155 395.097L222.263 395.147L211.123 392.388H211.273L204.444 394.825L204.595 394.641C204.319 396.644 203.734 398.597 202.861 400.444C202.445 401.344 201.841 402.16 201.083 402.838C200.706 403.178 200.258 403.438 199.766 403.603C199.273 403.769 198.75 403.835 198.228 403.797H198.175L195.913 402.322L195.805 402.25V402.131C196.441 398.35 197.044 394.813 197.572 391.66L197.819 391.844L190.655 394.6L190.72 394.55C189.237 396.616 187.42 398.45 185.333 399.988C184.481 400.606 183.502 401.06 182.458 401.313C181.563 401.45 180.645 401.316 179.839 400.928C179.178 400.678 178.602 400.266 178.17 399.735C177.863 399.347 177.68 398.885 177.642 398.4C177.602 397.988 177.684 397.572 177.878 397.197Z" fill="#6F4439"/>
<path d="M221.734 384.85C221.377 384.887 221.016 384.887 220.656 384.85C219.956 384.8 218.944 384.706 217.684 384.587L213.289 384.122L212.017 383.991C211.6 383.925 211.173 383.925 210.756 383.991C209.842 384.122 208.936 384.297 208.042 384.516C204.413 385.525 200.77 386.162 199.423 388.184C198.842 388.922 198.405 389.75 198.131 390.631C197.937 391.256 197.883 391.641 197.852 391.641C197.794 391.303 197.819 390.956 197.927 390.631C198.122 389.691 198.525 388.803 199.111 388.022C199.517 387.475 200.016 386.994 200.588 386.597C201.248 386.162 201.975 385.822 202.742 385.587C204.448 385.003 206.186 384.5 207.945 384.081C208.859 383.85 209.787 383.672 210.725 383.547C211.189 383.481 211.661 383.481 212.125 383.547L213.386 383.706L217.781 384.272C219.03 384.444 220.033 384.597 220.733 384.706C221.072 384.712 221.409 384.759 221.734 384.85Z" fill="#6F4439"/>
<path d="M182.845 392.359C183.209 391.95 183.609 391.572 184.041 391.225C184.848 390.528 186.034 389.547 187.531 388.375C189.028 387.203 190.848 385.828 192.917 384.403C193.995 383.697 195.072 382.969 196.3 382.281C196.925 381.934 197.567 381.616 198.228 381.331C198.931 381.075 199.65 380.862 200.383 380.697C205.345 379.569 210.384 378.759 215.464 378.272L220.053 377.734C220.613 377.647 221.178 377.603 221.745 377.603C221.205 377.762 220.648 377.875 220.086 377.937L215.53 378.634C211.683 379.272 206.286 379.716 200.555 381.2C199.856 381.362 199.169 381.569 198.497 381.819C197.856 382.087 197.23 382.391 196.623 382.728C195.428 383.394 194.317 384.1 193.263 384.8C191.108 386.194 189.33 387.528 187.8 388.659L184.202 391.378C183.778 391.737 183.323 392.066 182.845 392.359Z" fill="#6F4439"/>
<path d="M363.319 297.434C358.159 304.281 353.594 311.508 349.672 319.041C344.491 329.147 327.747 363.556 327.747 363.556L259.525 366.913L260.537 391.641C260.537 391.641 326.422 413.659 341.172 409.406C355.919 405.153 371.637 389.194 371.637 389.194L378.694 284.903C378.694 284.903 372.844 283.883 363.319 297.434Z" fill="#E44D26"/>
<path d="M377.584 285.156C377.584 285.156 360.087 322.375 357.534 338.141C352.459 369.469 350.759 389.022 350.759 389.022L344.812 437.459H461.319C461.319 437.459 465.175 347.691 462.697 317.597C460.844 295.041 442.425 280.992 434.894 273.283C434.441 272.817 432.372 266.501 432.372 266.501L378.078 279.548L377.584 285.156Z" fill="#E44D26"/>
<path d="M371.95 290.806C371.922 290.928 371.878 291.047 371.819 291.159C371.7 291.412 371.559 291.756 371.366 292.17L369.631 296.061C368.134 299.436 365.969 304.337 363.794 310.562C361.263 317.841 359.25 325.266 357.772 332.794C356.038 341.294 354.638 350.722 353.463 360.656C351.309 380.544 349.381 398.544 347.969 411.6C347.247 418.097 346.666 423.363 346.256 427.031C346.041 428.828 345.878 430.234 345.759 431.225C345.697 431.691 345.653 432.044 345.619 432.316C345.606 432.441 345.581 432.566 345.544 432.691C345.534 432.566 345.534 432.441 345.544 432.316C345.544 432.044 345.6 431.678 345.631 431.216C345.728 430.203 345.856 428.819 346.019 427.009C346.384 423.331 346.913 418.066 347.559 411.559C348.906 398.522 350.684 380.494 352.947 360.597C354.109 350.662 355.531 341.212 357.256 332.703C358.759 325.15 360.816 317.7 363.406 310.411C365.634 304.195 367.856 299.294 369.416 295.95C370.194 294.262 370.828 292.969 371.259 292.098C371.463 291.675 371.625 291.351 371.756 291.089C371.812 290.991 371.878 290.897 371.95 290.806Z" fill="#263238"/>
<g opacity="0.3">
<path opacity="0.3" d="M432.481 349.4C431.403 339.484 426.653 329.531 417.959 323.809L346.925 418.965C359.462 425.312 373.394 431.862 387.322 429.072C394.862 427.565 401.478 423.422 406.884 418.318C418.122 407.718 424.219 393.278 428.494 378.906C431.35 369.287 433.547 359.312 432.481 349.4Z" fill="black"/>
</g>
<path d="M440.528 337.909C431.684 367.284 411.766 403.131 405.647 410.334C401.228 415.634 395.591 419.925 389.153 422.887C382.719 425.853 375.65 427.409 368.481 427.444C360.466 427.444 292.727 415.066 272.603 411.366C270.948 411.059 269.425 410.303 268.225 409.191C267.025 408.078 266.198 406.659 265.848 405.112L265.677 404.334L256.681 402.028L261.497 379.281L262.455 378.019L359.334 380.878L387.516 307.237C388.053 306.398 396.188 281.691 418.259 282.812" fill="#E44D26"/>
<path d="M418.259 282.833H417.528C416.809 282.812 416.091 282.829 415.372 282.882C412.569 283.039 409.813 283.651 407.228 284.692C403.103 286.456 399.466 289.087 396.597 292.383C392.722 296.845 389.697 301.901 387.656 307.328C380.534 325.984 370.872 351.328 359.55 380.987L359.497 381.15H359.313L262.477 378.3L262.714 378.19L261.755 379.453V379.353C260.366 385.931 258.889 392.925 257.445 399.997L257.005 402.1L256.8 401.787L265.838 404.068L266.009 404.122V404.272C266.273 406.143 267.213 407.872 268.67 409.175C269.397 409.803 270.236 410.306 271.148 410.659C272.088 410.981 273.058 411.215 274.047 411.356L285.897 413.528L309.058 417.703C324.238 420.4 338.856 422.968 352.806 425.181C356.297 425.728 359.744 426.19 363.147 426.697C364.85 426.9 366.553 427.122 368.222 427.19C369.897 427.212 371.575 427.134 373.241 426.959C379.681 426.312 385.912 424.437 391.556 421.453C396.794 418.631 401.428 414.925 405.225 410.518C406.941 408.397 408.509 406.175 409.922 403.868C411.334 401.615 412.669 399.381 413.931 397.187C421.847 383.318 428.788 368.975 434.7 354.25C436.747 349.034 438.213 344.94 439.138 342.122C439.591 340.737 439.947 339.678 440.216 338.95C440.484 338.222 440.581 337.878 440.581 337.878C440.581 337.878 440.484 338.24 440.269 338.959L439.278 342.153C438.384 344.953 436.95 349.056 434.969 354.278C429.122 369.043 422.225 383.422 414.328 397.318C413.078 399.522 411.744 401.756 410.344 404.018C408.925 406.353 407.347 408.593 405.613 410.731C401.769 415.206 397.069 418.972 391.75 421.825C386.059 424.847 379.772 426.75 373.275 427.415C371.587 427.597 369.888 427.678 368.188 427.656C366.466 427.587 364.775 427.362 363.063 427.162C359.647 426.706 356.188 426.15 352.697 425.656C338.694 423.453 324.119 420.897 308.928 418.209L285.767 414.034L273.917 411.872C272.895 411.725 271.892 411.481 270.922 411.143C269.944 410.772 269.045 410.234 268.272 409.556C266.73 408.184 265.73 406.359 265.439 404.384L265.644 404.584L256.606 402.303L256.358 402.231V402C256.498 401.331 256.659 400.615 256.811 399.897C258.308 392.822 259.783 385.828 261.119 379.25V379.19L262.078 377.928L262.164 377.815H262.477L359.356 380.706L359.119 380.856L387.387 307.247C389.45 301.815 392.503 296.761 396.412 292.311C399.319 288.998 403.009 286.365 407.188 284.62C409.788 283.59 412.563 282.998 415.384 282.872C416.103 282.828 416.822 282.828 417.538 282.872L418.259 282.833Z" fill="#263238"/>
<path d="M337.994 375.066C336.706 372.763 335.138 370.603 333.319 368.641C331.372 366.797 329.203 365.175 326.853 363.81C327.656 364.01 328.419 364.335 329.106 364.769C330.834 365.719 332.406 366.9 333.769 368.275C335.134 369.653 336.281 371.203 337.175 372.884C337.566 373.569 337.841 374.303 337.994 375.066Z" fill="#263238"/>
<path d="M371.053 398.716C370.956 398.716 370.763 397.553 370.203 395.681C369.463 393.3 368.394 391.016 367.025 388.891C365.641 386.778 363.962 384.844 362.037 383.141C360.562 381.828 359.528 381.119 359.581 381.06C359.866 381.16 360.131 381.297 360.369 381.475C361.044 381.897 361.694 382.36 362.306 382.86C366.406 386.197 369.3 390.647 370.591 395.591C370.791 396.331 370.931 397.084 371.013 397.844C371.075 398.131 371.088 398.425 371.053 398.716Z" fill="#263238"/>
<g opacity="0.3">
<path opacity="0.3" d="M345.209 380.322L350.844 380.525C351.759 359.756 356.319 339.09 360.219 318.606C350.275 337.665 347.666 359.24 345.209 380.322Z" fill="black"/>
</g>
<path d="M433.009 273.283C432.838 273.364 432.656 273.422 432.469 273.455L430.919 273.858L425.209 275.283C420.394 276.486 413.747 278.203 406.356 279.951C398.966 281.7 392.212 283.055 387.278 283.812C384.812 284.197 382.806 284.469 381.419 284.6L379.812 284.751C379.628 284.776 379.437 284.776 379.253 284.751C379.428 284.689 379.612 284.648 379.803 284.631L381.384 284.378C382.766 284.186 384.756 283.853 387.203 283.428C392.103 282.58 398.837 281.175 406.216 279.386C413.597 277.597 420.222 275.97 425.112 274.859C427.534 274.303 429.506 273.848 430.875 273.595L432.447 273.292C432.634 273.266 432.822 273.262 433.009 273.283Z" fill="#263238"/>
<path d="M464.563 31.25L458.396 105.941L430.677 114.25L403.035 105.953L396.875 31.25H464.563Z" fill="#E44D26"/>
<path d="M430.719 107.899L453.117 101.185L458.386 37.3579H430.719V107.899Z" fill="#F16529"/>
<path d="M418.731 55.6825H430.719V46.5205H409.471L409.673 48.9785L411.756 74.2266H430.719V65.0646H419.506L418.731 55.6825V55.6825ZM420.641 78.8077H412.135L413.322 93.1935L430.68 98.4032L430.719 98.3917V88.8593L430.682 88.87L421.245 86.1148L420.641 78.8077V78.8077Z" fill="#EBEBEB"/>
<path d="M430.69 74.2266H441.124L440.14 86.1091L430.689 88.8671V98.3989L448.061 93.1935L448.188 91.6455L450.18 67.5248L450.387 65.0646H430.69V74.2266ZM430.69 55.6601V55.6825H451.158L451.327 53.6233L451.714 48.9785L451.916 46.5205H430.69V55.6604V55.6601Z" fill="white"/>
</g>
<defs>
<clipPath id="clip0_34_1512">
<rect width="500" height="437.5" fill="white"/>
</clipPath>
</defs>
</svg>
