<svg width="320" height="280" viewBox="0 0 320 280" fill="none" xmlns="http://www.w3.org/2000/svg">
<path fill-rule="evenodd" clip-rule="evenodd" d="M289.197 54.1538C291.185 55.6103 293.027 57.4311 294.674 59.5682L300.53 56.6506L306.027 68.8313L301.646 75.0389C302.321 78.041 302.706 81.1564 302.792 84.302L308.406 88.0404L306.155 102.111H299.945C298.905 104.903 297.606 107.49 296.08 109.801L298.165 118.009L289.482 125.727L285.057 119.582C282.929 120.518 280.722 121.056 278.493 121.182L275.828 129.059L265.793 125.9V117.188C263.799 115.731 261.952 113.908 260.301 111.767L254.445 114.692L248.944 102.511L253.329 96.3034C252.657 93.3 252.27 90.1855 252.179 87.0403L246.534 83.3295L248.786 69.259H254.996C256.034 66.4654 257.334 63.879 258.861 61.5684L256.776 53.3606L265.459 45.6425L269.884 51.788C272.024 50.8444 274.245 50.3039 276.487 50.1809L279.152 42.3042L289.182 45.4632V54.1745L289.197 54.1538ZM280.347 70.7074C278.218 70.041 275.997 70.2747 273.963 71.3789C271.93 72.4832 270.175 74.4085 268.921 76.9114C267.667 79.4143 266.971 82.3825 266.919 85.4408C266.868 88.4991 267.463 91.5102 268.632 94.0934C269.8 96.6767 271.487 98.7162 273.482 99.954C275.476 101.192 277.687 101.573 279.835 101.048C281.984 100.524 283.973 99.1172 285.552 97.007C287.131 94.8967 288.228 92.1772 288.705 89.1922C289.022 87.2095 289.057 85.1587 288.808 83.157C288.56 81.1553 288.032 79.2419 287.257 77.526C286.481 75.8101 285.472 74.3254 284.287 73.1567C283.102 71.9879 281.765 71.158 280.352 70.7143L280.347 70.7074Z" fill="#ACACAC"/>
<path d="M234.011 27.22C234.681 27.3542 235.33 27.6407 235.934 28.0684C237.625 29.2038 238.982 31.1273 239.774 33.5104C240.328 35.1529 240.596 36.9567 240.556 38.773C240.51 40.8672 240.065 42.9059 239.267 44.6771C238.378 46.6349 237.095 48.1785 235.58 49.1121C233.951 50.1233 232.133 50.3742 230.395 49.8279C228.657 49.2816 227.089 47.9669 225.923 46.0773C224.847 44.3243 224.163 42.1651 223.957 39.8697C223.769 37.7939 223.983 35.6855 224.576 33.7656C225.095 32.1002 225.887 30.6302 226.887 29.4754C228.33 27.8011 230.142 26.8798 232.015 26.8682C232.691 26.8433 233.366 26.9738 234.011 27.2545C234.011 27.3373 233.299 27.0545 232.045 27.1234C230.232 27.2436 228.5 28.2153 227.128 29.8824C226.115 31.0906 225.335 32.6364 224.859 34.3779C224.383 36.1193 224.227 38.0006 224.404 39.849C224.496 40.9109 224.705 41.9463 225.024 42.9183C225.341 43.9436 225.772 44.8913 226.302 45.7255C227.404 47.5105 228.885 48.7524 230.528 49.2689C232.17 49.7854 233.888 49.5491 235.427 48.5948C236.864 47.716 238.083 46.262 238.933 44.415C239.7 42.7405 240.136 40.81 240.197 38.8213C240.25 37.0855 240.013 35.3562 239.503 33.7725C238.76 31.4552 237.486 29.5521 235.885 28.365C234.734 27.4683 233.997 27.2959 234.011 27.22Z" fill="#E0E0E0"/>
<path d="M240.541 14.9978C240.535 14.8622 240.535 14.7264 240.541 14.5908C240.541 14.2942 240.541 13.9011 240.541 13.3769C240.541 12.2595 240.526 10.6502 240.497 8.54877L240.556 8.65223L233.136 6.37612L233.269 6.28645L231.302 12.1078L231.268 12.2182H231.184C229.541 12.3213 227.914 12.7271 226.346 13.4252L226.258 13.4666L226.194 13.37L222.934 8.85915H223.141L216.749 14.577L216.823 14.2736C217.314 16.1496 217.831 18.2188 218.371 20.3363L218.411 20.488L218.327 20.6122C217.215 22.3019 216.27 24.1924 215.515 26.2335L215.461 26.3853H215.338H210.75L210.957 26.1577C210.436 29.4201 209.875 32.9446 209.305 36.5519L209.182 36.2071L213.327 38.966L213.45 39.0419V39.2833C213.517 41.5762 213.799 43.8467 214.291 46.0357L214.335 46.222L214.236 46.353L211.001 50.9191L211.031 50.519C212.319 53.3676 213.7 56.4162 215.097 59.4855L214.822 59.3545L219.143 57.1956L219.281 57.1267L219.384 57.2577C220.581 58.8175 221.923 60.1445 223.372 61.203L223.5 61.4927V67.921L223.318 67.5968L230.727 69.935L230.467 70.1074C231.122 68.1532 231.778 66.2173 232.433 64.2999L232.497 64.1205H232.635C234.269 64.0327 235.888 63.6384 237.448 62.948L237.581 62.8928L237.679 63.0308L240.924 67.5761L240.634 67.5623L247.026 61.8789L246.938 62.2307C246.416 60.1615 245.91 58.1544 245.404 56.1679L245.364 55.9955L245.448 55.8644C246.564 54.1826 247.515 52.299 248.275 50.2638L248.329 50.1121H253.039L252.847 50.3259C253.437 46.6703 253.998 43.2216 254.524 39.9385L254.622 40.2213L250.487 37.4624L250.394 37.4003V37.2141C250.334 34.9127 250.056 32.6327 249.568 30.434L249.538 30.3098L249.607 30.2133L252.852 25.6679V25.9093L248.821 16.8945L248.944 16.9497L244.612 19.0741H244.568L244.533 19.0258C243.626 17.8334 242.638 16.7684 241.583 15.8461L240.797 15.1564C240.707 15.0897 240.62 15.016 240.536 14.9357C240.632 14.9832 240.726 15.0409 240.816 15.1081C240.998 15.2392 241.269 15.4392 241.623 15.7289C242.7 16.6225 243.708 17.6695 244.632 18.8534H244.558L248.87 16.6531L248.948 16.6118L248.993 16.7152L253.083 25.6817L253.142 25.8128L253.064 25.9231C252.08 27.3026 251.009 28.8338 249.838 30.503L249.873 30.2823C250.382 32.5164 250.674 34.8362 250.743 37.1796L250.65 36.9727L254.799 39.7316L254.927 39.8213L254.893 40.0144C254.401 43.3044 253.826 46.7531 253.251 50.4087L253.216 50.6225H253.059H248.472L248.653 50.4707C247.882 52.5553 246.914 54.4854 245.777 56.2093L245.821 55.9127C246.323 57.8992 246.838 59.9201 247.365 61.9755L247.419 62.2031L247.277 62.3341L240.885 68.0382L240.733 68.1693L240.61 67.9968L237.355 63.4584L237.581 63.5343C235.988 64.2443 234.334 64.6503 232.664 64.7413L232.866 64.562L230.899 70.3764L230.821 70.6109L230.639 70.5489L223.205 68.252L223.023 68.1969V67.9348C223.023 66.8657 223.023 65.7966 223.023 64.7275V61.5065C223.273 62.0858 223.091 61.6651 223.146 61.7961C221.661 60.7046 220.286 59.3433 219.055 57.7474L219.291 57.8164L214.954 59.9752L214.777 60.058L214.679 59.8373L210.623 50.8708L210.524 50.657L210.652 50.4707L213.892 45.9116L213.838 46.2358C213.337 43.9999 213.049 41.6805 212.983 39.3384L213.106 39.6074L208.966 36.8485L208.808 36.745L208.848 36.5036L210.519 26.1577L210.554 25.9231H215.308L215.131 26.0749C215.902 23.9652 216.873 22.0116 218.017 20.2673L217.978 20.5432L216.444 14.4529L216.395 14.2598L216.523 14.1494L222.934 8.4936L223.047 8.39703L223.141 8.52808C224.286 10.1214 225.392 11.694 226.376 13.0734L226.218 13.0182C227.813 12.3213 229.466 11.927 231.135 11.8457L231.017 11.9492C231.735 9.87996 232.404 7.90732 232.984 6.1554L233.023 6.03125H233.117L240.492 8.42462H240.551V8.50739C240.551 10.5766 240.541 12.1676 240.521 13.2803C240.521 13.8045 240.521 14.2115 240.521 14.515C240.535 14.6751 240.542 14.8364 240.541 14.9978V14.9978Z" fill="#E0E0E0"/>
<path d="M35.7888 174.112C36.2325 174.307 36.6508 174.6 37.0278 174.981C38.0837 176.013 38.8517 177.527 39.201 179.265C39.445 180.465 39.4854 181.729 39.319 182.955C39.1203 184.366 38.6569 185.678 37.9768 186.755C37.2213 187.942 36.2326 188.789 35.1349 189.19C33.9509 189.622 32.6992 189.511 31.5637 188.871C30.4283 188.232 29.469 187.099 28.8268 185.638C28.5219 184.951 28.2946 184.201 28.1532 183.417C28.0097 182.666 27.95 181.889 27.9762 181.113C28.0175 179.676 28.3315 178.281 28.8858 177.071C29.4757 175.793 30.3157 174.779 31.3054 174.153C32.2951 173.527 33.3925 173.314 34.4662 173.54C34.9266 173.627 35.3734 173.821 35.7888 174.112C35.7888 174.167 35.2972 173.871 34.4515 173.712C33.2146 173.508 31.9645 173.891 30.9016 174.802C30.1746 175.418 29.5601 176.263 29.107 177.271C28.5918 178.431 28.3036 179.761 28.2712 181.127C28.2524 181.862 28.3121 182.596 28.4482 183.306C28.5849 184.04 28.8039 184.739 29.0972 185.376C29.7043 186.755 30.6104 187.826 31.6828 188.43C32.7552 189.035 33.9375 189.141 35.0562 188.735C36.098 188.359 37.0383 187.563 37.7604 186.445C38.3701 185.494 38.801 184.346 39.0139 183.103C39.2268 181.86 39.2151 180.562 38.9798 179.327C38.6602 177.639 37.947 176.151 36.9541 175.099C36.5781 174.742 36.1891 174.413 35.7888 174.112V174.112Z" fill="#E0E0E0"/>
<path d="M41.1776 166.836C41.1701 166.746 41.1701 166.656 41.1776 166.567C41.1776 166.36 41.2218 166.091 41.2611 165.739C41.3398 164.98 41.4529 163.884 41.6053 162.47L41.6348 162.545L36.7918 159.856L36.8853 159.814C36.3493 160.925 35.7495 162.145 35.1103 163.463L35.0759 163.525H35.0169C33.8972 163.335 32.7643 163.358 31.6489 163.594H31.585L31.5457 163.518L29.7068 159.987L29.8396 160.042L25.0556 162.925L25.1294 162.732C25.3064 164.077 25.503 165.553 25.6997 167.077V167.187L25.6358 167.256C24.7612 168.222 23.981 169.344 23.3151 170.595L23.2659 170.691H23.1824L20.0701 170.002L20.2274 169.877C19.6177 172.009 18.9638 174.312 18.2902 176.664L18.2361 176.416L20.8272 178.927L20.9059 178.996V179.127C20.772 180.69 20.7852 182.272 20.9452 183.831V183.962L20.8715 184.044L18.3197 186.631L18.3689 186.369L20.4192 193.094L20.2422 192.963L23.3397 192.17H23.438L23.497 192.273C24.1873 193.514 24.9925 194.621 25.8915 195.563V195.563C25.921 195.66 25.8325 195.349 25.9554 195.784V195.853V195.991L25.921 196.267L25.862 196.811L25.7341 197.908C25.6505 198.632 25.567 199.363 25.4834 200.081L25.385 199.839L30.2231 202.564L30.0313 202.647L31.821 199.012L31.8751 198.901H31.9735C33.0875 199.099 34.2157 199.083 35.3267 198.853H35.4201L35.4742 198.956L37.3179 202.543L37.136 202.467L41.9298 199.605L41.8413 199.832C41.6545 198.356 41.4676 196.908 41.2808 195.487V195.363L41.3496 195.294C42.2369 194.322 43.0288 193.191 43.7048 191.928L43.7539 191.832H43.8375L46.9449 192.521L46.7974 192.632L48.7641 185.858L48.8083 186.065L46.2221 183.541L46.1631 183.486V183.389C46.3019 181.819 46.292 180.231 46.1336 178.665V178.575L46.1877 178.527L48.7444 175.947L48.7149 176.106C47.9282 173.498 47.2399 171.278 46.6892 169.374L46.7679 169.429L43.6654 170.195H43.6359V170.16C43.1166 169.213 42.532 168.339 41.8905 167.553L41.3988 166.974C41.2857 166.849 41.2366 166.787 41.2415 166.78L41.4136 166.946C41.5266 167.063 41.6987 167.243 41.9052 167.491C42.5634 168.264 43.1646 169.129 43.6998 170.07H43.6458L46.7433 169.243H46.7974V169.319L48.8624 176.03L48.8919 176.126L48.8329 176.188L46.286 178.789L46.3303 178.651C46.4998 180.25 46.5147 181.874 46.3745 183.479L46.3254 183.327L48.9214 185.831L49.005 185.907L48.9656 186.031C48.356 188.183 47.7119 190.431 47.0334 192.825L46.994 192.963H46.8859L43.7785 192.273L43.9113 192.197C43.2248 193.492 42.4178 194.652 41.5119 195.646L41.566 195.446C41.7528 196.876 41.9413 198.324 42.1314 199.791V199.957L41.9987 199.991L37.2048 202.867L37.0967 202.936L37.0229 202.798L35.1742 199.219L35.3217 199.308C34.1814 199.541 33.0239 199.56 31.88 199.363L32.0275 199.267C31.4375 200.467 30.841 201.679 30.2379 202.902L30.169 203.053L30.051 202.985L25.213 200.26L25.095 200.198V200.019L25.3457 197.846L25.4686 196.749L25.5325 196.204L25.562 195.929V195.791V195.722V195.666C25.685 196.094 25.5965 195.784 25.621 195.88C24.6961 194.918 23.869 193.783 23.1627 192.507L23.3151 192.59L20.2176 193.383L20.0897 193.418L20.0406 193.252C19.3375 190.942 18.6442 188.659 18.0001 186.528L17.951 186.362L18.0493 186.259L20.606 183.672L20.5421 183.886C20.3787 182.286 20.3672 180.662 20.5077 179.058L20.5716 179.265L17.9854 176.747L17.887 176.651L17.9313 176.499C18.6049 174.14 19.2637 171.843 19.898 169.719L19.9422 169.567H20.0553L23.1627 170.257L23.0299 170.333C23.7183 169.038 24.5269 167.878 25.4342 166.884L25.385 167.063C25.1884 165.546 25.0015 164.063 24.8245 162.718V162.58L24.918 162.525L29.7118 159.669L29.7953 159.621L29.8494 159.724L31.6883 163.311L31.5899 163.249C32.7309 163.022 33.8885 163.01 35.0317 163.215L34.9432 163.27L36.7427 159.649L36.782 159.573L36.841 159.607L41.6643 162.366H41.7036V162.421L41.3054 165.649C41.2611 166.001 41.2218 166.277 41.1972 166.484C41.1997 166.602 41.1931 166.72 41.1776 166.836V166.836Z" fill="#E0E0E0"/>
<path fill-rule="evenodd" clip-rule="evenodd" d="M82.2863 203.495C83.882 205.167 85.3107 207.132 86.5343 209.337L91.9427 207.957L95.527 219.738L91.0528 224.276C91.3415 227.044 91.3646 229.853 91.1216 232.629L95.6598 237.029L92.2525 248.913L86.8048 247.686C85.614 249.928 84.2132 251.935 82.6403 253.652L83.6236 261.239L75.2259 266.267L72.0202 259.998C70.047 260.397 68.0448 260.427 66.066 260.087L62.9341 266.453L54.4576 261.68L55.3328 254.038C53.7355 252.364 52.3051 250.396 51.0798 248.189L45.6469 249.569L42.0675 237.788L46.5368 233.25C46.2523 230.482 46.2308 227.673 46.4729 224.897L41.9347 220.497L45.3371 208.612L50.7848 209.84C51.9786 207.599 53.3809 205.593 54.9542 203.874L53.9709 196.252L62.3686 191.224L65.6038 197.501C67.5768 197.098 69.5793 197.068 71.558 197.411L74.6949 191.045L83.1566 195.852L82.2863 203.495ZM72.8462 216.241C71.0479 215.227 69.0755 214.983 67.1787 215.542C65.2818 216.1 63.5456 217.435 62.1896 219.378C60.8336 221.321 59.9187 223.784 59.5607 226.456C59.2027 229.128 59.4176 231.889 60.1783 234.39C60.939 236.891 62.2112 239.019 63.8341 240.506C65.457 241.992 67.3577 242.77 69.2958 242.741C71.2339 242.712 73.1223 241.877 74.7222 240.342C76.3221 238.808 77.5617 236.642 78.2841 234.119C79.2525 230.736 79.2237 226.953 78.204 223.6C77.1842 220.248 75.257 217.6 72.8462 216.241V216.241Z" fill="#ACACAC"/>
<path d="M81.9126 127.624H22.6514V24.2334L67.9835 24.4196L81.9126 45.6427V127.624Z" fill="#EBEBEB"/>
<path d="M40.3761 83.2193C40.3024 83.3227 39.319 82.0743 37.7899 79.9775C36.2608 77.8808 34.1811 74.9287 31.9194 71.618L31.6686 71.2455L31.9194 70.8731V70.8386C34.1712 67.5072 36.2412 64.5275 37.7703 62.4101C39.2994 60.2926 40.2778 59.0304 40.3515 59.1338C40.4253 59.2373 39.5894 60.6788 38.1636 62.9343C36.7377 65.1897 34.7219 68.2452 32.475 71.5835H32.4504V70.8731C34.7121 74.1838 36.723 77.2186 38.1538 79.4533C39.5845 81.6881 40.4548 83.1158 40.3761 83.2193Z" fill="#263238"/>
<path d="M64.1583 59.1339C64.237 59.0304 65.2203 60.2789 66.7494 62.3756C68.2785 64.4724 70.3583 67.4245 72.6151 70.7352L72.8708 71.1077L72.62 71.4801H72.5954C70.3386 74.8184 68.2687 77.7912 66.7445 79.9086C65.2203 82.0261 64.237 83.2883 64.1583 83.1849C64.0797 83.0814 64.9253 81.6399 66.3512 79.3844C67.777 77.129 69.7929 74.0735 72.0349 70.7421V70.7007V71.4456C69.7781 68.1349 67.7623 65.1001 66.3315 62.8722C64.9007 60.6444 64.0846 59.2374 64.1583 59.1339Z" fill="#263238"/>
<path d="M45.0569 87.02C44.8799 86.8683 47.9528 79.3502 51.9403 70.2319C55.9277 61.1136 59.2809 53.8507 59.4629 54.0094C59.6448 54.168 56.5718 61.6792 52.5794 70.7975C48.5871 79.9158 45.2388 87.1786 45.0569 87.02Z" fill="#263238"/>
<path d="M67.9786 24.4268L67.9245 41.746C67.923 42.3434 68.0072 42.9352 68.172 43.4862C68.3369 44.0371 68.579 44.5359 68.8841 44.9528C69.1891 45.3698 69.5508 45.6965 69.9477 45.9134C70.3445 46.1303 70.7684 46.233 71.1941 46.2154L81.9126 45.6567L67.9786 24.4268Z" fill="#E0E0E0"/>
<path d="M42.0134 94.269H15.7335V116.678H42.0134V94.269Z" fill="#E4A126"/>
<path d="M23.202 110.057L23.8854 108.946C24.0665 109.361 24.319 109.704 24.6198 109.946C24.9206 110.187 25.2599 110.318 25.6063 110.326C26.5356 110.326 27.0174 109.533 27.0174 107.974V101.477H24.0379V100.042H28.1876V107.891C28.1876 110.471 27.2927 111.747 25.6063 111.747C25.1379 111.76 24.6742 111.613 24.2553 111.319C23.8364 111.024 23.4749 110.591 23.202 110.057V110.057Z" fill="#263238"/>
<path d="M29.8347 110.271L30.2723 108.981C31.039 109.86 32.0012 110.333 32.9912 110.319C34.422 110.319 35.0317 109.54 35.0317 108.533C35.0317 105.705 30.0363 107.491 30.0363 103.194C30.0363 101.408 31.0196 99.8835 33.1928 99.8835C34.13 99.8595 35.052 100.216 35.8478 100.911L35.4545 102.235C34.7798 101.626 33.9954 101.298 33.1928 101.291C31.7915 101.291 31.1917 102.118 31.1917 103.125C31.1917 105.953 36.1871 104.187 36.1871 108.436C36.1871 110.202 35.1742 111.726 32.9912 111.726C31.8505 111.77 30.7346 111.255 29.8347 110.271V110.271Z" fill="#263238"/>
<path d="M278.837 80.8535H145.181V190.107H278.837V80.8535Z" fill="#263238"/>
<path d="M155.634 184.61C155.565 184.61 155.506 162.27 155.506 134.715C155.506 107.16 155.575 84.8057 155.634 84.8057C155.693 84.8057 155.762 107.139 155.762 134.701C155.762 162.263 155.708 184.61 155.634 184.61Z" fill="#E0E0E0"/>
<path d="M152.886 89.0265C151.415 89.2656 149.931 89.2656 148.46 89.0265C149.931 88.7874 151.415 88.7874 152.886 89.0265Z" fill="#E0E0E0"/>
<path d="M152.886 95.5998C151.415 95.8389 149.931 95.8389 148.46 95.5998C149.931 95.3606 151.415 95.3606 152.886 95.5998Z" fill="#E0E0E0"/>
<path d="M152.886 102.18C151.415 102.419 149.931 102.419 148.46 102.18C149.931 101.941 151.415 101.941 152.886 102.18V102.18Z" fill="#E0E0E0"/>
<path d="M152.886 108.753C151.415 108.992 149.931 108.992 148.46 108.753C149.931 108.514 151.415 108.514 152.886 108.753Z" fill="#E0E0E0"/>
<path d="M152.886 115.326C151.415 115.565 149.931 115.565 148.46 115.326C149.931 115.087 151.415 115.087 152.886 115.326Z" fill="#E0E0E0"/>
<path d="M152.886 121.906C151.415 122.145 149.931 122.145 148.46 121.906C149.931 121.667 151.415 121.667 152.886 121.906V121.906Z" fill="#E0E0E0"/>
<path d="M152.886 128.48C151.415 128.719 149.931 128.719 148.46 128.48C149.931 128.241 151.415 128.241 152.886 128.48V128.48Z" fill="#E0E0E0"/>
<path d="M152.886 135.053C151.415 135.292 149.931 135.292 148.46 135.053C149.931 134.814 151.415 134.814 152.886 135.053V135.053Z" fill="#E0E0E0"/>
<path d="M152.886 141.632C151.415 141.872 149.931 141.872 148.46 141.632C149.931 141.393 151.415 141.393 152.886 141.632Z" fill="#E0E0E0"/>
<path d="M152.886 148.206C151.415 148.445 149.931 148.445 148.46 148.206C149.931 147.967 151.415 147.967 152.886 148.206V148.206Z" fill="#E0E0E0"/>
<path d="M152.886 154.779C151.415 155.018 149.931 155.018 148.46 154.779C149.931 154.54 151.415 154.54 152.886 154.779V154.779Z" fill="#E0E0E0"/>
<path d="M152.886 161.366C151.415 161.605 149.931 161.605 148.46 161.366C149.931 161.127 151.415 161.127 152.886 161.366V161.366Z" fill="#E0E0E0"/>
<path d="M152.886 167.932C151.415 168.171 149.931 168.171 148.46 167.932C149.931 167.693 151.415 167.693 152.886 167.932V167.932Z" fill="#E0E0E0"/>
<path d="M152.886 174.506C151.415 174.745 149.931 174.745 148.46 174.506C149.931 174.266 151.415 174.266 152.886 174.506V174.506Z" fill="#E0E0E0"/>
<path d="M152.886 181.086C151.415 181.325 149.931 181.325 148.46 181.086C149.931 180.846 151.415 180.846 152.886 181.086V181.086Z" fill="#E0E0E0"/>
<path d="M170.63 88.6403C170.63 88.7368 168.058 88.8196 164.887 88.8196C161.716 88.8196 159.14 88.7368 159.14 88.6403C159.14 88.5437 161.711 88.4609 164.887 88.4609C168.063 88.4609 170.63 88.5368 170.63 88.6403Z" fill="#E4A126"/>
<path d="M170.63 181.086C170.63 181.182 168.058 181.265 164.887 181.265C161.716 181.265 159.14 181.182 159.14 181.086C159.14 180.989 161.711 180.906 164.887 180.906C168.063 180.906 170.63 180.982 170.63 181.086Z" fill="#E4A126"/>
<path d="M186.629 102.18C186.629 102.276 181.815 102.359 175.881 102.359C169.947 102.359 165.133 102.276 165.133 102.18C165.133 102.083 169.947 102 175.881 102C181.815 102 186.629 102.049 186.629 102.18Z" fill="#E4A126"/>
<path d="M211.478 102.18C211.478 102.276 206.67 102.359 200.735 102.359C194.801 102.359 189.987 102.276 189.987 102.18C189.987 102.083 194.796 102 200.735 102C206.674 102 211.478 102.049 211.478 102.18Z" fill="#E44D26"/>
<path d="M201.984 108.753C201.984 108.85 194.889 108.932 186.147 108.932C177.405 108.932 170.305 108.85 170.305 108.753C170.305 108.656 177.395 108.574 186.147 108.574C194.899 108.574 201.984 108.656 201.984 108.753Z" fill="#E0E0E0"/>
<path d="M201.984 115.326C201.984 115.43 194.889 115.506 186.147 115.506C177.405 115.506 170.325 115.43 170.325 115.326C170.325 115.223 177.415 115.147 186.167 115.147C194.919 115.147 201.984 115.23 201.984 115.326Z" fill="#2965F1"/>
<path d="M223.785 135.053C223.785 135.156 216.695 135.232 207.948 135.232C199.201 135.232 192.111 135.156 192.111 135.053C192.111 134.949 199.201 134.874 207.948 134.874C216.695 134.874 223.785 134.956 223.785 135.053Z" fill="#E0E0E0"/>
<path d="M214.379 121.906C214.379 122.003 207.284 122.086 198.542 122.086C189.8 122.086 182.701 122.003 182.701 121.906C182.701 121.81 189.79 121.727 198.542 121.727C207.294 121.727 214.379 121.803 214.379 121.906Z" fill="#E44D26"/>
<path d="M253.083 121.906C253.083 122.003 245.993 122.086 237.247 122.086C228.5 122.086 221.41 122.003 221.41 121.906C221.41 121.81 228.5 121.727 237.247 121.727C245.993 121.727 253.083 121.803 253.083 121.906Z" fill="#E0E0E0"/>
<path d="M239.621 108.753C239.621 108.85 232.532 108.932 223.785 108.932C215.038 108.932 207.948 108.85 207.948 108.753C207.948 108.656 215.038 108.574 223.785 108.574C232.532 108.574 239.621 108.656 239.621 108.753Z" fill="#2965F1"/>
<path d="M261.506 135.053C261.506 135.156 254.411 135.232 245.669 135.232C236.927 135.232 229.817 135.156 229.817 135.053C229.817 134.949 236.907 134.874 245.659 134.874C254.411 134.874 261.506 134.956 261.506 135.053Z" fill="#E44D26"/>
<path d="M257.135 115.326C257.135 115.43 246.121 115.506 232.551 115.506C218.981 115.506 207.968 115.43 207.968 115.326C207.968 115.223 218.976 115.147 232.551 115.147C246.126 115.147 257.135 115.23 257.135 115.326Z" fill="#455A64"/>
<path d="M170.63 95.5997C170.63 95.7032 168.058 95.7791 164.887 95.7791C161.716 95.7791 159.14 95.7032 159.14 95.5997C159.14 95.4963 161.711 95.4204 164.887 95.4204C168.063 95.4204 170.63 95.5032 170.63 95.5997Z" fill="#2965F1"/>
<path d="M170.63 174.505C170.63 174.609 168.058 174.685 164.887 174.685C161.716 174.685 159.14 174.609 159.14 174.505C159.14 174.402 161.711 174.326 164.887 174.326C168.063 174.326 170.63 174.409 170.63 174.505Z" fill="#FAFAFA"/>
<path d="M176.319 121.906C176.319 122.003 173.747 122.086 170.576 122.086C167.405 122.086 164.833 122.003 164.833 121.906C164.833 121.81 167.405 121.727 170.576 121.727C173.747 121.727 176.319 121.803 176.319 121.906Z" fill="#FAFAFA"/>
<path d="M268.389 121.906C268.389 122.003 265.818 122.086 262.646 122.086C259.475 122.086 256.904 122.003 256.904 121.906C256.904 121.81 259.475 121.727 262.646 121.727C265.818 121.727 268.389 121.803 268.389 121.906Z" fill="#E4A126"/>
<path d="M186.629 148.165C186.629 148.268 181.815 148.344 175.881 148.344C169.947 148.344 165.133 148.268 165.133 148.165C165.133 148.061 169.947 147.985 175.881 147.985C181.815 147.985 186.629 148.068 186.629 148.165Z" fill="#E4A126"/>
<path d="M211.478 148.165C211.478 148.268 206.67 148.344 200.735 148.344C194.801 148.344 189.992 148.261 189.992 148.165C189.992 148.068 194.801 147.985 200.74 147.985C206.679 147.985 211.478 148.068 211.478 148.165Z" fill="#E0E0E0"/>
<path d="M201.984 154.745C201.984 154.841 194.889 154.924 186.147 154.924C177.405 154.924 170.325 154.841 170.325 154.745C170.325 154.648 177.415 154.565 186.167 154.565C194.919 154.565 201.984 154.641 201.984 154.745Z" fill="#E0E0E0"/>
<path d="M201.984 161.317C201.984 161.414 194.889 161.497 186.147 161.497C177.405 161.497 170.305 161.414 170.305 161.317C170.305 161.221 177.395 161.138 186.147 161.138C194.899 161.138 201.984 161.221 201.984 161.317Z" fill="#E0E0E0"/>
<path d="M214.379 167.891C214.379 167.994 207.284 168.07 198.542 168.07C189.8 168.07 182.701 167.994 182.701 167.891C182.701 167.787 189.79 167.711 198.542 167.711C207.294 167.711 214.379 167.794 214.379 167.891Z" fill="#E0E0E0"/>
<path d="M253.083 167.891C253.083 167.994 245.993 168.07 237.247 168.07C228.5 168.07 221.41 167.994 221.41 167.891C221.41 167.787 228.5 167.711 237.247 167.711C245.993 167.711 253.083 167.794 253.083 167.891Z" fill="#E44D26"/>
<path d="M239.621 154.745C239.621 154.841 232.532 154.924 223.785 154.924C215.038 154.924 207.948 154.841 207.948 154.745C207.948 154.648 215.038 154.565 223.785 154.565C232.532 154.565 239.621 154.641 239.621 154.745Z" fill="#2965F1"/>
<path d="M257.135 161.317C257.135 161.414 246.121 161.497 232.551 161.497C218.981 161.497 207.968 161.414 207.968 161.317C207.968 161.221 218.976 161.138 232.551 161.138C246.126 161.138 257.135 161.221 257.135 161.317Z" fill="#455A64"/>
<path d="M176.319 167.891C176.319 167.994 173.747 168.07 170.576 168.07C167.405 168.07 164.833 167.994 164.833 167.891C164.833 167.787 167.405 167.711 170.576 167.711C173.747 167.711 176.319 167.794 176.319 167.891Z" fill="#FAFAFA"/>
<path d="M268.389 167.891C268.389 167.994 265.818 168.07 262.646 168.07C259.475 168.07 256.904 167.994 256.904 167.891C256.904 167.787 259.475 167.711 262.646 167.711C265.818 167.711 268.389 167.794 268.389 167.891Z" fill="#E4A126"/>
<path d="M75.0046 135.48H221.253C222.131 135.48 222.974 135.97 223.596 136.842C224.217 137.714 224.566 138.896 224.566 140.129V267.73C224.566 270.395 223.812 272.951 222.468 274.836C221.125 276.72 219.303 277.779 217.403 277.779H78.3578C76.4579 277.779 74.6358 276.72 73.2924 274.836C71.9489 272.951 71.1942 270.395 71.1942 267.73V140.819C71.1955 139.403 71.5975 138.045 72.312 137.044C73.0264 136.043 73.9949 135.48 75.0046 135.48Z" fill="#455A64"/>
<path d="M64.7827 267.24H230.968V270.227C230.968 271.47 230.794 272.7 230.455 273.848C230.116 274.996 229.619 276.04 228.992 276.918C228.366 277.797 227.622 278.494 226.804 278.97C225.985 279.445 225.108 279.69 224.222 279.69H71.5285C70.6426 279.69 69.7654 279.445 68.947 278.97C68.1286 278.494 67.3849 277.797 66.7585 276.918C66.1321 276.04 65.6352 274.996 65.2962 273.848C64.9572 272.7 64.7827 271.47 64.7827 270.227V267.24Z" fill="#455A64"/>
<path d="M220.018 141.136H75.3095V261.288H220.018V141.136Z" fill="#E0E0E0"/>
<path d="M132.761 267.24L134.821 271.841H163.835L165.753 267.24H132.761Z" fill="#263238"/>
<path d="M224.591 267.192H71.2188V267.875H224.591V267.192Z" fill="#263238"/>
<path d="M216.075 148.096H79.6067V261.288H216.075V148.096Z" fill="#263238"/>
<path d="M90.0744 257.963C90.0055 257.963 89.9465 233.857 89.9465 204.123C89.9465 174.388 90.0055 150.282 90.0744 150.282C90.1432 150.282 90.1825 174.381 90.1825 204.13C90.1825 233.878 90.1432 257.963 90.0744 257.963Z" fill="#E0E0E0"/>
<path d="M87.321 160.042C86.5894 160.223 85.8452 160.283 85.1036 160.221C84.362 160.283 83.6178 160.223 82.8861 160.042C84.3563 159.804 85.8411 159.804 87.3112 160.042H87.321Z" fill="#E0E0E0"/>
<path d="M87.4931 153.931C86.7615 154.112 86.0173 154.172 85.2757 154.11C84.5341 154.172 83.7898 154.112 83.0582 153.931C84.5284 153.693 86.0131 153.693 87.4833 153.931H87.4931Z" fill="#E0E0E0"/>
<path d="M87.321 166.629C85.8509 166.867 84.3661 166.867 82.896 166.629C84.3661 166.391 85.8509 166.391 87.321 166.629V166.629Z" fill="#E0E0E0"/>
<path d="M87.321 173.216C85.8509 173.454 84.3661 173.454 82.896 173.216C83.6276 173.035 84.3718 172.975 85.1134 173.037C85.8518 172.976 86.5926 173.036 87.321 173.216Z" fill="#E0E0E0"/>
<path d="M87.321 179.803C85.8509 180.041 84.3661 180.041 82.896 179.803C83.6276 179.622 84.3718 179.562 85.1134 179.624C85.8518 179.563 86.5926 179.623 87.321 179.803V179.803Z" fill="#E0E0E0"/>
<path d="M87.321 186.39C85.8509 186.628 84.3661 186.628 82.896 186.39C83.6276 186.209 84.3718 186.149 85.1134 186.211C85.8518 186.15 86.5926 186.21 87.321 186.39Z" fill="#E0E0E0"/>
<path d="M87.321 192.97C86.5898 193.155 85.8454 193.218 85.1036 193.156C84.3618 193.218 83.6174 193.155 82.8861 192.97C84.3563 192.732 85.8411 192.732 87.3112 192.97H87.321Z" fill="#E0E0E0"/>
<path d="M87.321 199.557C86.5894 199.738 85.8452 199.798 85.1036 199.736C84.362 199.798 83.6178 199.738 82.8861 199.557C84.3563 199.319 85.8411 199.319 87.3112 199.557H87.321Z" fill="#E0E0E0"/>
<path d="M87.321 206.144C86.5894 206.325 85.8452 206.385 85.1036 206.323C84.362 206.385 83.6178 206.325 82.8861 206.144C84.3563 205.906 85.8411 205.906 87.3112 206.144H87.321Z" fill="#E0E0E0"/>
<path d="M87.321 212.731C86.5894 212.912 85.8452 212.972 85.1036 212.91C84.362 212.972 83.6178 212.912 82.8861 212.731C84.3563 212.493 85.8411 212.493 87.3112 212.731H87.321Z" fill="#E0E0E0"/>
<path d="M87.321 219.304C85.8509 219.542 84.3661 219.542 82.896 219.304C84.3661 219.066 85.8509 219.066 87.321 219.304V219.304Z" fill="#E0E0E0"/>
<path d="M87.321 225.905C85.8509 226.143 84.3661 226.143 82.896 225.905C83.6276 225.724 84.3718 225.663 85.1134 225.725C85.8518 225.664 86.5926 225.725 87.321 225.905Z" fill="#E0E0E0"/>
<path d="M87.321 232.491C85.8509 232.729 84.3661 232.729 82.896 232.491C83.6276 232.31 84.3718 232.25 85.1134 232.312C85.8518 232.251 86.5926 232.312 87.321 232.491Z" fill="#E0E0E0"/>
<path d="M87.321 239.078C85.8509 239.316 84.3661 239.316 82.896 239.078C83.6276 238.897 84.3718 238.837 85.1134 238.899C85.8518 238.838 86.5926 238.898 87.321 239.078V239.078Z" fill="#E0E0E0"/>
<path d="M87.321 245.665C85.8509 245.903 84.3661 245.903 82.896 245.665C83.6272 245.48 84.3716 245.417 85.1134 245.479C85.8519 245.418 86.593 245.481 87.321 245.665V245.665Z" fill="#E0E0E0"/>
<path d="M87.321 252.245C86.5894 252.426 85.8452 252.487 85.1036 252.425C84.362 252.487 83.6178 252.426 82.8861 252.245C84.3563 252.007 85.8411 252.007 87.3112 252.245H87.321Z" fill="#E0E0E0"/>
<path d="M105.095 159.656C105.095 159.752 102.519 159.835 99.3424 159.835C96.1662 159.835 93.5849 159.752 93.5849 159.656C93.5849 159.559 96.1613 159.477 99.3424 159.477C102.524 159.477 105.095 159.552 105.095 159.656Z" fill="#E4A126"/>
<path d="M105.095 252.245C105.095 252.349 102.519 252.425 99.3424 252.425C96.1662 252.425 93.5849 252.349 93.5849 252.245C93.5849 252.142 96.1613 252.066 99.3424 252.066C102.524 252.066 105.095 252.149 105.095 252.245Z" fill="#E4A126"/>
<path d="M121.119 173.216C121.119 173.312 116.295 173.395 110.351 173.395C104.407 173.395 99.5882 173.312 99.5882 173.216C99.5882 173.119 104.407 173.037 110.351 173.037C116.295 173.037 121.119 173.092 121.119 173.216Z" fill="#E4A126"/>
<path d="M146.012 173.216C146.012 173.312 141.189 173.395 135.244 173.395C129.3 173.395 124.482 173.312 124.482 173.216C124.482 173.119 129.3 173.037 135.244 173.037C141.189 173.037 146.012 173.092 146.012 173.216Z" fill="#2965F1"/>
<path d="M136.498 179.803C136.498 179.899 129.393 179.982 120.632 179.982C111.87 179.982 104.77 179.899 104.77 179.803C104.77 179.706 111.87 179.624 120.632 179.624C129.393 179.624 136.498 179.699 136.498 179.803Z" fill="#E44D26"/>
<path d="M136.498 186.39C136.498 186.486 129.393 186.569 120.632 186.569C111.87 186.569 104.77 186.486 104.77 186.39C104.77 186.293 111.87 186.21 120.632 186.21C129.393 186.21 136.498 186.286 136.498 186.39Z" fill="#2965F1"/>
<path d="M158.333 206.144C158.333 206.247 151.234 206.323 142.472 206.323C133.71 206.323 126.606 206.247 126.606 206.144C126.606 206.04 133.71 205.964 142.472 205.964C151.234 205.964 158.333 206.047 158.333 206.144Z" fill="#2965F1"/>
<path d="M148.913 192.97C148.913 193.073 141.808 193.156 133.047 193.156C124.285 193.156 117.185 193.073 117.185 192.97C117.185 192.866 124.285 192.791 133.047 192.791C141.808 192.791 148.913 192.873 148.913 192.97Z" fill="#E44D26"/>
<path d="M187.681 192.97C187.681 193.073 180.577 193.156 171.82 193.156C163.063 193.156 155.954 193.073 155.954 192.97C155.954 192.866 163.058 192.791 171.82 192.791C180.581 192.791 187.681 192.873 187.681 192.97Z" fill="#2965F1"/>
<path d="M174.199 179.803C174.199 179.899 167.095 179.982 158.333 179.982C149.572 179.982 142.472 179.899 142.472 179.803C142.472 179.706 149.572 179.624 158.333 179.624C167.095 179.624 174.199 179.699 174.199 179.803Z" fill="#FAFAFA"/>
<path d="M196.113 206.144C196.113 206.247 189.009 206.323 180.252 206.323C171.495 206.323 164.386 206.247 164.386 206.144C164.386 206.04 171.49 205.964 180.252 205.964C189.014 205.964 196.113 206.047 196.113 206.144Z" fill="#E44D26"/>
<path d="M191.737 186.39C191.737 186.486 180.709 186.569 167.105 186.569C153.5 186.569 142.472 186.486 142.472 186.39C142.472 186.293 153.5 186.21 167.105 186.21C180.709 186.21 191.737 186.286 191.737 186.39Z" fill="#455A64"/>
<path d="M105.095 166.629C105.095 166.726 102.519 166.808 99.3424 166.808C96.1662 166.808 93.5849 166.726 93.5849 166.629C93.5849 166.532 96.1613 166.45 99.3424 166.45C102.524 166.45 105.095 166.532 105.095 166.629Z" fill="#E44D26"/>
<path d="M105.095 245.665C105.095 245.762 102.519 245.845 99.3424 245.845C96.1662 245.845 93.5849 245.762 93.5849 245.665C93.5849 245.569 96.1613 245.479 99.3424 245.479C102.524 245.479 105.095 245.562 105.095 245.665Z" fill="#E44D26"/>
<path d="M110.793 192.97C110.793 193.073 108.217 193.156 105.041 193.156C101.865 193.156 99.2883 193.073 99.2883 192.97C99.2883 192.866 101.86 192.791 105.041 192.791C108.222 192.791 110.793 192.873 110.793 192.97Z" fill="#FAFAFA"/>
<path d="M203.012 192.97C203.012 193.073 200.435 193.156 197.259 193.156C194.083 193.156 191.506 193.073 191.506 192.97C191.506 192.866 194.078 192.791 197.259 192.791C200.44 192.791 203.012 192.873 203.012 192.97Z" fill="#E4A126"/>
<path d="M121.119 219.304C121.119 219.407 116.295 219.483 110.351 219.483C104.407 219.483 99.5882 219.407 99.5882 219.304C99.5882 219.2 104.407 219.125 110.351 219.125C116.295 219.125 121.119 219.18 121.119 219.304Z" fill="#E4A126"/>
<path d="M146.012 219.304C146.012 219.407 141.189 219.483 135.244 219.483C129.3 219.483 124.482 219.407 124.482 219.304C124.482 219.2 129.3 219.125 135.244 219.125C141.189 219.125 146.012 219.18 146.012 219.304Z" fill="#E0E0E0"/>
<path d="M136.498 225.863C136.498 225.966 129.393 226.042 120.632 226.042C111.87 226.042 104.77 225.966 104.77 225.863C104.77 225.759 111.87 225.684 120.632 225.684C129.393 225.684 136.498 225.766 136.498 225.863Z" fill="#E44D26"/>
<path d="M136.498 232.45C136.498 232.553 129.393 232.629 120.632 232.629C111.87 232.629 104.77 232.553 104.77 232.45C104.77 232.346 111.87 232.271 120.632 232.271C129.393 232.271 136.498 232.353 136.498 232.45Z" fill="#E0E0E0"/>
<path d="M148.913 239.037C148.913 239.134 141.808 239.217 133.047 239.217C124.285 239.217 117.185 239.134 117.185 239.037C117.185 238.941 124.285 238.858 133.047 238.858C141.808 238.858 148.913 238.941 148.913 239.037Z" fill="#2965F1"/>
<path d="M187.681 239.037C187.681 239.134 180.577 239.217 171.82 239.217C163.063 239.217 155.954 239.134 155.954 239.037C155.954 238.941 163.058 238.858 171.82 238.858C180.581 238.858 187.681 238.941 187.681 239.037Z" fill="#E44D26"/>
<path d="M174.199 225.863C174.199 225.966 167.095 226.042 158.333 226.042C149.572 226.042 142.472 225.966 142.472 225.863C142.472 225.759 149.572 225.684 158.333 225.684C167.095 225.684 174.199 225.766 174.199 225.863Z" fill="#2965F1"/>
<path d="M191.737 232.45C191.737 232.553 180.709 232.629 167.105 232.629C153.5 232.629 142.472 232.553 142.472 232.45C142.472 232.346 153.5 232.271 167.105 232.271C180.709 232.271 191.737 232.353 191.737 232.45Z" fill="#455A64"/>
<path d="M110.793 239.037C110.793 239.134 108.217 239.217 105.041 239.217C101.865 239.217 99.2883 239.134 99.2883 239.037C99.2883 238.941 101.86 238.858 105.041 238.858C108.222 238.858 110.793 238.941 110.793 239.037Z" fill="#FAFAFA"/>
<path d="M203.012 239.037C203.012 239.134 200.435 239.217 197.259 239.217C194.083 239.217 191.506 239.134 191.506 239.037C191.506 238.941 194.078 238.858 197.259 238.858C200.44 238.858 203.012 238.941 203.012 239.037Z" fill="#E4A126"/>
<path d="M294.037 231.731L269.23 218.695L264.872 182.046L285.352 158.425L310.139 171.443L314.498 208.101L294.037 231.731ZM270.274 217.492L293.813 229.855L313.211 207.409L309.077 172.637L285.538 160.274L266.139 182.72L270.274 217.492Z" fill="#E4A126"/>
<path d="M288.667 162.611C289.942 160.105 289.528 156.623 287.742 154.834C285.956 153.044 283.473 153.625 282.198 156.131C280.922 158.637 281.336 162.119 283.123 163.908C284.909 165.698 287.391 165.117 288.667 162.611Z" fill="#E4A126"/>
<path d="M297.153 234.032C298.429 231.526 298.015 228.044 296.229 226.254C294.442 224.465 291.96 225.046 290.685 227.552C289.409 230.057 289.823 233.539 291.609 235.329C293.396 237.118 295.878 236.537 297.153 234.032Z" fill="#E4A126"/>
<path d="M307.291 176.597C306.651 175.956 306.162 175.063 305.884 174.031C305.606 173 305.552 171.875 305.73 170.801C305.907 169.727 306.308 168.75 306.881 167.995C307.454 167.24 308.174 166.741 308.949 166.56C309.725 166.379 310.521 166.525 311.238 166.979C311.954 167.433 312.559 168.175 312.974 169.111C313.39 170.047 313.599 171.135 313.574 172.237C313.549 173.34 313.291 174.407 312.834 175.304C312.221 176.506 311.292 177.317 310.253 177.56C309.214 177.802 308.149 177.456 307.291 176.597V176.597Z" fill="#E4A126"/>
<path d="M263.189 186.858C262.549 186.218 262.058 185.326 261.78 184.295C261.501 183.264 261.446 182.14 261.623 181.065C261.8 179.991 262.2 179.014 262.772 178.258C263.345 177.502 264.064 177.002 264.84 176.82C265.615 176.638 266.411 176.782 267.128 177.235C267.845 177.688 268.45 178.429 268.866 179.364C269.283 180.299 269.492 181.387 269.468 182.489C269.444 183.591 269.188 184.659 268.731 185.557C268.118 186.758 267.191 187.57 266.152 187.814C265.113 188.058 264.047 187.714 263.189 186.858V186.858Z" fill="#E4A126"/>
<path d="M311.541 212.374C310.902 211.733 310.412 210.841 310.134 209.81C309.857 208.779 309.803 207.655 309.98 206.581C310.157 205.507 310.557 204.531 311.13 203.776C311.702 203.021 312.422 202.521 313.197 202.34C313.971 202.158 314.768 202.302 315.484 202.755C316.2 203.207 316.805 203.948 317.222 204.882C317.638 205.817 317.848 206.904 317.825 208.006C317.801 209.107 317.545 210.175 317.09 211.072C316.787 211.67 316.402 212.177 315.959 212.566C315.516 212.954 315.023 213.217 314.508 213.338C313.992 213.459 313.465 213.436 312.956 213.27C312.447 213.105 311.966 212.801 311.541 212.374V212.374Z" fill="#E4A126"/>
<path d="M267.445 222.619C266.805 221.978 266.315 221.085 266.037 220.053C265.759 219.022 265.706 217.897 265.883 216.823C266.061 215.749 266.461 214.772 267.034 214.017C267.608 213.262 268.327 212.763 269.103 212.582C269.879 212.401 270.675 212.547 271.391 213.001C272.108 213.455 272.712 214.197 273.128 215.133C273.544 216.069 273.752 217.157 273.727 218.259C273.702 219.362 273.445 220.429 272.987 221.326C272.684 221.922 272.3 222.428 271.858 222.816C271.415 223.204 270.922 223.465 270.407 223.585C269.892 223.705 269.366 223.682 268.857 223.516C268.349 223.35 267.869 223.045 267.445 222.619V222.619Z" fill="#E4A126"/>
<path d="M281.301 185.808L286.312 184.632L287.778 196.959C288.068 198.94 288.139 200.972 287.989 202.983C287.79 204.491 287.238 205.862 286.421 206.88C285.404 208.146 284.136 208.948 282.786 209.178C281.5 209.582 280.167 209.582 278.882 209.178C277.937 208.79 277.098 208.011 276.475 206.942C275.791 205.704 275.316 204.265 275.086 202.732L279.752 200.694C279.828 201.451 279.981 202.189 280.206 202.884C280.373 203.324 280.629 203.684 280.942 203.917C281.211 204.077 281.509 204.115 281.794 204.025C282.039 203.991 282.273 203.865 282.472 203.659C282.67 203.454 282.825 203.177 282.92 202.857C283.122 201.868 283.138 200.823 282.965 199.823L281.301 185.808Z" fill="#263238"/>
<path d="M290.574 199.221L295.285 197.695C295.441 198.571 295.758 199.373 296.206 200.02C296.522 200.425 296.903 200.717 297.316 200.874C297.729 201.03 298.163 201.045 298.581 200.918C299.179 200.837 299.734 200.45 300.142 199.832C300.3 199.593 300.417 199.308 300.484 198.997C300.552 198.686 300.569 198.357 300.533 198.036C300.492 197.732 300.405 197.445 300.276 197.194C300.148 196.942 299.982 196.734 299.79 196.582C298.93 196.075 298.003 195.833 297.07 195.872C294.796 195.693 293.124 195.139 292.053 194.211C291.538 193.78 291.098 193.193 290.766 192.492C290.433 191.792 290.217 190.996 290.133 190.162C289.998 188.983 290.114 187.775 290.466 186.688C290.87 185.463 291.525 184.435 292.347 183.734C293.529 182.783 294.835 182.173 296.187 181.938C298.257 181.454 299.897 181.624 301.109 182.45C301.752 182.925 302.314 183.59 302.756 184.399C303.198 185.208 303.509 186.142 303.669 187.137L299.003 188.627C298.939 188.208 298.814 187.812 298.636 187.463C298.458 187.115 298.231 186.821 297.968 186.6C297.706 186.38 297.415 186.237 297.111 186.181C296.808 186.125 296.5 186.157 296.206 186.275C295.723 186.328 295.27 186.621 294.926 187.101C294.806 187.282 294.717 187.499 294.666 187.735C294.615 187.972 294.603 188.222 294.632 188.466C294.659 188.656 294.716 188.836 294.799 188.991C294.882 189.147 294.989 189.274 295.112 189.363C295.675 189.689 296.282 189.839 296.891 189.803C298.555 189.832 300.211 190.133 301.826 190.701C302.732 191.055 303.55 191.758 304.187 192.73C304.74 193.646 305.101 194.758 305.23 195.944C305.406 197.373 305.272 198.843 304.846 200.164C304.412 201.55 303.689 202.72 302.773 203.522C301.617 204.503 300.329 205.139 298.99 205.389C296.238 206.036 294.246 205.736 293.013 204.491C291.774 203.204 290.908 201.333 290.574 199.221V199.221Z" fill="#263238"/>
<path d="M320 279.696C320 279.793 248.358 279.876 160.01 279.876C71.6612 279.876 0 279.793 0 279.696C0 279.6 71.6268 279.517 160.01 279.517C248.393 279.517 320 279.593 320 279.696Z" fill="#263238"/>
<path d="M255.227 240.768L257.194 249.383C257.572 251.131 258.286 252.699 259.257 253.915C260.229 255.132 261.42 255.95 262.7 256.28L275.808 259.729L279.373 259.57L275.808 253.363L265.975 248.652C265.506 248.503 265.076 248.178 264.729 247.711C264.383 247.244 264.133 246.654 264.008 246.003L260.075 234.029L255.104 238.306L255.227 240.768Z" fill="#FFBE9D"/>
<path d="M245.836 182.906C245.902 181.553 245.642 180.207 245.099 179.085C244.877 178.506 244.571 177.999 244.199 177.597C243.828 177.195 243.401 176.908 242.945 176.754C242.414 176.669 241.878 176.829 241.417 177.209C240.957 177.59 240.597 178.171 240.393 178.864C240.202 179.563 240.137 180.317 240.206 181.059C240.275 181.801 240.474 182.507 240.787 183.113C241.105 183.744 241.511 184.276 241.981 184.679C240.614 185.939 239.578 187.792 239.031 189.955C238.849 190.686 238.727 191.445 238.5 192.149C238.294 192.876 237.909 193.476 237.414 193.838C237.04 194.073 236.622 194.094 236.239 194.294C235.922 194.47 235.639 194.75 235.414 195.11C235.19 195.469 235.029 195.899 234.946 196.363C234.797 197.311 234.923 198.303 235.295 199.122C235.517 199.49 235.67 199.931 235.737 200.405C235.724 200.732 235.676 201.056 235.595 201.363C235.501 201.908 235.535 202.479 235.69 202.995C235.845 203.511 236.113 203.943 236.456 204.229C236.799 204.515 237.198 204.64 237.595 204.584C237.992 204.529 238.366 204.297 238.663 203.922C238.861 204.752 239.262 205.458 239.793 205.916C240.354 206.288 241.18 205.95 241.269 205.095C241.407 205.511 241.641 205.85 241.932 206.059C242.224 206.268 242.557 206.335 242.878 206.25C243.2 206.164 243.492 205.931 243.709 205.587C243.926 205.243 244.055 204.808 244.076 204.35L254.647 188.134C253.074 182.244 246.903 182.748 245.836 182.906Z" fill="#583D32"/>
<path d="M244.046 188.541C243.719 188.593 243.417 188.813 243.198 189.16C242.98 189.507 242.862 189.955 242.866 190.418V190.418L243.614 215.386C243.643 218.338 247.459 221.828 249.706 221.759C251.982 221.69 251.313 218.31 251.343 215.503C251.402 210.813 251.397 209.054 251.402 209.082C251.407 209.109 254.273 208.392 254.868 203.157C255.163 200.543 255.07 196.26 254.912 192.756C254.77 189.604 253.28 185.734 251.043 186.065L244.046 188.541Z" fill="#FFBE9D"/>
<path d="M253.939 196.156C253.939 196.332 253.891 196.502 253.805 196.63C253.72 196.758 253.602 196.835 253.477 196.846C253.416 196.852 253.355 196.84 253.297 196.813C253.24 196.785 253.187 196.742 253.141 196.686C253.095 196.629 253.058 196.561 253.031 196.484C253.005 196.407 252.989 196.324 252.985 196.239C252.985 196.063 253.033 195.894 253.118 195.765C253.204 195.637 253.322 195.56 253.447 195.549C253.508 195.544 253.569 195.555 253.626 195.582C253.684 195.61 253.737 195.653 253.783 195.709C253.829 195.766 253.866 195.834 253.893 195.911C253.919 195.988 253.935 196.071 253.939 196.156V196.156Z" fill="#263238"/>
<path d="M254.249 194.983C254.19 195.073 253.826 194.694 253.31 194.694C252.793 194.694 252.41 195.059 252.356 194.97C252.302 194.88 252.39 194.776 252.552 194.604C252.777 194.388 253.042 194.273 253.314 194.273C253.585 194.274 253.848 194.395 254.067 194.618C254.224 194.783 254.278 194.942 254.249 194.983Z" fill="#263238"/>
<path d="M248.885 196.156C248.885 196.332 248.837 196.502 248.751 196.63C248.665 196.758 248.548 196.835 248.422 196.846C248.362 196.852 248.301 196.84 248.243 196.813C248.186 196.785 248.132 196.742 248.087 196.686C248.041 196.629 248.004 196.561 247.977 196.484C247.95 196.407 247.934 196.324 247.931 196.239C247.93 196.063 247.978 195.894 248.064 195.765C248.15 195.637 248.268 195.56 248.393 195.549C248.454 195.544 248.514 195.555 248.572 195.582C248.63 195.61 248.683 195.653 248.729 195.709C248.774 195.766 248.812 195.834 248.838 195.911C248.865 195.988 248.881 196.071 248.885 196.156V196.156Z" fill="#263238"/>
<path d="M249.165 195.121C249.106 195.204 248.742 194.831 248.226 194.831C247.709 194.831 247.331 195.197 247.272 195.107C247.213 195.018 247.306 194.907 247.473 194.742C247.696 194.522 247.963 194.406 248.236 194.411C248.504 194.411 248.765 194.529 248.983 194.749C249.14 194.921 249.194 195.08 249.165 195.121Z" fill="#263238"/>
<path d="M251.043 200.501C251.315 200.378 251.598 200.306 251.884 200.287C252.016 200.287 252.139 200.232 252.164 200.101C252.174 199.911 252.143 199.721 252.075 199.556C251.948 199.108 251.82 198.639 251.682 198.142C251.319 196.948 251.027 195.714 250.807 194.452C251.237 195.605 251.601 196.804 251.894 198.039C252.021 198.535 252.149 199.004 252.267 199.453C252.35 199.678 252.375 199.936 252.336 200.184C252.317 200.249 252.287 200.306 252.25 200.353C252.212 200.399 252.168 200.434 252.12 200.453C252.046 200.481 251.97 200.495 251.894 200.494C251.611 200.546 251.326 200.549 251.043 200.501V200.501Z" fill="#263238"/>
<path d="M251.402 209.082C249.637 209.119 247.899 208.47 246.382 207.206C246.382 207.206 247.601 210.813 251.348 210.323L251.402 209.082Z" fill="#EB996E"/>
<path d="M250.822 202.246C250.724 202.073 250.596 201.938 250.451 201.854C250.305 201.769 250.147 201.738 249.991 201.764C249.876 201.778 249.765 201.825 249.664 201.901C249.563 201.976 249.473 202.08 249.401 202.205C249.332 202.326 249.291 202.473 249.284 202.627C249.277 202.782 249.304 202.935 249.361 203.067C249.444 203.198 249.553 203.291 249.674 203.334C249.795 203.377 249.923 203.368 250.04 203.308C250.284 203.188 250.508 203.001 250.699 202.757C250.756 202.698 250.806 202.626 250.846 202.543C250.865 202.503 250.875 202.456 250.875 202.408C250.875 202.36 250.865 202.314 250.846 202.274" fill="#EB996E"/>
<path d="M249.519 200.998C249.607 200.998 249.607 201.784 250.084 202.378C250.561 202.971 251.166 202.847 251.171 202.957C251.176 203.067 251.033 203.109 250.782 203.122C250.454 203.124 250.134 202.969 249.878 202.681C249.635 202.399 249.478 201.996 249.44 201.557C249.42 201.191 249.484 200.998 249.519 200.998Z" fill="#263238"/>
<path d="M249.401 193.852C249.347 194.046 248.83 193.956 248.226 194.059C247.621 194.163 247.129 194.39 247.046 194.211C246.962 194.032 247.095 193.942 247.296 193.756C247.558 193.516 247.856 193.367 248.167 193.321C248.477 193.27 248.792 193.322 249.086 193.473C249.307 193.604 249.42 193.783 249.401 193.852Z" fill="#583D32"/>
<path d="M254.057 192.887C253.968 193.052 253.609 192.887 253.182 192.887C252.754 192.887 252.39 192.997 252.307 192.824C252.223 192.652 252.307 192.576 252.488 192.418C252.701 192.227 252.95 192.134 253.201 192.149C253.453 192.155 253.697 192.27 253.9 192.48C254.047 192.638 254.101 192.804 254.057 192.887Z" fill="#583D32"/>
<path d="M243.284 196.949C243.132 196.833 242.959 196.779 242.786 196.791C242.612 196.803 242.445 196.882 242.301 197.018C241.952 197.299 241.683 197.742 241.541 198.27C241.399 198.798 241.392 199.379 241.521 199.914C241.651 200.448 241.909 200.903 242.251 201.2C242.593 201.497 242.999 201.618 243.397 201.543" fill="#FFBE9D"/>
<path d="M249.175 184.313C250.449 184.404 251.686 184.942 252.774 185.879C254.001 186.773 254.926 188.314 255.345 190.162C255.398 190.353 255.422 190.556 255.417 190.76C255.412 190.964 255.378 191.164 255.316 191.349C255.196 191.559 255.028 191.704 254.841 191.761C254.654 191.817 254.459 191.781 254.288 191.659C253.952 191.397 253.665 191.026 253.452 190.576C253.363 191.063 253.159 191.493 252.875 191.799C252.59 192.105 252.241 192.268 251.883 192.262C251.524 192.257 251.178 192.083 250.898 191.768C250.618 191.454 250.422 191.017 250.34 190.528C250.31 191.032 250.143 191.5 249.874 191.836C249.605 192.172 249.254 192.351 248.894 192.335C248.535 192.292 248.192 192.101 247.909 191.787C247.626 191.474 247.415 191.05 247.301 190.569C247.211 191.479 246.986 192.353 246.642 193.135C246.464 193.521 246.206 193.821 245.903 193.995C245.6 194.169 245.266 194.208 244.946 194.108C245.089 194.879 245.089 195.688 244.946 196.46C244.86 196.837 244.677 197.157 244.433 197.357C244.189 197.557 243.9 197.623 243.624 197.543C243.102 197.294 242.901 196.432 242.783 195.68C242.514 194.241 242.379 192.76 242.38 191.273C242.344 189.742 242.698 188.244 243.378 187.046C244.058 185.848 245.02 185.028 246.092 184.734C247.16 184.391 248.256 184.249 249.352 184.313" fill="#583D32"/>
<path d="M243.024 199.991C243.024 199.956 242.876 200.039 242.694 199.922C242.585 199.832 242.496 199.699 242.44 199.54C242.383 199.381 242.36 199.202 242.375 199.025C242.375 198.845 242.413 198.669 242.484 198.518C242.555 198.367 242.655 198.249 242.773 198.177C242.883 198.135 242.994 198.105 243.107 198.087C243.107 198.087 242.98 197.922 242.734 197.997C242.589 198.043 242.459 198.155 242.365 198.315C242.252 198.511 242.186 198.752 242.178 199.004C242.162 199.237 242.201 199.47 242.29 199.668C242.379 199.865 242.513 200.015 242.67 200.094C242.901 200.184 243.043 199.991 243.024 199.991Z" fill="#EB996E"/>
<path d="M241.618 200.253C241.618 200.253 241.563 200.253 241.46 200.308C240.778 200.656 240.2 201.32 239.823 202.191C239.62 202.671 239.505 203.213 239.489 203.771C239.477 204.415 239.586 205.052 239.803 205.619C240.036 206.243 240.374 206.778 240.787 207.178C241.237 207.614 241.769 207.854 242.316 207.868C242.842 207.854 243.355 207.639 243.801 207.248C244.247 206.857 244.609 206.304 244.848 205.647C245.059 205.073 245.151 204.428 245.113 203.784C245.073 203.232 244.949 202.698 244.75 202.219C244.468 201.517 244.034 200.961 243.51 200.632C243.371 200.544 243.224 200.482 243.073 200.446C242.968 200.418 242.914 200.418 242.911 200.446C242.911 200.446 243.127 200.515 243.476 200.75C243.966 201.1 244.369 201.651 244.632 202.329C244.811 202.791 244.92 203.301 244.951 203.826C244.977 204.426 244.885 205.025 244.686 205.557C244.46 206.169 244.12 206.684 243.703 207.048C243.286 207.412 242.807 207.612 242.316 207.626C241.827 207.602 241.351 207.398 240.936 207.035C240.521 206.672 240.181 206.162 239.951 205.557C239.754 205.066 239.651 204.513 239.651 203.95C239.651 203.387 239.754 202.834 239.951 202.343C240.226 201.675 240.619 201.116 241.091 200.722C241.396 200.377 241.618 200.274 241.618 200.253Z" fill="#263238"/>
<path d="M244.691 183.961C244.651 183.961 244.573 183.499 244.341 182.816C244.044 181.922 243.602 181.138 243.049 180.527C242.497 179.916 241.85 179.495 241.16 179.299C240.629 179.14 240.285 179.147 240.285 179.085C240.58 178.967 240.89 178.953 241.19 179.044C241.926 179.185 242.622 179.6 243.206 180.244C243.788 180.888 244.237 181.741 244.504 182.713C244.638 183.101 244.702 183.53 244.691 183.961V183.961Z" fill="#E0E0E0"/>
<path d="M236.076 203.929C236.076 203.929 236.013 203.929 235.944 203.757C235.856 203.549 235.825 203.305 235.855 203.067C235.884 202.874 235.939 202.69 236.018 202.526C236.098 202.363 236.199 202.223 236.317 202.115C236.617 201.86 236.928 201.63 237.247 201.426C237.426 201.308 237.58 201.126 237.694 200.898C237.808 200.671 237.877 200.406 237.896 200.129C237.873 199.456 237.787 198.79 237.64 198.149C237.573 197.771 237.547 197.38 237.561 196.991C237.586 196.565 237.71 196.162 237.915 195.846C238.358 195.266 238.903 194.864 239.494 194.68C240.04 194.519 240.536 194.118 240.91 193.535C241.165 192.908 241.249 192.173 241.146 191.466C241.064 190.782 241.029 190.089 241.042 189.397C241.132 187.888 241.642 186.49 242.463 185.507C242.592 185.351 242.732 185.215 242.881 185.1C242.931 185.051 242.986 185.014 243.043 184.989C243.043 184.989 242.847 185.196 242.552 185.61C242.109 186.198 241.765 186.917 241.544 187.714C241.391 188.258 241.3 188.833 241.273 189.417C241.271 190.095 241.312 190.771 241.396 191.438C241.518 192.229 241.425 193.056 241.136 193.756C240.735 194.408 240.193 194.859 239.592 195.039C239.042 195.205 238.534 195.571 238.117 196.101C237.963 196.381 237.861 196.711 237.821 197.06C237.781 197.409 237.803 197.767 237.886 198.101C238.034 198.772 238.113 199.468 238.122 200.17C238.099 200.512 238.007 200.838 237.856 201.108C237.722 201.34 237.554 201.531 237.365 201.667C237.011 201.936 236.676 202.088 236.43 202.357C236.211 202.539 236.051 202.833 235.983 203.178C235.944 203.436 235.978 203.705 236.076 203.929V203.929Z" fill="#E0E0E0"/>
<path d="M249.43 190.335C249.391 190.335 249.357 189.776 249.16 188.955C248.906 187.857 248.472 186.857 247.891 186.038C247.304 185.232 246.593 184.628 245.812 184.272C245.212 183.996 244.828 183.955 244.828 183.893C245.18 183.826 245.538 183.873 245.875 184.031C246.71 184.324 247.472 184.927 248.083 185.777C248.694 186.626 249.13 187.691 249.347 188.859C249.458 189.334 249.487 189.841 249.43 190.335V190.335Z" fill="#E0E0E0"/>
<path d="M252.434 188.059C252.244 187.495 252.026 186.951 251.78 186.431C251.132 185.242 250.234 184.367 249.214 183.927C248.185 183.509 247.106 183.387 246.043 183.569C245.222 183.693 244.72 183.851 244.71 183.796C245.126 183.544 245.567 183.383 246.018 183.32C247.11 183.055 248.23 183.145 249.293 183.582C250.363 184.041 251.292 184.994 251.928 186.286C252.118 186.674 252.266 187.099 252.366 187.548C252.414 187.71 252.438 187.884 252.434 188.059V188.059Z" fill="#E0E0E0"/>
<path d="M245.915 182.644C245.915 182.644 245.821 182.989 245.531 183.41C245.144 183.946 244.678 184.356 244.164 184.61C243.654 184.871 243.108 184.968 242.567 184.893C242.339 184.89 242.117 184.801 241.922 184.637C242.651 184.687 243.381 184.564 244.081 184.272C244.752 183.875 245.372 183.325 245.915 182.644V182.644Z" fill="#263238"/>
<path d="M248.545 279.738C239.543 275.558 245.713 258.853 245.713 258.853L285.047 264.046C285.799 264.037 286.544 264.237 287.24 264.634C287.936 265.032 288.57 265.619 289.103 266.361C289.637 267.104 290.06 267.988 290.349 268.961C290.637 269.935 290.785 270.979 290.785 272.033V272.033C290.782 274.146 290.182 276.171 289.117 277.665C288.051 279.158 286.607 279.998 285.101 280L248.545 279.724" fill="#263238"/>
<path d="M239.331 279.724C230.56 275.585 236.607 258.846 236.607 258.846L274.958 263.922C278.704 263.991 280.533 266.529 280.533 271.889C280.533 276.296 279.363 280.014 274.973 279.889L239.326 279.724" fill="#263238"/>
<path d="M248.235 261.674H248.344H248.663L249.892 261.743L254.401 262.067L269.284 263.212C270.012 263.26 270.73 263.35 271.438 263.364C272.146 263.377 272.849 263.419 273.532 263.481C274.215 263.543 274.894 263.612 275.553 263.709C276.207 263.772 276.852 263.957 277.47 264.26C278.067 264.582 278.61 265.07 279.068 265.695C279.506 266.311 279.842 267.056 280.052 267.875C280.247 268.635 280.381 269.424 280.45 270.227C280.52 270.965 280.554 271.709 280.553 272.454C280.571 273.737 280.404 275.011 280.061 276.2C279.794 277.08 279.385 277.861 278.867 278.483C278.547 278.864 278.178 279.154 277.78 279.338C277.51 279.462 277.505 279.421 277.78 279.283C278.167 279.079 278.523 278.778 278.832 278.393C279.328 277.768 279.718 276.995 279.973 276.131C280.31 274.964 280.478 273.714 280.465 272.454C280.461 271.72 280.421 270.988 280.347 270.261C280.276 269.477 280.144 268.707 279.953 267.964C279.75 267.188 279.43 266.482 279.014 265.895C278.577 265.287 278.052 264.817 277.475 264.516C276.871 264.219 276.241 264.041 275.602 263.984C274.948 263.888 274.274 263.819 273.591 263.764C272.908 263.709 272.209 263.667 271.506 263.653C270.803 263.64 270.076 263.55 269.348 263.502L254.401 262.267L249.888 261.86L248.663 261.736L248.344 261.695L248.235 261.674Z" fill="#455A64"/>
<path d="M261.874 262.757L258.723 260.584L256.525 250.342L256.314 237.237L260.768 234.602L257.233 222.152C256.589 220.311 255.266 215.434 251.943 213.834C251.89 213.14 251.93 212.438 252.061 211.765C252.321 211.151 243.904 210.785 243.427 211.027C242.95 211.268 243.506 213.427 243.452 213.786C240.457 214.944 237.551 216.676 236.455 222.449C236.032 224.697 236.175 229.443 236.406 231.733L238.741 249.066L237.429 254.756C237.429 254.756 232.831 268.192 234.577 273.441C236.322 278.69 239.282 279.876 239.282 279.876L262.184 279.807L261.874 262.757Z" fill="#E4A126"/>
<g opacity="0.3">
<path opacity="0.3" d="M238.894 242.202C239.325 244.985 239.887 247.724 240.575 250.403C241.013 252.103 241.633 253.699 242.414 255.135C243.575 257.005 245.121 258.324 246.839 258.908C248.546 259.489 250.316 259.61 252.056 259.266L243.388 252.369L241.082 241.133L238.894 242.202Z" fill="black"/>
</g>
<path d="M256.52 249.962C256.479 249.655 256.457 249.343 256.456 249.031C256.456 248.383 256.407 247.527 256.368 246.5C256.304 244.361 256.23 241.402 256.156 238.133C256.083 234.864 256.033 231.926 256.009 229.767C256.009 228.732 256.009 227.877 256.009 227.228C255.991 226.919 255.991 226.607 256.009 226.297C256.047 226.603 256.067 226.912 256.068 227.222C256.092 227.87 256.122 228.725 256.156 229.76C256.22 231.898 256.299 234.857 256.368 238.126C256.437 241.396 256.491 244.334 256.52 246.493C256.52 247.527 256.52 248.383 256.52 249.031C256.538 249.341 256.538 249.652 256.52 249.962V249.962Z" fill="#263238"/>
<path d="M248.039 237.719C247.989 237.76 247.936 237.792 247.881 237.816L247.39 238.064L245.502 238.995L238.589 242.34L238.476 242.396L238.451 242.23C237.984 238.706 237.433 234.581 236.839 230.118C236.745 227.918 236.43 225.621 236.563 223.221C236.619 222.638 236.733 222.069 236.902 221.531C237.051 220.995 237.242 220.483 237.473 220.007C237.932 219.069 238.559 218.317 239.292 217.827C239.98 217.339 240.753 217.141 241.52 217.257C242.286 217.373 243.012 217.799 243.609 218.483C244.106 219.192 244.498 220.03 244.764 220.952C245.025 221.797 245.25 222.663 245.438 223.545C245.802 225.242 246.082 226.849 246.352 228.325L247.606 235.222C247.749 236.016 247.857 236.636 247.936 237.092C247.97 237.285 247.995 237.443 248.019 237.568C248.044 237.692 248.019 237.733 248.019 237.726C248 237.671 247.985 237.613 247.975 237.554C247.945 237.42 247.911 237.255 247.872 237.057C247.778 236.602 247.655 235.974 247.493 235.181C247.173 233.533 246.716 231.194 246.156 228.325C245.871 226.89 245.59 225.29 245.217 223.607C245.027 222.739 244.8 221.886 244.538 221.055C244.284 220.178 243.91 219.378 243.437 218.703C242.873 218.069 242.191 217.677 241.473 217.573C240.754 217.469 240.029 217.658 239.385 218.117C238.692 218.582 238.098 219.296 237.665 220.186C237.445 220.642 237.262 221.13 237.119 221.642C236.96 222.152 236.852 222.69 236.799 223.242C236.671 225.566 236.971 227.863 237.07 230.091C237.65 234.553 238.186 238.678 238.643 242.209L238.505 242.099L245.389 238.919L247.321 238.05L247.813 237.823L248.039 237.719Z" fill="#263238"/>
<path d="M241.126 240.927C241.062 240.927 240.88 240.423 240.718 239.733C240.556 239.044 240.487 238.457 240.556 238.43C240.624 238.402 240.806 238.933 240.964 239.623C241.121 240.313 241.209 240.899 241.126 240.927Z" fill="#263238"/>
<path d="M243.397 240.037C243.329 240.037 243.176 239.54 243.063 238.871C242.95 238.202 242.906 237.65 242.975 237.623C243.043 237.595 243.196 238.119 243.309 238.788C243.422 239.457 243.466 239.995 243.397 240.037Z" fill="#263238"/>
<path d="M245.674 238.892C245.605 238.892 245.453 238.492 245.335 237.94C245.217 237.388 245.177 236.919 245.246 236.885C245.315 236.85 245.462 237.285 245.58 237.837C245.698 238.388 245.738 238.864 245.674 238.892Z" fill="#263238"/>
<path d="M257.985 236.25C257.926 236.298 257.666 235.843 257.494 235.174C257.322 234.505 257.292 233.926 257.356 233.912C257.42 233.898 257.563 234.415 257.735 235.05C257.907 235.684 258.049 236.195 257.985 236.25Z" fill="#263238"/>
<path d="M259.696 234.884C259.632 234.933 259.426 234.533 259.234 234.002C259.042 233.47 258.939 233.001 259.003 232.953C259.067 232.905 259.274 233.305 259.465 233.836C259.657 234.367 259.76 234.843 259.696 234.884Z" fill="#263238"/>
<path d="M244.75 214.331C244.75 214.331 244.789 214.448 244.794 214.641H244.661C244.581 214.1 244.529 213.551 244.504 212.999C244.421 212.349 244.421 211.684 244.504 211.034C244.671 211.653 244.754 212.31 244.75 212.972C244.788 213.522 244.799 214.075 244.784 214.627H244.651C244.695 214.434 244.725 214.324 244.75 214.331Z" fill="#263238"/>
<path d="M246.795 214.33C246.646 213.824 246.574 213.279 246.584 212.73C246.511 212.192 246.526 211.638 246.628 211.109C246.777 211.616 246.849 212.161 246.839 212.71C246.912 213.248 246.897 213.802 246.795 214.33V214.33Z" fill="#263238"/>
<path d="M248.939 214.979C248.804 214.354 248.754 213.699 248.791 213.048C248.744 212.398 248.781 211.741 248.899 211.109C249.034 211.735 249.084 212.39 249.047 213.041C249.093 213.691 249.057 214.347 248.939 214.979V214.979Z" fill="#263238"/>
<path d="M250.689 214.572C250.565 214.041 250.521 213.479 250.561 212.923C250.521 212.365 250.565 211.801 250.689 211.268C250.819 211.8 250.864 212.365 250.822 212.923C250.865 213.48 250.819 214.043 250.689 214.572V214.572Z" fill="#263238"/>
<path d="M262.022 263.129C262.022 263.225 257.749 262.901 252.488 262.398C247.228 261.894 242.97 261.405 242.975 261.308C242.979 261.211 247.247 261.536 252.508 262.039C257.769 262.543 262.027 263.032 262.022 263.129Z" fill="#263238"/>
<path d="M239.912 241.747L242.021 251.404C242.391 253.165 243.1 254.749 244.069 255.983C245.039 257.217 246.232 258.052 247.518 258.398L260.626 261.894L264.19 261.729L262.981 257.46L250.773 250.686C250.302 250.532 249.87 250.201 249.524 249.728C249.177 249.255 248.929 248.659 248.806 248.003L246.962 238.312L239.912 241.747Z" fill="#FFBE9D"/>
<path d="M251.5 262.019L251.613 260.826L261.683 260.274L266.624 242.789L285.45 244.582L279.098 263.991L251.5 262.019Z" fill="#455A64"/>
<path d="M274.034 254.128C273.929 254.359 273.779 254.541 273.601 254.651C273.423 254.762 273.226 254.796 273.035 254.749C272.843 254.703 272.666 254.577 272.525 254.389C272.384 254.201 272.286 253.959 272.243 253.693C272.201 253.426 272.215 253.148 272.285 252.894C272.355 252.639 272.477 252.42 272.636 252.262C272.795 252.105 272.984 252.018 273.178 252.011C273.373 252.004 273.564 252.079 273.729 252.225C273.838 252.322 273.932 252.448 274.007 252.596C274.081 252.744 274.134 252.911 274.162 253.088C274.191 253.265 274.194 253.447 274.172 253.626C274.15 253.805 274.103 253.975 274.034 254.128V254.128Z" fill="white"/>
<path d="M114.766 136.46C122.972 132.28 118.759 114.919 118.759 114.919L77.1139 120.272C76.3405 120.266 75.5739 120.475 74.8583 120.887C74.1426 121.298 73.492 121.904 72.9437 122.669C72.3954 123.434 71.9604 124.344 71.6635 125.346C71.3666 126.348 71.2138 127.422 71.2138 128.507C71.2138 130.691 71.8323 132.786 72.9333 134.33C74.0342 135.875 75.5274 136.743 77.0844 136.743L114.776 136.46" fill="#263238"/>
<path d="M61.1395 184.535L61.0559 178.741L68.9767 174.789L69.3062 182.858L68.8587 183.162C66.892 184.479 58.6811 189.666 57.152 189.866C55.4459 190.08 61.1395 184.535 61.1395 184.535Z" fill="#E4A126"/>
<g opacity="0.4">
<path opacity="0.4" d="M58.4009 187.397C58.4009 187.397 56.4637 189.535 56.8865 189.887C57.3094 190.239 65.7366 185.431 69.3062 182.858L69.2275 182.631L59.4432 188.356C59.4432 188.356 58.8385 187.176 58.4009 187.397Z" fill="white"/>
</g>
<path d="M69.3406 182.562L69.2176 182.651L68.8636 182.893L67.5656 183.734C66.4495 184.424 64.9008 185.383 63.175 186.369C61.4492 187.355 59.866 188.21 58.7204 188.797L57.3585 189.486L56.9848 189.666L56.8521 189.714L56.9799 189.638L57.3438 189.438L58.6959 188.707C59.8365 188.093 61.4099 187.238 63.1209 186.245C64.8319 185.251 66.4004 184.327 67.546 183.651L68.8735 182.844L69.2324 182.63C69.2666 182.602 69.3028 182.579 69.3406 182.562V182.562Z" fill="#263238"/>
<path d="M59.4924 188.514C59.3459 188.242 59.1813 187.99 59.0007 187.762C58.7906 187.574 58.5664 187.419 58.332 187.3C58.5927 187.314 58.8446 187.436 59.055 187.653C59.2654 187.869 59.4246 188.169 59.512 188.514H59.4924Z" fill="#263238"/>
<path d="M61.2181 185.728C61.2181 185.728 61.0461 185.638 60.8691 185.466C60.6921 185.293 60.5593 185.121 60.579 185.086C60.5986 185.052 60.7461 185.176 60.9231 185.355C61.1001 185.535 61.2329 185.693 61.2181 185.728Z" fill="#263238"/>
<path d="M61.6656 184.941C61.6656 184.976 61.5082 184.941 61.3361 184.845C61.1641 184.748 61.0264 184.658 61.0362 184.624C61.0461 184.589 61.1936 184.624 61.3656 184.72C61.5377 184.817 61.6951 184.907 61.6656 184.941Z" fill="#263238"/>
<path d="M61.7787 183.748C61.7787 183.783 61.6262 183.914 61.4148 184.038C61.2905 184.133 61.153 184.189 61.0116 184.203C61.0116 184.169 61.1641 184.038 61.3755 183.914C61.4998 183.818 61.6373 183.762 61.7787 183.748Z" fill="#263238"/>
<path d="M61.7098 182.989C61.6152 183.178 61.4837 183.324 61.3312 183.41C61.192 183.533 61.0284 183.591 60.8641 183.575C60.9991 183.463 61.1405 183.366 61.287 183.286C61.4212 183.169 61.5627 183.07 61.7098 182.989V182.989Z" fill="#263238"/>
<path d="M60.6822 184.969C60.5308 185.097 60.3643 185.185 60.1905 185.231C60.0108 185.301 59.8262 185.345 59.6399 185.362C59.5288 185.379 59.4166 185.379 59.3055 185.362C59.2343 185.352 59.1688 185.302 59.1236 185.224C59.1042 185.177 59.094 185.123 59.094 185.069C59.094 185.014 59.1042 184.961 59.1236 184.914C59.2692 184.687 59.4662 184.538 59.6812 184.491C59.8962 184.445 60.1161 184.504 60.3036 184.658C60.4153 184.749 60.5124 184.871 60.5888 185.017C60.638 185.12 60.6576 185.183 60.6527 185.189C60.5458 185.008 60.4158 184.856 60.2692 184.741C60.1176 184.632 59.9474 184.584 59.7775 184.603C59.6732 184.613 59.5713 184.651 59.4776 184.716C59.3839 184.781 59.3004 184.872 59.2318 184.983C59.1777 185.107 59.2318 185.21 59.3449 185.231C59.4494 185.248 59.555 185.248 59.6595 185.231C59.8412 185.217 60.022 185.184 60.2004 185.134C60.5151 185.051 60.6822 184.948 60.6822 184.969Z" fill="#263238"/>
<path d="M60.5888 185.072C60.4925 184.962 60.4264 184.809 60.402 184.638C60.3693 184.455 60.3693 184.263 60.402 184.079C60.4106 183.957 60.4426 183.839 60.4944 183.74C60.5463 183.641 60.6163 183.562 60.697 183.514C60.7496 183.501 60.8037 183.518 60.8477 183.561C60.8917 183.603 60.9222 183.668 60.933 183.741C60.9501 183.855 60.9501 183.972 60.933 184.086C60.9114 184.266 60.8751 184.442 60.8248 184.61C60.7865 184.773 60.7207 184.919 60.633 185.038C60.633 185.038 60.692 184.866 60.7609 184.576C60.8029 184.411 60.831 184.24 60.8445 184.065C60.869 183.886 60.8445 183.61 60.7117 183.652C60.579 183.693 60.515 183.934 60.4806 184.107C60.4537 184.275 60.4537 184.449 60.4806 184.617C60.5072 184.773 60.5434 184.925 60.5888 185.072V185.072Z" fill="#263238"/>
<path d="M68.3671 179.816C68.3671 179.816 68.1507 179.906 67.8311 180.154C67.4161 180.469 67.0734 180.943 66.8427 181.521C66.6121 182.098 66.503 182.756 66.5282 183.417C66.5282 183.92 66.6167 184.231 66.602 184.238C66.5744 184.17 66.5529 184.099 66.5381 184.024C66.4971 183.828 66.4707 183.627 66.4594 183.424C66.4138 182.74 66.5178 182.053 66.7576 181.454C66.9974 180.855 67.3616 180.373 67.8016 180.072C67.931 179.976 68.068 179.902 68.2097 179.851C68.2605 179.827 68.3136 179.816 68.3671 179.816Z" fill="#263238"/>
<path d="M66.3561 175.947C66.6107 176.618 66.8372 177.309 67.0346 178.016C67.263 178.711 67.46 179.425 67.6246 180.155C67.3692 179.484 67.1427 178.794 66.9461 178.085C66.7209 177.389 66.5239 176.675 66.3561 175.947V175.947Z" fill="#263238"/>
<path d="M65.3875 183.824C65.0666 184.137 64.7199 184.394 64.355 184.589C63.9992 184.818 63.6242 184.983 63.2389 185.079C63.2389 185.045 63.7306 184.81 64.3157 184.458C64.9008 184.107 65.3728 183.789 65.3875 183.824Z" fill="#263238"/>
<path d="M66.833 182.996C66.8576 182.996 66.833 183.162 66.833 183.341C66.833 183.52 66.833 183.679 66.833 183.693C66.833 183.707 66.7445 183.548 66.7494 183.334C66.7544 183.12 66.8085 182.975 66.833 182.996Z" fill="#263238"/>
<path d="M67.0985 181.734C67.0985 181.734 67.0985 181.879 67.0641 182.031C67.0297 182.182 66.9609 182.3 66.9363 182.286C66.9117 182.272 66.9363 182.134 66.9756 181.982C67.0149 181.831 67.0739 181.72 67.0985 181.734Z" fill="#263238"/>
<path d="M67.7525 180.851C67.7525 180.892 67.659 180.948 67.5656 181.058C67.4722 181.168 67.4181 181.299 67.3935 181.285C67.369 181.272 67.3935 181.099 67.5017 180.961C67.6099 180.823 67.7525 180.816 67.7525 180.851Z" fill="#263238"/>
<path d="M68.2491 180.334C68.2491 180.334 68.2491 180.437 68.1851 180.506C68.1212 180.575 68.077 180.603 68.0622 180.575C68.0475 180.548 68.0622 180.472 68.1212 180.403C68.1802 180.334 68.2294 180.306 68.2491 180.334Z" fill="#263238"/>
<path d="M92.931 119.486L69.6749 120.1C67.8765 120.146 66.1505 121.101 64.8144 122.791C63.4783 124.48 62.622 126.789 62.4031 129.294L57.7912 181.872H70.4223L74.277 136.46H92.6409L92.931 119.486Z" fill="#263238"/>
<path d="M57.9485 178.527C57.9485 178.61 60.7166 178.706 64.1288 178.734C67.541 178.761 70.2502 178.644 70.3092 178.637C70.7025 178.582 67.541 178.458 64.1288 178.43C60.7166 178.403 57.9485 178.444 57.9485 178.527Z" fill="#455A64"/>
<path d="M105.724 117.83H105.267L103.949 117.913L99.1408 118.23L83.2991 119.375C82.5223 119.423 81.7602 119.513 81.0079 119.527C80.2557 119.541 79.5034 119.589 78.7708 119.644C78.0382 119.699 77.3253 119.775 76.6222 119.879C75.9258 119.937 75.2381 120.125 74.5769 120.437C73.9479 120.752 73.3709 121.243 72.8806 121.879C72.4239 122.495 72.0711 123.247 71.8481 124.079C71.6438 124.845 71.5035 125.641 71.4302 126.452C71.3525 127.196 71.3147 127.948 71.3171 128.7C71.3018 130 71.4862 131.289 71.8579 132.48C72.1431 133.379 72.5782 134.169 73.1264 134.784C73.4697 135.172 73.8615 135.467 74.2819 135.653C74.572 135.77 74.5769 135.736 74.2819 135.598C73.8734 135.391 73.494 135.085 73.1609 134.694C72.636 134.077 72.2203 133.298 71.9464 132.418C71.5973 131.241 71.4298 129.974 71.4548 128.7C71.4583 127.959 71.4994 127.219 71.5777 126.486C71.6565 125.694 71.7983 124.917 72.0005 124.169C72.217 123.387 72.5526 122.681 72.9839 122.1C73.4601 121.49 74.0185 121.021 74.626 120.72C75.2731 120.427 75.9437 120.249 76.6222 120.189C77.3204 120.092 78.0382 120.023 78.7659 119.968C79.4936 119.913 80.2409 119.872 80.9883 119.858C81.7356 119.844 82.5075 119.754 83.2844 119.706L99.1408 118.465L103.949 118.051L105.252 117.927L105.592 117.885C105.638 117.879 105.683 117.86 105.724 117.83Z" fill="#455A64"/>
<path d="M98.3148 96.0209L96.294 104.905C95.9073 106.712 95.1726 108.335 94.1706 109.595C93.1686 110.854 91.9384 111.702 90.6152 112.043L78.8741 116.609L77.9596 113.561L77.1041 109.057L87.262 104.229C87.7519 104.079 88.2026 103.742 88.5645 103.255C88.9263 102.768 89.1851 102.15 89.3123 101.47L93.3588 89.1235L98.482 93.5309L98.3148 96.0209Z" fill="#B78876"/>
<path d="M103.241 68.2522C98.9392 68.942 97.5527 71.4112 95.7975 74.9771C95.0682 76.4546 94.4828 78.0621 94.0569 79.757L90.7971 92.7102L97.597 95.6553L97.3708 106.188L94.2733 119.065L120.396 121.948L120.322 103.235L120.135 91.9446C120.381 87.6682 121.015 78.6051 120.474 76.4531C118.149 67.259 113.021 69.0247 109.259 67.7142C107.537 67.4657 105.8 67.4657 104.077 67.7142" fill="#E4A126"/>
<path d="M120.396 102.049C120.396 102.146 115.287 102.228 108.984 102.228C102.681 102.228 97.5576 102.166 97.5576 102.049C97.5576 101.932 102.666 101.87 108.969 101.87C115.273 101.87 120.396 101.966 120.396 102.049Z" fill="#FAFAFA"/>
<path d="M120.012 108.464C120.012 108.567 114.904 108.643 108.601 108.643C102.297 108.643 97.1889 108.567 97.1889 108.464C97.1889 108.36 102.297 108.284 108.601 108.284C114.904 108.284 120.012 108.367 120.012 108.464Z" fill="#FAFAFA"/>
<path d="M120.135 115.802C120.135 115.906 114.727 115.982 108.07 115.982C101.412 115.982 95.999 115.906 95.999 115.802C95.999 115.699 101.407 115.623 108.07 115.623C114.732 115.623 120.135 115.706 120.135 115.802Z" fill="#FAFAFA"/>
<g opacity="0.3">
<path opacity="0.3" d="M116.964 97.9798C116.625 100.456 116.472 103.132 115.872 105.512C115.476 107.289 114.887 108.971 114.127 110.498C112.992 112.486 111.446 113.931 109.702 114.637C107.976 115.389 99.6817 117.989 97.9018 117.796L113.075 107.719L114.904 97.1245L116.964 97.9798Z" fill="black"/>
</g>
<path d="M116.079 97.6075L114.412 106.615C114.087 108.461 113.406 110.146 112.443 111.485C111.481 112.823 110.273 113.763 108.955 114.202L95.5614 118.603L91.8788 118.658V111.547L105.36 106.436C105.845 106.254 106.284 105.888 106.631 105.38C106.978 104.872 107.218 104.24 107.327 103.553L108.625 95.6279L116.079 97.6075Z" fill="#B78876"/>
<path d="M120.529 75.9288C120.529 76.0254 114.899 76.1082 107.952 76.1082C101.004 76.1082 95.3746 76.0254 95.3746 75.9288C95.3746 75.8323 101.004 75.7495 107.952 75.7495C114.899 75.7495 120.529 75.8392 120.529 75.9288Z" fill="#FAFAFA"/>
<path d="M120.666 82.047C120.666 82.1505 114.599 82.2263 107.111 82.2263C99.6227 82.2263 93.5554 82.1505 93.5554 82.047C93.5554 81.9435 99.6227 81.8677 107.111 81.8677C114.599 81.8677 120.666 81.9366 120.666 82.047Z" fill="#FAFAFA"/>
<path d="M120.337 88.6338C120.337 88.7373 113.945 88.889 106.078 88.9718C98.2116 89.0546 91.8198 89.0477 91.8198 88.9718C91.8198 88.8959 98.2116 88.7235 106.078 88.6338C113.945 88.5442 120.332 88.5373 120.337 88.6338Z" fill="#FAFAFA"/>
<path d="M120.135 95.6276C120.135 95.7241 115.027 95.8069 108.724 95.8069C102.42 95.8069 97.3118 95.7241 97.3118 95.6276C97.3118 95.531 102.42 95.4482 108.724 95.4482C115.027 95.4482 120.135 95.531 120.135 95.6276Z" fill="#FAFAFA"/>
<path d="M118.375 98.3591C118.367 98.3091 118.367 98.2574 118.375 98.2074L118.419 97.7729C118.464 97.3659 118.527 96.8072 118.601 96.1037C118.763 94.6415 118.999 92.524 119.26 89.8961C119.521 87.2682 119.821 84.0541 119.973 80.4537C120.022 78.6673 120.13 76.6946 119.481 74.9358C119.161 74.0523 118.685 73.2975 118.1 72.7425C117.493 72.1707 116.802 71.796 116.079 71.6458H116.049C115.222 71.3692 114.354 71.4534 113.562 71.8872C112.724 72.2656 111.943 72.8597 111.261 73.6391C111.123 73.7996 111.004 73.9879 110.907 74.1978C110.811 74.4208 110.724 74.651 110.646 74.8875C110.495 75.3569 110.369 75.841 110.267 76.336C110.078 77.3239 109.927 78.3255 109.815 79.3363C109.559 81.3297 109.323 83.2747 109.073 85.1439C108.581 88.8822 108.153 92.3309 107.76 95.3864L107.686 95.2278L115.258 97.4556L117.338 98.1039L117.883 98.2833C117.946 98.2998 118.007 98.3252 118.065 98.3591L117.874 98.3247L117.328 98.1867L115.233 97.6142L107.642 95.4623H107.553V95.3243C107.937 92.2688 108.365 88.8132 108.832 85.068C109.068 83.1988 109.323 81.2538 109.564 79.2536C109.675 78.2328 109.828 77.2218 110.022 76.2256C110.122 75.7108 110.252 75.208 110.41 74.722C110.494 74.4859 110.586 74.2557 110.685 74.0323C110.797 73.7961 110.931 73.5825 111.084 73.3977C111.794 72.585 112.606 71.9652 113.478 71.5699C114.322 71.1167 115.246 71.0373 116.123 71.3423H116.099C116.863 71.5012 117.593 71.8996 118.232 72.508C118.857 73.0945 119.364 73.8944 119.707 74.8324C119.87 75.2839 119.998 75.7578 120.091 76.2463C120.171 76.7246 120.222 77.2114 120.243 77.7017L120.273 78.3914C120.273 78.6259 120.273 78.8604 120.273 79.0811C120.273 79.5501 120.248 80.0054 120.229 80.4606C120.061 84.0817 119.737 87.2682 119.462 89.9237C119.186 92.5792 118.916 94.6898 118.729 96.1313C118.636 96.821 118.557 97.3866 118.503 97.7936L118.439 98.2212C118.421 98.2699 118.399 98.3161 118.375 98.3591Z" fill="#263238"/>
<path d="M97.5232 106.043C97.5521 105.725 97.5636 105.404 97.5576 105.084C97.5576 104.394 97.5576 103.532 97.5576 102.463C97.5576 100.256 97.5576 97.207 97.5134 93.8343C97.4691 90.4615 97.4495 87.4128 97.4101 85.2057C97.3856 84.1366 97.3659 83.2606 97.3511 82.5847C97.3519 82.2639 97.3355 81.9434 97.302 81.626C97.2699 81.9434 97.2584 82.2643 97.2676 82.5847C97.2676 83.2744 97.2676 84.1366 97.2676 85.2057C97.2676 87.4128 97.2676 90.4684 97.3118 93.8343C97.3561 97.2001 97.3806 100.263 97.42 102.47C97.42 103.532 97.4642 104.415 97.479 105.084C97.473 105.405 97.4879 105.725 97.5232 106.043V106.043Z" fill="#263238"/>
<path d="M105.724 120.175L105.955 118.637L95.8122 117.12L91.3872 99.2903L70.7271 99.0903L77.4974 119.769L105.724 120.175Z" fill="#455A64"/>
<path d="M83.9678 110.491C84.1376 110.34 84.2716 110.121 84.3528 109.863C84.4341 109.605 84.4589 109.319 84.4243 109.041C84.3896 108.763 84.297 108.505 84.1581 108.301C84.0192 108.097 83.8403 107.955 83.644 107.893C83.4476 107.832 83.2427 107.853 83.055 107.955C82.8673 108.056 82.7053 108.234 82.5895 108.465C82.4737 108.696 82.4092 108.969 82.4043 109.251C82.3993 109.534 82.4541 109.811 82.5616 110.05C82.6332 110.209 82.7264 110.346 82.8358 110.454C82.9453 110.562 83.0688 110.639 83.1995 110.68C83.3301 110.721 83.4652 110.725 83.597 110.693C83.7289 110.661 83.8549 110.592 83.9678 110.491" fill="white"/>
<path d="M98.0493 38.8765C97.4925 38.9993 96.9761 39.3597 96.5704 39.9087C96.1647 40.4577 95.8894 41.1687 95.7819 41.945C95.6745 42.7212 95.7401 43.5251 95.9699 44.2472C96.1996 44.9693 96.5823 45.5746 97.066 45.9808C97.2656 46.1741 97.4961 46.2953 97.7371 46.3338C97.9781 46.3723 98.2221 46.3269 98.4476 46.2015C98.6379 46.0311 98.802 45.809 98.9303 45.5485C99.0586 45.2879 99.1486 44.994 99.1949 44.6841C99.6224 42.7216 99.5047 40.605 98.8655 38.7593" fill="#263238"/>
<path d="M106.55 74.0806C105.966 74.0806 105.388 73.9184 104.849 73.6035C104.31 73.2885 103.82 72.8269 103.409 72.2454C102.998 71.6638 102.673 70.9738 102.452 70.2151C102.232 69.4563 102.121 68.6439 102.125 67.8247C102.125 65.6796 102.165 63.8173 102.165 63.8173C102.165 63.8173 98.6246 63.3552 98.364 58.4374C98.1034 53.5196 98.2165 42.1666 98.2165 42.1666C100.159 40.7947 102.326 40.1738 104.496 40.3677C106.666 40.5617 108.76 41.5636 110.562 43.2702L111.103 43.7875L110.936 67.9281C110.926 69.5554 110.46 71.112 109.64 72.2626C108.82 73.4133 107.71 74.0662 106.55 74.0806V74.0806Z" fill="#B78876"/>
<path d="M102.174 63.7483C103.797 63.6519 105.361 62.8786 106.668 61.5273C106.668 61.5273 105.744 65.1623 102.243 65.0243L102.174 63.7483Z" fill="#AA6550"/>
<path d="M110.218 49.2225C110.287 49.2225 112.441 48.7949 112.234 52.3677C112.028 55.9405 109.53 54.4369 109.53 54.361C109.53 54.2851 110.218 49.2225 110.218 49.2225Z" fill="#B78876"/>
<path d="M110.38 53.1956C110.38 53.1956 110.425 53.2439 110.498 53.3059C110.6 53.3796 110.718 53.3945 110.828 53.3473C111 53.2208 111.145 53.0319 111.248 52.8003C111.351 52.5687 111.408 52.3027 111.413 52.0299C111.437 51.7225 111.412 51.4114 111.339 51.1195C111.323 51.0052 111.287 50.8985 111.234 50.8093C111.18 50.72 111.112 50.6511 111.034 50.6091C110.985 50.5831 110.931 50.5827 110.881 50.608C110.831 50.6333 110.79 50.6826 110.764 50.747C110.725 50.8436 110.734 50.9195 110.72 50.9264C110.705 50.9333 110.671 50.8574 110.72 50.7125C110.739 50.6255 110.779 50.5502 110.833 50.4987C110.87 50.4656 110.911 50.443 110.954 50.4323C110.997 50.4217 111.041 50.4231 111.084 50.4366C111.186 50.4777 111.279 50.5551 111.354 50.6614C111.429 50.7677 111.483 50.8994 111.511 51.0436C111.605 51.362 111.639 51.7087 111.61 52.0506C111.604 52.3694 111.532 52.6789 111.401 52.9402C111.271 53.2015 111.089 53.4031 110.877 53.5197C110.807 53.5394 110.734 53.5372 110.665 53.5134C110.595 53.4895 110.53 53.4446 110.474 53.3818C110.38 53.2852 110.371 53.2025 110.38 53.1956Z" fill="#AA6550"/>
<path d="M100.655 44.2012C101.245 43.7229 101.799 43.1613 102.307 42.5251C102.52 42.9964 102.805 43.3952 103.142 43.6926C103.479 43.99 103.858 44.1785 104.253 44.2446C104.648 44.3106 105.048 44.2525 105.425 44.0744C105.802 43.8963 106.146 43.6027 106.432 43.2149C106.447 43.5338 106.519 43.8426 106.639 44.1134C106.76 44.3843 106.928 44.6088 107.126 44.7668C107.325 44.9195 107.549 44.9995 107.777 44.9995C108.005 44.9995 108.229 44.9195 108.429 44.7668L108.483 50.4571C108.447 51.006 108.536 51.5567 108.738 52.0297C108.792 52.1376 108.863 52.2276 108.944 52.2933C109.026 52.359 109.117 52.3988 109.21 52.41C109.304 52.4211 109.399 52.4034 109.487 52.3579C109.575 52.3125 109.655 52.2405 109.722 52.1469C109.635 51.4523 109.682 50.7377 109.859 50.0777C109.957 49.7566 110.137 49.499 110.364 49.357C110.591 49.2149 110.848 49.1989 111.084 49.3121C111.227 48.2022 111.274 47.0722 111.226 45.9462C111.216 45.5982 111.249 45.2504 111.324 44.9185C111.462 44.6012 111.526 44.8427 111.787 44.7668C112.158 44.6354 112.491 44.3425 112.736 43.9299C112.982 43.5173 113.128 43.0062 113.154 42.47C113.168 41.9312 113.086 41.396 112.914 40.9138C112.742 40.4316 112.486 40.0179 112.17 39.711C111.535 39.1007 110.761 38.8404 109.997 38.9799C110.225 38.624 110.352 38.1621 110.352 37.6832C110.352 37.2044 110.225 36.7424 109.997 36.3865C109.76 36.0422 109.471 35.7777 109.151 35.6128C108.83 35.448 108.488 35.3871 108.148 35.4347C107.465 35.4968 106.698 36.0279 106.614 36.9728C106.53 36.0425 106.211 35.1853 105.715 34.5559C105.219 33.9265 104.58 33.5664 103.911 33.5406C103.243 33.5147 102.59 33.8249 102.071 34.4151C101.551 35.0053 101.199 35.8366 101.078 36.759C100.262 36.2486 99.1114 35.6899 98.305 36.2072C97.8307 36.4713 97.42 36.92 97.1213 37.5004C96.8225 38.0808 96.6481 38.7687 96.6186 39.4834C96.6186 39.4834 96.4121 43.3873 98.1772 44.1736C99.9423 44.9599 100.655 44.2012 100.655 44.2012Z" fill="#263238"/>
<path d="M99.1605 50.0431C99.1605 50.2261 99.2123 50.4015 99.3045 50.5308C99.3967 50.6602 99.5218 50.7329 99.6522 50.7329C99.7745 50.7337 99.8926 50.6706 99.9836 50.5558C100.074 50.441 100.132 50.2828 100.144 50.1121C100.144 49.9292 100.092 49.7537 99.9998 49.6244C99.9076 49.495 99.7826 49.4224 99.6522 49.4224C99.5299 49.4215 99.4117 49.4846 99.3208 49.5994C99.2299 49.7142 99.1727 49.8724 99.1605 50.0431Z" fill="#263238"/>
<path d="M99.0327 49.2638C99.0917 49.3535 99.4653 48.9672 100.016 48.9741C100.567 48.981 100.93 49.3466 100.999 49.2569C101.068 49.1672 100.965 49.05 100.798 48.8776C100.568 48.6556 100.295 48.5376 100.016 48.5396C99.7402 48.54 99.4717 48.6632 99.249 48.8913C99.0769 49.0638 99.0327 49.2293 99.0327 49.2638Z" fill="#263238"/>
<path d="M104.343 50.2155C104.343 50.3984 104.395 50.5739 104.487 50.7032C104.579 50.8326 104.704 50.9052 104.834 50.9052C104.957 50.9061 105.075 50.843 105.166 50.7282C105.257 50.6134 105.314 50.4552 105.326 50.2845C105.326 50.1015 105.274 49.9261 105.182 49.7968C105.09 49.6674 104.965 49.5947 104.834 49.5947C104.712 49.5939 104.594 49.657 104.503 49.7718C104.412 49.8866 104.355 50.0448 104.343 50.2155Z" fill="#263238"/>
<path d="M104.254 49.402C104.313 49.4985 104.687 49.1054 105.238 49.1123C105.788 49.1192 106.152 49.4847 106.221 49.3951C106.29 49.3054 106.186 49.1882 106.019 49.0157C105.789 48.7938 105.517 48.6758 105.238 48.6778C104.962 48.6782 104.693 48.8014 104.471 49.0295C104.279 49.202 104.225 49.3675 104.254 49.402Z" fill="#263238"/>
<path d="M102.332 54.913C102.054 54.7889 101.767 54.7148 101.476 54.6923C101.339 54.6923 101.211 54.6371 101.186 54.506C101.176 54.3108 101.208 54.1157 101.28 53.9474L101.678 52.4989C102.048 51.2766 102.349 50.0151 102.578 48.7261C102.136 49.9027 101.763 51.1275 101.462 52.3886C101.329 52.899 101.201 53.3818 101.083 53.8439C100.995 54.0717 100.969 54.3361 101.009 54.5888C101.03 54.6542 101.06 54.7127 101.099 54.7602C101.137 54.8078 101.182 54.8434 101.23 54.8647C101.306 54.8934 101.384 54.9073 101.462 54.9061C101.75 54.9582 102.043 54.9606 102.332 54.913V54.913Z" fill="#263238"/>
<path d="M103.89 55.423C103.807 55.423 103.802 56.2231 103.31 56.8025C102.819 57.3819 102.209 57.2853 102.204 57.3957C102.199 57.506 102.342 57.5543 102.597 57.5612C102.934 57.5717 103.262 57.4126 103.522 57.1129C103.773 56.8249 103.935 56.4123 103.974 55.961C103.994 55.6161 103.949 55.4161 103.89 55.423Z" fill="#263238"/>
<path d="M104.117 46.4981C104.171 46.6981 104.697 46.6015 105.316 46.705C105.936 46.8085 106.442 47.0499 106.526 46.8705C106.609 46.6912 106.472 46.5946 106.27 46.3946C106.001 46.1519 105.694 46.0029 105.375 45.9601C105.058 45.9028 104.736 45.9549 104.436 46.1118C104.21 46.2429 104.097 46.4015 104.117 46.4981Z" fill="#263238"/>
<path d="M99.249 47.1186C99.3424 47.2842 99.7062 47.1186 100.144 47.1186C100.581 47.1186 100.95 47.229 101.039 47.0566C101.127 46.8841 101.039 46.8014 100.857 46.6427C100.638 46.4516 100.385 46.3555 100.127 46.3666C99.87 46.3776 99.6209 46.4953 99.4112 46.7048C99.2588 46.8703 99.2047 47.0359 99.249 47.1186Z" fill="#263238"/>
<path d="M100.252 38.642C100.252 38.642 100.203 38.642 100.114 38.5868C100.051 38.5708 99.985 38.5742 99.9223 38.5968C99.8595 38.6194 99.8009 38.6607 99.7505 38.7178C99.6731 38.8046 99.6162 38.9222 99.5873 39.0551C99.5583 39.188 99.5586 39.3301 99.5883 39.4627C99.6248 39.6456 99.6915 39.8139 99.7829 39.954C99.8742 40.0942 99.9878 40.2023 100.114 40.2697C100.267 40.3528 100.43 40.3884 100.593 40.3741C100.756 40.3599 100.915 40.296 101.058 40.187C101.219 40.0536 101.355 39.8681 101.454 39.6461C101.553 39.4241 101.613 39.1721 101.629 38.911C101.649 38.6205 101.619 38.3275 101.542 38.0564C101.465 37.7853 101.343 37.5439 101.186 37.3522C101.021 37.1389 100.824 36.9785 100.61 36.8821C100.396 36.7856 100.17 36.7554 99.9472 36.7935C99.4889 36.8727 99.0638 37.1696 98.7426 37.635C98.4472 38.0736 98.2476 38.6217 98.1673 39.2144C98.0203 40.2424 98.148 41.3104 98.5262 42.2148C98.7708 42.8308 99.106 43.3669 99.5096 43.7874C99.7997 44.0771 100.001 44.2012 100.001 44.2288C99.8151 44.1653 99.6386 44.0555 99.4801 43.9046C99.0287 43.515 98.6496 42.9808 98.3738 42.3458C97.949 41.3953 97.7945 40.2553 97.9411 39.1524C98.0238 38.4903 98.2425 37.8766 98.5705 37.3866C98.9282 36.8589 99.4068 36.5244 99.9226 36.4417C100.182 36.3971 100.445 36.4319 100.694 36.5439C100.942 36.6558 101.171 36.8422 101.363 37.0901C101.544 37.3222 101.683 37.6117 101.769 37.9343C101.854 38.257 101.884 38.6036 101.855 38.9454C101.833 39.2571 101.758 39.5567 101.635 39.8186C101.513 40.0804 101.347 40.2968 101.152 40.4491C100.979 40.5729 100.789 40.6421 100.596 40.6516C100.402 40.6612 100.209 40.6108 100.031 40.5042C99.8821 40.4189 99.7505 40.2837 99.6477 40.1106C99.5448 39.9375 99.4738 39.7316 99.4408 39.511C99.4102 39.3422 99.4173 39.1643 99.4613 39.0014C99.5053 38.8385 99.5839 38.6986 99.6866 38.6006C99.7489 38.5398 99.8204 38.5001 99.8954 38.4845C99.9705 38.469 100.047 38.478 100.119 38.5109C100.227 38.5937 100.257 38.6351 100.252 38.642Z" fill="#455A64"/>
<path d="M194.145 9L194.152 9.59C194.156 9.9145 195.025 20.6585 196.083 33.4655L198.006 56.751L206.652 59.3707C211.407 60.8116 215.396 61.9977 215.515 62.0069C215.635 62.0159 219.677 60.8417 224.496 59.3975C232.223 57.0819 233.266 56.7332 233.322 56.4465C233.399 56.0472 237.183 9.84829 237.179 9.354L237.176 9H215.661H194.145Z" fill="white"/>
<path d="M206.72 59.5273L197.998 56.8886L197.884 56.1904C197.782 55.5697 194 9.84758 194 9.24347C194 9.02482 196.208 9 215.661 9C236.194 9 237.322 9.01433 237.32 9.27533C237.313 10.4026 233.398 56.7302 233.302 56.8224C233.18 56.9389 216.298 62.0292 215.734 62.1195C215.574 62.145 211.518 60.9786 206.72 59.5273ZM221.161 50.2037C224.093 49.3286 226.534 48.5675 226.585 48.5124C226.637 48.4572 226.98 44.6951 227.348 40.1521C227.715 35.6091 228.053 31.5912 228.098 31.2234L228.181 30.5547H221.848H215.515V33.4654V36.3761H218.935H222.354L222.286 36.7301C222.248 36.9248 222.103 38.598 221.962 40.4482C221.814 42.4088 221.638 43.888 221.54 43.9935C221.448 44.0931 220.055 44.5548 218.444 45.0195L215.515 45.8643V48.8295C215.515 50.8534 215.565 51.7948 215.673 51.7948C215.76 51.7948 218.229 51.0788 221.161 50.2037V50.2037ZM228.098 26.8967C228.001 26.1258 227.145 15.7855 227.145 15.3956C227.145 15.1588 226.642 15.136 221.403 15.136H215.661V18.1797V21.2234L218.241 21.331C219.66 21.3902 221.154 21.4803 221.56 21.5312L222.299 21.6238L222.478 24.0046C222.577 25.314 222.695 26.6509 222.74 26.9754L222.821 27.5654H225.501H228.181L228.098 26.8967Z" fill="#EAEBEC"/>
<path d="M206.652 59.3705L198.006 56.7508L196.083 33.4654C195.025 20.6584 194.156 9.9145 194.152 9.59L194.145 9H215.661H237.176L237.179 9.354C237.183 9.84829 233.399 56.0472 233.322 56.4465C233.266 56.7331 232.223 57.0819 224.496 59.3975C219.677 60.8417 215.635 62.0159 215.515 62.0068C215.396 61.9977 211.407 60.8114 206.652 59.3705H206.652ZM221.167 50.315C224.156 49.4157 226.644 48.6057 226.695 48.5149C226.747 48.4241 227.104 44.4699 227.489 39.7276C227.873 34.9854 228.22 30.9815 228.258 30.8301C228.324 30.5699 227.816 30.5547 219.043 30.5547H209.759L210.154 26.0314C210.372 23.5435 210.555 21.5016 210.561 21.4937C210.567 21.4859 211.93 21.4388 213.589 21.3892C216.31 21.3078 221.92 21.5427 222.107 21.7458C222.177 21.8217 222.639 26.7196 222.639 27.3882C222.639 27.7178 222.68 27.7227 225.456 27.7227H228.273L228.206 27.0541C228.17 26.6863 227.931 23.8366 227.676 20.7214L227.212 15.0574L216.348 15.017C207.706 14.9849 205.484 15.0171 205.483 15.1743C205.483 15.2831 205.419 15.9738 205.343 16.7094C205.157 18.4892 203.74 35.6865 203.74 36.1614V36.5334H212.984H222.228L222.146 37.1234C222.1 37.4479 221.957 39.094 221.826 40.7814C221.696 42.4688 221.548 43.893 221.496 43.9463C221.361 44.087 215.923 45.6593 215.584 45.6558C215.426 45.6542 214.022 45.2749 212.463 44.813L209.628 43.9732L209.524 42.6527C209.467 41.9263 209.38 40.8896 209.331 40.3488L209.241 39.3654H206.491H203.74L203.746 39.9554C203.758 41.0588 204.419 48.4909 204.515 48.5948C204.626 48.715 215.19 51.929 215.515 51.9415C215.635 51.9462 218.179 51.2142 221.167 50.315H221.167Z" fill="#F0BE25"/>
<path d="M206.652 59.3705L198.006 56.7508L196.083 33.4654C195.025 20.6584 194.156 9.9145 194.152 9.59L194.145 9H215.661H237.176L237.179 9.354C237.183 9.84829 233.399 56.0472 233.322 56.4465C233.266 56.7331 232.223 57.0819 224.496 59.3975C219.677 60.8417 215.635 62.0159 215.515 62.0068C215.396 61.9977 211.407 60.8114 206.652 59.3705H206.652ZM222.775 55.8658C226.578 54.7301 229.761 53.7212 229.848 53.6238C229.984 53.4723 233.269 14.5121 233.256 13.2087L233.251 12.776H224.456H215.661V13.8773V14.9787H210.573C206.6 14.9787 205.484 15.0218 205.483 15.1754C205.483 15.2835 205.419 15.9738 205.343 16.7094C205.157 18.4892 203.74 35.6865 203.74 36.1614V36.5334H209.7H215.661V41.0961C215.661 44.6429 215.62 45.6581 215.479 45.6558C215.379 45.6542 214.022 45.2749 212.463 44.813L209.628 43.9732L209.524 42.6527C209.467 41.9263 209.38 40.8896 209.331 40.3488L209.241 39.3654H206.491H203.74L203.746 39.9554C203.764 41.643 204.438 48.5316 204.596 48.6374C204.693 48.7017 207.221 49.4881 210.216 50.385L215.661 52.0156V54.9732C215.661 56.5999 215.706 57.9308 215.76 57.9308C215.815 57.9308 218.972 57.0016 222.775 55.8658ZM210.139 26.0737C210.348 23.6091 210.547 21.5647 210.582 21.5306C210.617 21.4965 211.774 21.4348 213.153 21.3935L215.661 21.3185V25.9366V30.5547H212.71H209.759L210.139 26.0737Z" fill="#E4A126"/>
</svg>
