<svg width="50" height="50" viewBox="0 0 50 50" fill="none" xmlns="http://www.w3.org/2000/svg">
<path d="M35.1562 44.5312H14.8438C10.5469 44.5312 7.03125 41.0156 7.03125 36.7188V16.4062C7.03125 12.1094 10.5469 8.59375 14.8438 8.59375H35.1562C39.4531 8.59375 42.9688 12.1094 42.9688 16.4062V36.7188C42.9688 41.0156 39.4531 44.5312 35.1562 44.5312Z" fill="url(#paint0_radial_50_85)"/>
<path d="M25 15.625C28.5937 15.625 28.9844 15.625 30.3906 15.7031C31.7188 15.7813 32.4219 16.0156 32.8906 16.1719C33.5156 16.4063 33.9844 16.7187 34.4531 17.1875C34.9219 17.6563 35.2344 18.125 35.4688 18.75C35.625 19.2188 35.8594 19.9219 35.9375 21.25C35.9375 22.5781 35.9375 22.9688 35.9375 26.5625C35.9375 30.1562 35.9375 30.5469 35.8594 31.9531C35.7813 33.2813 35.5469 33.9844 35.3906 34.4531C35.1562 35.0781 34.8438 35.5469 34.375 36.0156C33.9062 36.4844 33.4375 36.7969 32.8125 37.0313C32.3437 37.1875 31.6406 37.4219 30.3125 37.5C28.9844 37.5 28.5937 37.5 25 37.5C21.4063 37.5 21.0156 37.5 19.6094 37.4219C18.2813 37.3438 17.5781 37.1094 17.1094 36.9531C16.4844 36.7187 16.0156 36.4063 15.5469 35.9375C15.0781 35.4687 14.7656 35 14.5313 34.375C14.375 33.9062 14.1406 33.2031 14.0625 31.875C14.0625 30.5469 14.0625 30.1562 14.0625 26.5625C14.0625 22.9688 14.0625 22.5781 14.1406 21.1719C14.2188 19.8438 14.4531 19.1406 14.6094 18.6719C14.8438 18.0469 15.1562 17.5781 15.625 17.1094C16.0938 16.6406 16.5625 16.3281 17.1875 16.0938C17.6563 15.9375 18.3594 15.7031 19.6875 15.625C21.0156 15.625 21.4063 15.625 25 15.625ZM25 13.2812C21.4063 13.2812 20.9375 13.2813 19.5312 13.3594C18.125 13.4375 17.1875 13.6719 16.3281 13.9844C15.4687 14.2969 14.6875 14.7656 13.9844 15.5469C13.2812 16.3281 12.8125 17.0312 12.4219 17.8906C12.1094 18.75 11.875 19.6875 11.7969 21.0938C11.7188 22.5 11.7188 22.9688 11.7188 26.5625C11.7188 30.1562 11.7188 30.625 11.7969 32.0312C11.875 33.4375 12.1094 34.375 12.4219 35.2344C12.7344 36.0937 13.2031 36.875 13.9844 37.5781C14.6875 38.2812 15.4687 38.75 16.3281 39.1406C17.1875 39.4531 18.125 39.6875 19.5312 39.7656C20.9375 39.8438 21.4063 39.8438 25 39.8438C28.5937 39.8438 29.0625 39.8438 30.4688 39.7656C31.875 39.6875 32.8125 39.4531 33.6719 39.1406C34.5312 38.8281 35.3125 38.3594 36.0156 37.5781C36.7187 36.875 37.1875 36.0937 37.5781 35.2344C37.8906 34.375 38.125 33.4375 38.2031 32.0312C38.2813 30.625 38.2812 30.1562 38.2812 26.5625C38.2812 22.9688 38.2813 22.5 38.2031 21.0938C38.125 19.6875 37.8906 18.75 37.5781 17.8906C37.2656 17.0312 36.7969 16.25 36.0156 15.5469C35.2344 14.8437 34.5312 14.375 33.6719 13.9844C32.8125 13.6719 31.875 13.4375 30.4688 13.3594C29.0625 13.2813 28.5937 13.2812 25 13.2812Z" fill="white"/>
<path d="M25 19.5312C21.0938 19.5312 17.9688 22.6562 17.9688 26.5625C17.9688 30.4688 21.0938 33.5938 25 33.5938C28.9062 33.5938 32.0312 30.4688 32.0312 26.5625C32.0312 22.6562 28.9062 19.5312 25 19.5312ZM25 31.25C22.4219 31.25 20.3125 29.1406 20.3125 26.5625C20.3125 23.9844 22.4219 21.875 25 21.875C27.5781 21.875 29.6875 23.9844 29.6875 26.5625C29.6875 29.1406 27.5781 31.25 25 31.25Z" fill="white"/>
<path d="M32.0312 21.0938C32.8942 21.0938 33.5938 20.3942 33.5938 19.5312C33.5938 18.6683 32.8942 17.9688 32.0312 17.9688C31.1683 17.9688 30.4688 18.6683 30.4688 19.5312C30.4688 20.3942 31.1683 21.0938 32.0312 21.0938Z" fill="white"/>
<defs>
<radialGradient id="paint0_radial_50_85" cx="0" cy="0" r="1" gradientUnits="userSpaceOnUse" gradientTransform="translate(14.4601 51.7934) rotate(-49.945) scale(54.4106 35.9428)">
<stop offset="0.073" stop-color="#EACC7B"/>
<stop offset="0.184" stop-color="#ECAA59"/>
<stop offset="0.307" stop-color="#EF802E"/>
<stop offset="0.358" stop-color="#EF6D3A"/>
<stop offset="0.46" stop-color="#F04B50"/>
<stop offset="0.516" stop-color="#F03E58"/>
<stop offset="0.689" stop-color="#DB359E"/>
<stop offset="0.724" stop-color="#CE37A4"/>
<stop offset="0.789" stop-color="#AC3CB4"/>
<stop offset="0.877" stop-color="#7544CF"/>
<stop offset="0.98" stop-color="#2B4FF2"/>
</radialGradient>
</defs>
</svg>
