<svg width="50" height="56" viewBox="0 0 50 56" fill="none" xmlns="http://www.w3.org/2000/svg">
<g clip-path="url(#clip0_4_41)">
<path d="M27.3282 26.9837L25 -0.107697H50L47.7273 26.9837L37.5277 30.0462" fill="#264DE4"/>
<path d="M37.5277 2.07138V27.6904L45.7871 25.2757L47.7273 2.07138" fill="#2965F1"/>
<path d="M29.6563 5.42838H37.5277V8.72645H29.9335L29.6563 5.42838ZM30.2106 12.1423H37.5277V15.4993H30.4878L30.2106 12.1423ZM30.6541 17.1483H33.7583L33.98 19.7986L37.5277 20.7998V24.2745L31.0421 22.3899" fill="#EBEBEB"/>
<path d="M37.5277 12.1423V15.4993H41.3525L40.9645 19.7986L37.5277 20.7998V24.2745L43.9024 22.3899L45.3437 5.42838H37.5277V8.72645H41.9623L41.6574 12.1423H37.5277Z" fill="white"/>
<path d="M25 0L22.7225 27.1354L12.4847 30.1538L2.2752 27.1395L0 0H25Z" fill="#E44D26"/>
<path d="M12.5 27.8466L20.7726 25.4074L22.7189 2.21899H12.5V27.8466Z" fill="#F16529"/>
<path d="M8.07252 8.87622H12.5V5.54767H4.65213L4.727 6.44065L5.49628 15.6133H12.5V12.2847H8.35857L8.07252 8.87622ZM8.7779 17.2776H5.63612L6.07456 22.5039L12.4856 24.3966L12.5 24.3924V20.9293L12.4863 20.9332L9.00074 19.9322L8.7779 17.2776Z" fill="#EBEBEB"/>
<path d="M12.4892 15.6133H16.3432L15.9798 19.9302L12.4891 20.9322V24.3951L18.9053 22.5039L18.9523 21.9415L19.6879 13.1785L19.7642 12.2847H12.4892V15.6133ZM12.4892 8.86809V8.87622H20.049L20.1117 8.12811L20.2544 6.44065L20.3292 5.54767H12.4892V8.8682V8.86809Z" fill="white"/>
<path d="M12.5839 25.7297L12.5878 26.0659C12.59 26.2509 13.0913 32.3733 13.7019 39.6713L14.812 52.9405L19.8014 54.4333C22.5455 55.2544 24.8474 55.9303 24.9166 55.9355C24.9858 55.9407 27.3181 55.2716 30.0994 54.4486C34.5587 53.1291 35.1607 52.9303 35.1926 52.767C35.2371 52.5394 37.4209 26.2131 37.4186 25.9315L37.417 25.7297H25.0004H12.5839Z" fill="white"/>
<path d="M19.8409 54.5226L14.8071 53.0189L14.7414 52.6211C14.6829 52.2674 12.5 26.2128 12.5 25.8685C12.5 25.7439 13.7745 25.7298 25.0005 25.7298C36.8501 25.7298 37.5009 25.738 37.5 25.8867C37.496 26.5291 35.2366 52.9287 35.1811 52.9812C35.1109 53.0476 25.368 55.9483 25.0424 55.9997C24.9501 56.0143 22.6095 55.3496 19.8409 54.5226ZM28.1745 49.2096C29.8664 48.7109 31.2751 48.2772 31.305 48.2458C31.3348 48.2144 31.5328 46.0705 31.7449 43.4817C31.9571 40.8929 32.1521 38.6033 32.1782 38.3937L32.2258 38.0127H28.5712H24.9166V39.6713V41.33H26.8897H28.8629L28.8236 41.5317C28.802 41.6426 28.7181 42.5961 28.6372 43.6505C28.5514 44.7677 28.4496 45.6106 28.3933 45.6707C28.3402 45.7275 27.5362 45.9906 26.6067 46.2554L24.9166 46.7368V48.4265C24.9166 49.5798 24.9454 50.1163 25.0075 50.1163C25.0575 50.1163 26.4826 49.7083 28.1745 49.2096ZM32.1777 35.9282C32.1222 35.4889 31.6283 29.5965 31.6283 29.3743C31.6283 29.2393 31.3378 29.2264 28.3144 29.2264H25.0005V30.9608V32.6952L26.4896 32.7566C27.3087 32.7903 28.1706 32.8416 28.4051 32.8707L28.8314 32.9234L28.9349 34.2801C28.9918 35.0263 29.0596 35.7881 29.0856 35.973L29.1328 36.3092H30.6793H32.2258L32.1777 35.9282Z" fill="#EAEBEC"/>
<path d="M19.8014 54.4333L14.812 52.9404L13.7019 39.6713C13.0913 32.3733 12.59 26.2509 12.5878 26.066L12.5839 25.7298H25.0005H37.417L37.4186 25.9315C37.4209 26.2132 35.2371 52.5395 35.1926 52.767C35.1607 52.9304 34.5587 53.1291 30.0994 54.4486C27.3181 55.2716 24.9858 55.9407 24.9166 55.9356C24.8474 55.9304 22.5455 55.2543 19.8014 54.4333H19.8014ZM28.1783 49.273C29.903 48.7606 31.3387 48.299 31.3686 48.2472C31.3985 48.1955 31.6045 45.9422 31.8265 43.2398C32.0484 40.5375 32.2481 38.2559 32.2703 38.1696C32.3085 38.0213 32.015 38.0127 26.9526 38.0127H21.5944L21.8226 35.4351C21.948 34.0174 22.0537 32.8538 22.0574 32.8493C22.0611 32.8448 22.8475 32.818 23.805 32.7897C25.3749 32.7434 28.6125 32.8772 28.7208 32.993C28.7613 33.0362 29.0275 35.8272 29.0275 36.2082C29.0275 36.3961 29.0512 36.3989 30.6531 36.3989H32.2788L32.2405 36.0178C32.2194 35.8083 32.0817 34.1844 31.9345 32.4092L31.6668 29.1816L25.3973 29.1586C20.4095 29.1403 19.1276 29.1586 19.1271 29.2482C19.1266 29.3102 19.0901 29.7038 19.0458 30.1229C18.9386 31.1372 18.121 40.937 18.121 41.2076V41.4196H23.4558H28.7905L28.743 41.7558C28.7168 41.9407 28.6339 42.8788 28.5587 43.8403C28.4835 44.8019 28.3977 45.6135 28.3682 45.6438C28.29 45.724 25.1516 46.62 24.9559 46.618C24.8651 46.6171 24.0545 46.4009 23.1548 46.1377L21.5188 45.6592L21.4588 44.9066C21.4258 44.4928 21.3756 43.902 21.3473 43.5938L21.2957 43.0334H19.7084H18.121L18.1245 43.3696C18.1311 43.9984 18.5126 48.2336 18.568 48.2928C18.6321 48.3613 24.7288 50.1927 24.9166 50.1999C24.9858 50.2025 26.4536 49.7854 28.1783 49.273H28.1783Z" fill="#F0BE25"/>
<path d="M19.8014 54.4333L14.812 52.9404L13.7019 39.6713C13.0913 32.3733 12.59 26.2509 12.5878 26.066L12.5839 25.7298H25.0005H37.417L37.4186 25.9315C37.4209 26.2132 35.2371 52.5395 35.1926 52.767C35.1607 52.9304 34.5587 53.1291 30.0994 54.4486C27.3181 55.2716 24.9858 55.9407 24.9166 55.9356C24.8474 55.9304 22.5455 55.2543 19.8014 54.4333H19.8014ZM29.1059 52.4361C31.3007 51.7889 33.1376 51.214 33.188 51.1585C33.2664 51.0722 35.162 28.8709 35.1544 28.1281L35.1519 27.8815H30.0762H25.0005V28.5091V29.1367H22.0641C19.7713 29.1367 19.1276 29.1613 19.1271 29.2488C19.1266 29.3104 19.0901 29.7038 19.0458 30.1229C18.9386 31.1372 18.121 40.937 18.121 41.2076V41.4196H21.5607H25.0005V44.0196C25.0005 46.0408 24.9771 46.6193 24.8956 46.618C24.8379 46.617 24.0545 46.4009 23.1548 46.1377L21.5188 45.6592L21.4588 44.9066C21.4258 44.4928 21.3756 43.902 21.3473 43.5938L21.2957 43.0334H19.7084H18.121L18.1245 43.3696C18.1346 44.3313 18.5239 48.2567 18.6152 48.317C18.6707 48.3537 20.13 48.8018 21.8583 49.3129L25.0005 50.2421V51.9275C25.0005 52.8544 25.0263 53.6129 25.0579 53.6129C25.0895 53.6129 26.9111 53.0833 29.1059 52.4361ZM21.8137 35.4592C21.9343 34.0547 22.0494 32.8898 22.0695 32.8703C22.0896 32.8509 22.7573 32.8157 23.5533 32.7922L25.0005 32.7494V35.3811V38.0127H23.2974H21.5944L21.8137 35.4592Z" fill="#E4A126"/>
</g>
<defs>
<clipPath id="clip0_4_41">
<rect width="50" height="56" fill="white"/>
</clipPath>
</defs>
</svg>
