<svg width="50" height="56" viewBox="0 0 50 56" fill="none" xmlns="http://www.w3.org/2000/svg">
<path d="M8.33334 39.6667C8.33334 40.9553 9.378 42 10.6667 42H41.4167C42.7053 42 43.75 40.9553 43.75 39.6667V39.6667C43.75 38.378 42.7053 37.3333 41.4167 37.3333H10.6667C9.37801 37.3333 8.33334 38.378 8.33334 39.6667V39.6667ZM18.4896 28C18.4896 29.2887 19.5343 30.3333 20.8229 30.3333H41.4167C42.7053 30.3333 43.75 29.2887 43.75 28V28C43.75 26.7113 42.7053 25.6667 41.4167 25.6667H20.8229C19.5343 25.6667 18.4896 26.7113 18.4896 28V28ZM10.6667 14C9.37801 14 8.33334 15.0447 8.33334 16.3333V16.3333C8.33334 17.622 9.378 18.6667 10.6667 18.6667H41.4167C42.7053 18.6667 43.75 17.622 43.75 16.3333V16.3333C43.75 15.0447 42.7053 14 41.4167 14H10.6667Z" fill="black"/>
</svg>
