<svg width="40" height="40" viewBox="0 0 50 50" fill="none" xmlns="http://www.w3.org/2000/svg">
<path d="M17.9208 19.9185L12.8094 22.7466C12.6177 22.8519 12.5 23.0477 12.5 23.2591V28.9185C12.5 29.13 12.6177 29.3248 12.8094 29.431L17.9219 32.2612C18.1125 32.3664 18.349 32.3664 18.5396 32.2612L23.651 29.431C23.8406 29.3248 23.9583 29.13 23.9583 28.9185V23.2591C23.9583 23.0477 23.8406 22.8529 23.649 22.7466L18.5385 19.9185C18.4427 19.8654 18.3354 19.8394 18.2292 19.8394C18.1219 19.8394 18.0156 19.8654 17.9198 19.9185H17.9208ZM44.2198 25.0133L43.3677 25.4841C43.3354 25.5019 43.3167 25.5341 43.3167 25.5696V26.5133C43.3167 26.5487 43.3365 26.581 43.3677 26.5987L44.2198 27.0706C44.2521 27.0883 44.2906 27.0883 44.3229 27.0706L45.175 26.5987C45.2062 26.581 45.226 26.5487 45.226 26.5133V25.5696C45.226 25.5341 45.2062 25.5019 45.174 25.4841L44.3219 25.0133C44.3062 25.0039 44.2885 24.9998 44.2708 24.9998C44.2531 24.9998 44.2354 25.0039 44.2198 25.0133Z" fill="#388E3C"/>
<path d="M37.2406 13.9206L34.752 12.532C34.6739 12.4883 34.5781 12.4893 34.501 12.5352C34.4239 12.581 34.376 12.6633 34.376 12.7529L34.375 21.1404L32.0802 19.8706C31.9843 19.8175 31.877 19.7914 31.7708 19.7914C31.6645 19.7914 31.5572 19.8175 31.4614 19.8706H31.4625L26.351 22.6987C26.1593 22.8039 26.0416 22.9998 26.0416 23.2102V28.8696C26.0416 29.081 26.1593 29.2758 26.351 29.3821L31.4635 32.2123C31.6541 32.3175 31.8906 32.3175 32.0812 32.2123L37.1927 29.3821C37.3823 29.2768 37.5 29.081 37.5 28.8696V14.3623C37.5 14.1789 37.4 14.0102 37.2406 13.9206ZM34.2354 27.5602L31.9125 28.8466C31.826 28.8946 31.7187 28.8946 31.6323 28.8466L29.3083 27.5602C29.2198 27.5123 29.1666 27.4227 29.1666 27.3268V24.7539C29.1666 24.6581 29.2198 24.5696 29.3073 24.5206L31.6312 23.2352H31.6302C31.6739 23.2112 31.7218 23.1998 31.7708 23.1998C31.8198 23.1998 31.8677 23.2123 31.9114 23.2352L34.2343 24.5206C34.3218 24.5696 34.375 24.6591 34.375 24.755V27.3279C34.375 27.4227 34.3218 27.5123 34.2354 27.5602Z" fill="#37474F"/>
<path d="M17.9208 19.9185L12.5 28.9185C12.5 29.13 12.6177 29.3248 12.8094 29.431L17.9219 32.2612C18.1125 32.3664 18.349 32.3664 18.5396 32.2612L23.9583 23.2591C23.9583 23.0477 23.8406 22.8529 23.649 22.7466L18.5385 19.9185C18.4427 19.8654 18.3354 19.8394 18.2292 19.8394C18.1219 19.8394 18.0156 19.8654 17.9198 19.9185" fill="#2E7D32"/>
<path d="M17.9208 19.9185L12.8094 22.7466C12.6177 22.8519 12.5 23.0477 12.5 23.2591L17.9208 32.2612C18.1115 32.3664 18.3479 32.3664 18.5385 32.2612L23.65 29.431C23.8406 29.3248 23.9583 29.13 23.9583 28.9185L18.5385 19.9185C18.4427 19.8654 18.3354 19.8394 18.2292 19.8394C18.1219 19.8394 18.0156 19.8654 17.9198 19.9185" fill="#4CAF50"/>
<path d="M49.6906 22.6988L44.5802 19.8707C44.4844 19.8175 44.3771 19.7915 44.2708 19.7915C44.1646 19.7915 44.0573 19.8175 43.9615 19.8707H43.9625L38.851 22.6988C38.6604 22.804 38.5417 23.004 38.5417 23.2228V28.8592C38.5417 29.0769 38.6604 29.278 38.851 29.3832L43.9635 32.2134C44.1552 32.3196 44.3896 32.3196 44.5812 32.2134L46.9385 30.9082C47.1542 30.7884 47.1531 30.479 46.9365 30.3603L41.8073 27.5613C41.7208 27.5123 41.6667 27.4217 41.6667 27.3238V24.755C41.6667 24.6592 41.7187 24.5707 41.8021 24.5248L44.1302 23.2373H44.1292C44.1729 23.2134 44.2208 23.2019 44.2698 23.2019C44.3187 23.2019 44.3667 23.2144 44.4104 23.2373L46.7385 24.5259C46.8219 24.5717 46.874 24.6603 46.874 24.7561V26.8519C46.874 26.9415 46.9219 27.0248 47 27.0696C47.0781 27.1134 47.174 27.1134 47.2521 27.0686L49.75 25.6175C49.9042 25.528 50 25.3623 50 25.1832V23.2248C50 23.005 49.8812 22.804 49.6906 22.6988ZM11.149 22.6988L6.03854 19.8707C5.94271 19.8175 5.83542 19.7915 5.72917 19.7915C5.62292 19.7915 5.51562 19.8175 5.41979 19.8707H5.42083L0.309375 22.6988C0.11875 22.804 0 23.004 0 23.2228V30.9988C0 31.0884 0.0479167 31.1717 0.126042 31.2165C0.204167 31.2603 0.3 31.2603 0.378125 31.2155L2.87604 29.7644C3.03021 29.6748 3.125 29.5092 3.125 29.33V24.754C3.125 24.6582 3.17708 24.5696 3.26042 24.5238L5.58854 23.2363C5.63229 23.2123 5.68021 23.2009 5.72917 23.2009C5.77812 23.2009 5.82604 23.2134 5.86979 23.2363L8.19792 24.5248C8.28125 24.5707 8.33333 24.6592 8.33333 24.755V29.3311C8.33333 29.5103 8.42812 29.6759 8.58333 29.7655L11.0812 31.2165C11.1594 31.2613 11.2552 31.2613 11.3333 31.2175C11.4104 31.1717 11.4583 31.0884 11.4583 30.9988V23.2238C11.4583 23.005 11.3396 22.804 11.149 22.6988Z" fill="#37474F"/>
</svg>
