<svg width="50" height="50" viewBox="0 0 50 50" fill="none" xmlns="http://www.w3.org/2000/svg">
<path d="M49.5833 41.6667H0.416667C0.1875 41.6667 0 41.5104 0 41.3194V0.347222C0 0.15625 0.1875 0 0.416667 0H49.5833C49.8125 0 50 0.15625 50 0.347222V41.3194C50 41.5104 49.8125 41.6667 49.5833 41.6667Z" fill="#5555FF"/>
<path d="M42.9167 15.9166H39.1167C38.8792 15.9166 38.7625 16.0034 38.7625 16.1805V21.7569C38.7625 22.5277 38.7667 23.1874 38.7834 23.7361C38.7959 24.2847 38.8083 24.7534 38.8208 25.1388C38.8333 25.5243 38.8458 25.8541 38.8625 26.1284C38.875 26.4027 38.8833 26.6527 38.8833 26.8715H38.8417C38.6042 26.4548 38.2542 25.8715 37.7917 25.1215C37.3292 24.3749 36.7958 23.5208 36.1875 22.5624C35.5792 21.6041 34.925 20.5868 34.2292 19.5104C33.5292 18.434 32.8375 17.3645 32.15 16.309C31.4625 15.2534 30.7959 14.243 30.15 13.2743C29.5042 12.3055 28.9417 11.4583 28.4667 10.7326C28.4125 10.6458 28.3625 10.5833 28.3084 10.552C28.2542 10.5208 28.15 10.5034 27.9917 10.5034H26.6042H22.4458H22.4042C22.2208 10.5034 22.1292 10.5798 22.1292 10.7361L22.1375 10.743C22.1333 10.7638 22.1292 10.7777 22.1292 10.802V23.7048C22.1292 24.7187 21.9917 25.559 21.7125 26.2291C21.4334 26.8993 21.05 27.4374 20.5625 27.8472C20.075 28.2534 19.5 28.5451 18.8417 28.7222C18.1792 28.8993 17.4542 28.9861 16.6625 28.9861C14.7625 28.9861 13.35 28.5138 12.425 27.5659C11.5 26.6215 11.0375 25.3541 11.0375 23.7708V10.7673C11.0375 10.5902 10.9333 10.5034 10.7208 10.5034H6.56252C6.35002 10.5034 6.24585 10.6041 6.24585 10.802V24.0694C6.24585 25.4999 6.48335 26.743 6.95835 27.7986C7.43335 28.8541 8.12085 29.7291 9.01668 30.4236C9.91252 31.118 10.9958 31.6388 12.2625 31.9895C13.5292 32.3402 14.9417 32.5173 16.5 32.5173C17.95 32.5173 19.3167 32.3576 20.6 32.0381C21.8792 31.7187 22.9833 31.2118 23.9083 30.5208C24.8333 29.8263 25.5667 28.9374 26.1083 27.8472C26.65 26.7569 26.9209 25.4444 26.9209 23.9027V15.5451C27.1375 15.9305 27.3917 16.3715 27.6917 16.8749C28.2333 17.7777 28.8458 18.7708 29.5333 19.8611C30.2208 20.9513 30.9459 22.0902 31.7125 23.2777C32.4792 24.4652 33.225 25.6111 33.95 26.7083C34.675 27.809 35.3375 28.8194 35.9292 29.743C36.525 30.6666 36.9917 31.4027 37.3333 31.9548C37.4375 32.1076 37.6125 32.1874 37.85 32.1874H42.8792C43.1417 32.1874 43.275 32.0902 43.275 31.8923V16.2152C43.275 16.0173 43.1542 15.9166 42.9167 15.9166Z" fill="white"/>
<path d="M41.0167 13.705C42.5262 13.705 43.75 12.6852 43.75 11.4272C43.75 10.1692 42.5262 9.14941 41.0167 9.14941C39.5071 9.14941 38.2833 10.1692 38.2833 11.4272C38.2833 12.6852 39.5071 13.705 41.0167 13.705Z" fill="white"/>
<path d="M45.0167 49.3196H50V48.1703H46.8292V46.6321H49.675V45.5245H46.8292V44.0245H50V42.8752H45.0167V49.3196V49.3196ZM38.525 48.1703V44.0245H39.725C41.1458 44.0245 41.8958 44.8752 41.8958 46.0974C41.8958 47.3543 41.1167 48.1703 39.725 48.1703H38.525ZM36.7208 49.3196H39.725C42.0833 49.3196 43.7417 47.9759 43.7417 46.0974C43.7417 44.1911 42.0542 42.8752 39.725 42.8752H36.7208V49.3196ZM31.475 48.1529C30.0333 48.1529 29.3042 47.3266 29.2958 46.0974C29.2833 44.8682 30.0208 44.0522 31.475 44.0418C32.9417 44.0314 33.6667 44.9099 33.6542 46.0974C33.6458 47.3092 32.9083 48.1529 31.475 48.1529ZM23.9917 49.3891C25.1625 49.3891 26.15 49.0904 26.825 48.3613L26.1083 47.7363C26.0458 47.6842 25.95 47.6495 25.8667 47.6495C25.8125 47.6495 25.7625 47.6599 25.7083 47.6772C25.625 47.705 25.4042 47.8717 25.2542 47.9481C24.8958 48.1425 24.4833 48.1599 24.1042 48.1599C22.8292 48.1599 22.05 47.2641 22.05 46.0974C22.05 44.8856 22.9042 44.0418 24.2542 44.0418C24.5375 44.0418 24.8667 44.0766 25.1083 44.1564C25.2667 44.2085 25.6875 44.4203 25.7708 44.4654C25.825 44.4932 25.8875 44.5002 25.95 44.5002C26.1083 44.5002 26.2125 44.4481 26.3083 44.3404L26.9208 43.6634C26.2583 43.0835 25.2042 42.8022 24.2667 42.8022C21.875 42.8022 20.2208 44.1738 20.2208 46.0939C20.2208 48.021 21.7083 49.3891 23.9917 49.3891ZM17.0583 49.3196H18.8583V42.8752H17.0583V49.3196ZM8.24167 49.3196H10.0333V45.955C10.0333 45.8404 10.0125 45.4272 10 45.3231L13.4333 49.0731C13.6125 49.2675 13.8125 49.3196 14.0542 49.3196H15.2042V42.8752H13.4125V46.1946C13.4125 46.3161 13.4333 46.7397 13.4542 46.8891L9.9875 43.1043C9.9125 43.0245 9.80833 42.9446 9.73333 42.9203C9.62917 42.8856 9.47083 42.8752 9.39583 42.8752H8.2375V49.3196H8.24167ZM3.32917 49.3891C5.34167 49.3891 6.65 48.2988 6.65 46.6946V42.8752H4.85833V46.6946C4.85833 47.58 4.3 48.1356 3.32917 48.1356C2.32917 48.1356 1.79167 47.5384 1.79167 46.6877V42.8752H0V46.6946C0 48.3266 1.32917 49.3891 3.32917 49.3891ZM31.475 49.3891C33.8458 49.3891 35.4917 47.9828 35.4917 46.0974C35.4917 44.1738 33.7958 42.8057 31.475 42.8057C29.1042 42.8057 27.45 44.2016 27.45 46.0974C27.45 48.0106 29.1375 49.3891 31.475 49.3891Z" fill="#5555FF"/>
</svg>
