<svg width="30" height="30" viewBox="0 0 50 50" fill="none" xmlns="http://www.w3.org/2000/svg">
<path d="M45.8334 11.5728V38.4269C45.8334 39.7498 45.0105 40.9269 43.7709 41.3644L34.5834 45.6769L35.4167 34.3748V15.6248L34.5834 4.32275L43.7709 8.63525C45.0105 9.07275 45.8334 10.2498 45.8334 11.5728Z" fill="#29B6F6"/>
<path d="M9.37502 35.3084L35.4167 15.625V5.57607C35.4167 4.32815 33.8729 3.74482 33.0469 4.68023L4.8521 30.4573C3.9146 31.3219 3.96773 32.8188 4.96356 33.6156C4.96356 33.6156 6.34273 34.899 6.84169 35.2552C7.60835 35.8021 8.61564 35.8646 9.37502 35.3084Z" fill="#0277BD"/>
<path d="M9.37502 14.6915L35.4167 34.3748V44.4238C35.4167 45.6717 33.8729 46.255 33.0469 45.3196L4.8521 19.5425C3.9146 18.6779 3.96773 17.181 4.96356 16.3842C4.96356 16.3842 6.34273 15.1008 6.84169 14.7446C7.60835 14.1977 8.61564 14.1352 9.37502 14.6915Z" fill="#0288D1"/>
</svg>
