<svg width="30" height="30" viewBox="0 0 50 50" fill="none" xmlns="http://www.w3.org/2000/svg">
<path d="M12.5813 8.33936L16.5806 28.7352L20.5799 8.33936H23.4757H31.4229V10.3664L27.3403 20.9164C28.7743 21.6071 29.859 22.8623 30.5945 24.6821C31.3299 26.5029 31.6979 28.6394 31.6979 31.0935C31.6979 34.1289 31.1597 36.68 30.084 38.7477C29.0084 40.8154 27.6153 41.8498 25.9056 41.8498C24.6181 41.8498 23.4965 41.2362 22.541 40.0091C21.5847 38.7821 20.8771 37.1206 20.4174 35.0237L22.6785 33.6175C23.0097 34.8862 23.4465 35.8862 23.9889 36.6164C24.5313 37.3477 25.1702 37.7123 25.9056 37.7123C26.6778 37.7123 27.3306 37.0644 27.8639 35.7685C28.3972 34.4716 28.6639 32.9144 28.6639 31.0925C28.6639 29.0789 28.3785 27.5206 27.809 26.4175C27.1465 25.1216 26.1077 24.4727 24.6917 24.4727H23.5889V22.4873L27.45 12.4748H22.7889L22.5236 13.1519L16.8549 41.8477H16.5792L12.4417 21.08L8.30488 41.8477H8.02919L1.41113 8.33936H4.30697L8.30627 28.7352L11.009 15.0008L9.68544 8.33936H12.5813V8.33936Z" fill="#005A9C"/>
<path fill-rule="evenodd" clip-rule="evenodd" d="M46.4723 8.33936C45.9035 8.33936 45.3931 8.64665 45.0063 9.23623C44.5959 9.86123 44.3674 10.6696 44.3674 11.505C44.3674 12.3404 44.5848 13.1144 44.9834 13.7216C45.3883 14.3373 45.9098 14.6716 46.473 14.6716C47.0237 14.6716 47.5577 14.3373 47.9737 13.731C48.3723 13.1508 48.5897 12.3769 48.5897 11.506C48.5897 10.6612 48.3667 9.87061 47.9799 9.28102C47.5744 8.66436 47.0466 8.33936 46.4723 8.33936ZM48.3077 11.5321C48.3077 12.2623 48.1195 12.9394 47.7744 13.4404C47.4105 13.9685 46.9591 14.2498 46.4605 14.2498C45.9917 14.2498 45.5285 13.9602 45.1827 13.4321C44.8369 12.9039 44.6431 12.2269 44.6431 11.506C44.6431 10.7852 44.8424 10.081 45.2001 9.53623C45.5341 9.02581 45.9855 8.75394 46.4778 8.75394C46.982 8.75394 47.4334 9.03623 47.7855 9.57165C48.1258 10.081 48.3077 10.7664 48.3077 11.5321ZM46.5306 9.64977H45.6278V13.2383H46.0792V11.7081H46.5251L47.0119 13.2383H47.516L46.982 11.6029C47.3278 11.4966 47.5272 11.1456 47.5272 10.6352C47.5272 9.98415 47.1994 9.64977 46.5306 9.64977ZM46.4487 10.0894C46.8709 10.0894 47.064 10.2654 47.064 10.705C47.064 11.1269 46.8709 11.2769 46.4598 11.2769H46.0785V10.0894H46.4487V10.0894Z" fill="black"/>
<path d="M42.9215 8.15088L43.391 12.429L41.7305 17.1946C41.7305 17.1946 41.093 15.1728 40.034 14.054C39.1416 13.1113 38.5604 12.9061 37.6514 13.1873C36.484 13.5488 35.1604 15.6425 34.5826 18.2238C33.8916 21.3123 33.8847 22.8071 33.8604 24.18C33.8215 26.3811 34.0528 27.6821 34.0528 27.6821C34.0528 27.6821 33.0444 24.8842 33.0541 20.7863C33.0604 17.8613 33.3673 15.2092 34.2694 12.5915C35.0632 10.2905 36.243 8.90921 37.2903 8.74671C38.3729 8.579 39.2285 9.3613 39.8896 10.2082C40.584 11.0978 41.2854 13.0425 41.2854 13.0425L42.9215 8.15088Z" fill="black"/>
<path d="M43.1264 32.3573C43.1264 32.3573 42.3924 34.325 41.9355 35.0834C41.4778 35.8417 40.6598 37.1771 39.6493 37.8448C38.6389 38.5125 38.1091 38.6386 37.1105 38.4948C36.1125 38.3511 35.1855 37.4844 34.8605 37.1229C34.5355 36.7615 33.7049 35.6969 33.2355 34.7042C32.766 33.7115 32.032 31.7261 32.032 31.7261C32.032 31.7261 32.441 33.7157 32.6973 34.5604C32.8445 35.0469 33.2973 36.5334 33.9396 37.8271C34.5389 39.0344 35.7028 41.1125 37.4716 41.5813C39.2403 42.0511 40.4556 40.8594 40.7563 40.5709C41.057 40.2823 41.691 39.4854 42.0924 38.8417C42.5111 38.1698 42.9077 37.3125 43.1271 36.7979C43.2875 36.4229 43.5486 35.6604 43.5486 35.6604L43.1264 32.3573Z" fill="black"/>
</svg>
