<svg width="50" height="50" viewBox="0 0 50 50" fill="none" xmlns="http://www.w3.org/2000/svg">
<path d="M42.1416 10.5224C42.1416 10.5224 43.4014 11.9583 45.1611 11.9583C46.5508 11.9583 47.5605 11.0654 47.5605 9.8424C47.5605 8.34423 46.2705 7.65278 44.7109 7.65278H43.791L43.2412 6.33526L45.6807 3.26315C46.2012 2.60387 46.6406 2.18962 46.6406 2.18962C46.6406 2.18962 46.251 2.21142 45.4609 2.21142H41.4922V0H49.6201V1.61548L46.3604 5.62304C48.2002 5.89921 50 7.29147 50 9.74688C50 12.1597 48.2803 14.3919 45.3105 14.3919C42.4814 14.3919 40.9121 12.5003 40.9121 12.5003L42.1416 10.5224V10.5224ZM0.110352 47.609H1.67969C1.67969 48.0969 2.08008 48.5652 2.78906 48.5652C3.44922 48.5652 3.88965 48.2142 3.88965 47.747C3.88965 47.3432 3.59961 47.1625 3.09961 47.0452L2.19922 46.8002C0.679688 46.3755 0.290039 45.5149 0.290039 44.6002C0.290039 43.4841 1.33008 42.4635 2.7998 42.4635C3.99902 42.4635 5.35937 43.1124 5.33887 44.7071H3.74902C3.74902 44.2181 3.3291 43.9098 2.84961 43.9098C2.3291 43.9098 1.96973 44.2285 1.96973 44.6749C1.96973 45.0466 2.2998 45.2595 2.68945 45.355L3.76953 45.6633C5.28906 46.0776 5.55859 47.0878 5.55859 47.747C5.55859 49.2026 4.18945 50 2.81934 50C1.49023 50 0.139648 49.1393 0.110352 47.609V47.609ZM44.3516 47.609H45.9209C45.9209 48.0969 46.3213 48.5652 47.0303 48.5652C47.6904 48.5652 48.1309 48.2142 48.1309 47.747C48.1309 47.3432 47.8408 47.1625 47.3408 47.0452L46.4404 46.8002C44.9209 46.3755 44.5312 45.5149 44.5312 44.6002C44.5312 43.4841 45.5713 42.4635 47.041 42.4635C48.2402 42.4635 49.5996 43.1124 49.5801 44.7071H47.9805C47.9805 44.2181 47.5605 43.9098 47.0801 43.9098C46.5605 43.9098 46.2012 44.2285 46.2012 44.6749C46.2012 45.0466 46.5313 45.2595 46.9209 45.355L48 45.6633C49.5205 46.0776 49.79 47.0878 49.79 47.747C49.79 49.2026 48.4209 50 47.0508 50C45.7207 50 44.3809 49.1393 44.3516 47.609V47.609ZM40.8418 49.8193V38.7435H42.5215V49.8193H40.8418ZM31.8037 46.2271C31.8037 43.9523 33.4629 42.4635 35.3828 42.4635C37.3027 42.4635 38.9824 43.9523 38.9824 46.2271C38.9824 48.5018 37.3027 50 35.3828 50C33.4736 50 31.8037 48.5018 31.8037 46.2271ZM37.293 46.2271C37.293 44.9937 36.4229 44.1216 35.3828 44.1216C34.3428 44.1216 33.4932 44.9937 33.4932 46.2271C33.4932 47.4813 34.3428 48.3419 35.3828 48.3419C36.4326 48.3419 37.293 47.4813 37.293 46.2271ZM23.1953 46.2271C23.1953 43.9523 24.8555 42.4635 26.7744 42.4635C28.6943 42.4635 30.374 43.9523 30.374 46.2271C30.374 48.5018 28.6943 50 26.7744 50C24.8555 50 23.1953 48.5018 23.1953 46.2271V46.2271ZM28.6846 46.2271C28.6846 44.9937 27.8145 44.1216 26.7744 44.1216C25.7344 44.1216 24.8848 44.9937 24.8848 46.2271C24.8848 47.4813 25.7344 48.3419 26.7744 48.3419C27.8145 48.3419 28.6846 47.4813 28.6846 46.2271ZM21.4355 45.791V49.809H19.7559V45.9187C19.7559 44.7704 19.1064 44.1537 18.3564 44.1537C17.5869 44.1537 16.6367 44.6324 16.6367 46.0246V49.8193H14.957V38.7435H16.6465V43.7291C16.9766 42.857 18.0664 42.4531 18.7363 42.4531C20.4756 42.4635 21.4355 43.7073 21.4355 45.791V45.791ZM6.94922 46.2271C6.94922 43.9523 8.66797 42.4635 10.6182 42.4635C11.7881 42.4635 12.7373 43.0169 13.3574 43.8454L12.1777 44.8452C11.8281 44.3988 11.2578 44.1216 10.6484 44.1216C9.47852 44.1216 8.63867 45.0144 8.63867 46.2271C8.63867 47.4273 9.47852 48.3419 10.6484 48.3419C11.2578 48.3419 11.8281 48.0658 12.1777 47.6193L13.3574 48.6181C12.7373 49.4477 11.7881 50 10.6182 50C8.66797 50 6.94922 48.5018 6.94922 46.2271ZM26.2852 13.5105L37.0225 33.8338L42.3213 23.7889L32.1836 4.60246H20.3857L15.4971 13.8603L10.6084 4.60246H0L15.4365 33.8338L15.4971 33.7268L15.5566 33.8338L26.2852 13.5105V13.5105Z" fill="#04AA6D"/>
</svg>
