<svg width="50" height="50" viewBox="0 0 50 50" fill="none" xmlns="http://www.w3.org/2000/svg">
<path fill-rule="evenodd" clip-rule="evenodd" d="M5.0708 45.1075L7.87705 34.8627C6.1458 31.8647 5.23538 28.4627 5.23643 24.9783C5.24163 14.0772 14.1125 5.2085 25.0145 5.2085C30.3052 5.21058 35.2698 7.26995 39.0041 11.0064C42.7375 14.7439 44.7937 19.7106 44.7916 24.9939C44.7875 35.895 35.9145 44.7647 25.0145 44.7647C25.0135 44.7647 25.0145 44.7647 25.0145 44.7647H25.0062C21.6968 44.7637 18.4437 43.9335 15.5552 42.3575L5.0708 45.1075Z" fill="white"/>
<path fill-rule="evenodd" clip-rule="evenodd" d="M5.07079 45.6281C4.93329 45.6281 4.79996 45.574 4.701 45.474C4.57079 45.3417 4.51975 45.149 4.56871 44.9708L7.31767 34.9333C5.6135 31.9063 4.71454 28.4688 4.71663 24.9792C4.72079 13.7896 13.826 4.6875 25.0145 4.6875C30.4416 4.68958 35.5406 6.80313 39.3729 10.6385C43.2052 14.475 45.3145 19.5729 45.3125 24.9938C45.3083 36.1823 36.202 45.2854 25.0145 45.2854C21.6927 45.2844 18.4062 44.4646 15.4895 42.9135L5.20308 45.6104C5.15933 45.6229 5.11558 45.6281 5.07079 45.6281Z" fill="white"/>
<path fill-rule="evenodd" clip-rule="evenodd" d="M25.0145 5.20817C30.3052 5.21025 35.2697 7.26963 39.0041 11.0061C42.7374 14.7436 44.7937 19.7103 44.7916 24.9936C44.7874 35.8946 35.9145 44.7644 25.0145 44.7644H25.0062C21.6968 44.7634 18.4437 43.9332 15.5552 42.3571L5.07078 45.1071L7.87703 34.8623C6.14578 31.8644 5.23536 28.4623 5.23641 24.978C5.24161 14.0769 14.1124 5.20817 25.0145 5.20817ZM25.0145 4.1665C13.5395 4.1665 4.19995 13.5019 4.19474 24.978C4.1937 28.4853 5.07912 31.9415 6.75828 35.0009L4.06557 44.8332C3.96766 45.1925 4.06766 45.5759 4.33016 45.8405C4.52807 46.0405 4.79578 46.1498 5.07078 46.1498C5.15932 46.1498 5.24787 46.1384 5.33537 46.1155L15.426 43.4696C18.3718 44.9988 21.6739 45.8061 25.0062 45.8071C36.4895 45.8071 45.8291 36.4707 45.8343 24.9946C45.8364 19.4332 43.6729 14.204 39.7427 10.2707C35.8104 6.3363 30.5802 4.16859 25.0145 4.1665Z" fill="#CFD8DC"/>
<path fill-rule="evenodd" clip-rule="evenodd" d="M36.6416 13.3666C33.5374 10.2604 29.4114 8.54889 25.0197 8.54785C15.9531 8.54785 8.57912 15.9187 8.57495 24.9791C8.57391 28.0843 9.44266 31.1072 11.0885 33.7249L11.4802 34.3468L9.8187 40.4103L16.0406 38.7791L16.6416 39.1353C19.1645 40.6333 22.0583 41.4249 25.0083 41.426H25.0145C34.075 41.426 41.4489 34.0541 41.452 24.9926C41.4531 20.602 39.7458 16.4729 36.6416 13.3666Z" fill="#40C351"/>
<path fill-rule="evenodd" clip-rule="evenodd" d="M20.0708 16.7133C19.701 15.8904 19.3114 15.8737 18.9583 15.8591C18.6698 15.8466 18.3406 15.8477 18.0114 15.8477C17.6823 15.8477 17.1468 15.9716 16.6937 16.4664C16.2406 16.9612 14.9635 18.156 14.9635 20.5873C14.9635 23.0185 16.7343 25.3685 16.9812 25.6977C17.2281 26.0268 20.4 31.1758 25.4229 33.1571C29.5968 34.8029 30.4468 34.4758 31.3531 34.3935C32.2593 34.3112 34.277 33.1987 34.6885 32.0446C35.1 30.8904 35.1 29.9018 34.977 29.6956C34.8531 29.4893 34.5239 29.3664 34.0302 29.1185C33.5364 28.8706 31.1062 27.6758 30.6531 27.5112C30.2 27.3466 29.8708 27.2643 29.5406 27.7591C29.2114 28.2529 28.2645 29.3664 27.976 29.6956C27.6875 30.0258 27.3989 30.0675 26.9052 29.8196C26.4114 29.5716 24.8198 29.0508 22.9312 27.3675C21.4625 26.0581 20.4708 24.4404 20.1823 23.9456C19.8937 23.4518 20.151 23.1841 20.3989 22.9373C20.6208 22.7154 20.8927 22.3602 21.1406 22.0716C21.3875 21.7831 21.4698 21.5768 21.6343 21.2477C21.7989 20.9175 21.7166 20.6289 21.5927 20.3821C21.4708 20.1341 20.5104 17.6904 20.0708 16.7133Z" fill="white"/>
</svg>
