<svg width="50" height="50" viewBox="0 0 50 50" fill="none" xmlns="http://www.w3.org/2000/svg">
<path d="M45 35.3125C44.5833 37.5 42.8125 39.1667 40.625 39.4792C37.1875 40 31.4583 40.625 25 40.625C18.6458 40.625 12.9166 40 9.37496 39.4792C7.18746 39.1667 5.41663 37.5 4.99996 35.3125C4.58329 32.9167 4.16663 29.375 4.16663 25C4.16663 20.625 4.58329 17.0833 4.99996 14.6875C5.41663 12.5 7.18746 10.8333 9.37496 10.5208C12.8125 10 18.5416 9.375 25 9.375C31.4583 9.375 37.0833 10 40.625 10.5208C42.8125 10.8333 44.5833 12.5 45 14.6875C45.4166 17.0833 45.9375 20.625 45.9375 25C45.8333 29.375 45.4166 32.9167 45 35.3125Z" fill="#FF3D00"/>
<path d="M20.8334 32.2918V17.7085L33.3334 25.0002L20.8334 32.2918Z" fill="white"/>
</svg>
